<?xml version="1.0" encoding="UTF-8"?>
<svg id="Calque_1" data-name="Calque 1" xmlns="http://www.w3.org/2000/svg" xmlns:xlink="http://www.w3.org/1999/xlink" viewBox="0 0 500 500">
  <defs>
    <linearGradient id="Nouvelle_nuance_de_dégradé_2" data-name="Nouvelle nuance de dégradé 2" x1="110.76" y1="282.89" x2="396.75" y2="282.89" gradientUnits="userSpaceOnUse">
      <stop offset="0" stop-color="#00d85d"/>
      <stop offset="1" stop-color="#0ebdb3"/>
    </linearGradient>
    <linearGradient id="Nouvelle_nuance_de_dégradé_2-2" data-name="Nouvelle nuance de dégradé 2" x1="251.25" y1="39.98" x2="256.25" y2="39.98" xlink:href="#Nouvelle_nuance_de_dégradé_2"/>
    <linearGradient id="Nouvelle_nuance_de_dégradé_2-3" data-name="Nouvelle nuance de dégradé 2" x1="391.67" y1="107.76" x2="420.91" y2="107.76" xlink:href="#Nouvelle_nuance_de_dégradé_2"/>
    <linearGradient id="Nouvelle_nuance_de_dégradé_2-4" data-name="Nouvelle nuance de dégradé 2" x1="86.59" y1="107.76" x2="115.83" y2="107.76" xlink:href="#Nouvelle_nuance_de_dégradé_2"/>
    <linearGradient id="Nouvelle_nuance_de_dégradé_2-5" data-name="Nouvelle nuance de dégradé 2" x1="210.76" y1="311.28" x2="296.75" y2="311.28" xlink:href="#Nouvelle_nuance_de_dégradé_2"/>
  </defs>
  <g>
    <path d="M253.7,88.29c-78.82,0-142.94,62.97-142.94,140.38,0,32.42,8.97,59.89,26.67,81.63.03.04.07.08.1.12,5.79,6.26,11.56,11.7,17.13,16.96,18.95,17.87,35.32,33.31,38.69,69.59,0,.02,0,.04.01.06,0,.02,0,.04,0,.06l5.12,36.41s0,0,0,0c0,.06.03.11.04.17.02.1.04.2.07.29.02.05.04.1.06.15.04.1.09.2.14.29,0,.01.01.03.02.04l25.48,41.85c.45.75,1.26,1.2,2.14,1.2h54.59c.87,0,1.68-.46,2.14-1.2l25.48-41.85s.01-.03.02-.05c.05-.09.1-.19.14-.29.02-.05.05-.1.07-.15.03-.09.05-.19.07-.28.01-.06.03-.12.04-.19,0,0,0,0,0,0l5.01-36.41s0-.03,0-.05c0-.02,0-.04.01-.06,3.4-36.34,19.83-51.79,38.85-69.68,5.56-5.23,11.32-10.64,17.1-16.87.03-.03.05-.06.08-.09,18.71-22.09,26.69-46.51,26.69-81.67,0-77.4-64.17-140.38-143.04-140.38ZM279.64,472.5h-51.78l-22.43-36.85h96.65l-22.43,36.85ZM304.34,430.65h-101.19l-4.42-31.41h109.94l-4.32,31.41ZM366.27,307.06c-5.66,6.08-11.34,11.42-16.83,16.58-19.37,18.21-36.14,33.99-40.17,70.59h-111.16c-4-36.54-20.71-52.3-40.01-70.5-5.5-5.19-11.18-10.55-16.84-16.66-16.92-20.83-25.5-47.21-25.5-78.42,0-74.65,61.88-135.38,137.94-135.38s138.04,60.73,138.04,135.38c0,33.85-7.62,57.3-25.47,78.4Z" style="fill: url(#Nouvelle_nuance_de_dégradé_2);"/>
    <path d="M253.75,57.46c1.38,0,2.5-1.12,2.5-2.5v-29.96c0-1.38-1.12-2.5-2.5-2.5s-2.5,1.12-2.5,2.5v29.96c0,1.38,1.12,2.5,2.5,2.5Z" style="fill: url(#Nouvelle_nuance_de_dégradé_2-2);"/>
    <path d="M420.17,93.81c-.98-.97-2.56-.97-3.54,0l-24.24,24.34c-.97.98-.97,2.56,0,3.54.49.49,1.13.73,1.76.73s1.28-.25,1.77-.74l24.24-24.34c.97-.98.97-2.56,0-3.54Z" style="fill: url(#Nouvelle_nuance_de_dégradé_2-3);"/>
    <path d="M113.33,122.43c.64,0,1.28-.24,1.76-.73.98-.97.98-2.56,0-3.54l-24.24-24.34c-.97-.98-2.56-.98-3.54,0-.98.97-.98,2.56,0,3.54l24.24,24.34c.49.49,1.13.74,1.77.74Z" style="fill: url(#Nouvelle_nuance_de_dégradé_2-4);"/>
    <path d="M292.48,232.43l-38.72,38.86-38.72-38.86c-.97-.98-2.56-.98-3.54,0-.98.97-.98,2.56,0,3.54l39.76,39.91v112.49c0,1.38,1.12,2.5,2.5,2.5s2.5-1.12,2.5-2.5v-112.49l39.76-39.91c.97-.98.97-2.56,0-3.54-.98-.97-2.56-.97-3.54,0Z" style="fill: url(#Nouvelle_nuance_de_dégradé_2-5);"/>
  </g>
  <g>
    <path d="M296.52,435.65h-105.54c-1.25,0-2.3-.92-2.48-2.15l-5.12-36.41c-.19-1.37.76-2.63,2.13-2.82,1.38-.19,2.63.76,2.82,2.13l4.82,34.26h101.19l4.71-34.25c.19-1.37,1.45-2.32,2.82-2.14,1.37.19,2.32,1.45,2.14,2.82l-5.01,36.41c-.17,1.24-1.23,2.16-2.48,2.16Z" style="fill: #fff;"/>
    <path d="M271.05,477.5h-54.59c-.87,0-1.68-.46-2.14-1.2l-25.47-41.85c-.72-1.18-.34-2.72.84-3.44,1.18-.72,2.72-.34,3.44.84l24.74,40.65h51.78l24.75-40.65c.72-1.18,2.26-1.55,3.44-.84,1.18.72,1.55,2.26.84,3.44l-25.48,41.85c-.45.75-1.26,1.2-2.14,1.2Z" style="fill: #fff;"/>
    <path d="M301.53,399.24h-115.68c-1.29,0-2.37-.98-2.49-2.27-3.37-36.28-19.74-51.72-38.69-69.59-5.58-5.26-11.34-10.7-17.13-16.96-.04-.04-.07-.08-.1-.12-17.7-21.75-26.67-49.22-26.67-81.63,0-77.4,64.12-140.38,142.94-140.38s143.04,62.97,143.04,140.38c0,35.16-7.98,59.59-26.69,81.67-.02.03-.05.06-.08.09-5.79,6.22-11.54,11.63-17.1,16.87-19.02,17.89-35.45,33.34-38.85,69.68-.12,1.29-1.2,2.27-2.49,2.27ZM188.11,394.24h111.16c4.03-36.6,20.8-52.38,40.17-70.59,5.49-5.16,11.17-10.5,16.83-16.58,17.85-21.09,25.47-44.54,25.47-78.4,0-74.65-61.93-135.38-138.04-135.38s-137.94,60.73-137.94,135.38c0,31.21,8.58,57.59,25.5,78.42,5.66,6.11,11.34,11.47,16.84,16.66,19.29,18.2,36.01,33.96,40.01,70.5ZM358.14,308.72h0,0Z" style="fill: #fff;"/>
    <path d="M243.75,57.46c-1.38,0-2.5-1.12-2.5-2.5v-29.96c0-1.38,1.12-2.5,2.5-2.5s2.5,1.12,2.5,2.5v29.96c0,1.38-1.12,2.5-2.5,2.5Z" style="fill: #fff;"/>
    <g>
      <path d="M384.17,122.43c-.64,0-1.28-.24-1.76-.73-.98-.97-.98-2.56,0-3.54l24.24-24.34c.97-.98,2.56-.98,3.54,0,.98.97.98,2.56,0,3.54l-24.24,24.34c-.49.49-1.13.74-1.77.74Z" style="fill: #fff;"/>
      <path d="M103.33,122.43c-.64,0-1.28-.25-1.77-.74l-24.24-24.34c-.97-.98-.97-2.56,0-3.54.98-.97,2.56-.97,3.54,0l24.24,24.34c.97.98.97,2.56,0,3.54-.49.49-1.13.73-1.76.73Z" style="fill: #fff;"/>
    </g>
    <path d="M243.75,390.86c-1.38,0-2.5-1.12-2.5-2.5v-113.84c0-1.38,1.12-2.5,2.5-2.5s2.5,1.12,2.5,2.5v113.84c0,1.38-1.12,2.5-2.5,2.5Z" style="fill: #fff;"/>
    <g>
      <path d="M244.07,277.02c-.64,0-1.28-.24-1.76-.73-.98-.97-.98-2.56,0-3.54l40.18-40.32c.97-.98,2.56-.98,3.54,0,.98.97.98,2.56,0,3.54l-40.18,40.32c-.49.49-1.13.74-1.77.74Z" style="fill: #fff;"/>
      <path d="M243.44,277.02c-.64,0-1.28-.25-1.77-.74l-40.18-40.32c-.97-.98-.97-2.56,0-3.54.98-.97,2.56-.97,3.54,0l40.18,40.32c.97.98.97,2.56,0,3.54-.49.49-1.13.73-1.76.73Z" style="fill: #fff;"/>
    </g>
  </g>
</svg>