<?xml version="1.0" encoding="UTF-8"?>
<svg id="Calque_1" data-name="Calque 1" xmlns="http://www.w3.org/2000/svg" xmlns:xlink="http://www.w3.org/1999/xlink" viewBox="0 0 500 500">
  <defs>
    <linearGradient id="Nouvelle_nuance_de_dégradé_2" data-name="Nouvelle nuance de dégradé 2" x1="52.88" y1="250" x2="457.12" y2="250" gradientUnits="userSpaceOnUse">
      <stop offset="0" stop-color="#00d85d"/>
      <stop offset="1" stop-color="#0ebdb3"/>
    </linearGradient>
    <linearGradient id="Nouvelle_nuance_de_dégradé_2-2" data-name="Nouvelle nuance de dégradé 2" x1="445.56" y1="321.87" x2="477.96" y2="321.87" xlink:href="#Nouvelle_nuance_de_dégradé_2"/>
    <linearGradient id="Nouvelle_nuance_de_dégradé_2-3" data-name="Nouvelle nuance de dégradé 2" x1="421.8" y1="222.77" x2="450.74" y2="222.77" xlink:href="#Nouvelle_nuance_de_dégradé_2"/>
    <linearGradient id="Nouvelle_nuance_de_dégradé_2-4" data-name="Nouvelle nuance de dégradé 2" x1="355.12" y1="149.69" x2="374.17" y2="149.69" xlink:href="#Nouvelle_nuance_de_dégradé_2"/>
    <linearGradient id="Nouvelle_nuance_de_dégradé_2-5" data-name="Nouvelle nuance de dégradé 2" x1="32.04" y1="321.87" x2="64.44" y2="321.87" xlink:href="#Nouvelle_nuance_de_dégradé_2"/>
    <linearGradient id="Nouvelle_nuance_de_dégradé_2-6" data-name="Nouvelle nuance de dégradé 2" x1="59.26" y1="222.77" x2="88.2" y2="222.77" xlink:href="#Nouvelle_nuance_de_dégradé_2"/>
    <linearGradient id="Nouvelle_nuance_de_dégradé_2-7" data-name="Nouvelle nuance de dégradé 2" x1="135.83" y1="149.69" x2="154.88" y2="149.69" xlink:href="#Nouvelle_nuance_de_dégradé_2"/>
    <linearGradient id="Nouvelle_nuance_de_dégradé_2-8" data-name="Nouvelle nuance de dégradé 2" x1="243.89" y1="366.6" x2="266.11" y2="366.6" xlink:href="#Nouvelle_nuance_de_dégradé_2"/>
    <linearGradient id="Nouvelle_nuance_de_dégradé_2-9" data-name="Nouvelle nuance de dégradé 2" x1="237.28" y1="253.01" x2="272.71" y2="253.01" xlink:href="#Nouvelle_nuance_de_dégradé_2"/>
  </defs>
  <g>
    <path d="M436.92,427.71H73.08c-7.29,0-13.82-3.77-17.46-10.08-3.65-6.31-3.65-13.85,0-20.17L237.54,82.37c3.65-6.31,10.17-10.08,17.46-10.08,0,0,0,0,0,0,7.29,0,13.82,3.77,17.46,10.08l181.92,315.09c3.65,6.31,3.65,13.85,0,20.17-3.65,6.31-10.17,10.08-17.46,10.08ZM239.7,83.62l2.17,1.25L59.95,399.96c-2.74,4.75-2.74,10.42,0,15.17,2.74,4.75,7.65,7.58,13.13,7.58h363.84c5.48,0,10.39-2.83,13.13-7.58,2.74-4.75,2.74-10.42,0-15.17L268.13,84.87c-2.74-4.75-7.65-7.58-13.13-7.58s-10.39,2.83-13.13,7.58l-2.17-1.25Z" style="fill: url(#Nouvelle_nuance_de_dégradé_2);"/>
    <g>
      <path d="M475.46,324.57h-.04l-27.4-.41c-1.38-.02-2.48-1.16-2.46-2.54.02-1.37,1.14-2.46,2.5-2.46h.04l27.4.41c1.38.02,2.48,1.16,2.46,2.54-.02,1.37-1.14,2.46-2.5,2.46Z" style="fill: url(#Nouvelle_nuance_de_dégradé_2-2);"/>
      <path d="M424.31,231.94c-.88,0-1.73-.46-2.19-1.28-.67-1.21-.24-2.73.97-3.4l23.93-13.35c1.21-.67,2.73-.24,3.4.97.67,1.21.24,2.73-.97,3.4l-23.93,13.35c-.39.21-.8.32-1.22.32Z" style="fill: url(#Nouvelle_nuance_de_dégradé_2-3);"/>
      <path d="M357.62,163.95c-.44,0-.88-.11-1.28-.35-1.19-.71-1.57-2.24-.86-3.43l14.05-23.52c.71-1.18,2.24-1.57,3.43-.86,1.19.71,1.57,2.24.86,3.43l-14.05,23.52c-.47.78-1.3,1.22-2.15,1.22Z" style="fill: url(#Nouvelle_nuance_de_dégradé_2-4);"/>
    </g>
    <g>
      <path d="M34.54,324.57c-1.36,0-2.48-1.09-2.5-2.46-.02-1.38,1.08-2.52,2.46-2.54l27.4-.41c1.36.02,2.52,1.08,2.54,2.46.02,1.38-1.08,2.52-2.46,2.54l-27.4.41h-.04Z" style="fill: url(#Nouvelle_nuance_de_dégradé_2-5);"/>
      <path d="M85.69,231.94c-.41,0-.83-.1-1.22-.32l-23.93-13.35c-1.21-.67-1.64-2.2-.97-3.4.67-1.21,2.2-1.64,3.4-.97l23.93,13.35c1.21.67,1.64,2.2.97,3.4-.46.82-1.31,1.28-2.19,1.28Z" style="fill: url(#Nouvelle_nuance_de_dégradé_2-6);"/>
      <path d="M152.38,163.95c-.85,0-1.68-.43-2.15-1.22l-14.05-23.52c-.71-1.19-.32-2.72.86-3.43,1.19-.71,2.72-.32,3.43.86l14.05,23.52c.71,1.19.32,2.72-.86,3.43-.4.24-.84.35-1.28.35Z" style="fill: url(#Nouvelle_nuance_de_dégradé_2-7);"/>
    </g>
    <path d="M255,377.71c-6.13,0-11.11-4.98-11.11-11.11s4.98-11.11,11.11-11.11,11.11,4.98,11.11,11.11-4.98,11.11-11.11,11.11ZM255,360.49c-3.37,0-6.11,2.74-6.11,6.11s2.74,6.11,6.11,6.11,6.11-2.74,6.11-6.11-2.74-6.11-6.11-6.11Z" style="fill: url(#Nouvelle_nuance_de_dégradé_2-8);"/>
    <path d="M255,330.33c-3.65,0-6.47-2.53-6.86-6.16l-10.75-128.92c-.54-4.93,1.08-9.94,4.43-13.68,3.36-3.74,8.16-5.88,13.19-5.88s9.83,2.14,13.19,5.88c3.36,3.74,4.97,8.75,4.43,13.74l-10.74,128.79s0,.04,0,.06c-.39,3.62-3.22,6.16-6.86,6.16ZM255,180.69c-3.61,0-7.06,1.54-9.46,4.22-2.41,2.68-3.57,6.28-3.18,9.86l10.75,128.92c.17,1.51,1.49,1.63,1.89,1.63s1.71-.12,1.89-1.67l10.74-128.82c.4-3.65-.76-7.24-3.17-9.93s-5.86-4.22-9.46-4.22ZM259.38,323.9h0,0Z" style="fill: url(#Nouvelle_nuance_de_dégradé_2-9);"/>
  </g>
  <g>
    <path d="M426.92,427.71H63.08c-7.29,0-13.82-3.77-17.46-10.08-3.65-6.31-3.65-13.85,0-20.17L227.54,82.37c3.65-6.31,10.17-10.08,17.46-10.08s13.82,3.77,17.46,10.08l181.92,315.09c3.65,6.31,3.65,13.85,0,20.17-3.65,6.31-10.17,10.08-17.46,10.08ZM245,77.29c-5.48,0-10.39,2.83-13.13,7.58h0L49.95,399.96c-2.74,4.75-2.74,10.42,0,15.17,2.74,4.75,7.65,7.58,13.13,7.58h363.84c5.48,0,10.39-2.83,13.13-7.58,2.74-4.75,2.74-10.42,0-15.17L258.13,84.87c-2.74-4.75-7.65-7.58-13.13-7.58ZM229.7,83.62h0,0Z" style="fill: #fff;"/>
    <g>
      <path d="M465.46,324.57h-.04l-27.4-.41c-1.38-.02-2.48-1.16-2.46-2.54.02-1.37,1.14-2.46,2.5-2.46h.04l27.4.41c1.38.02,2.48,1.16,2.46,2.54-.02,1.37-1.14,2.46-2.5,2.46Z" style="fill: #fff;"/>
      <path d="M414.31,231.94c-.88,0-1.73-.46-2.19-1.28-.67-1.21-.24-2.73.97-3.4l23.93-13.35c1.21-.67,2.73-.24,3.4.97.67,1.21.24,2.73-.97,3.4l-23.93,13.35c-.39.21-.8.32-1.22.32Z" style="fill: #fff;"/>
      <path d="M347.62,163.95c-.44,0-.88-.11-1.28-.35-1.19-.71-1.57-2.24-.86-3.43l14.05-23.52c.71-1.18,2.24-1.57,3.43-.86,1.19.71,1.57,2.24.86,3.43l-14.05,23.52c-.47.78-1.3,1.22-2.15,1.22Z" style="fill: #fff;"/>
    </g>
    <g>
      <path d="M24.54,324.57c-1.36,0-2.48-1.09-2.5-2.46-.02-1.38,1.08-2.52,2.46-2.54l27.4-.41c1.36.02,2.52,1.08,2.54,2.46.02,1.38-1.08,2.52-2.46,2.54l-27.4.41h-.04Z" style="fill: #fff;"/>
      <path d="M75.69,231.94c-.41,0-.83-.1-1.22-.32l-23.93-13.35c-1.21-.67-1.64-2.2-.97-3.4.67-1.21,2.2-1.64,3.4-.97l23.93,13.35c1.21.67,1.64,2.2.97,3.4-.46.82-1.31,1.28-2.19,1.28Z" style="fill: #fff;"/>
      <path d="M142.38,163.95c-.85,0-1.68-.43-2.15-1.22l-14.05-23.52c-.71-1.19-.32-2.72.86-3.43,1.19-.71,2.72-.32,3.43.86l14.05,23.52c.71,1.19.32,2.72-.86,3.43-.4.24-.84.35-1.28.35Z" style="fill: #fff;"/>
    </g>
    <path d="M245,377.71c-6.13,0-11.11-4.98-11.11-11.11s4.98-11.11,11.11-11.11,11.11,4.98,11.11,11.11-4.98,11.11-11.11,11.11ZM245,360.49c-3.37,0-6.11,2.74-6.11,6.11s2.74,6.11,6.11,6.11,6.11-2.74,6.11-6.11-2.74-6.11-6.11-6.11Z" style="fill: #fff;"/>
    <path d="M245,330.33c-3.65,0-6.47-2.53-6.86-6.16l-10.75-128.92c-.54-4.93,1.08-9.94,4.43-13.68,3.35-3.74,8.16-5.88,13.19-5.88s9.83,2.14,13.19,5.88c3.35,3.74,4.97,8.75,4.42,13.74l-10.74,128.79s0,.04,0,.06c-.39,3.62-3.22,6.16-6.86,6.16ZM245,180.69c-3.61,0-7.06,1.54-9.46,4.22s-3.57,6.28-3.18,9.86l10.75,128.92c.17,1.51,1.49,1.63,1.89,1.63s1.71-.12,1.89-1.67l10.74-128.82c.4-3.65-.76-7.24-3.17-9.93-2.41-2.68-5.86-4.22-9.46-4.22ZM249.38,323.9h0,0Z" style="fill: #fff;"/>
  </g>
</svg>