<?xml version="1.0" encoding="UTF-8"?>
<svg id="Calque_1" data-name="Calque 1" xmlns="http://www.w3.org/2000/svg" xmlns:xlink="http://www.w3.org/1999/xlink" viewBox="0 0 500 500">
  <defs>
    <linearGradient id="Nouvelle_nuance_de_dégradé_2" data-name="Nouvelle nuance de dégradé 2" x1="119.36" y1="267.75" x2="390.64" y2="267.75" gradientUnits="userSpaceOnUse">
      <stop offset="0" stop-color="#00d85d"/>
      <stop offset="1" stop-color="#0ebdb3"/>
    </linearGradient>
    <linearGradient id="Nouvelle_nuance_de_dégradé_2-2" data-name="Nouvelle nuance de dégradé 2" y1="100.41" y2="100.41" xlink:href="#Nouvelle_nuance_de_dégradé_2"/>
    <linearGradient id="Nouvelle_nuance_de_dégradé_2-3" data-name="Nouvelle nuance de dégradé 2" x1="176.63" y1="247.75" x2="333.37" y2="247.75" xlink:href="#Nouvelle_nuance_de_dégradé_2"/>
  </defs>
  <g>
    <path d="M378.71,419.84c-1.82,0-3.64-.41-5.32-1.23l-111.72-54.44c-4.24-2.06-9.1-2.06-13.33,0l-111.72,54.44c-3.61,1.76-7.87,1.62-11.37-.38-3.4-1.93-5.52-5.24-5.84-9.06-.03-.33-.04-.68-.04-1.02V115.66h271.29v292.49c0,.34-.01.68-.04,1.02-.31,3.83-2.44,7.13-5.84,9.07-1.88,1.07-3.97,1.61-6.06,1.61ZM255,357.62c3.02,0,6.04.68,8.86,2.06l111.72,54.44c2.13,1.04,4.64.95,6.71-.23,1.94-1.1,3.15-2.97,3.33-5.12.02-.2.02-.41.02-.61V120.66H124.36v287.49c0,.21,0,.41.02.61.18,2.16,1.39,4.02,3.33,5.13,2.07,1.18,4.58,1.27,6.71.23l111.72-54.44c2.81-1.37,5.84-2.06,8.86-2.06Z" style="fill: url(#Nouvelle_nuance_de_dégradé_2);"/>
    <path d="M390.64,120.66H119.36v-28c0-6.89,5.61-12.5,12.5-12.5h246.29c6.89,0,12.5,5.61,12.5,12.5v28ZM124.36,115.66h261.29v-23c0-4.14-3.36-7.5-7.5-7.5h-246.29c-4.14,0-7.5,3.36-7.5,7.5v23Z" style="fill: url(#Nouvelle_nuance_de_dégradé_2-2);"/>
    <path d="M300.69,322.5c-.92,0-1.83-.28-2.61-.85l-43.08-31.3-43.07,31.3c-1.56,1.14-3.66,1.14-5.23,0-1.56-1.14-2.21-3.13-1.61-4.97l16.45-50.64-43.08-31.3c-1.56-1.13-2.21-3.13-1.61-4.97s2.29-3.07,4.23-3.07h53.24l16.45-50.64c.6-1.84,2.3-3.07,4.23-3.07s3.63,1.23,4.23,3.07l16.45,50.64h53.24c1.93,0,3.63,1.23,4.23,3.07s-.05,3.83-1.62,4.97l-43.08,31.3,16.45,50.64c.6,1.84-.05,3.83-1.61,4.97-.78.57-1.7.85-2.61.85ZM255,284.17l44.63,32.43-17.05-52.47,44.63-32.43h-55.17l-17.05-52.47-17.05,52.47h-55.17l44.63,32.43-17.05,52.47,44.63-32.43ZM254.47,177.61s0,0,0,0h0Z" style="fill: url(#Nouvelle_nuance_de_dégradé_2-3);"/>
  </g>
  <g>
    <path d="M121.29,419.84c-2.09,0-4.18-.54-6.06-1.61-3.4-1.94-5.52-5.24-5.84-9.06-.03-.34-.04-.68-.04-1.02V115.66h271.29v292.49c0,.35-.01.69-.04,1.03-.31,3.82-2.44,7.12-5.84,9.06-3.51,2-7.76,2.14-11.37.38l-111.72-54.44c-4.24-2.06-9.1-2.06-13.33,0l-111.72,54.44c-1.68.82-3.5,1.23-5.32,1.23ZM114.36,120.66v287.49c0,.21,0,.42.03.62.18,2.15,1.39,4.01,3.33,5.12,2.07,1.18,4.58,1.27,6.71.23l111.72-54.44c5.63-2.74,12.08-2.74,17.71,0l111.72,54.44c2.13,1.04,4.63.95,6.71-.23,1.94-1.1,3.15-2.97,3.33-5.12.02-.2.02-.41.02-.61V120.66H114.36Z" style="fill: #fff;"/>
    <path d="M380.64,120.66H109.36v-28c0-6.89,5.61-12.5,12.5-12.5h246.29c6.89,0,12.5,5.61,12.5,12.5v28ZM114.36,115.66h261.29v-23c0-4.14-3.36-7.5-7.5-7.5H121.86c-4.14,0-7.5,3.36-7.5,7.5v23Z" style="fill: #fff;"/>
    <path d="M290.69,322.5c-.92,0-1.83-.28-2.61-.85l-43.08-31.3-43.08,31.3c-1.56,1.14-3.66,1.13-5.23,0-1.56-1.13-2.21-3.13-1.61-4.97l16.45-50.64-43.08-31.3c-1.56-1.13-2.21-3.13-1.61-4.97s2.3-3.07,4.23-3.07h53.24l16.45-50.64c.6-1.84,2.3-3.07,4.23-3.07s3.63,1.23,4.23,3.07l16.45,50.64h53.24c1.93,0,3.63,1.23,4.23,3.07s-.05,3.83-1.62,4.97l-43.08,31.3,16.45,50.64c.6,1.84-.05,3.83-1.61,4.97-.78.57-1.7.85-2.61.85ZM172.79,231.7l44.63,32.43-17.05,52.47,44.63-32.43,44.63,32.43-17.05-52.47,44.63-32.43h-55.17l-17.05-52.47-17.05,52.47h-55.17ZM244.47,177.61s0,0,0,0h0Z" style="fill: #fff;"/>
  </g>
</svg>