<?xml version="1.0" encoding="UTF-8"?>
<svg id="Calque_1" data-name="Calque 1" xmlns="http://www.w3.org/2000/svg" xmlns:xlink="http://www.w3.org/1999/xlink" viewBox="0 0 500 500">
  <defs>
    <linearGradient id="Nouvelle_nuance_de_dégradé_2" data-name="Nouvelle nuance de dégradé 2" x1="46.62" y1="238.43" x2="463.38" y2="238.43" gradientUnits="userSpaceOnUse">
      <stop offset="0" stop-color="#00d85d"/>
      <stop offset="1" stop-color="#0ebdb3"/>
    </linearGradient>
    <linearGradient id="Nouvelle_nuance_de_dégradé_2-2" data-name="Nouvelle nuance de dégradé 2" x1="358.52" y1="89.8" x2="463.37" y2="89.8" xlink:href="#Nouvelle_nuance_de_dégradé_2"/>
    <linearGradient id="Nouvelle_nuance_de_dégradé_2-3" data-name="Nouvelle nuance de dégradé 2" x1="252.5" y1="438.69" x2="257.5" y2="438.69" xlink:href="#Nouvelle_nuance_de_dégradé_2"/>
    <linearGradient id="Nouvelle_nuance_de_dégradé_2-4" data-name="Nouvelle nuance de dégradé 2" x1="410.55" y1="313.18" x2="451.43" y2="313.18" xlink:href="#Nouvelle_nuance_de_dégradé_2"/>
    <linearGradient id="Nouvelle_nuance_de_dégradé_2-5" data-name="Nouvelle nuance de dégradé 2" x1="55.32" y1="313.18" x2="96.2" y2="313.18" xlink:href="#Nouvelle_nuance_de_dégradé_2"/>
    <linearGradient id="Nouvelle_nuance_de_dégradé_2-6" data-name="Nouvelle nuance de dégradé 2" x1="117.15" y1="105.16" x2="146.69" y2="105.16" xlink:href="#Nouvelle_nuance_de_dégradé_2"/>
  </defs>
  <g>
    <g>
      <path d="M377.12,437.13c-2.28,0-4.55-.75-6.52-2.26l-82.48-62.95c-19.5-14.88-46.73-14.88-66.23,0l-82.48,62.95c-3.87,2.95-8.91,3.01-12.85.15-3.94-2.86-5.44-7.67-3.83-12.26l34.38-97.9c8.13-23.14-.29-49.04-20.46-62.98l-85.36-58.99c-4-2.77-5.62-7.54-4.11-12.17,1.47-4.54,5.46-7.43,10.21-7.43.09,0,.18,0,.28,0l103.73,2.45c.43,0,.86.01,1.29.01,24,0,45.39-15.85,52.29-38.94l29.73-99.41c1.39-4.66,5.44-7.67,10.3-7.67s8.91,3.01,10.3,7.67l29.73,99.41c6.9,23.09,28.29,38.94,52.29,38.94.43,0,.86,0,1.29-.01l103.73-2.45.06,2.5-.06-2.5c.09,0,.18,0,.28,0,4.74,0,8.73,2.89,10.21,7.43,1.5,4.63-.11,9.4-4.11,12.17l-85.36,58.99c-20.18,13.94-28.59,39.84-20.46,62.98l34.38,97.9c1.61,4.59.11,9.4-3.83,12.26-1.93,1.4-4.13,2.1-6.33,2.1ZM255,355.77c12.75,0,25.5,4.06,36.15,12.18l82.48,62.95c2.51,1.92,5.2,1.3,6.88.08,1.68-1.22,3.09-3.58,2.05-6.56l-34.38-97.9c-8.87-25.26.32-53.53,22.34-68.75l85.36-58.99c2.6-1.8,2.84-4.54,2.2-6.51-.64-1.97-2.43-4.05-5.61-3.98l-103.73,2.45c-26.76.66-50.82-16.84-58.49-42.49l-29.73-99.41c-.91-3.03-3.44-4.11-5.51-4.11s-4.61,1.08-5.51,4.11l-29.73,99.41c-7.67,25.65-31.74,43.14-58.49,42.49l-103.73-2.45c-3.15-.06-4.97,2-5.61,3.98-.64,1.97-.4,4.72,2.2,6.51l85.36,58.99c22.02,15.22,31.21,43.49,22.34,68.75l-34.38,97.9c-1.05,2.98.37,5.34,2.05,6.56,1.68,1.22,4.36,1.84,6.88-.08l82.48-62.95c10.64-8.12,23.39-12.18,36.15-12.18Z" style="fill: url(#Nouvelle_nuance_de_dégradé_2);"/>
      <path d="M440.56,139.87c-.96,0-1.92-.31-2.73-.93l-20-15.27c-4.05-3.09-9.71-3.09-13.76,0l-20,15.27c-1.59,1.21-3.75,1.24-5.38.06-1.62-1.18-2.27-3.24-1.6-5.13l8.34-23.74c1.69-4.81-.06-10.19-4.25-13.09l-20.7-14.31h0c-1.65-1.14-2.34-3.19-1.72-5.09.62-1.91,2.41-3.15,4.39-3.11l25.15.59c5.14.09,9.67-3.21,11.13-8.09l7.21-24.11c.57-1.92,2.31-3.21,4.31-3.21h0c2,0,3.74,1.29,4.31,3.21l7.21,24.11c1.43,4.8,5.88,8.09,10.87,8.09.09,0,.18,0,.27,0l25.16-.59c2-.05,3.77,1.2,4.39,3.11.62,1.91-.07,3.95-1.72,5.09l-20.7,14.31c-4.19,2.9-5.94,8.28-4.25,13.09l8.34,23.74c.67,1.89.02,3.95-1.6,5.13-.8.58-1.72.87-2.65.87ZM364.68,79.57l19.33,13.36c6.04,4.17,8.56,11.93,6.13,18.86l-7.79,22.17,18.68-14.25c5.84-4.46,13.99-4.46,19.83,0l18.68,14.25-7.78-22.17c-2.43-6.93.08-14.68,6.13-18.86l19.33-13.36-23.49.55c-.13,0-.26,0-.39,0-7.18,0-13.59-4.75-15.66-11.66l-6.73-22.51-6.73,22.51c-2.1,7.04-8.69,11.82-16.04,11.66l-23.49-.55ZM363.31,78.62h0,0Z" style="fill: url(#Nouvelle_nuance_de_dégradé_2-2);"/>
    </g>
    <path d="M255,460.28c-1.38,0-2.5-1.12-2.5-2.5v-38.18c0-1.38,1.12-2.5,2.5-2.5s2.5,1.12,2.5,2.5v38.18c0,1.38-1.12,2.5-2.5,2.5Z" style="fill: url(#Nouvelle_nuance_de_dégradé_2-3);"/>
    <path d="M448.93,322.21c-.28,0-.57-.05-.86-.15l-35.88-13.06c-1.3-.47-1.97-1.91-1.49-3.21.47-1.3,1.91-1.97,3.21-1.49l35.88,13.06c1.3.47,1.97,1.91,1.49,3.21-.37,1.01-1.33,1.65-2.35,1.65Z" style="fill: url(#Nouvelle_nuance_de_dégradé_2-4);"/>
    <path d="M57.82,322.21c-1.02,0-1.98-.63-2.35-1.65-.47-1.3.2-2.73,1.49-3.21l35.88-13.06c1.3-.47,2.73.2,3.21,1.49.47,1.3-.2,2.73-1.49,3.21l-35.88,13.06c-.28.1-.57.15-.86.15Z" style="fill: url(#Nouvelle_nuance_de_dégradé_2-5);"/>
    <path d="M144.19,122.29c-.71,0-1.42-.3-1.92-.89l-24.54-29.25c-.89-1.06-.75-2.63.31-3.52,1.06-.89,2.64-.75,3.52.31l24.54,29.25c.89,1.06.75,2.63-.31,3.52-.47.39-1.04.58-1.61.58Z" style="fill: url(#Nouvelle_nuance_de_dégradé_2-6);"/>
  </g>
  <g>
    <g>
      <path d="M122.88,437.13c-2.2,0-4.39-.7-6.33-2.1-3.94-2.86-5.44-7.67-3.83-12.26l34.38-97.9c8.13-23.14-.29-49.04-20.46-62.98l-85.36-58.99c-4-2.77-5.62-7.54-4.11-12.17,1.5-4.63,5.65-7.56,10.48-7.43l103.73,2.45c.43,0,.86.01,1.29.01,24,0,45.39-15.85,52.29-38.94l29.73-99.41c1.39-4.66,5.44-7.67,10.3-7.67s8.91,3.01,10.3,7.67l29.73,99.41c6.9,23.09,28.29,38.94,52.29,38.94.43,0,.86,0,1.29-.01l103.73-2.45.06,2.5-.06-2.5c.09,0,.18,0,.28,0,4.74,0,8.73,2.89,10.21,7.43,1.5,4.63-.11,9.4-4.11,12.17l-85.36,58.99c-20.18,13.94-28.59,39.84-20.46,62.98l34.38,97.9c1.61,4.59.11,9.4-3.83,12.26-3.94,2.86-8.98,2.8-12.85-.15l-82.48-62.95c-19.5-14.88-46.73-14.88-66.23,0l-82.48,62.95c-1.97,1.5-4.24,2.26-6.52,2.26ZM47.37,188.28c-3.06,0-4.82,2.04-5.44,3.98-.64,1.97-.4,4.72,2.2,6.51l85.36,58.99c22.03,15.22,31.21,43.49,22.34,68.75l-34.38,97.9c-1.05,2.98.37,5.34,2.05,6.56s4.36,1.84,6.88-.08l82.48-62.95c21.28-16.24,51.01-16.24,72.29,0l82.48,62.95c2.51,1.92,5.2,1.3,6.88.08,1.68-1.22,3.09-3.58,2.05-6.56l-34.38-97.9c-8.87-25.26.31-53.53,22.34-68.75l85.36-58.99c2.6-1.8,2.84-4.54,2.2-6.51-.64-1.97-2.42-4.04-5.61-3.98l-103.73,2.45c-26.78.66-50.82-16.84-58.49-42.49l-29.73-99.41c-.91-3.03-3.44-4.11-5.51-4.11s-4.61,1.08-5.51,4.11l-29.73,99.41c-7.67,25.65-31.7,43.15-58.49,42.49l-103.73-2.45c-.06,0-.11,0-.17,0Z" style="fill: #fff;"/>
      <path d="M371.33,139.87c-.92,0-1.85-.29-2.65-.87-1.62-1.18-2.27-3.24-1.6-5.13l8.34-23.74c1.69-4.81-.06-10.19-4.25-13.09l-20.7-14.31c-1.65-1.14-2.34-3.19-1.72-5.09.62-1.91,2.38-3.15,4.39-3.11l25.16.59c5.12.12,9.67-3.21,11.13-8.09l7.21-24.11c.57-1.92,2.31-3.21,4.31-3.21s3.74,1.29,4.31,3.21l7.21,24.11c1.46,4.88,6.05,8.17,11.13,8.09l25.16-.59c1.97-.04,3.77,1.2,4.39,3.11.62,1.91-.07,3.96-1.72,5.09l-20.7,14.31c-4.19,2.9-5.94,8.28-4.25,13.09l8.34,23.74c.67,1.89.02,3.96-1.6,5.13-1.62,1.18-3.78,1.15-5.38-.06l-20-15.27c-4.05-3.09-9.71-3.09-13.76,0l-20,15.27c-.81.62-1.77.93-2.73.93ZM400.95,116.36c3.5,0,7,1.11,9.91,3.34l18.68,14.25-7.79-22.17c-2.43-6.93.09-14.68,6.13-18.86l19.33-13.36-23.49.55c-7.33.15-13.94-4.62-16.04-11.66l-6.73-22.51-6.73,22.51c-2.1,7.04-8.65,11.84-16.04,11.66l-23.49-.55,19.33,13.36c6.04,4.17,8.56,11.93,6.13,18.86l-7.78,22.17,18.68-14.25c2.92-2.23,6.42-3.34,9.91-3.34ZM353.31,78.62h0Z" style="fill: #fff;"/>
    </g>
    <path d="M245,460.28c-1.38,0-2.5-1.12-2.5-2.5v-38.18c0-1.38,1.12-2.5,2.5-2.5s2.5,1.12,2.5,2.5v38.18c0,1.38-1.12,2.5-2.5,2.5Z" style="fill: #fff;"/>
    <path d="M438.93,322.21c-.28,0-.57-.05-.86-.15l-35.88-13.06c-1.3-.47-1.97-1.91-1.49-3.21.47-1.3,1.91-1.96,3.21-1.49l35.88,13.06c1.3.47,1.97,1.91,1.49,3.21-.37,1.01-1.33,1.65-2.35,1.65Z" style="fill: #fff;"/>
    <path d="M47.82,322.21c-1.02,0-1.98-.63-2.35-1.65-.47-1.3.2-2.73,1.49-3.21l35.88-13.06c1.3-.47,2.73.2,3.21,1.49.47,1.3-.2,2.73-1.49,3.21l-35.88,13.06c-.28.1-.57.15-.86.15Z" style="fill: #fff;"/>
    <path d="M134.19,122.29c-.71,0-1.42-.3-1.92-.89l-24.54-29.25c-.89-1.06-.75-2.63.31-3.52,1.06-.89,2.63-.75,3.52.31l24.54,29.25c.89,1.06.75,2.63-.31,3.52-.47.39-1.04.58-1.61.58Z" style="fill: #fff;"/>
  </g>
</svg>