<?xml version="1.0" encoding="UTF-8"?>
<svg id="Calque_1" data-name="Calque 1" xmlns="http://www.w3.org/2000/svg" xmlns:xlink="http://www.w3.org/1999/xlink" viewBox="0 0 500 500">
  <defs>
    <linearGradient id="Nouvelle_nuance_de_dégradé_2" data-name="Nouvelle nuance de dégradé 2" x1="154.15" y1="58.2" x2="167.23" y2="58.2" gradientUnits="userSpaceOnUse">
      <stop offset="0" stop-color="#00d85d"/>
      <stop offset="1" stop-color="#0ebdb3"/>
    </linearGradient>
    <linearGradient id="Nouvelle_nuance_de_dégradé_2-2" data-name="Nouvelle nuance de dégradé 2" x1="121.14" y1="74.22" x2="146.23" y2="74.22" xlink:href="#Nouvelle_nuance_de_dégradé_2"/>
    <linearGradient id="Nouvelle_nuance_de_dégradé_2-3" data-name="Nouvelle nuance de dégradé 2" x1="102.45" y1="101.59" x2="134.16" y2="101.59" xlink:href="#Nouvelle_nuance_de_dégradé_2"/>
    <linearGradient id="Nouvelle_nuance_de_dégradé_2-4" data-name="Nouvelle nuance de dégradé 2" x1="404.69" y1="317.79" x2="435.87" y2="317.79" xlink:href="#Nouvelle_nuance_de_dégradé_2"/>
    <linearGradient id="Nouvelle_nuance_de_dégradé_2-5" data-name="Nouvelle nuance de dégradé 2" x1="392.45" y1="344.79" x2="416.08" y2="344.79" xlink:href="#Nouvelle_nuance_de_dégradé_2"/>
    <linearGradient id="Nouvelle_nuance_de_dégradé_2-6" data-name="Nouvelle nuance de dégradé 2" x1="371.35" y1="360.18" x2="382.44" y2="360.18" xlink:href="#Nouvelle_nuance_de_dégradé_2"/>
    <linearGradient id="Nouvelle_nuance_de_dégradé_2-7" data-name="Nouvelle nuance de dégradé 2" x1="74.13" y1="250" x2="435.2" y2="250" xlink:href="#Nouvelle_nuance_de_dégradé_2"/>
  </defs>
  <g>
    <path d="M162.35,72.03c.27.87.97,1.49,1.8,1.69.42.1.88.1,1.33-.04,1.32-.41,2.06-1.81,1.65-3.13l-8.08-26.18c-.41-1.32-1.81-2.06-3.13-1.65-1.32.41-2.06,1.81-1.65,3.13l8.08,26.18Z" style="fill: url(#Nouvelle_nuance_de_dégradé_2);"/>
    <path d="M142.03,85.37c.32.3.71.5,1.11.6.85.21,1.79-.04,2.43-.73.94-1.01.88-2.59-.13-3.53l-20.09-18.63c-1.01-.94-2.59-.88-3.53.13s-.88,2.59.13,3.53l20.09,18.63Z" style="fill: url(#Nouvelle_nuance_de_dégradé_2-2);"/>
    <path d="M104.35,100.97s.02,0,.04,0l26.72,6.09c1.35.31,2.69-.54,2.99-1.88.31-1.35-.58-2.7-1.88-2.99l-26.72-6.09c-1.35-.31-2.69.54-2.99,1.88-.3,1.33.52,2.66,1.84,2.98Z" style="fill: url(#Nouvelle_nuance_de_dégradé_2-3);"/>
    <path d="M434.11,319.44l-26.18-8.08c-1.32-.41-2.72.33-3.13,1.65-.14.45-.14.9-.04,1.33.2.83.82,1.53,1.69,1.8l26.18,8.08c1.32.41,2.72-.33,3.13-1.65.41-1.32-.33-2.72-1.65-3.13Z" style="fill: url(#Nouvelle_nuance_de_dégradé_2-4);"/>
    <path d="M396.78,333.05c-.94-1.01-2.52-1.07-3.53-.13-.69.64-.94,1.58-.73,2.43.1.4.3.78.6,1.11l18.63,20.09c.94,1.01,2.52,1.07,3.53.13,1.01-.94,1.07-2.52.13-3.53l-18.63-20.09Z" style="fill: url(#Nouvelle_nuance_de_dégradé_2-5);"/>
    <path d="M376.29,346.26c-.3-1.3-1.65-2.19-2.99-1.88-1.35.31-2.19,1.65-1.88,2.99l6.09,26.72s0,.02,0,.04c.32,1.32,1.65,2.15,2.98,1.84,1.35-.31,2.19-1.65,1.88-2.99l-6.09-26.72Z" style="fill: url(#Nouvelle_nuance_de_dégradé_2-6);"/>
    <path d="M412.13,229.06c-3.72-3.57-8.51-5.79-13.84-6.44l-6.31-.76,36.33-38.32c9.41-9.96,9.16-25.58-.56-34.8-3.97-3.76-9.17-6.12-14.64-6.63l-5.42-.51,3.08-4.49c6.86-9.98,5.44-23.74-3.31-32-4.63-4.37-10.67-6.77-17.02-6.77-6.86,0-13.24,2.74-17.93,7.67l-5.78,6.33-1.05-6.54c-.86-5.32-3.38-10.11-7.3-13.87-4.44-4.28-10.61-6.73-16.95-6.73-.27,0-.55,0-.82.01h-.19s-.11,0-.11,0c-.35,0-1.63.03-3.44.38l-4.73.92,1.92-9.2c2.77-13.45-5.66-26.6-18.8-29.3-1.66-.34-3.35-.52-5.03-.52-3.76,0-7.52.88-10.86,2.56l-4.91,2.45.28-5.48c.61-12.06-7.84-22.98-19.67-25.41-1.66-.34-3.35-.52-5.03-.52-11.67,0-21.85,8.28-24.2,19.67l-1.66,8.32-4.28-4.98c-3.51-4.08-8.15-6.81-13.49-7.89-1.63-.36-3.32-.54-5.02-.54-4.83,0-9.54,1.43-13.62,4.14l-.19.12c-.34.19-8.28,4.86-10.55,15.9l-26.26,126.57-4.28,11.3-7.92-29.37-.13-.4c-4.07-10.42-15.21-34.46-31.39-34.46-.61,0-1.22.03-1.85.1-9.74,1.01-14.91,5.46-17.54,9.02-4.08,5.51-5.51,13.4-3.93,21.6l15.91,76.55v.29c.14,5.46-.93,14.47-2.14,23.99-.31,2.61-.62,5.29-.93,8.09l-.07.61-.29.54c-6.01,11.35-9.02,21.05-9.18,29.57.13,26.64-15.33,46.83-24.54,58.86l-.82,1.08c-.61.8-1.18,1.55-1.69,2.28l-.12.17-.14.16c-4.62,5-6.46,11.65-5.19,18.73,2.35,13.16,10.82,34.25,37.81,60.03.13.13.22.23.35.33l.15.11.13.13c25.52,24.24,46.44,33.21,59.52,36.49,1.88.49,3.81.74,5.73.74,6.5,0,12.44-2.77,16.41-7.62v-.08l.65-.86c1.6-2.11,3.33-4.16,5.04-6.19l1.22-1.44,1.85.37c12.71,2.54,24.79,3.83,35.9,3.83h0c12.09,0,22.91-1.49,32.18-4.43,8.44-2.61,14.42-9.74,15.24-18.16l.06-.59.02-.04c.84-8.43,2.29-16.68,4.32-24.52,4.01-15.5,8.75-28.39,16.37-44.51l.22-.46,104.83-110.53c9.41-9.96,9.24-25.49-.39-34.62ZM310.42,52.21c1,0,2.01.08,3,.24,5.31.84,9.89,3.69,12.92,8.04,3.17,4.55,4.28,10.18,3.14,15.86l-2.78,13.48-.81.71c-1.04.91-1.97,1.74-2.84,2.66l-48.06,50.74,15.51-74.85c1.97-9.78,10.35-16.87,19.92-16.87ZM250.31,42.33c2.04-9.61,10.27-16.58,19.56-16.58h.27c6.09.07,11.74,2.8,15.5,7.48,3.78,4.7,5.24,10.77,4.01,16.66l-20.84,100.5-36.2,38.17-9.22,9.71,9.86-33.04c.02-.14.05-.29.09-.43,1.88-10.31,3.27-24.76-.63-35.31l-.32-.86,17.92-86.3ZM201.62,56.76c1.1-5.28,4.21-9.9,8.79-13.06,3.3-2.2,7.13-3.36,11.07-3.36,1.32,0,2.64.13,3.94.39l2.57.51v.25c9.09,3.2,14.7,12.71,13,22.76l-12.02,57.78-4.01-2.92c-.44-.32-1.03-.66-1.82-1.02-4.08-1.97-8.1-2.97-11.95-2.97-2.7,0-5.29.49-7.67,1.44-.37.15-.74.31-1.1.48-4.76,2.24-9.85,7.15-12.66,14.08l-8.91,26.88c-.05.14-.26.08-.23-.07l21.01-101.17ZM108.3,159.24c-1.3-6.95-.16-13.46,3.13-17.84,3.01-4.09,7.8-6.5,14.23-7.16.41-.04.82-.06,1.22-.06,13.38,0,23.38,21.88,27.05,31.29l.06.16,9.28,34.04.04.11c.09.24.17.48.23.71l.24.94-1.73,4.86-.13.24c-2.64,4.69-8.12,11.49-14.45,19.34l-.93,1.17c-5.28,6.63-11.27,14.14-16.89,21.93l-6.96,9.65,1.18-11.84c.41-4.06.55-7.6.42-10.63,0,0-.04-.33-.05-.43l-15.94-76.47ZM292.28,399.13c-1.99,5.68-3.87,11.85-5.73,18.85-2.18,8.29-3.68,16.91-4.46,25.62l-.1,1.15-.04.04c-.88,6.09-5.48,11.22-11.87,13.18-8.84,2.81-19.19,4.24-30.75,4.24-8.79,0-18.29-.84-28.24-2.51l-5.86-.98,4.04-4.35c.87-.94,1.79-1.85,2.69-2.69,16.69-15.99,31.06-25.76,53.35-39.24,8.11-4.94,26.19-19.3,32.46-27.12l-5.5,13.81ZM327.47,346.53l-24.03,25.41-16.56,17.43c-6.83,7.09-14.92,13.5-24.05,19.05-22.68,13.78-37.27,23.73-54.13,39.84-2.36,2.25-4.84,4.81-7.59,7.84-2.97,3.23-5.55,6.27-7.88,9.28l-.09.11c-.5.59-.93,1.14-1.37,1.72v.13l-.68.87c-3,3.83-7.68,6.03-12.84,6.04-1.55,0-3.11-.2-4.64-.6-12.54-3.2-32.7-11.93-57.52-35.42-.09-.09-.17-.18-.28-.27l-.15-.11-.14-.13c-27.45-26.23-34.58-47.28-36.39-57.49-.99-5.56.49-10.93,4.06-14.73l.24-.26c.06-.08.13-.16.19-.23.37-.49.76-1,1.16-1.54.45-.6.93-1.24,1.43-1.89l.42-.56c6.77-8.98,16.99-22.54,21.98-39.69,2.15-7.16,3.17-14.16,3.11-21.47.12-8.38,3.28-18,9.64-29.4,8.09-14.59,20.03-29.47,29.63-41.42l.91-1.14c6.5-8.19,11.65-14.66,14.36-19.47.02-.04.15-.34.2-.45l1.32-3.59,7.62-21.04,17.75-48.86c2.52-6.55,6.93-11.49,12.11-13.56,1.84-.72,3.81-1.09,5.86-1.09,3.15,0,6.52.86,10,2.56,2.37,1.14,4.38,3.11,5.83,5.68,5.66,10.04,3.14,28.33,1.8,35.72l-.03.17-10.03,33.85c-.48,1.65,0,3.4,1.24,4.52.36.32.76.6,1.09.77.6.29,1.28.45,1.97.45,1.26,0,2.43-.5,3.29-1.4l32.95-34.76,57.98-61.23,9.25-9.75c1.71-1.78,3.73-3.26,5.81-4.27,2.63-1.32,5.5-2.06,8.58-2.21.2,0,.39,0,.59,0,5.14,0,10,1.91,13.68,5.37l1.01,1.01v.07c6.88,7.5,6.9,19.15-.18,27.15l-2.2,2.33-8.3,8.74-22.1,23.34-14.6,15.42-43.38,45.81-11.73,12.35-4.4,4.65c-.56.57-.63,1.26-.62,1.62.01.62.27,1.22.71,1.63.46.43,1.05.67,1.66.67s1.24-.26,1.68-.73l61.73-65.16,35.7-37.63,25.34-26.78c4.01-4.23,9.59-6.66,15.31-6.66,3.7,0,7.27,1.03,10.33,2.98,5.13,3.26,8.49,8.54,9.22,14.48.73,5.97-1.22,11.9-5.37,16.26l-41.75,44.06-14.49,15.36-67,70.68c-.41.42-.63.99-.61,1.6.02.63.28,1.2.79,1.67.43.41.99.64,1.6.64.37,0,1.06-.09,1.65-.73l54.61-57.6,14.49-15.36,41.32-43.57c4.05-4.25,9.71-6.69,15.53-6.69,4.72,0,9.24,1.66,12.72,4.67,4.08,3.52,6.48,8.38,6.74,13.68.28,5.52-1.74,10.86-5.7,15.03l-46,48.56-1.44,1.43-45.87,48.43-17.66,18.66c-.4.42-.63.99-.63,1.55,0,.69.25,1.3.68,1.73.46.43,1.05.67,1.66.67s1.24-.26,1.68-.73l5.31-5.62,14.54-15.29,44.98-47.42.12-.1c3.7-3.2,8.41-4.96,13.26-4.96s9.8,1.88,13.45,5.31c3.69,3.51,5.78,8.24,5.9,13.32.13,5.37-1.93,10.56-5.79,14.6l-81.57,86.13Z" style="fill: url(#Nouvelle_nuance_de_dégradé_2-7);"/>
  </g>
  <g>
    <path d="M152.34,72.03c.27.87.97,1.49,1.8,1.69.42.1.88.1,1.33-.04,1.32-.41,2.06-1.81,1.65-3.13l-8.08-26.18c-.41-1.32-1.81-2.06-3.13-1.65-1.32.41-2.06,1.81-1.65,3.13l8.08,26.18Z" style="fill: #fff;"/>
    <path d="M132.03,85.37c.32.3.71.5,1.11.6.85.21,1.79-.04,2.43-.73.94-1.01.88-2.59-.13-3.53l-20.09-18.63c-1.01-.94-2.59-.88-3.53.13s-.88,2.59.13,3.53l20.09,18.63Z" style="fill: #fff;"/>
    <path d="M94.35,100.97s.02,0,.04,0l26.72,6.09c1.35.31,2.69-.54,2.99-1.88.31-1.35-.58-2.7-1.88-2.99l-26.72-6.09c-1.35-.31-2.69.54-2.99,1.88-.3,1.33.52,2.66,1.84,2.98Z" style="fill: #fff;"/>
    <path d="M424.1,319.44l-26.18-8.08c-1.32-.41-2.72.33-3.13,1.65-.14.45-.14.9-.04,1.33.2.83.82,1.53,1.69,1.8l26.18,8.08c1.32.41,2.72-.33,3.13-1.65.41-1.32-.33-2.72-1.65-3.13Z" style="fill: #fff;"/>
    <path d="M386.78,333.05c-.94-1.01-2.52-1.07-3.53-.13-.69.64-.94,1.58-.73,2.43.1.4.3.78.6,1.11l18.63,20.09c.94,1.01,2.52,1.07,3.53.13,1.01-.94,1.07-2.52.13-3.53l-18.63-20.09Z" style="fill: #fff;"/>
    <path d="M366.29,346.26c-.3-1.3-1.65-2.19-2.99-1.88-1.35.31-2.19,1.65-1.88,2.99l6.09,26.72s0,.02,0,.04c.32,1.32,1.65,2.15,2.98,1.84,1.35-.31,2.19-1.65,1.88-2.99l-6.09-26.72Z" style="fill: #fff;"/>
    <path d="M402.13,229.06c-3.72-3.57-8.51-5.79-13.84-6.44l-6.31-.76,36.33-38.32c9.41-9.96,9.16-25.58-.56-34.8-3.97-3.76-9.17-6.12-14.64-6.63l-5.42-.51,3.08-4.49c6.86-9.98,5.44-23.74-3.31-32-4.63-4.37-10.67-6.77-17.02-6.77-6.86,0-13.24,2.74-17.93,7.67l-5.78,6.33-1.05-6.54c-.86-5.32-3.38-10.11-7.3-13.87-4.44-4.28-10.61-6.73-16.95-6.73-.27,0-.55,0-.82.01h-.19s-.11,0-.11,0c-.35,0-1.63.03-3.44.38l-4.73.92,1.92-9.2c2.77-13.45-5.66-26.6-18.8-29.3-1.66-.34-3.35-.52-5.03-.52-3.76,0-7.52.88-10.86,2.56l-4.91,2.45.28-5.48c.61-12.06-7.84-22.98-19.67-25.41-1.66-.34-3.35-.52-5.03-.52-11.67,0-21.85,8.28-24.2,19.67l-1.66,8.32-4.28-4.98c-3.51-4.08-8.15-6.81-13.49-7.89-1.63-.36-3.32-.54-5.02-.54-4.83,0-9.54,1.43-13.62,4.14l-.19.12c-.34.19-8.28,4.86-10.55,15.9l-26.26,126.57-4.28,11.3-7.92-29.37-.13-.4c-4.07-10.42-15.21-34.46-31.39-34.46-.61,0-1.22.03-1.85.1-9.74,1.01-14.91,5.46-17.54,9.02-4.08,5.51-5.51,13.4-3.93,21.6l15.91,76.55v.29c.14,5.46-.93,14.47-2.14,23.99-.31,2.61-.62,5.29-.93,8.09l-.07.61-.29.54c-6.01,11.35-9.02,21.05-9.18,29.57.13,26.64-15.33,46.83-24.54,58.86l-.82,1.08c-.61.8-1.18,1.55-1.69,2.28l-.12.17-.14.16c-4.62,5-6.46,11.65-5.19,18.73,2.35,13.16,10.82,34.25,37.81,60.03.13.13.22.23.35.33l.15.11.13.13c25.52,24.24,46.44,33.21,59.52,36.49,1.88.49,3.81.74,5.73.74,6.5,0,12.44-2.77,16.41-7.62v-.08l.65-.86c1.6-2.11,3.33-4.16,5.04-6.19l1.22-1.44,1.85.37c12.71,2.54,24.79,3.83,35.9,3.83h0c12.09,0,22.91-1.49,32.18-4.43,8.44-2.61,14.42-9.74,15.24-18.16l.06-.59.02-.04c.84-8.43,2.29-16.68,4.32-24.52,4.01-15.5,8.75-28.39,16.37-44.51l.22-.46,104.83-110.53c9.41-9.96,9.24-25.49-.39-34.62ZM300.42,52.21c1,0,2.01.08,3,.24,5.31.84,9.89,3.69,12.92,8.04,3.17,4.55,4.28,10.18,3.14,15.86l-2.78,13.48-.81.71c-1.04.91-1.97,1.74-2.84,2.66l-48.06,50.74,15.51-74.85c1.97-9.78,10.35-16.87,19.92-16.87ZM240.31,42.33c2.04-9.61,10.27-16.58,19.56-16.58h.27c6.09.07,11.74,2.8,15.5,7.48,3.78,4.7,5.24,10.77,4.01,16.66l-20.84,100.5-36.2,38.17-9.22,9.71,9.86-33.04c.02-.14.05-.29.09-.43,1.88-10.31,3.27-24.76-.63-35.31l-.32-.86,17.92-86.3ZM191.62,56.76c1.1-5.28,4.21-9.9,8.79-13.06,3.3-2.2,7.13-3.36,11.07-3.36,1.32,0,2.64.13,3.94.39l2.57.51v.25c9.09,3.2,14.7,12.71,13,22.76l-12.02,57.78-4.01-2.92c-.44-.32-1.03-.66-1.82-1.02-4.08-1.97-8.1-2.97-11.95-2.97-2.7,0-5.29.49-7.67,1.44-.37.15-.74.31-1.1.48-4.76,2.24-9.85,7.15-12.66,14.08l-8.91,26.88c-.05.14-.26.08-.23-.07l21.01-101.17ZM98.3,159.24c-1.3-6.95-.16-13.46,3.13-17.84,3.01-4.09,7.8-6.5,14.23-7.16.41-.04.82-.06,1.22-.06,13.38,0,23.38,21.88,27.05,31.29l.06.16,9.28,34.04.04.11c.09.24.17.48.23.71l.24.94-1.73,4.86-.13.24c-2.64,4.69-8.12,11.49-14.45,19.34l-.93,1.17c-5.28,6.63-11.27,14.14-16.89,21.93l-6.96,9.65,1.18-11.84c.41-4.06.55-7.6.42-10.63,0,0-.04-.33-.05-.43l-15.94-76.47ZM282.28,399.13c-1.99,5.68-3.87,11.85-5.73,18.85-2.18,8.29-3.68,16.91-4.46,25.62l-.1,1.15-.04.04c-.88,6.09-5.48,11.22-11.87,13.18-8.84,2.81-19.19,4.24-30.75,4.24-8.79,0-18.29-.84-28.24-2.51l-5.86-.98,4.04-4.35c.87-.94,1.79-1.85,2.69-2.69,16.69-15.99,31.06-25.76,53.35-39.24,8.11-4.94,26.19-19.3,32.46-27.12l-5.5,13.81ZM317.47,346.53l-24.03,25.41-16.56,17.43c-6.83,7.09-14.92,13.5-24.05,19.05-22.68,13.78-37.27,23.73-54.13,39.84-2.36,2.25-4.84,4.81-7.59,7.84-2.97,3.23-5.55,6.27-7.88,9.28l-.09.11c-.5.59-.93,1.14-1.37,1.72v.13l-.68.87c-3,3.83-7.68,6.03-12.84,6.04-1.55,0-3.11-.2-4.64-.6-12.54-3.2-32.7-11.93-57.52-35.42-.09-.09-.17-.18-.28-.27l-.15-.11-.14-.13c-27.45-26.23-34.58-47.28-36.39-57.49-.99-5.56.49-10.93,4.06-14.73l.24-.26c.06-.08.13-.16.19-.23.37-.49.76-1,1.16-1.54.45-.6.93-1.24,1.43-1.89l.42-.56c6.77-8.98,16.99-22.54,21.98-39.69,2.15-7.16,3.17-14.16,3.11-21.47.12-8.38,3.28-18,9.64-29.4,8.09-14.59,20.03-29.47,29.63-41.42l.91-1.14c6.5-8.19,11.65-14.66,14.36-19.47.02-.04.15-.34.2-.45l1.32-3.59,7.62-21.04,17.75-48.86c2.52-6.55,6.93-11.49,12.11-13.56,1.84-.72,3.81-1.09,5.86-1.09,3.15,0,6.52.86,10,2.56,2.37,1.14,4.38,3.11,5.83,5.68,5.66,10.04,3.14,28.33,1.8,35.72l-.03.17-10.03,33.85c-.48,1.65,0,3.4,1.24,4.52.36.32.76.6,1.09.77.6.29,1.28.45,1.97.45,1.26,0,2.43-.5,3.29-1.4l32.95-34.76,57.98-61.23,9.25-9.75c1.71-1.78,3.73-3.26,5.81-4.27,2.63-1.32,5.5-2.06,8.58-2.21.2,0,.39,0,.59,0,5.14,0,10,1.91,13.68,5.37l1.01,1.01v.07c6.88,7.5,6.9,19.15-.18,27.15l-2.2,2.33-8.3,8.74-22.1,23.34-14.6,15.42-43.38,45.81-11.73,12.35-4.4,4.65c-.56.57-.63,1.26-.62,1.62.01.62.27,1.22.71,1.63.46.43,1.05.67,1.66.67s1.24-.26,1.68-.73l61.73-65.16,35.7-37.63,25.34-26.78c4.01-4.23,9.59-6.66,15.31-6.66,3.7,0,7.27,1.03,10.33,2.98,5.13,3.26,8.49,8.54,9.22,14.48.73,5.97-1.22,11.9-5.37,16.26l-41.75,44.06-14.49,15.36-67,70.68c-.41.42-.63.99-.61,1.6.02.63.28,1.2.79,1.67.43.41.99.64,1.6.64.37,0,1.06-.09,1.65-.73l54.61-57.6,14.49-15.36,41.32-43.57c4.05-4.25,9.71-6.69,15.53-6.69,4.72,0,9.24,1.66,12.72,4.67,4.08,3.52,6.48,8.38,6.74,13.68.28,5.52-1.74,10.86-5.7,15.03l-46,48.56-1.44,1.43-45.87,48.43-17.66,18.66c-.4.42-.63.99-.63,1.55,0,.69.25,1.3.68,1.73.46.43,1.05.67,1.66.67s1.24-.26,1.68-.73l5.31-5.62,14.54-15.29,44.98-47.42.12-.1c3.7-3.2,8.41-4.96,13.26-4.96s9.8,1.88,13.45,5.31c3.69,3.51,5.78,8.24,5.9,13.32.13,5.37-1.93,10.56-5.79,14.6l-81.57,86.13Z" style="fill: #fff;"/>
  </g>
</svg>