<?xml version="1.0" encoding="UTF-8"?>
<svg id="Calque_1" data-name="Calque 1" xmlns="http://www.w3.org/2000/svg" xmlns:xlink="http://www.w3.org/1999/xlink" viewBox="0 0 500 500">
  <defs>
    <linearGradient id="Nouvelle_nuance_de_dégradé_2" data-name="Nouvelle nuance de dégradé 2" x1="102.19" y1="244.58" x2="417.81" y2="244.58" gradientUnits="userSpaceOnUse">
      <stop offset="0" stop-color="#00d85d"/>
      <stop offset="1" stop-color="#0ebdb3"/>
    </linearGradient>
    <linearGradient id="Nouvelle_nuance_de_dégradé_2-2" data-name="Nouvelle nuance de dégradé 2" x1="221.26" y1="344.97" x2="298.74" y2="344.97" xlink:href="#Nouvelle_nuance_de_dégradé_2"/>
  </defs>
  <g>
    <path d="M404.95,482.08H115.05c-7.09,0-12.85-5.77-12.85-12.85v-248.49c0-7.09,5.77-12.85,12.85-12.85h21.73l-16.52-37.59c-25.82-58.76.98-127.56,59.74-153.38,58.76-25.81,127.56.98,153.39,59.74l24.43,55.61c2.85,6.49-.11,14.09-6.6,16.94-6.49,2.84-14.09-.11-16.94-6.6l-24.43-55.61c-9.73-22.14-27.53-39.18-50.13-47.98-22.6-8.8-47.24-8.29-69.37,1.44-45.78,20.11-66.66,73.72-46.54,119.51l21.06,47.93h240.1c7.09,0,12.85,5.77,12.85,12.85v248.49c0,7.09-5.77,12.85-12.85,12.85ZM115.05,212.88c-4.33,0-7.85,3.52-7.85,7.85v248.49c0,4.33,3.52,7.85,7.85,7.85h289.91c4.33,0,7.85-3.52,7.85-7.85v-248.49c0-4.33-3.52-7.85-7.85-7.85h-241.73c-.99,0-1.89-.59-2.29-1.49l-21.72-49.42c-21.22-48.31.81-104.87,49.11-126.09,23.36-10.27,49.36-10.81,73.2-1.52,23.84,9.29,42.63,27.27,52.89,50.63l24.43,55.61c1.74,3.96,6.39,5.77,10.35,4.03,3.96-1.74,5.77-6.39,4.03-10.35l-24.43-55.61C304.09,22.43,238.24-3.22,182.01,21.49c-56.23,24.71-81.88,90.56-57.17,146.79l18.06,41.09c.34.77.27,1.67-.2,2.37-.46.71-1.25,1.13-2.09,1.13h-25.55Z" style="fill: url(#Nouvelle_nuance_de_dégradé_2);"/>
    <path d="M260,410.42c-16.01,0-29.03-13.02-29.03-29.03v-37.5c-6.57-7.47-10.08-17.34-9.67-27.25.83-20.22,17.34-36.51,37.58-37.09,10.5-.33,20.53,3.56,28.12,10.94,7.57,7.36,11.74,17.23,11.74,27.78,0,9.51-3.44,18.57-9.71,25.64v37.48c0,16.01-13.02,29.03-29.03,29.03ZM260.09,284.53c-.36,0-.71,0-1.07.02-17.63.5-32,14.69-32.73,32.3-.37,8.92,2.91,17.81,9.01,24.38.43.46.67,1.07.67,1.7v38.46c0,13.25,10.78,24.03,24.03,24.03s24.03-10.78,24.03-24.03v-38.44c0-.63.24-1.24.67-1.71,5.83-6.24,9.03-14.4,9.03-22.97,0-9.19-3.63-17.79-10.23-24.2-6.36-6.18-14.64-9.54-23.42-9.54Z" style="fill: url(#Nouvelle_nuance_de_dégradé_2-2);"/>
  </g>
  <g>
    <path d="M394.95,482.08H105.05c-7.09,0-12.85-5.77-12.85-12.85v-248.49c0-7.09,5.77-12.85,12.85-12.85h21.73l-16.52-37.59c-25.82-58.76.98-127.56,59.74-153.38,58.76-25.81,127.57.98,153.39,59.74l24.43,55.61c2.85,6.49-.11,14.09-6.6,16.94-6.5,2.85-14.09-.11-16.94-6.6l-24.43-55.61c-9.73-22.14-27.53-39.18-50.13-47.98-22.6-8.8-47.24-8.29-69.37,1.44-45.78,20.11-66.66,73.72-46.54,119.51l21.06,47.93h240.1c7.09,0,12.85,5.77,12.85,12.85v248.49c0,7.09-5.77,12.85-12.85,12.85ZM105.05,212.88c-4.33,0-7.85,3.52-7.85,7.85v248.49c0,4.33,3.52,7.85,7.85,7.85h289.91c4.33,0,7.85-3.52,7.85-7.85v-248.49c0-4.33-3.52-7.85-7.85-7.85h-243.36l-22.38-50.92c-21.22-48.31.81-104.87,49.11-126.09,23.36-10.27,49.36-10.81,73.2-1.52,23.84,9.29,42.63,27.27,52.89,50.63l24.43,55.61c1.74,3.96,6.39,5.77,10.35,4.03,3.96-1.74,5.77-6.39,4.03-10.35l-24.43-55.61C294.09,22.43,228.24-3.22,172,21.49c-56.23,24.71-81.88,90.56-57.17,146.79l19.6,44.6h-29.38Z" style="fill: #fff;"/>
    <path d="M250,410.42c-16.01,0-29.03-13.02-29.03-29.03v-37.5c-6.57-7.47-10.09-17.34-9.67-27.25.83-20.22,17.34-36.51,37.58-37.09,10.5-.33,20.53,3.56,28.12,10.94,7.57,7.36,11.74,17.23,11.74,27.78,0,9.5-3.44,18.57-9.71,25.64v37.48c0,16.01-13.02,29.03-29.03,29.03ZM250.09,284.53c-.36,0-.71,0-1.07.02-17.63.5-32,14.69-32.73,32.3-.37,8.92,2.91,17.81,9.01,24.38l.67.72v39.44c0,13.25,10.78,24.03,24.03,24.03s24.03-10.78,24.03-24.03v-39.43l.67-.72c5.83-6.24,9.03-14.4,9.03-22.97,0-9.19-3.63-17.79-10.23-24.2-6.36-6.18-14.64-9.54-23.42-9.54Z" style="fill: #fff;"/>
  </g>
</svg>