<?xml version="1.0" encoding="UTF-8"?>
<svg id="Calque_1" data-name="Calque 1" xmlns="http://www.w3.org/2000/svg" xmlns:xlink="http://www.w3.org/1999/xlink" viewBox="0 0 500 500">
  <defs>
    <linearGradient id="Nouvelle_nuance_de_dégradé_2" data-name="Nouvelle nuance de dégradé 2" x1="102.19" y1="262.84" x2="417.81" y2="262.84" gradientUnits="userSpaceOnUse">
      <stop offset="0" stop-color="#00d85d"/>
      <stop offset="1" stop-color="#0ebdb3"/>
    </linearGradient>
    <linearGradient id="Nouvelle_nuance_de_dégradé_2-2" data-name="Nouvelle nuance de dégradé 2" x1="221.26" y1="344.98" x2="298.74" y2="344.98" xlink:href="#Nouvelle_nuance_de_dégradé_2"/>
  </defs>
  <g>
    <path d="M404.96,482.08H115.05c-7.09,0-12.85-5.77-12.85-12.85v-248.49c0-7.09,5.77-12.85,12.85-12.85h28.56v-47.89c0-64.18,52.21-116.39,116.39-116.39s116.39,52.21,116.39,116.39v47.89h28.56c7.09,0,12.85,5.77,12.85,12.85v248.49c0,7.09-5.77,12.85-12.85,12.85ZM115.05,212.88c-4.33,0-7.85,3.52-7.85,7.85v248.49c0,4.33,3.52,7.85,7.85,7.85h289.91c4.33,0,7.85-3.52,7.85-7.85v-248.49c0-4.33-3.52-7.85-7.85-7.85h-31.06c-1.38,0-2.5-1.12-2.5-2.5v-50.39c0-61.42-49.97-111.39-111.39-111.39s-111.39,49.97-111.39,111.39v50.39c0,1.38-1.12,2.5-2.5,2.5h-31.06ZM353.19,212.88h-186.37c-1.38,0-2.5-1.12-2.5-2.5v-50.39c0-52.76,42.92-95.68,95.69-95.68s95.69,42.92,95.69,95.68v50.39c0,1.38-1.12,2.5-2.5,2.5ZM169.31,207.88h181.37v-47.89c0-50-40.68-90.68-90.69-90.68s-90.69,40.68-90.69,90.68v47.89Z" style="fill: url(#Nouvelle_nuance_de_dégradé_2);"/>
    <path d="M260,410.42c-16.01,0-29.03-13.02-29.03-29.03v-37.5c-6.57-7.47-10.08-17.34-9.67-27.24.84-20.22,17.34-36.52,37.58-37.1h0c10.58-.27,20.59,3.62,28.12,10.94,7.57,7.36,11.74,17.23,11.74,27.78,0,9.5-3.44,18.57-9.71,25.64v37.48c0,16.01-13.02,29.03-29.03,29.03ZM259.01,284.55c-17.62.51-31.99,14.7-32.72,32.3-.37,8.91,2.92,17.8,9.01,24.38.43.46.67,1.07.67,1.7v38.46c0,13.25,10.78,24.03,24.03,24.03s24.03-10.78,24.03-24.03v-38.44c0-.63.24-1.24.67-1.71,5.83-6.24,9.04-14.4,9.04-22.97,0-9.19-3.63-17.79-10.23-24.2-6.56-6.37-15.26-9.75-24.5-9.53Z" style="fill: url(#Nouvelle_nuance_de_dégradé_2-2);"/>
  </g>
  <g>
    <path d="M394.96,482.08H105.04c-7.09,0-12.85-5.77-12.85-12.85v-248.49c0-7.09,5.77-12.85,12.85-12.85h28.56v-47.89c0-64.18,52.21-116.39,116.39-116.39s116.39,52.21,116.39,116.39v47.89h28.56c7.09,0,12.85,5.77,12.85,12.85v248.49c0,7.09-5.77,12.85-12.85,12.85ZM105.04,212.88c-4.33,0-7.85,3.52-7.85,7.85v248.49c0,4.33,3.52,7.85,7.85,7.85h289.91c4.33,0,7.85-3.52,7.85-7.85v-248.49c0-4.33-3.52-7.85-7.85-7.85h-33.56v-52.89c0-61.42-49.97-111.39-111.39-111.39s-111.39,49.97-111.39,111.39v52.89h-33.56ZM345.69,212.88h-191.37v-52.89c0-52.76,42.92-95.68,95.68-95.68s95.69,42.92,95.69,95.68v52.89ZM159.31,207.88h181.37v-47.89c0-50-40.68-90.68-90.69-90.68s-90.68,40.68-90.68,90.68v47.89Z" style="fill: #fff;"/>
    <path d="M250,410.42c-16.01,0-29.03-13.02-29.03-29.03v-37.5c-6.57-7.47-10.08-17.34-9.67-27.24.84-20.22,17.34-36.52,37.58-37.1h0c10.6-.27,20.58,3.62,28.12,10.94,7.57,7.36,11.74,17.23,11.74,27.78,0,9.5-3.44,18.57-9.71,25.64v37.48c0,16.01-13.02,29.03-29.03,29.03ZM249.01,284.55c-17.62.51-31.99,14.7-32.72,32.3-.37,8.91,2.92,17.8,9.01,24.38l.67.72v39.44c0,13.25,10.78,24.03,24.03,24.03s24.03-10.78,24.03-24.03v-39.43l.67-.72c5.83-6.24,9.03-14.4,9.03-22.97,0-9.19-3.63-17.79-10.23-24.2-6.56-6.37-15.26-9.75-24.5-9.53Z" style="fill: #fff;"/>
  </g>
</svg>