<?xml version="1.0" encoding="UTF-8"?>
<svg id="Calque_1" data-name="Calque 1" xmlns="http://www.w3.org/2000/svg" xmlns:xlink="http://www.w3.org/1999/xlink" viewBox="0 0 500 500">
  <defs>
    <linearGradient id="Nouvelle_nuance_de_dégradé_2" data-name="Nouvelle nuance de dégradé 2" x1="52.5" y1="250" x2="457.5" y2="250" gradientUnits="userSpaceOnUse">
      <stop offset="0" stop-color="#00d85d"/>
      <stop offset="1" stop-color="#0ebdb3"/>
    </linearGradient>
    <linearGradient id="Nouvelle_nuance_de_dégradé_2-2" data-name="Nouvelle nuance de dégradé 2" x1="129.06" x2="380.94" xlink:href="#Nouvelle_nuance_de_dégradé_2"/>
  </defs>
  <path d="M445,452.5H65c-6.89,0-12.5-5.61-12.5-12.5V60c0-6.89,5.61-12.5,12.5-12.5h380c6.89,0,12.5,5.61,12.5,12.5v380c0,6.89-5.61,12.5-12.5,12.5ZM65,52.5c-4.14,0-7.5,3.36-7.5,7.5v380c0,4.14,3.36,7.5,7.5,7.5h380c4.14,0,7.5-3.36,7.5-7.5V60c0-4.14-3.36-7.5-7.5-7.5H65Z" style="fill: url(#Nouvelle_nuance_de_dégradé_2);"/>
  <path d="M343.15,375.94c-.64,0-1.28-.24-1.77-.73l-86.38-86.38-86.38,86.38c-.98.98-2.56.98-3.54,0l-35.3-35.3c-.47-.47-.73-1.1-.73-1.77s.26-1.3.73-1.77l86.38-86.38-86.38-86.38c-.47-.47-.73-1.1-.73-1.77s.26-1.3.73-1.77l35.3-35.3c.98-.98,2.56-.98,3.54,0l86.38,86.38,86.38-86.38c.98-.98,2.56-.98,3.54,0l35.3,35.3c.47.47.73,1.1.73,1.77s-.26,1.3-.73,1.77l-86.38,86.38,86.38,86.38c.47.47.73,1.1.73,1.77s-.26,1.3-.73,1.77l-35.3,35.3c-.49.49-1.13.73-1.77.73ZM255,282.8c.66,0,1.3.26,1.77.73l86.38,86.38,31.76-31.76-86.38-86.38c-.47-.47-.73-1.1-.73-1.77s.26-1.3.73-1.77l86.38-86.38-31.76-31.76-86.38,86.38c-.94.94-2.6.94-3.54,0l-86.38-86.38-31.76,31.76,86.38,86.38c.47.47.73,1.1.73,1.77s-.26,1.3-.73,1.77l-86.38,86.38,31.76,31.76,86.38-86.38c.47-.47,1.1-.73,1.77-.73Z" style="fill: url(#Nouvelle_nuance_de_dégradé_2-2);"/>
  <path d="M435,452.5H55c-6.89,0-12.5-5.61-12.5-12.5V60c0-6.89,5.61-12.5,12.5-12.5h380c6.89,0,12.5,5.61,12.5,12.5v380c0,6.89-5.61,12.5-12.5,12.5ZM55,52.5c-4.14,0-7.5,3.36-7.5,7.5v380c0,4.14,3.36,7.5,7.5,7.5h380c4.14,0,7.5-3.36,7.5-7.5V60c0-4.14-3.36-7.5-7.5-7.5H55Z" style="fill: #fff;"/>
  <path d="M156.85,375.94c-.64,0-1.28-.24-1.77-.73l-35.3-35.3c-.47-.47-.73-1.1-.73-1.77s.26-1.3.73-1.77l86.38-86.38-86.38-86.38c-.47-.47-.73-1.1-.73-1.77s.26-1.3.73-1.77l35.3-35.3c.98-.98,2.56-.98,3.54,0l86.38,86.38,86.38-86.38c.98-.98,2.56-.98,3.54,0l35.3,35.3c.47.47.73,1.1.73,1.77s-.26,1.3-.73,1.77l-86.38,86.38,86.38,86.38c.47.47.73,1.1.73,1.77s-.26,1.3-.73,1.77l-35.3,35.3c-.98.98-2.56.98-3.54,0l-86.38-86.38-86.38,86.38c-.49.49-1.13.73-1.77.73ZM125.09,338.15l31.76,31.76,86.38-86.38c.94-.94,2.6-.94,3.54,0l86.38,86.38,31.76-31.76-86.38-86.38c-.47-.47-.73-1.1-.73-1.77s.26-1.3.73-1.77l86.38-86.38-31.76-31.76-86.38,86.38c-.94.94-2.6.94-3.54,0l-86.38-86.38-31.76,31.76,86.38,86.38c.47.47.73,1.1.73,1.77s-.26,1.3-.73,1.77l-86.38,86.38Z" style="fill: #fff;"/>
</svg>