<?xml version="1.0" encoding="UTF-8"?>
<svg id="Calque_1" data-name="Calque 1" xmlns="http://www.w3.org/2000/svg" xmlns:xlink="http://www.w3.org/1999/xlink" viewBox="0 0 500 500">
  <defs>
    <linearGradient id="Nouvelle_nuance_de_dégradé_2" data-name="Nouvelle nuance de dégradé 2" x1="44" y1="250" x2="449" y2="250" gradientUnits="userSpaceOnUse">
      <stop offset="0" stop-color="#00d85d"/>
      <stop offset="1" stop-color="#0ebdb3"/>
    </linearGradient>
    <linearGradient id="Nouvelle_nuance_de_dégradé_2-2" data-name="Nouvelle nuance de dégradé 2" x1="120.57" y1="243.98" x2="466" y2="243.98" xlink:href="#Nouvelle_nuance_de_dégradé_2"/>
  </defs>
  <path d="M436.5,452.5H56.5c-6.89,0-12.5-5.61-12.5-12.5V60c0-6.89,5.61-12.5,12.5-12.5h380c6.89,0,12.5,5.61,12.5,12.5v76.14c0,1.01-.61,1.92-1.54,2.31-.94.39-2.01.17-2.72-.54l-16.54-16.53-179.92,179.92c-.94.94-2.6.94-3.54,0l-86.38-86.38-31.75,31.76,86.37,86.38,33.53,33.52,33.53-33.52,164.7-164.71c.71-.71,1.79-.93,2.72-.54.93.39,1.54,1.3,1.54,2.31v269.88c0,6.89-5.61,12.5-12.5,12.5ZM56.5,52.5c-4.14,0-7.5,3.36-7.5,7.5v380c0,4.14,3.36,7.5,7.5,7.5h380c4.14,0,7.5-3.36,7.5-7.5V176.16l-160.43,160.44-35.3,35.29c-.98.98-2.56.98-3.54,0l-35.3-35.29-88.14-88.15c-.98-.98-.98-2.56,0-3.54l35.29-35.3c.94-.94,2.6-.94,3.54,0l86.38,86.38,179.92-179.92c.98-.98,2.56-.98,3.54,0l14.04,14.04V60c0-4.14-3.36-7.5-7.5-7.5H56.5Z" style="fill: url(#Nouvelle_nuance_de_dégradé_2);"/>
  <path d="M246.5,372.62c-.64,0-1.28-.24-1.77-.73l-35.3-35.29-88.14-88.15c-.98-.98-.98-2.56,0-3.54l35.29-35.3c.94-.94,2.6-.94,3.54,0l86.38,86.38,179.92-179.92c.98-.98,2.56-.98,3.54,0l35.3,35.29c.47.47.73,1.1.73,1.77s-.26,1.3-.73,1.77l-216.99,216.99c-.49.49-1.13.73-1.77.73ZM126.6,246.68l86.37,86.38,33.53,33.52,33.53-33.52,179.92-179.93-31.76-31.75-179.92,179.92c-.94.94-2.6.94-3.54,0l-86.38-86.38-31.75,31.76Z" style="fill: url(#Nouvelle_nuance_de_dégradé_2-2);"/>
  <path d="M426.5,452.5H46.5c-6.89,0-12.5-5.61-12.5-12.5V60c0-6.89,5.61-12.5,12.5-12.5h380c6.89,0,12.5,5.61,12.5,12.5v82.17l-20.81-20.8-181.69,181.69-88.15-88.15-31.75,31.76,86.37,86.38,33.53,33.52,33.53-33.52,168.97-168.98v275.92c0,6.89-5.61,12.5-12.5,12.5ZM46.5,52.5c-4.14,0-7.5,3.36-7.5,7.5v380c0,4.14,3.36,7.5,7.5,7.5h380c4.14,0,7.5-3.36,7.5-7.5V176.16l-160.43,160.44-37.07,37.06-126.98-126.98,38.83-38.84,88.15,88.15,181.69-181.69,15.81,15.8V60c0-4.14-3.36-7.5-7.5-7.5H46.5Z" style="fill: #fff;"/>
  <path d="M236.5,373.66l-126.98-126.98,38.83-38.84,88.15,88.15,181.69-181.69,38.84,38.83-220.53,220.53ZM116.6,246.68l86.37,86.38,33.53,33.52,33.53-33.52,179.92-179.93-31.77-31.75-181.69,181.69-88.15-88.15-31.75,31.76Z" style="fill: #fff;"/>
</svg>