<?xml version="1.0" encoding="UTF-8"?>
<svg id="Calque_1" data-name="Calque 1" xmlns="http://www.w3.org/2000/svg" xmlns:xlink="http://www.w3.org/1999/xlink" viewBox="0 0 500 500">
  <defs>
    <linearGradient id="Nouvelle_nuance_de_dégradé_2" data-name="Nouvelle nuance de dégradé 2" x1="35.03" y1="48.98" x2="470.91" y2="49.93" gradientUnits="userSpaceOnUse">
      <stop offset="0" stop-color="#00d85d"/>
      <stop offset="1" stop-color="#0ebdb3"/>
    </linearGradient>
    <linearGradient id="Nouvelle_nuance_de_dégradé_2-2" data-name="Nouvelle nuance de dégradé 2" x1="34.97" y1="77.35" x2="470.85" y2="78.3" xlink:href="#Nouvelle_nuance_de_dégradé_2"/>
    <linearGradient id="Nouvelle_nuance_de_dégradé_2-3" data-name="Nouvelle nuance de dégradé 2" x1="34.56" y1="263.66" x2="470.44" y2="264.62" xlink:href="#Nouvelle_nuance_de_dégradé_2"/>
  </defs>
  <g>
    <path d="M469.29,61.31h-25.6v-25.59c0-1.5-1.22-2.71-2.71-2.71s-2.71,1.22-2.71,2.71v28.31c0,1.5,1.22,2.71,2.71,2.71h28.31c1.5,0,2.71-1.22,2.71-2.71s-1.22-2.71-2.71-2.71Z" style="fill: url(#Nouvelle_nuance_de_dégradé_2);"/>
    <path d="M412.67,95.05h28.31c1.5,0,2.71-1.22,2.71-2.71s-1.22-2.71-2.71-2.71h-25.59v-25.59c0-1.5-1.22-2.71-2.71-2.71s-2.71,1.22-2.71,2.71v28.31c0,1.5,1.22,2.71,2.71,2.71Z" style="fill: url(#Nouvelle_nuance_de_dégradé_2-2);"/>
    <path d="M387.76,123.35h24.91c1.5,0,2.71-1.22,2.71-2.71s-1.22-2.71-2.71-2.71h-25.59v-25.59c0-1.5-1.22-2.71-2.71-2.71s-2.71,1.22-2.71,2.71v24.9l-13.04-10.6c-36.03-29.28-81.39-45.4-127.72-45.4-111.87,0-202.88,91.01-202.88,202.88s91.01,202.88,202.88,202.88,202.89-91.01,202.89-202.88c0-46.33-16.12-91.69-45.4-127.72l-10.6-13.04ZM240.88,461.57c-108.88,0-197.46-88.58-197.46-197.46S132.01,66.66,240.88,66.66c48.49,0,95.16,17.84,131.42,50.25l6.31,5.64-38.61,38.61-5.63-4.89c-25.99-22.56-59.19-34.99-93.49-34.99-78.76,0-142.83,64.08-142.83,142.83s64.07,142.83,142.83,142.83,142.84-64.07,142.84-142.83c0-34.3-12.43-67.5-34.99-93.49l-4.89-5.63,38.61-38.61,5.64,6.31c32.4,36.26,50.25,82.93,50.25,131.43,0,108.88-88.58,197.46-197.46,197.46ZM234.97,270.04c.69.69,1.5.79,1.92.79s1.23-.1,1.92-.8l58.98-58.98,5.51,7.54c9.77,13.37,14.94,29.11,14.94,45.53,0,42.65-34.7,77.35-77.35,77.35s-77.35-34.7-77.35-77.35,34.7-77.35,77.35-77.35c16.42,0,32.16,5.17,45.53,14.94l7.54,5.51-58.98,58.99c-1.06,1.06-1.06,2.78,0,3.84ZM297.6,203.56l-5.58-4.41c-14.78-11.66-32.46-17.82-51.13-17.82-45.65,0-82.78,37.14-82.78,82.78s37.14,82.78,82.78,82.78,82.78-37.14,82.78-82.78c0-18.68-6.16-36.36-17.82-51.14l-4.41-5.58,38.64-38.64,5.62,6.62c21.02,24.8,32.6,56.31,32.6,88.73,0,75.76-61.64,137.4-137.41,137.4s-137.4-61.64-137.4-137.4,61.64-137.41,137.4-137.41c32.42,0,63.93,11.58,88.73,32.6l6.63,5.62-38.64,38.63Z" style="fill: url(#Nouvelle_nuance_de_dégradé_2-3);"/>
  </g>
  <g>
    <path d="M430.98,66.74c-1.5,0-2.71-1.22-2.71-2.71v-28.31c0-1.5,1.22-2.71,2.71-2.71s2.71,1.22,2.71,2.71v25.59h25.6c1.5,0,2.71,1.22,2.71,2.71s-1.22,2.71-2.71,2.71h-28.31Z" style="fill: #fff;"/>
    <path d="M402.67,95.05c-1.5,0-2.71-1.22-2.71-2.71v-28.31c0-1.5,1.22-2.71,2.71-2.71s2.71,1.22,2.71,2.71v25.59h25.59c1.5,0,2.71,1.22,2.71,2.71s-1.22,2.71-2.71,2.71h-28.31Z" style="fill: #fff;"/>
    <path d="M230.88,467c-111.87,0-202.88-91.01-202.88-202.88S119.01,61.23,230.88,61.23c46.33,0,91.69,16.12,127.72,45.4l13.04,10.6v-24.9c0-1.5,1.22-2.71,2.71-2.71s2.71,1.22,2.71,2.71v25.59h25.59c1.5,0,2.71,1.22,2.71,2.71s-1.22,2.71-2.71,2.71h-24.91l10.6,13.04c29.28,36.03,45.4,81.39,45.4,127.72,0,111.87-91.01,202.88-202.89,202.88ZM230.88,66.66c-108.88,0-197.46,88.58-197.46,197.46s88.58,197.46,197.46,197.46,197.46-88.58,197.46-197.46c0-48.49-17.85-95.17-50.25-131.43l-5.64-6.31-38.61,38.61,4.89,5.63c22.57,25.99,34.99,59.2,34.99,93.49,0,78.76-64.08,142.83-142.84,142.83s-142.83-64.07-142.83-142.83S152.12,121.28,230.88,121.28c34.3,0,67.5,12.43,93.49,34.99l5.63,4.89,38.61-38.61-6.31-5.64c-36.26-32.4-82.93-50.25-131.42-50.25ZM230.88,126.71c-75.77,0-137.4,61.64-137.4,137.41s61.64,137.4,137.4,137.4,137.41-61.64,137.41-137.4c0-32.42-11.58-63.93-32.6-88.73l-5.62-6.62-38.64,38.64,4.41,5.58c11.66,14.78,17.82,32.46,17.82,51.14,0,45.65-37.14,82.78-82.78,82.78s-82.78-37.14-82.78-82.78,37.14-82.78,82.78-82.78c18.68,0,36.36,6.16,51.13,17.82l5.58,4.41,38.64-38.63-6.63-5.62c-24.8-21.02-56.31-32.6-88.73-32.6ZM230.88,186.76c-42.65,0-77.35,34.7-77.35,77.35s34.7,77.35,77.35,77.35,77.35-34.7,77.35-77.35c0-16.42-5.17-32.16-14.94-45.53l-5.51-7.54-58.98,58.98c-.69.69-1.5.8-1.92.8s-1.23-.1-1.92-.79c-1.06-1.06-1.06-2.78,0-3.84l58.98-58.99-7.54-5.51c-13.37-9.77-29.11-14.94-45.53-14.94Z" style="fill: #fff;"/>
  </g>
</svg>