<?xml version="1.0" encoding="UTF-8"?>
<svg id="Calque_1" data-name="Calque 1" xmlns="http://www.w3.org/2000/svg" xmlns:xlink="http://www.w3.org/1999/xlink" viewBox="0 0 500 500">
  <defs>
    <linearGradient id="Nouvelle_nuance_de_dégradé_2" data-name="Nouvelle nuance de dégradé 2" x1="120.77" y1="390.31" x2="148.59" y2="390.31" gradientUnits="userSpaceOnUse">
      <stop offset="0" stop-color="#00d85d"/>
      <stop offset="1" stop-color="#0ebdb3"/>
    </linearGradient>
    <linearGradient id="Nouvelle_nuance_de_dégradé_2-2" data-name="Nouvelle nuance de dégradé 2" x1="132.18" y1="430.87" x2="160" y2="430.87" xlink:href="#Nouvelle_nuance_de_dégradé_2"/>
    <linearGradient id="Nouvelle_nuance_de_dégradé_2-3" data-name="Nouvelle nuance de dégradé 2" x1="62.72" y1="250" x2="447.28" y2="250" xlink:href="#Nouvelle_nuance_de_dégradé_2"/>
    <linearGradient id="Nouvelle_nuance_de_dégradé_2-4" data-name="Nouvelle nuance de dégradé 2" x1="205.08" y1="184.84" x2="444.19" y2="184.84" xlink:href="#Nouvelle_nuance_de_dégradé_2"/>
    <linearGradient id="Nouvelle_nuance_de_dégradé_2-5" data-name="Nouvelle nuance de dégradé 2" x1="248.13" y1="216.49" x2="445.19" y2="216.49" xlink:href="#Nouvelle_nuance_de_dégradé_2"/>
  </defs>
  <g>
    <path d="M123.27,404.26c-.64,0-1.28-.24-1.76-.73-.98-.97-.98-2.56,0-3.54l22.82-22.91c.97-.98,2.56-.98,3.54,0,.98.97.98,2.56,0,3.54l-22.82,22.91c-.49.49-1.13.74-1.77.74Z" style="fill: url(#Nouvelle_nuance_de_dégradé_2);"/>
    <path d="M134.68,444.83c-.64,0-1.28-.24-1.76-.73-.98-.97-.98-2.56,0-3.54l22.82-22.91c.97-.98,2.56-.98,3.54,0,.98.97.98,2.56,0,3.54l-22.82,22.91c-.49.49-1.13.74-1.77.74Z" style="fill: url(#Nouvelle_nuance_de_dégradé_2-2);"/>
    <g>
      <path d="M216.7,452.5s-.08,0-.12,0c-1-.05-1.88-.69-2.23-1.63l-37.39-101.55-112.61-41.59c-.88-.32-1.5-1.12-1.62-2.05-.11-.93.31-1.85,1.09-2.37L443.39,47.93c.82-.55,1.88-.57,2.72-.04.84.52,1.29,1.49,1.15,2.47l-54.23,384.82c-.11.76-.56,1.43-1.22,1.81s-1.47.44-2.18.16l-137.74-55.1-32.93,69.03c-.42.87-1.3,1.42-2.26,1.42ZM70.67,304.73l109.11,40.29c.69.25,1.23.79,1.48,1.48l35.74,97.06,31.38-65.79c.57-1.19,1.96-1.73,3.19-1.25l136.95,54.79,53-376.11L70.67,304.73Z" style="fill: url(#Nouvelle_nuance_de_dégradé_2-3);"/>
      <path d="M207.58,318.16c-.59,0-1.19-.21-1.67-.64-1.03-.92-1.12-2.5-.2-3.53L439.83,52.35c.92-1.03,2.5-1.12,3.53-.2,1.03.92,1.12,2.5.2,3.53l-234.11,261.64c-.49.55-1.18.83-1.86.83Z" style="fill: url(#Nouvelle_nuance_de_dégradé_2-4);"/>
      <path d="M250.63,381.35c-.43,0-.87-.11-1.27-.35-1.19-.7-1.58-2.24-.88-3.42L440.54,52.86c.7-1.19,2.24-1.58,3.42-.88,1.19.7,1.58,2.24.88,3.42l-192.05,324.72c-.47.79-1.3,1.23-2.15,1.23Z" style="fill: url(#Nouvelle_nuance_de_dégradé_2-5);"/>
    </g>
  </g>
  <g>
    <path d="M113.27,404.26c-.64,0-1.28-.24-1.76-.73-.98-.97-.98-2.56,0-3.54l22.82-22.91c.97-.98,2.56-.98,3.54,0,.98.97.98,2.56,0,3.54l-22.82,22.91c-.49.49-1.13.74-1.77.74Z" style="fill: #fff;"/>
    <path d="M124.68,444.83c-.64,0-1.28-.24-1.76-.73-.98-.97-.98-2.56,0-3.54l22.82-22.91c.97-.98,2.56-.98,3.54,0,.98.97.98,2.56,0,3.54l-22.82,22.91c-.49.49-1.13.74-1.77.74Z" style="fill: #fff;"/>
    <g>
      <path d="M206.7,452.5s-.08,0-.12,0c-1-.05-1.88-.69-2.23-1.63l-37.39-101.55-112.61-41.59c-.88-.32-1.5-1.12-1.62-2.05-.11-.93.31-1.85,1.09-2.37L433.39,47.93c.82-.55,1.88-.57,2.72-.04s1.29,1.49,1.15,2.47l-54.23,384.82c-.11.76-.56,1.43-1.22,1.81-.66.38-1.47.44-2.18.16l-137.74-55.1-32.93,69.03c-.42.87-1.3,1.42-2.26,1.42ZM60.67,304.73l109.11,40.29c.69.25,1.23.79,1.48,1.48l35.74,97.06,31.38-65.79c.57-1.19,1.96-1.73,3.19-1.25l136.95,54.79,53.01-376.11L60.67,304.73Z" style="fill: #fff;"/>
      <path d="M197.58,318.16c-.59,0-1.19-.21-1.67-.64-1.03-.92-1.12-2.5-.2-3.53L429.83,52.35c.92-1.03,2.5-1.12,3.53-.2,1.03.92,1.12,2.5.2,3.53l-234.11,261.64c-.49.55-1.18.83-1.86.83Z" style="fill: #fff;"/>
      <path d="M240.63,381.35c-.43,0-.87-.11-1.27-.35-1.19-.7-1.58-2.24-.88-3.42L430.54,52.86c.7-1.19,2.24-1.58,3.42-.88,1.19.7,1.58,2.24.88,3.42l-192.05,324.72c-.47.79-1.3,1.23-2.15,1.23Z" style="fill: #fff;"/>
    </g>
  </g>
</svg>