<?xml version="1.0" encoding="UTF-8"?>
<svg id="Calque_1" data-name="Calque 1" xmlns="http://www.w3.org/2000/svg" xmlns:xlink="http://www.w3.org/1999/xlink" viewBox="0 0 500 500">
  <defs>
    <linearGradient id="Nouvelle_nuance_de_dégradé_2" data-name="Nouvelle nuance de dégradé 2" x1="53.37" y1="67.38" x2="87.84" y2="67.38" gradientUnits="userSpaceOnUse">
      <stop offset="0" stop-color="#00d85d"/>
      <stop offset="1" stop-color="#0ebdb3"/>
    </linearGradient>
    <linearGradient id="Nouvelle_nuance_de_dégradé_2-2" data-name="Nouvelle nuance de dégradé 2" x1="103.15" y1="66.44" x2="120.07" y2="66.44" xlink:href="#Nouvelle_nuance_de_dégradé_2"/>
    <linearGradient id="Nouvelle_nuance_de_dégradé_2-3" data-name="Nouvelle nuance de dégradé 2" x1="137.16" x2="171.63" xlink:href="#Nouvelle_nuance_de_dégradé_2"/>
    <linearGradient id="Nouvelle_nuance_de_dégradé_2-4" data-name="Nouvelle nuance de dégradé 2" x1="186.95" y1="66.44" x2="203.86" y2="66.44" xlink:href="#Nouvelle_nuance_de_dégradé_2"/>
    <linearGradient id="Nouvelle_nuance_de_dégradé_2-5" data-name="Nouvelle nuance de dégradé 2" x1="220.96" x2="255.43" xlink:href="#Nouvelle_nuance_de_dégradé_2"/>
    <linearGradient id="Nouvelle_nuance_de_dégradé_2-6" data-name="Nouvelle nuance de dégradé 2" x1="270.74" y1="66.44" x2="287.66" y2="66.44" xlink:href="#Nouvelle_nuance_de_dégradé_2"/>
    <linearGradient id="Nouvelle_nuance_de_dégradé_2-7" data-name="Nouvelle nuance de dégradé 2" x1="304.75" x2="339.23" xlink:href="#Nouvelle_nuance_de_dégradé_2"/>
    <linearGradient id="Nouvelle_nuance_de_dégradé_2-8" data-name="Nouvelle nuance de dégradé 2" x1="354.54" y1="66.44" x2="371.45" y2="66.44" xlink:href="#Nouvelle_nuance_de_dégradé_2"/>
    <linearGradient id="Nouvelle_nuance_de_dégradé_2-9" data-name="Nouvelle nuance de dégradé 2" x1="388.55" x2="423.02" xlink:href="#Nouvelle_nuance_de_dégradé_2"/>
    <linearGradient id="Nouvelle_nuance_de_dégradé_2-10" data-name="Nouvelle nuance de dégradé 2" x1="438.33" y1="66.44" x2="455.25" y2="66.44" xlink:href="#Nouvelle_nuance_de_dégradé_2"/>
    <linearGradient id="Nouvelle_nuance_de_dégradé_2-11" data-name="Nouvelle nuance de dégradé 2" x1="423.78" y1="118.47" x2="458.25" y2="118.47" xlink:href="#Nouvelle_nuance_de_dégradé_2"/>
    <linearGradient id="Nouvelle_nuance_de_dégradé_2-12" data-name="Nouvelle nuance de dégradé 2" x1="54.06" y1="117.53" x2="70.97" y2="117.53" xlink:href="#Nouvelle_nuance_de_dégradé_2"/>
    <linearGradient id="Nouvelle_nuance_de_dégradé_2-13" data-name="Nouvelle nuance de dégradé 2" x1="88.07" y1="118.47" x2="122.54" y2="118.47" xlink:href="#Nouvelle_nuance_de_dégradé_2"/>
    <linearGradient id="Nouvelle_nuance_de_dégradé_2-14" data-name="Nouvelle nuance de dégradé 2" x1="137.86" y1="117.53" x2="154.77" y2="117.53" xlink:href="#Nouvelle_nuance_de_dégradé_2"/>
    <linearGradient id="Nouvelle_nuance_de_dégradé_2-15" data-name="Nouvelle nuance de dégradé 2" x1="171.87" y1="118.47" x2="206.34" y2="118.47" xlink:href="#Nouvelle_nuance_de_dégradé_2"/>
    <linearGradient id="Nouvelle_nuance_de_dégradé_2-16" data-name="Nouvelle nuance de dégradé 2" x1="221.65" y1="117.53" x2="238.57" y2="117.53" xlink:href="#Nouvelle_nuance_de_dégradé_2"/>
    <linearGradient id="Nouvelle_nuance_de_dégradé_2-17" data-name="Nouvelle nuance de dégradé 2" x1="255.66" y1="118.47" x2="290.13" y2="118.47" xlink:href="#Nouvelle_nuance_de_dégradé_2"/>
    <linearGradient id="Nouvelle_nuance_de_dégradé_2-18" data-name="Nouvelle nuance de dégradé 2" x1="305.45" y1="117.53" x2="322.36" y2="117.53" xlink:href="#Nouvelle_nuance_de_dégradé_2"/>
    <linearGradient id="Nouvelle_nuance_de_dégradé_2-19" data-name="Nouvelle nuance de dégradé 2" x1="339.46" y1="118.47" x2="373.93" y2="118.47" xlink:href="#Nouvelle_nuance_de_dégradé_2"/>
    <linearGradient id="Nouvelle_nuance_de_dégradé_2-20" data-name="Nouvelle nuance de dégradé 2" x1="389.24" y1="117.53" x2="406.16" y2="117.53" xlink:href="#Nouvelle_nuance_de_dégradé_2"/>
    <linearGradient id="Nouvelle_nuance_de_dégradé_2-21" data-name="Nouvelle nuance de dégradé 2" y1="171.53" y2="171.53" xlink:href="#Nouvelle_nuance_de_dégradé_2"/>
    <linearGradient id="Nouvelle_nuance_de_dégradé_2-22" data-name="Nouvelle nuance de dégradé 2" x1="103.15" y1="170.59" x2="120.07" y2="170.59" xlink:href="#Nouvelle_nuance_de_dégradé_2"/>
    <linearGradient id="Nouvelle_nuance_de_dégradé_2-23" data-name="Nouvelle nuance de dégradé 2" x1="137.16" y1="171.53" x2="171.63" y2="171.53" xlink:href="#Nouvelle_nuance_de_dégradé_2"/>
    <linearGradient id="Nouvelle_nuance_de_dégradé_2-24" data-name="Nouvelle nuance de dégradé 2" x1="186.95" y1="170.59" x2="203.86" y2="170.59" xlink:href="#Nouvelle_nuance_de_dégradé_2"/>
    <linearGradient id="Nouvelle_nuance_de_dégradé_2-25" data-name="Nouvelle nuance de dégradé 2" x1="220.96" y1="171.53" x2="255.43" y2="171.53" xlink:href="#Nouvelle_nuance_de_dégradé_2"/>
    <linearGradient id="Nouvelle_nuance_de_dégradé_2-26" data-name="Nouvelle nuance de dégradé 2" x1="270.74" y1="170.59" x2="287.66" y2="170.59" xlink:href="#Nouvelle_nuance_de_dégradé_2"/>
    <linearGradient id="Nouvelle_nuance_de_dégradé_2-27" data-name="Nouvelle nuance de dégradé 2" x1="304.75" y1="171.53" x2="339.23" y2="171.53" xlink:href="#Nouvelle_nuance_de_dégradé_2"/>
    <linearGradient id="Nouvelle_nuance_de_dégradé_2-28" data-name="Nouvelle nuance de dégradé 2" x1="354.54" y1="170.59" x2="371.45" y2="170.59" xlink:href="#Nouvelle_nuance_de_dégradé_2"/>
    <linearGradient id="Nouvelle_nuance_de_dégradé_2-29" data-name="Nouvelle nuance de dégradé 2" x1="388.55" y1="171.53" x2="423.02" y2="171.53" xlink:href="#Nouvelle_nuance_de_dégradé_2"/>
    <linearGradient id="Nouvelle_nuance_de_dégradé_2-30" data-name="Nouvelle nuance de dégradé 2" x1="438.33" y1="170.59" x2="455.25" y2="170.59" xlink:href="#Nouvelle_nuance_de_dégradé_2"/>
    <linearGradient id="Nouvelle_nuance_de_dégradé_2-31" data-name="Nouvelle nuance de dégradé 2" x1="423.78" y1="222.62" x2="458.25" y2="222.62" xlink:href="#Nouvelle_nuance_de_dégradé_2"/>
    <linearGradient id="Nouvelle_nuance_de_dégradé_2-32" data-name="Nouvelle nuance de dégradé 2" x1="54.06" y1="221.68" x2="70.97" y2="221.68" xlink:href="#Nouvelle_nuance_de_dégradé_2"/>
    <linearGradient id="Nouvelle_nuance_de_dégradé_2-33" data-name="Nouvelle nuance de dégradé 2" x1="88.07" y1="222.62" x2="122.54" y2="222.62" xlink:href="#Nouvelle_nuance_de_dégradé_2"/>
    <linearGradient id="Nouvelle_nuance_de_dégradé_2-34" data-name="Nouvelle nuance de dégradé 2" x1="137.86" y1="221.68" x2="154.77" y2="221.68" xlink:href="#Nouvelle_nuance_de_dégradé_2"/>
    <linearGradient id="Nouvelle_nuance_de_dégradé_2-35" data-name="Nouvelle nuance de dégradé 2" x1="171.87" y1="222.62" x2="206.34" y2="222.62" xlink:href="#Nouvelle_nuance_de_dégradé_2"/>
    <linearGradient id="Nouvelle_nuance_de_dégradé_2-36" data-name="Nouvelle nuance de dégradé 2" x1="221.65" y1="221.68" x2="238.57" y2="221.68" xlink:href="#Nouvelle_nuance_de_dégradé_2"/>
    <linearGradient id="Nouvelle_nuance_de_dégradé_2-37" data-name="Nouvelle nuance de dégradé 2" x1="255.66" y1="222.62" x2="290.13" y2="222.62" xlink:href="#Nouvelle_nuance_de_dégradé_2"/>
    <linearGradient id="Nouvelle_nuance_de_dégradé_2-38" data-name="Nouvelle nuance de dégradé 2" x1="305.45" y1="221.68" x2="322.36" y2="221.68" xlink:href="#Nouvelle_nuance_de_dégradé_2"/>
    <linearGradient id="Nouvelle_nuance_de_dégradé_2-39" data-name="Nouvelle nuance de dégradé 2" x1="339.46" y1="222.62" x2="373.93" y2="222.62" xlink:href="#Nouvelle_nuance_de_dégradé_2"/>
    <linearGradient id="Nouvelle_nuance_de_dégradé_2-40" data-name="Nouvelle nuance de dégradé 2" x1="389.24" y1="221.68" x2="406.16" y2="221.68" xlink:href="#Nouvelle_nuance_de_dégradé_2"/>
    <linearGradient id="Nouvelle_nuance_de_dégradé_2-41" data-name="Nouvelle nuance de dégradé 2" y1="275.68" y2="275.68" xlink:href="#Nouvelle_nuance_de_dégradé_2"/>
    <linearGradient id="Nouvelle_nuance_de_dégradé_2-42" data-name="Nouvelle nuance de dégradé 2" x1="103.15" y1="274.74" x2="120.07" y2="274.74" xlink:href="#Nouvelle_nuance_de_dégradé_2"/>
    <linearGradient id="Nouvelle_nuance_de_dégradé_2-43" data-name="Nouvelle nuance de dégradé 2" x1="137.16" y1="275.68" x2="171.63" y2="275.68" xlink:href="#Nouvelle_nuance_de_dégradé_2"/>
    <linearGradient id="Nouvelle_nuance_de_dégradé_2-44" data-name="Nouvelle nuance de dégradé 2" x1="186.95" y1="274.74" x2="203.86" y2="274.74" xlink:href="#Nouvelle_nuance_de_dégradé_2"/>
    <linearGradient id="Nouvelle_nuance_de_dégradé_2-45" data-name="Nouvelle nuance de dégradé 2" x1="220.96" y1="275.68" x2="255.43" y2="275.68" xlink:href="#Nouvelle_nuance_de_dégradé_2"/>
    <linearGradient id="Nouvelle_nuance_de_dégradé_2-46" data-name="Nouvelle nuance de dégradé 2" x1="270.74" y1="274.74" x2="287.66" y2="274.74" xlink:href="#Nouvelle_nuance_de_dégradé_2"/>
    <linearGradient id="Nouvelle_nuance_de_dégradé_2-47" data-name="Nouvelle nuance de dégradé 2" x1="304.75" y1="275.68" x2="339.23" y2="275.68" xlink:href="#Nouvelle_nuance_de_dégradé_2"/>
    <linearGradient id="Nouvelle_nuance_de_dégradé_2-48" data-name="Nouvelle nuance de dégradé 2" x1="354.54" y1="274.74" x2="371.45" y2="274.74" xlink:href="#Nouvelle_nuance_de_dégradé_2"/>
    <linearGradient id="Nouvelle_nuance_de_dégradé_2-49" data-name="Nouvelle nuance de dégradé 2" x1="388.55" y1="275.68" x2="423.02" y2="275.68" xlink:href="#Nouvelle_nuance_de_dégradé_2"/>
    <linearGradient id="Nouvelle_nuance_de_dégradé_2-50" data-name="Nouvelle nuance de dégradé 2" x1="438.33" y1="274.74" x2="455.25" y2="274.74" xlink:href="#Nouvelle_nuance_de_dégradé_2"/>
    <linearGradient id="Nouvelle_nuance_de_dégradé_2-51" data-name="Nouvelle nuance de dégradé 2" x1="423.78" y1="326.77" x2="458.25" y2="326.77" xlink:href="#Nouvelle_nuance_de_dégradé_2"/>
    <linearGradient id="Nouvelle_nuance_de_dégradé_2-52" data-name="Nouvelle nuance de dégradé 2" x1="54.06" y1="325.83" x2="70.97" y2="325.83" xlink:href="#Nouvelle_nuance_de_dégradé_2"/>
    <linearGradient id="Nouvelle_nuance_de_dégradé_2-53" data-name="Nouvelle nuance de dégradé 2" x1="88.07" y1="326.77" x2="122.54" y2="326.77" xlink:href="#Nouvelle_nuance_de_dégradé_2"/>
    <linearGradient id="Nouvelle_nuance_de_dégradé_2-54" data-name="Nouvelle nuance de dégradé 2" x1="137.86" y1="325.83" x2="154.77" y2="325.83" xlink:href="#Nouvelle_nuance_de_dégradé_2"/>
    <linearGradient id="Nouvelle_nuance_de_dégradé_2-55" data-name="Nouvelle nuance de dégradé 2" x1="171.87" y1="326.77" x2="206.34" y2="326.77" xlink:href="#Nouvelle_nuance_de_dégradé_2"/>
    <linearGradient id="Nouvelle_nuance_de_dégradé_2-56" data-name="Nouvelle nuance de dégradé 2" x1="221.65" y1="325.83" x2="238.57" y2="325.83" xlink:href="#Nouvelle_nuance_de_dégradé_2"/>
    <linearGradient id="Nouvelle_nuance_de_dégradé_2-57" data-name="Nouvelle nuance de dégradé 2" x1="255.66" y1="326.77" x2="290.13" y2="326.77" xlink:href="#Nouvelle_nuance_de_dégradé_2"/>
    <linearGradient id="Nouvelle_nuance_de_dégradé_2-58" data-name="Nouvelle nuance de dégradé 2" x1="305.45" y1="325.83" x2="322.36" y2="325.83" xlink:href="#Nouvelle_nuance_de_dégradé_2"/>
    <linearGradient id="Nouvelle_nuance_de_dégradé_2-59" data-name="Nouvelle nuance de dégradé 2" x1="339.46" y1="326.77" x2="373.93" y2="326.77" xlink:href="#Nouvelle_nuance_de_dégradé_2"/>
    <linearGradient id="Nouvelle_nuance_de_dégradé_2-60" data-name="Nouvelle nuance de dégradé 2" x1="389.24" y1="325.83" x2="406.16" y2="325.83" xlink:href="#Nouvelle_nuance_de_dégradé_2"/>
    <linearGradient id="Nouvelle_nuance_de_dégradé_2-61" data-name="Nouvelle nuance de dégradé 2" y1="379.83" y2="379.83" xlink:href="#Nouvelle_nuance_de_dégradé_2"/>
    <linearGradient id="Nouvelle_nuance_de_dégradé_2-62" data-name="Nouvelle nuance de dégradé 2" x1="103.15" y1="378.89" x2="120.07" y2="378.89" xlink:href="#Nouvelle_nuance_de_dégradé_2"/>
    <linearGradient id="Nouvelle_nuance_de_dégradé_2-63" data-name="Nouvelle nuance de dégradé 2" x1="137.16" y1="379.83" x2="171.63" y2="379.83" xlink:href="#Nouvelle_nuance_de_dégradé_2"/>
    <linearGradient id="Nouvelle_nuance_de_dégradé_2-64" data-name="Nouvelle nuance de dégradé 2" x1="186.95" y1="378.89" x2="203.86" y2="378.89" xlink:href="#Nouvelle_nuance_de_dégradé_2"/>
    <linearGradient id="Nouvelle_nuance_de_dégradé_2-65" data-name="Nouvelle nuance de dégradé 2" x1="220.96" y1="379.83" x2="255.43" y2="379.83" xlink:href="#Nouvelle_nuance_de_dégradé_2"/>
    <linearGradient id="Nouvelle_nuance_de_dégradé_2-66" data-name="Nouvelle nuance de dégradé 2" x1="270.74" y1="378.89" x2="287.66" y2="378.89" xlink:href="#Nouvelle_nuance_de_dégradé_2"/>
    <linearGradient id="Nouvelle_nuance_de_dégradé_2-67" data-name="Nouvelle nuance de dégradé 2" x1="304.75" y1="379.83" x2="339.23" y2="379.83" xlink:href="#Nouvelle_nuance_de_dégradé_2"/>
    <linearGradient id="Nouvelle_nuance_de_dégradé_2-68" data-name="Nouvelle nuance de dégradé 2" x1="354.54" y1="378.89" x2="371.45" y2="378.89" xlink:href="#Nouvelle_nuance_de_dégradé_2"/>
    <linearGradient id="Nouvelle_nuance_de_dégradé_2-69" data-name="Nouvelle nuance de dégradé 2" x1="388.55" y1="379.83" x2="423.02" y2="379.83" xlink:href="#Nouvelle_nuance_de_dégradé_2"/>
    <linearGradient id="Nouvelle_nuance_de_dégradé_2-70" data-name="Nouvelle nuance de dégradé 2" x1="438.33" y1="378.89" x2="455.25" y2="378.89" xlink:href="#Nouvelle_nuance_de_dégradé_2"/>
    <linearGradient id="Nouvelle_nuance_de_dégradé_2-71" data-name="Nouvelle nuance de dégradé 2" x1="423.78" y1="430.92" x2="458.25" y2="430.92" xlink:href="#Nouvelle_nuance_de_dégradé_2"/>
    <linearGradient id="Nouvelle_nuance_de_dégradé_2-72" data-name="Nouvelle nuance de dégradé 2" x1="54.06" y1="429.98" x2="70.97" y2="429.98" xlink:href="#Nouvelle_nuance_de_dégradé_2"/>
    <linearGradient id="Nouvelle_nuance_de_dégradé_2-73" data-name="Nouvelle nuance de dégradé 2" x1="88.07" y1="430.92" x2="122.54" y2="430.92" xlink:href="#Nouvelle_nuance_de_dégradé_2"/>
    <linearGradient id="Nouvelle_nuance_de_dégradé_2-74" data-name="Nouvelle nuance de dégradé 2" x1="137.86" y1="429.98" x2="154.77" y2="429.98" xlink:href="#Nouvelle_nuance_de_dégradé_2"/>
    <linearGradient id="Nouvelle_nuance_de_dégradé_2-75" data-name="Nouvelle nuance de dégradé 2" x1="171.87" y1="430.92" x2="206.34" y2="430.92" xlink:href="#Nouvelle_nuance_de_dégradé_2"/>
    <linearGradient id="Nouvelle_nuance_de_dégradé_2-76" data-name="Nouvelle nuance de dégradé 2" x1="221.65" y1="429.98" x2="238.57" y2="429.98" xlink:href="#Nouvelle_nuance_de_dégradé_2"/>
    <linearGradient id="Nouvelle_nuance_de_dégradé_2-77" data-name="Nouvelle nuance de dégradé 2" x1="255.66" y1="430.92" x2="290.13" y2="430.92" xlink:href="#Nouvelle_nuance_de_dégradé_2"/>
    <linearGradient id="Nouvelle_nuance_de_dégradé_2-78" data-name="Nouvelle nuance de dégradé 2" x1="305.45" y1="429.98" x2="322.36" y2="429.98" xlink:href="#Nouvelle_nuance_de_dégradé_2"/>
    <linearGradient id="Nouvelle_nuance_de_dégradé_2-79" data-name="Nouvelle nuance de dégradé 2" x1="339.46" y1="430.92" x2="373.93" y2="430.92" xlink:href="#Nouvelle_nuance_de_dégradé_2"/>
    <linearGradient id="Nouvelle_nuance_de_dégradé_2-80" data-name="Nouvelle nuance de dégradé 2" x1="389.24" y1="429.98" x2="406.16" y2="429.98" xlink:href="#Nouvelle_nuance_de_dégradé_2"/>
  </defs>
  <g>
    <path d="M70.6,84.61c-9.5,0-17.24-7.73-17.24-17.24s7.73-17.24,17.24-17.24,17.24,7.73,17.24,17.24-7.73,17.24-17.24,17.24ZM70.6,55.14c-6.75,0-12.24,5.49-12.24,12.24s5.49,12.24,12.24,12.24,12.24-5.49,12.24-12.24-5.49-12.24-12.24-12.24Z" style="fill: url(#Nouvelle_nuance_de_dégradé_2);"/>
    <path d="M117.57,82.65c-1.38,0-2.5-1.12-2.5-2.5v-20.38l-7.48,9.19c-.87,1.07-2.45,1.23-3.52.36-1.07-.87-1.23-2.45-.36-3.52l11.92-14.65c.67-.82,1.78-1.13,2.78-.78,1,.35,1.66,1.3,1.66,2.36v27.42c0,1.38-1.12,2.5-2.5,2.5Z" style="fill: url(#Nouvelle_nuance_de_dégradé_2-2);"/>
    <path d="M154.4,84.61c-9.5,0-17.24-7.73-17.24-17.24s7.73-17.24,17.24-17.24,17.24,7.73,17.24,17.24-7.73,17.24-17.24,17.24ZM154.4,55.14c-6.75,0-12.24,5.49-12.24,12.24s5.49,12.24,12.24,12.24,12.24-5.49,12.24-12.24-5.49-12.24-12.24-12.24Z" style="fill: url(#Nouvelle_nuance_de_dégradé_2-3);"/>
    <path d="M201.36,82.65c-1.38,0-2.5-1.12-2.5-2.5v-20.38l-7.47,9.19c-.87,1.07-2.45,1.23-3.52.36-1.07-.87-1.23-2.45-.36-3.52l11.91-14.65c.67-.82,1.78-1.13,2.78-.78,1,.35,1.66,1.3,1.66,2.36v27.42c0,1.38-1.12,2.5-2.5,2.5Z" style="fill: url(#Nouvelle_nuance_de_dégradé_2-4);"/>
    <path d="M238.2,84.61c-9.5,0-17.24-7.73-17.24-17.24s7.73-17.24,17.24-17.24,17.24,7.73,17.24,17.24-7.73,17.24-17.24,17.24ZM238.2,55.14c-6.75,0-12.24,5.49-12.24,12.24s5.49,12.24,12.24,12.24,12.24-5.49,12.24-12.24-5.49-12.24-12.24-12.24Z" style="fill: url(#Nouvelle_nuance_de_dégradé_2-5);"/>
    <path d="M285.16,82.65c-1.38,0-2.5-1.12-2.5-2.5v-20.38l-7.47,9.19c-.87,1.07-2.45,1.23-3.52.36-1.07-.87-1.23-2.45-.36-3.52l11.91-14.65c.67-.82,1.78-1.13,2.78-.78,1,.35,1.66,1.3,1.66,2.36v27.42c0,1.38-1.12,2.5-2.5,2.5Z" style="fill: url(#Nouvelle_nuance_de_dégradé_2-6);"/>
    <path d="M321.99,84.61c-9.5,0-17.24-7.73-17.24-17.24s7.73-17.24,17.24-17.24,17.24,7.73,17.24,17.24-7.73,17.24-17.24,17.24ZM321.99,55.14c-6.75,0-12.24,5.49-12.24,12.24s5.49,12.24,12.24,12.24,12.24-5.49,12.24-12.24-5.49-12.24-12.24-12.24Z" style="fill: url(#Nouvelle_nuance_de_dégradé_2-7);"/>
    <path d="M368.95,82.65c-1.38,0-2.5-1.12-2.5-2.5v-20.38l-7.47,9.19c-.87,1.07-2.45,1.23-3.52.36s-1.23-2.45-.36-3.52l11.91-14.65c.67-.82,1.78-1.13,2.78-.78,1,.35,1.66,1.3,1.66,2.36v27.42c0,1.38-1.12,2.5-2.5,2.5Z" style="fill: url(#Nouvelle_nuance_de_dégradé_2-8);"/>
    <path d="M405.79,84.61c-9.5,0-17.24-7.73-17.24-17.24s7.73-17.24,17.24-17.24,17.24,7.73,17.24,17.24-7.73,17.24-17.24,17.24ZM405.79,55.14c-6.75,0-12.24,5.49-12.24,12.24s5.49,12.24,12.24,12.24,12.24-5.49,12.24-12.24-5.49-12.24-12.24-12.24Z" style="fill: url(#Nouvelle_nuance_de_dégradé_2-9);"/>
    <path d="M452.75,82.65c-1.38,0-2.5-1.12-2.5-2.5v-20.38l-7.48,9.19c-.87,1.07-2.45,1.23-3.52.36-1.07-.87-1.23-2.45-.36-3.52l11.92-14.65c.67-.82,1.78-1.13,2.78-.78,1,.35,1.66,1.3,1.66,2.36v27.42c0,1.38-1.12,2.5-2.5,2.5Z" style="fill: url(#Nouvelle_nuance_de_dégradé_2-10);"/>
    <path d="M441.01,135.7c-9.5,0-17.24-7.73-17.24-17.24s7.73-17.24,17.24-17.24,17.24,7.73,17.24,17.24-7.73,17.24-17.24,17.24ZM441.01,106.23c-6.75,0-12.24,5.49-12.24,12.24s5.49,12.24,12.24,12.24,12.24-5.49,12.24-12.24-5.49-12.24-12.24-12.24Z" style="fill: url(#Nouvelle_nuance_de_dégradé_2-11);"/>
    <path d="M68.47,133.74c-1.38,0-2.5-1.12-2.5-2.5v-20.38l-7.47,9.19c-.87,1.07-2.45,1.23-3.52.36-1.07-.87-1.23-2.45-.36-3.52l11.91-14.65c.67-.82,1.78-1.13,2.78-.78,1,.35,1.66,1.3,1.66,2.36v27.42c0,1.38-1.12,2.5-2.5,2.5Z" style="fill: url(#Nouvelle_nuance_de_dégradé_2-12);"/>
    <path d="M105.31,135.7c-9.5,0-17.24-7.73-17.24-17.24s7.73-17.24,17.24-17.24,17.24,7.73,17.24,17.24-7.73,17.24-17.24,17.24ZM105.31,106.23c-6.75,0-12.24,5.49-12.24,12.24s5.49,12.24,12.24,12.24,12.24-5.49,12.24-12.24-5.49-12.24-12.24-12.24Z" style="fill: url(#Nouvelle_nuance_de_dégradé_2-13);"/>
    <path d="M152.27,133.74c-1.38,0-2.5-1.12-2.5-2.5v-20.38l-7.48,9.19c-.87,1.07-2.45,1.23-3.52.36-1.07-.87-1.23-2.45-.36-3.52l11.92-14.65c.67-.82,1.78-1.13,2.78-.78,1,.35,1.66,1.3,1.66,2.36v27.42c0,1.38-1.12,2.5-2.5,2.5Z" style="fill: url(#Nouvelle_nuance_de_dégradé_2-14);"/>
    <path d="M189.1,135.7c-9.5,0-17.24-7.73-17.24-17.24s7.73-17.24,17.24-17.24,17.24,7.73,17.24,17.24-7.73,17.24-17.24,17.24ZM189.1,106.23c-6.75,0-12.24,5.49-12.24,12.24s5.49,12.24,12.24,12.24,12.24-5.49,12.24-12.24-5.49-12.24-12.24-12.24Z" style="fill: url(#Nouvelle_nuance_de_dégradé_2-15);"/>
    <path d="M236.07,133.74c-1.38,0-2.5-1.12-2.5-2.5v-20.38l-7.47,9.19c-.87,1.07-2.45,1.23-3.52.36-1.07-.87-1.23-2.45-.36-3.52l11.91-14.65c.67-.82,1.78-1.13,2.78-.78,1,.35,1.66,1.3,1.66,2.36v27.42c0,1.38-1.12,2.5-2.5,2.5Z" style="fill: url(#Nouvelle_nuance_de_dégradé_2-16);"/>
    <path d="M272.9,135.7c-9.5,0-17.24-7.73-17.24-17.24s7.73-17.24,17.24-17.24,17.24,7.73,17.24,17.24-7.73,17.24-17.24,17.24ZM272.9,106.23c-6.75,0-12.24,5.49-12.24,12.24s5.49,12.24,12.24,12.24,12.24-5.49,12.24-12.24-5.49-12.24-12.24-12.24Z" style="fill: url(#Nouvelle_nuance_de_dégradé_2-17);"/>
    <path d="M319.86,133.74c-1.38,0-2.5-1.12-2.5-2.5v-20.38l-7.47,9.19c-.87,1.07-2.45,1.23-3.52.36-1.07-.87-1.23-2.45-.36-3.52l11.91-14.65c.67-.82,1.78-1.13,2.78-.78,1,.35,1.66,1.3,1.66,2.36v27.42c0,1.38-1.12,2.5-2.5,2.5Z" style="fill: url(#Nouvelle_nuance_de_dégradé_2-18);"/>
    <path d="M356.69,135.7c-9.5,0-17.24-7.73-17.24-17.24s7.73-17.24,17.24-17.24,17.24,7.73,17.24,17.24-7.73,17.24-17.24,17.24ZM356.69,106.23c-6.75,0-12.24,5.49-12.24,12.24s5.49,12.24,12.24,12.24,12.24-5.49,12.24-12.24-5.49-12.24-12.24-12.24Z" style="fill: url(#Nouvelle_nuance_de_dégradé_2-19);"/>
    <path d="M403.66,133.74c-1.38,0-2.5-1.12-2.5-2.5v-20.38l-7.47,9.19c-.87,1.07-2.45,1.23-3.52.36-1.07-.87-1.23-2.45-.36-3.52l11.91-14.65c.67-.82,1.78-1.13,2.78-.78,1,.35,1.66,1.3,1.66,2.36v27.42c0,1.38-1.12,2.5-2.5,2.5Z" style="fill: url(#Nouvelle_nuance_de_dégradé_2-20);"/>
    <path d="M70.6,188.76c-9.5,0-17.24-7.73-17.24-17.24s7.73-17.24,17.24-17.24,17.24,7.73,17.24,17.24-7.73,17.24-17.24,17.24ZM70.6,159.29c-6.75,0-12.24,5.49-12.24,12.24s5.49,12.24,12.24,12.24,12.24-5.49,12.24-12.24-5.49-12.24-12.24-12.24Z" style="fill: url(#Nouvelle_nuance_de_dégradé_2-21);"/>
    <path d="M117.57,186.8c-1.38,0-2.5-1.12-2.5-2.5v-20.38l-7.48,9.19c-.87,1.07-2.45,1.23-3.52.36-1.07-.87-1.23-2.45-.36-3.52l11.92-14.65c.67-.82,1.78-1.13,2.78-.78,1,.35,1.66,1.3,1.66,2.36v27.42c0,1.38-1.12,2.5-2.5,2.5Z" style="fill: url(#Nouvelle_nuance_de_dégradé_2-22);"/>
    <path d="M154.4,188.76c-9.5,0-17.24-7.73-17.24-17.24s7.73-17.24,17.24-17.24,17.24,7.73,17.24,17.24-7.73,17.24-17.24,17.24ZM154.4,159.29c-6.75,0-12.24,5.49-12.24,12.24s5.49,12.24,12.24,12.24,12.24-5.49,12.24-12.24-5.49-12.24-12.24-12.24Z" style="fill: url(#Nouvelle_nuance_de_dégradé_2-23);"/>
    <path d="M201.36,186.8c-1.38,0-2.5-1.12-2.5-2.5v-20.38l-7.47,9.19c-.87,1.07-2.45,1.23-3.52.36-1.07-.87-1.23-2.45-.36-3.52l11.91-14.65c.67-.82,1.78-1.13,2.78-.78,1,.35,1.66,1.3,1.66,2.36v27.42c0,1.38-1.12,2.5-2.5,2.5Z" style="fill: url(#Nouvelle_nuance_de_dégradé_2-24);"/>
    <path d="M238.2,188.76c-9.5,0-17.24-7.73-17.24-17.24s7.73-17.24,17.24-17.24,17.24,7.73,17.24,17.24-7.73,17.24-17.24,17.24ZM238.2,159.29c-6.75,0-12.24,5.49-12.24,12.24s5.49,12.24,12.24,12.24,12.24-5.49,12.24-12.24-5.49-12.24-12.24-12.24Z" style="fill: url(#Nouvelle_nuance_de_dégradé_2-25);"/>
    <path d="M285.16,186.8c-1.38,0-2.5-1.12-2.5-2.5v-20.38l-7.47,9.19c-.87,1.07-2.45,1.23-3.52.36-1.07-.87-1.23-2.45-.36-3.52l11.91-14.65c.67-.82,1.78-1.13,2.78-.78,1,.35,1.66,1.3,1.66,2.36v27.42c0,1.38-1.12,2.5-2.5,2.5Z" style="fill: url(#Nouvelle_nuance_de_dégradé_2-26);"/>
    <path d="M321.99,188.76c-9.5,0-17.24-7.73-17.24-17.24s7.73-17.24,17.24-17.24,17.24,7.73,17.24,17.24-7.73,17.24-17.24,17.24ZM321.99,159.29c-6.75,0-12.24,5.49-12.24,12.24s5.49,12.24,12.24,12.24,12.24-5.49,12.24-12.24-5.49-12.24-12.24-12.24Z" style="fill: url(#Nouvelle_nuance_de_dégradé_2-27);"/>
    <path d="M368.95,186.8c-1.38,0-2.5-1.12-2.5-2.5v-20.38l-7.47,9.19c-.87,1.07-2.45,1.23-3.52.36s-1.23-2.45-.36-3.52l11.91-14.65c.67-.82,1.78-1.13,2.78-.78,1,.35,1.66,1.3,1.66,2.36v27.42c0,1.38-1.12,2.5-2.5,2.5Z" style="fill: url(#Nouvelle_nuance_de_dégradé_2-28);"/>
    <path d="M405.79,188.76c-9.5,0-17.24-7.73-17.24-17.24s7.73-17.24,17.24-17.24,17.24,7.73,17.24,17.24-7.73,17.24-17.24,17.24ZM405.79,159.29c-6.75,0-12.24,5.49-12.24,12.24s5.49,12.24,12.24,12.24,12.24-5.49,12.24-12.24-5.49-12.24-12.24-12.24Z" style="fill: url(#Nouvelle_nuance_de_dégradé_2-29);"/>
    <path d="M452.75,186.8c-1.38,0-2.5-1.12-2.5-2.5v-20.38l-7.48,9.19c-.87,1.07-2.45,1.23-3.52.36-1.07-.87-1.23-2.45-.36-3.52l11.92-14.65c.67-.82,1.78-1.13,2.78-.78,1,.35,1.66,1.3,1.66,2.36v27.42c0,1.38-1.12,2.5-2.5,2.5Z" style="fill: url(#Nouvelle_nuance_de_dégradé_2-30);"/>
    <path d="M441.01,239.85c-9.5,0-17.24-7.73-17.24-17.24s7.73-17.24,17.24-17.24,17.24,7.73,17.24,17.24-7.73,17.24-17.24,17.24ZM441.01,210.38c-6.75,0-12.24,5.49-12.24,12.24s5.49,12.24,12.24,12.24,12.24-5.49,12.24-12.24-5.49-12.24-12.24-12.24Z" style="fill: url(#Nouvelle_nuance_de_dégradé_2-31);"/>
    <path d="M68.47,237.89c-1.38,0-2.5-1.12-2.5-2.5v-20.38l-7.47,9.19c-.87,1.07-2.45,1.23-3.52.36-1.07-.87-1.23-2.45-.36-3.52l11.91-14.65c.67-.82,1.78-1.13,2.78-.78,1,.35,1.66,1.3,1.66,2.36v27.42c0,1.38-1.12,2.5-2.5,2.5Z" style="fill: url(#Nouvelle_nuance_de_dégradé_2-32);"/>
    <path d="M105.31,239.85c-9.5,0-17.24-7.73-17.24-17.24s7.73-17.24,17.24-17.24,17.24,7.73,17.24,17.24-7.73,17.24-17.24,17.24ZM105.31,210.38c-6.75,0-12.24,5.49-12.24,12.24s5.49,12.24,12.24,12.24,12.24-5.49,12.24-12.24-5.49-12.24-12.24-12.24Z" style="fill: url(#Nouvelle_nuance_de_dégradé_2-33);"/>
    <path d="M152.27,237.89c-1.38,0-2.5-1.12-2.5-2.5v-20.38l-7.48,9.19c-.87,1.07-2.45,1.23-3.52.36-1.07-.87-1.23-2.45-.36-3.52l11.92-14.65c.67-.82,1.78-1.13,2.78-.78,1,.35,1.66,1.3,1.66,2.36v27.42c0,1.38-1.12,2.5-2.5,2.5Z" style="fill: url(#Nouvelle_nuance_de_dégradé_2-34);"/>
    <path d="M189.1,239.85c-9.5,0-17.24-7.73-17.24-17.24s7.73-17.24,17.24-17.24,17.24,7.73,17.24,17.24-7.73,17.24-17.24,17.24ZM189.1,210.38c-6.75,0-12.24,5.49-12.24,12.24s5.49,12.24,12.24,12.24,12.24-5.49,12.24-12.24-5.49-12.24-12.24-12.24Z" style="fill: url(#Nouvelle_nuance_de_dégradé_2-35);"/>
    <path d="M236.07,237.89c-1.38,0-2.5-1.12-2.5-2.5v-20.38l-7.47,9.19c-.87,1.07-2.45,1.23-3.52.36-1.07-.87-1.23-2.45-.36-3.52l11.91-14.65c.67-.82,1.78-1.13,2.78-.78,1,.35,1.66,1.3,1.66,2.36v27.42c0,1.38-1.12,2.5-2.5,2.5Z" style="fill: url(#Nouvelle_nuance_de_dégradé_2-36);"/>
    <path d="M272.9,239.85c-9.5,0-17.24-7.73-17.24-17.24s7.73-17.24,17.24-17.24,17.24,7.73,17.24,17.24-7.73,17.24-17.24,17.24ZM272.9,210.38c-6.75,0-12.24,5.49-12.24,12.24s5.49,12.24,12.24,12.24,12.24-5.49,12.24-12.24-5.49-12.24-12.24-12.24Z" style="fill: url(#Nouvelle_nuance_de_dégradé_2-37);"/>
    <path d="M319.86,237.89c-1.38,0-2.5-1.12-2.5-2.5v-20.38l-7.47,9.19c-.87,1.07-2.45,1.23-3.52.36-1.07-.87-1.23-2.45-.36-3.52l11.91-14.65c.67-.82,1.78-1.13,2.78-.78,1,.35,1.66,1.3,1.66,2.36v27.42c0,1.38-1.12,2.5-2.5,2.5Z" style="fill: url(#Nouvelle_nuance_de_dégradé_2-38);"/>
    <path d="M356.69,239.85c-9.5,0-17.24-7.73-17.24-17.24s7.73-17.24,17.24-17.24,17.24,7.73,17.24,17.24-7.73,17.24-17.24,17.24ZM356.69,210.38c-6.75,0-12.24,5.49-12.24,12.24s5.49,12.24,12.24,12.24,12.24-5.49,12.24-12.24-5.49-12.24-12.24-12.24Z" style="fill: url(#Nouvelle_nuance_de_dégradé_2-39);"/>
    <path d="M403.66,237.89c-1.38,0-2.5-1.12-2.5-2.5v-20.38l-7.47,9.19c-.87,1.07-2.45,1.23-3.52.36-1.07-.87-1.23-2.45-.36-3.52l11.91-14.65c.67-.82,1.78-1.13,2.78-.78,1,.35,1.66,1.3,1.66,2.36v27.42c0,1.38-1.12,2.5-2.5,2.5Z" style="fill: url(#Nouvelle_nuance_de_dégradé_2-40);"/>
    <path d="M70.6,292.91c-9.5,0-17.24-7.73-17.24-17.24s7.73-17.24,17.24-17.24,17.24,7.73,17.24,17.24-7.73,17.24-17.24,17.24ZM70.6,263.44c-6.75,0-12.24,5.49-12.24,12.24s5.49,12.24,12.24,12.24,12.24-5.49,12.24-12.24-5.49-12.24-12.24-12.24Z" style="fill: url(#Nouvelle_nuance_de_dégradé_2-41);"/>
    <path d="M117.57,290.95c-1.38,0-2.5-1.12-2.5-2.5v-20.38l-7.48,9.19c-.87,1.07-2.45,1.23-3.52.36-1.07-.87-1.23-2.45-.36-3.52l11.92-14.65c.67-.82,1.78-1.13,2.78-.78,1,.35,1.66,1.3,1.66,2.36v27.42c0,1.38-1.12,2.5-2.5,2.5Z" style="fill: url(#Nouvelle_nuance_de_dégradé_2-42);"/>
    <path d="M154.4,292.91c-9.5,0-17.24-7.73-17.24-17.24s7.73-17.24,17.24-17.24,17.24,7.73,17.24,17.24-7.73,17.24-17.24,17.24ZM154.4,263.44c-6.75,0-12.24,5.49-12.24,12.24s5.49,12.24,12.24,12.24,12.24-5.49,12.24-12.24-5.49-12.24-12.24-12.24Z" style="fill: url(#Nouvelle_nuance_de_dégradé_2-43);"/>
    <path d="M201.36,290.95c-1.38,0-2.5-1.12-2.5-2.5v-20.38l-7.47,9.19c-.87,1.07-2.45,1.23-3.52.36-1.07-.87-1.23-2.45-.36-3.52l11.91-14.65c.67-.82,1.78-1.13,2.78-.78,1,.35,1.66,1.3,1.66,2.36v27.42c0,1.38-1.12,2.5-2.5,2.5Z" style="fill: url(#Nouvelle_nuance_de_dégradé_2-44);"/>
    <path d="M238.2,292.91c-9.5,0-17.24-7.73-17.24-17.24s7.73-17.24,17.24-17.24,17.24,7.73,17.24,17.24-7.73,17.24-17.24,17.24ZM238.2,263.44c-6.75,0-12.24,5.49-12.24,12.24s5.49,12.24,12.24,12.24,12.24-5.49,12.24-12.24-5.49-12.24-12.24-12.24Z" style="fill: url(#Nouvelle_nuance_de_dégradé_2-45);"/>
    <path d="M285.16,290.95c-1.38,0-2.5-1.12-2.5-2.5v-20.38l-7.47,9.19c-.87,1.07-2.45,1.23-3.52.36-1.07-.87-1.23-2.45-.36-3.52l11.91-14.65c.67-.82,1.78-1.13,2.78-.78,1,.35,1.66,1.3,1.66,2.36v27.42c0,1.38-1.12,2.5-2.5,2.5Z" style="fill: url(#Nouvelle_nuance_de_dégradé_2-46);"/>
    <path d="M321.99,292.91c-9.5,0-17.24-7.73-17.24-17.24s7.73-17.24,17.24-17.24,17.24,7.73,17.24,17.24-7.73,17.24-17.24,17.24ZM321.99,263.44c-6.75,0-12.24,5.49-12.24,12.24s5.49,12.24,12.24,12.24,12.24-5.49,12.24-12.24-5.49-12.24-12.24-12.24Z" style="fill: url(#Nouvelle_nuance_de_dégradé_2-47);"/>
    <path d="M368.95,290.95c-1.38,0-2.5-1.12-2.5-2.5v-20.38l-7.47,9.19c-.87,1.07-2.45,1.23-3.52.36s-1.23-2.45-.36-3.52l11.91-14.65c.67-.82,1.78-1.13,2.78-.78,1,.35,1.66,1.3,1.66,2.36v27.42c0,1.38-1.12,2.5-2.5,2.5Z" style="fill: url(#Nouvelle_nuance_de_dégradé_2-48);"/>
    <path d="M405.79,292.91c-9.5,0-17.24-7.73-17.24-17.24s7.73-17.24,17.24-17.24,17.24,7.73,17.24,17.24-7.73,17.24-17.24,17.24ZM405.79,263.44c-6.75,0-12.24,5.49-12.24,12.24s5.49,12.24,12.24,12.24,12.24-5.49,12.24-12.24-5.49-12.24-12.24-12.24Z" style="fill: url(#Nouvelle_nuance_de_dégradé_2-49);"/>
    <path d="M452.75,290.95c-1.38,0-2.5-1.12-2.5-2.5v-20.38l-7.48,9.19c-.87,1.07-2.45,1.23-3.52.36-1.07-.87-1.23-2.45-.36-3.52l11.92-14.65c.67-.82,1.78-1.13,2.78-.78,1,.35,1.66,1.3,1.66,2.36v27.42c0,1.38-1.12,2.5-2.5,2.5Z" style="fill: url(#Nouvelle_nuance_de_dégradé_2-50);"/>
    <path d="M441.01,344.01c-9.5,0-17.24-7.73-17.24-17.24s7.73-17.24,17.24-17.24,17.24,7.73,17.24,17.24-7.73,17.24-17.24,17.24ZM441.01,314.53c-6.75,0-12.24,5.49-12.24,12.24s5.49,12.24,12.24,12.24,12.24-5.49,12.24-12.24-5.49-12.24-12.24-12.24Z" style="fill: url(#Nouvelle_nuance_de_dégradé_2-51);"/>
    <path d="M68.47,342.04c-1.38,0-2.5-1.12-2.5-2.5v-20.38l-7.47,9.19c-.87,1.07-2.45,1.23-3.52.36-1.07-.87-1.23-2.45-.36-3.52l11.91-14.65c.67-.82,1.78-1.13,2.78-.78,1,.35,1.66,1.3,1.66,2.36v27.42c0,1.38-1.12,2.5-2.5,2.5Z" style="fill: url(#Nouvelle_nuance_de_dégradé_2-52);"/>
    <path d="M105.31,344.01c-9.5,0-17.24-7.73-17.24-17.24s7.73-17.24,17.24-17.24,17.24,7.73,17.24,17.24-7.73,17.24-17.24,17.24ZM105.31,314.53c-6.75,0-12.24,5.49-12.24,12.24s5.49,12.24,12.24,12.24,12.24-5.49,12.24-12.24-5.49-12.24-12.24-12.24Z" style="fill: url(#Nouvelle_nuance_de_dégradé_2-53);"/>
    <path d="M152.27,342.04c-1.38,0-2.5-1.12-2.5-2.5v-20.38l-7.48,9.19c-.87,1.07-2.45,1.23-3.52.36-1.07-.87-1.23-2.45-.36-3.52l11.92-14.65c.67-.82,1.78-1.13,2.78-.78,1,.35,1.66,1.3,1.66,2.36v27.42c0,1.38-1.12,2.5-2.5,2.5Z" style="fill: url(#Nouvelle_nuance_de_dégradé_2-54);"/>
    <path d="M189.1,344.01c-9.5,0-17.24-7.73-17.24-17.24s7.73-17.24,17.24-17.24,17.24,7.73,17.24,17.24-7.73,17.24-17.24,17.24ZM189.1,314.53c-6.75,0-12.24,5.49-12.24,12.24s5.49,12.24,12.24,12.24,12.24-5.49,12.24-12.24-5.49-12.24-12.24-12.24Z" style="fill: url(#Nouvelle_nuance_de_dégradé_2-55);"/>
    <path d="M236.07,342.04c-1.38,0-2.5-1.12-2.5-2.5v-20.38l-7.47,9.19c-.87,1.07-2.45,1.23-3.52.36-1.07-.87-1.23-2.45-.36-3.52l11.91-14.65c.67-.82,1.78-1.13,2.78-.78,1,.35,1.66,1.3,1.66,2.36v27.42c0,1.38-1.12,2.5-2.5,2.5Z" style="fill: url(#Nouvelle_nuance_de_dégradé_2-56);"/>
    <path d="M272.9,344.01c-9.5,0-17.24-7.73-17.24-17.24s7.73-17.24,17.24-17.24,17.24,7.73,17.24,17.24-7.73,17.24-17.24,17.24ZM272.9,314.53c-6.75,0-12.24,5.49-12.24,12.24s5.49,12.24,12.24,12.24,12.24-5.49,12.24-12.24-5.49-12.24-12.24-12.24Z" style="fill: url(#Nouvelle_nuance_de_dégradé_2-57);"/>
    <path d="M319.86,342.04c-1.38,0-2.5-1.12-2.5-2.5v-20.38l-7.47,9.19c-.87,1.07-2.45,1.23-3.52.36-1.07-.87-1.23-2.45-.36-3.52l11.91-14.65c.67-.82,1.78-1.13,2.78-.78,1,.35,1.66,1.3,1.66,2.36v27.42c0,1.38-1.12,2.5-2.5,2.5Z" style="fill: url(#Nouvelle_nuance_de_dégradé_2-58);"/>
    <path d="M356.69,344.01c-9.5,0-17.24-7.73-17.24-17.24s7.73-17.24,17.24-17.24,17.24,7.73,17.24,17.24-7.73,17.24-17.24,17.24ZM356.69,314.53c-6.75,0-12.24,5.49-12.24,12.24s5.49,12.24,12.24,12.24,12.24-5.49,12.24-12.24-5.49-12.24-12.24-12.24Z" style="fill: url(#Nouvelle_nuance_de_dégradé_2-59);"/>
    <path d="M403.66,342.04c-1.38,0-2.5-1.12-2.5-2.5v-20.38l-7.47,9.19c-.87,1.07-2.45,1.23-3.52.36-1.07-.87-1.23-2.45-.36-3.52l11.91-14.65c.67-.82,1.78-1.13,2.78-.78,1,.35,1.66,1.3,1.66,2.36v27.42c0,1.38-1.12,2.5-2.5,2.5Z" style="fill: url(#Nouvelle_nuance_de_dégradé_2-60);"/>
    <path d="M70.6,397.06c-9.5,0-17.24-7.73-17.24-17.24s7.73-17.24,17.24-17.24,17.24,7.73,17.24,17.24-7.73,17.24-17.24,17.24ZM70.6,367.59c-6.75,0-12.24,5.49-12.24,12.24s5.49,12.24,12.24,12.24,12.24-5.49,12.24-12.24-5.49-12.24-12.24-12.24Z" style="fill: url(#Nouvelle_nuance_de_dégradé_2-61);"/>
    <path d="M117.57,395.1c-1.38,0-2.5-1.12-2.5-2.5v-20.38l-7.48,9.19c-.87,1.07-2.45,1.23-3.52.36-1.07-.87-1.23-2.45-.36-3.52l11.92-14.65c.67-.82,1.78-1.13,2.78-.78,1,.35,1.66,1.3,1.66,2.36v27.42c0,1.38-1.12,2.5-2.5,2.5Z" style="fill: url(#Nouvelle_nuance_de_dégradé_2-62);"/>
    <path d="M154.4,397.06c-9.5,0-17.24-7.73-17.24-17.24s7.73-17.24,17.24-17.24,17.24,7.73,17.24,17.24-7.73,17.24-17.24,17.24ZM154.4,367.59c-6.75,0-12.24,5.49-12.24,12.24s5.49,12.24,12.24,12.24,12.24-5.49,12.24-12.24-5.49-12.24-12.24-12.24Z" style="fill: url(#Nouvelle_nuance_de_dégradé_2-63);"/>
    <path d="M201.36,395.1c-1.38,0-2.5-1.12-2.5-2.5v-20.38l-7.47,9.19c-.87,1.07-2.45,1.23-3.52.36-1.07-.87-1.23-2.45-.36-3.52l11.91-14.65c.67-.82,1.78-1.13,2.78-.78,1,.35,1.66,1.3,1.66,2.36v27.42c0,1.38-1.12,2.5-2.5,2.5Z" style="fill: url(#Nouvelle_nuance_de_dégradé_2-64);"/>
    <path d="M238.2,397.06c-9.5,0-17.24-7.73-17.24-17.24s7.73-17.24,17.24-17.24,17.24,7.73,17.24,17.24-7.73,17.24-17.24,17.24ZM238.2,367.59c-6.75,0-12.24,5.49-12.24,12.24s5.49,12.24,12.24,12.24,12.24-5.49,12.24-12.24-5.49-12.24-12.24-12.24Z" style="fill: url(#Nouvelle_nuance_de_dégradé_2-65);"/>
    <path d="M285.16,395.1c-1.38,0-2.5-1.12-2.5-2.5v-20.38l-7.47,9.19c-.87,1.07-2.45,1.23-3.52.36-1.07-.87-1.23-2.45-.36-3.52l11.91-14.65c.67-.82,1.78-1.13,2.78-.78,1,.35,1.66,1.3,1.66,2.36v27.42c0,1.38-1.12,2.5-2.5,2.5Z" style="fill: url(#Nouvelle_nuance_de_dégradé_2-66);"/>
    <path d="M321.99,397.06c-9.5,0-17.24-7.73-17.24-17.24s7.73-17.24,17.24-17.24,17.24,7.73,17.24,17.24-7.73,17.24-17.24,17.24ZM321.99,367.59c-6.75,0-12.24,5.49-12.24,12.24s5.49,12.24,12.24,12.24,12.24-5.49,12.24-12.24-5.49-12.24-12.24-12.24Z" style="fill: url(#Nouvelle_nuance_de_dégradé_2-67);"/>
    <path d="M368.95,395.1c-1.38,0-2.5-1.12-2.5-2.5v-20.38l-7.47,9.19c-.87,1.07-2.45,1.23-3.52.36-1.07-.87-1.23-2.45-.36-3.52l11.91-14.65c.67-.82,1.78-1.13,2.78-.78,1,.35,1.66,1.3,1.66,2.36v27.42c0,1.38-1.12,2.5-2.5,2.5Z" style="fill: url(#Nouvelle_nuance_de_dégradé_2-68);"/>
    <path d="M405.79,397.06c-9.5,0-17.24-7.73-17.24-17.24s7.73-17.24,17.24-17.24,17.24,7.73,17.24,17.24-7.73,17.24-17.24,17.24ZM405.79,367.59c-6.75,0-12.24,5.49-12.24,12.24s5.49,12.24,12.24,12.24,12.24-5.49,12.24-12.24-5.49-12.24-12.24-12.24Z" style="fill: url(#Nouvelle_nuance_de_dégradé_2-69);"/>
    <path d="M452.75,395.1c-1.38,0-2.5-1.12-2.5-2.5v-20.38l-7.48,9.19c-.87,1.07-2.45,1.23-3.52.36-1.07-.87-1.23-2.45-.36-3.52l11.92-14.65c.67-.82,1.78-1.13,2.78-.78,1,.35,1.66,1.3,1.66,2.36v27.42c0,1.38-1.12,2.5-2.5,2.5Z" style="fill: url(#Nouvelle_nuance_de_dégradé_2-70);"/>
    <path d="M441.01,448.16c-9.5,0-17.24-7.73-17.24-17.24s7.73-17.24,17.24-17.24,17.24,7.73,17.24,17.24-7.73,17.24-17.24,17.24ZM441.01,418.68c-6.75,0-12.24,5.49-12.24,12.24s5.49,12.24,12.24,12.24,12.24-5.49,12.24-12.24-5.49-12.24-12.24-12.24Z" style="fill: url(#Nouvelle_nuance_de_dégradé_2-71);"/>
    <path d="M68.47,446.19c-1.38,0-2.5-1.12-2.5-2.5v-20.38l-7.47,9.19c-.87,1.07-2.45,1.23-3.52.36-1.07-.87-1.23-2.45-.36-3.52l11.91-14.65c.67-.82,1.78-1.13,2.78-.78,1,.35,1.66,1.3,1.66,2.36v27.42c0,1.38-1.12,2.5-2.5,2.5Z" style="fill: url(#Nouvelle_nuance_de_dégradé_2-72);"/>
    <path d="M105.31,448.16c-9.5,0-17.24-7.73-17.24-17.24s7.73-17.24,17.24-17.24,17.24,7.73,17.24,17.24-7.73,17.24-17.24,17.24ZM105.31,418.68c-6.75,0-12.24,5.49-12.24,12.24s5.49,12.24,12.24,12.24,12.24-5.49,12.24-12.24-5.49-12.24-12.24-12.24Z" style="fill: url(#Nouvelle_nuance_de_dégradé_2-73);"/>
    <path d="M152.27,446.19c-1.38,0-2.5-1.12-2.5-2.5v-20.38l-7.48,9.19c-.87,1.07-2.45,1.23-3.52.36-1.07-.87-1.23-2.45-.36-3.52l11.92-14.65c.67-.82,1.78-1.13,2.78-.78,1,.35,1.66,1.3,1.66,2.36v27.42c0,1.38-1.12,2.5-2.5,2.5Z" style="fill: url(#Nouvelle_nuance_de_dégradé_2-74);"/>
    <path d="M189.1,448.16c-9.5,0-17.24-7.73-17.24-17.24s7.73-17.24,17.24-17.24,17.24,7.73,17.24,17.24-7.73,17.24-17.24,17.24ZM189.1,418.68c-6.75,0-12.24,5.49-12.24,12.24s5.49,12.24,12.24,12.24,12.24-5.49,12.24-12.24-5.49-12.24-12.24-12.24Z" style="fill: url(#Nouvelle_nuance_de_dégradé_2-75);"/>
    <path d="M236.07,446.19c-1.38,0-2.5-1.12-2.5-2.5v-20.38l-7.47,9.19c-.87,1.07-2.45,1.23-3.52.36-1.07-.87-1.23-2.45-.36-3.52l11.91-14.65c.67-.82,1.78-1.13,2.78-.78,1,.35,1.66,1.3,1.66,2.36v27.42c0,1.38-1.12,2.5-2.5,2.5Z" style="fill: url(#Nouvelle_nuance_de_dégradé_2-76);"/>
    <path d="M272.9,448.16c-9.5,0-17.24-7.73-17.24-17.24s7.73-17.24,17.24-17.24,17.24,7.73,17.24,17.24-7.73,17.24-17.24,17.24ZM272.9,418.68c-6.75,0-12.24,5.49-12.24,12.24s5.49,12.24,12.24,12.24,12.24-5.49,12.24-12.24-5.49-12.24-12.24-12.24Z" style="fill: url(#Nouvelle_nuance_de_dégradé_2-77);"/>
    <path d="M319.86,446.19c-1.38,0-2.5-1.12-2.5-2.5v-20.38l-7.47,9.19c-.87,1.07-2.45,1.23-3.52.36-1.07-.87-1.23-2.45-.36-3.52l11.91-14.65c.67-.82,1.78-1.13,2.78-.78,1,.35,1.66,1.3,1.66,2.36v27.42c0,1.38-1.12,2.5-2.5,2.5Z" style="fill: url(#Nouvelle_nuance_de_dégradé_2-78);"/>
    <path d="M356.69,448.16c-9.5,0-17.24-7.73-17.24-17.24s7.73-17.24,17.24-17.24,17.24,7.73,17.24,17.24-7.73,17.24-17.24,17.24ZM356.69,418.68c-6.75,0-12.24,5.49-12.24,12.24s5.49,12.24,12.24,12.24,12.24-5.49,12.24-12.24-5.49-12.24-12.24-12.24Z" style="fill: url(#Nouvelle_nuance_de_dégradé_2-79);"/>
    <path d="M403.66,446.19c-1.38,0-2.5-1.12-2.5-2.5v-20.38l-7.47,9.19c-.87,1.07-2.45,1.23-3.52.36-1.07-.87-1.23-2.45-.36-3.52l11.91-14.65c.67-.82,1.78-1.13,2.78-.78,1,.35,1.66,1.3,1.66,2.36v27.42c0,1.38-1.12,2.5-2.5,2.5Z" style="fill: url(#Nouvelle_nuance_de_dégradé_2-80);"/>
  </g>
  <g>
    <path d="M60.6,84.61c-9.5,0-17.23-7.73-17.23-17.24s7.73-17.24,17.23-17.24,17.24,7.73,17.24,17.24-7.73,17.24-17.24,17.24ZM60.6,55.14c-6.75,0-12.23,5.49-12.23,12.24s5.49,12.24,12.23,12.24,12.24-5.49,12.24-12.24-5.49-12.24-12.24-12.24Z" style="fill: #fff;"/>
    <path d="M107.57,82.65c-1.38,0-2.5-1.12-2.5-2.5v-20.38l-7.47,9.19c-.87,1.07-2.45,1.23-3.52.36-1.07-.87-1.23-2.45-.36-3.52l11.91-14.65c.67-.82,1.78-1.13,2.78-.78,1,.35,1.66,1.3,1.66,2.36v27.42c0,1.38-1.12,2.5-2.5,2.5Z" style="fill: #fff;"/>
    <path d="M144.4,84.61c-9.5,0-17.24-7.73-17.24-17.24s7.73-17.24,17.24-17.24,17.24,7.73,17.24,17.24-7.73,17.24-17.24,17.24ZM144.4,55.14c-6.75,0-12.24,5.49-12.24,12.24s5.49,12.24,12.24,12.24,12.24-5.49,12.24-12.24-5.49-12.24-12.24-12.24Z" style="fill: #fff;"/>
    <path d="M191.36,82.65c-1.38,0-2.5-1.12-2.5-2.5v-20.38l-7.48,9.19c-.87,1.07-2.45,1.23-3.52.36-1.07-.87-1.23-2.45-.36-3.52l11.92-14.65c.67-.82,1.78-1.13,2.78-.78,1,.35,1.66,1.3,1.66,2.36v27.42c0,1.38-1.12,2.5-2.5,2.5Z" style="fill: #fff;"/>
    <path d="M228.19,84.61c-9.5,0-17.24-7.73-17.24-17.24s7.73-17.24,17.24-17.24,17.24,7.73,17.24,17.24-7.73,17.24-17.24,17.24ZM228.19,55.14c-6.75,0-12.24,5.49-12.24,12.24s5.49,12.24,12.24,12.24,12.24-5.49,12.24-12.24-5.49-12.24-12.24-12.24Z" style="fill: #fff;"/>
    <path d="M275.16,82.65c-1.38,0-2.5-1.12-2.5-2.5v-20.38l-7.47,9.19c-.87,1.07-2.45,1.23-3.52.36-1.07-.87-1.23-2.45-.36-3.52l11.91-14.65c.67-.82,1.78-1.13,2.78-.78,1,.35,1.66,1.3,1.66,2.36v27.42c0,1.38-1.12,2.5-2.5,2.5Z" style="fill: #fff;"/>
    <path d="M311.99,84.61c-9.5,0-17.24-7.73-17.24-17.24s7.73-17.24,17.24-17.24,17.24,7.73,17.24,17.24-7.73,17.24-17.24,17.24ZM311.99,55.14c-6.75,0-12.24,5.49-12.24,12.24s5.49,12.24,12.24,12.24,12.24-5.49,12.24-12.24-5.49-12.24-12.24-12.24Z" style="fill: #fff;"/>
    <path d="M358.95,82.65c-1.38,0-2.5-1.12-2.5-2.5v-20.38l-7.47,9.19c-.87,1.07-2.45,1.23-3.52.36-1.07-.87-1.23-2.45-.36-3.52l11.91-14.65c.67-.82,1.78-1.13,2.78-.78,1,.35,1.66,1.3,1.66,2.36v27.42c0,1.38-1.12,2.5-2.5,2.5Z" style="fill: #fff;"/>
    <path d="M395.79,84.61c-9.5,0-17.23-7.73-17.23-17.24s7.73-17.24,17.23-17.24,17.24,7.73,17.24,17.24-7.73,17.24-17.24,17.24ZM395.79,55.14c-6.75,0-12.23,5.49-12.23,12.24s5.49,12.24,12.23,12.24,12.24-5.49,12.24-12.24-5.49-12.24-12.24-12.24Z" style="fill: #fff;"/>
    <path d="M442.75,82.65c-1.38,0-2.5-1.12-2.5-2.5v-20.38l-7.47,9.19c-.87,1.07-2.45,1.23-3.52.36-1.07-.87-1.23-2.45-.36-3.52l11.91-14.65c.67-.82,1.78-1.13,2.78-.78,1,.35,1.66,1.3,1.66,2.36v27.42c0,1.38-1.12,2.5-2.5,2.5Z" style="fill: #fff;"/>
    <path d="M431.01,135.7c-9.5,0-17.24-7.73-17.24-17.24s7.73-17.24,17.24-17.24,17.24,7.73,17.24,17.24-7.73,17.24-17.24,17.24ZM431.01,106.23c-6.75,0-12.24,5.49-12.24,12.24s5.49,12.24,12.24,12.24,12.24-5.49,12.24-12.24-5.49-12.24-12.24-12.24Z" style="fill: #fff;"/>
    <path d="M58.47,133.74c-1.38,0-2.5-1.12-2.5-2.5v-20.38l-7.47,9.19c-.87,1.07-2.45,1.23-3.52.36-1.07-.87-1.23-2.45-.36-3.52l11.91-14.65c.67-.82,1.78-1.13,2.78-.78,1,.35,1.66,1.3,1.66,2.36v27.42c0,1.38-1.12,2.5-2.5,2.5Z" style="fill: #fff;"/>
    <path d="M95.31,135.7c-9.5,0-17.24-7.73-17.24-17.24s7.73-17.24,17.24-17.24,17.24,7.73,17.24,17.24-7.73,17.24-17.24,17.24ZM95.31,106.23c-6.75,0-12.24,5.49-12.24,12.24s5.49,12.24,12.24,12.24,12.24-5.49,12.24-12.24-5.49-12.24-12.24-12.24Z" style="fill: #fff;"/>
    <path d="M142.27,133.74c-1.38,0-2.5-1.12-2.5-2.5v-20.38l-7.47,9.19c-.87,1.07-2.45,1.23-3.52.36-1.07-.87-1.23-2.45-.36-3.52l11.91-14.65c.67-.82,1.78-1.13,2.78-.78,1,.35,1.66,1.3,1.66,2.36v27.42c0,1.38-1.12,2.5-2.5,2.5Z" style="fill: #fff;"/>
    <path d="M179.1,135.7c-9.5,0-17.24-7.73-17.24-17.24s7.73-17.24,17.24-17.24,17.24,7.73,17.24,17.24-7.73,17.24-17.24,17.24ZM179.1,106.23c-6.75,0-12.24,5.49-12.24,12.24s5.49,12.24,12.24,12.24,12.24-5.49,12.24-12.24-5.49-12.24-12.24-12.24Z" style="fill: #fff;"/>
    <path d="M226.07,133.74c-1.38,0-2.5-1.12-2.5-2.5v-20.38l-7.48,9.19c-.87,1.07-2.45,1.23-3.52.36-1.07-.87-1.23-2.45-.36-3.52l11.92-14.65c.67-.82,1.78-1.13,2.78-.78,1,.35,1.66,1.3,1.66,2.36v27.42c0,1.38-1.12,2.5-2.5,2.5Z" style="fill: #fff;"/>
    <path d="M262.9,135.7c-9.5,0-17.24-7.73-17.24-17.24s7.73-17.24,17.24-17.24,17.24,7.73,17.24,17.24-7.73,17.24-17.24,17.24ZM262.9,106.23c-6.75,0-12.24,5.49-12.24,12.24s5.49,12.24,12.24,12.24,12.24-5.49,12.24-12.24-5.49-12.24-12.24-12.24Z" style="fill: #fff;"/>
    <path d="M309.86,133.74c-1.38,0-2.5-1.12-2.5-2.5v-20.38l-7.47,9.19c-.87,1.07-2.45,1.23-3.52.36-1.07-.87-1.23-2.45-.36-3.52l11.91-14.65c.67-.82,1.78-1.13,2.78-.78,1,.35,1.66,1.3,1.66,2.36v27.42c0,1.38-1.12,2.5-2.5,2.5Z" style="fill: #fff;"/>
    <path d="M346.69,135.7c-9.5,0-17.24-7.73-17.24-17.24s7.73-17.24,17.24-17.24,17.24,7.73,17.24,17.24-7.73,17.24-17.24,17.24ZM346.69,106.23c-6.75,0-12.24,5.49-12.24,12.24s5.49,12.24,12.24,12.24,12.24-5.49,12.24-12.24-5.49-12.24-12.24-12.24Z" style="fill: #fff;"/>
    <path d="M393.66,133.74c-1.38,0-2.5-1.12-2.5-2.5v-20.38l-7.47,9.19c-.87,1.07-2.45,1.23-3.52.36-1.07-.87-1.23-2.45-.36-3.52l11.91-14.65c.67-.82,1.78-1.13,2.78-.78,1,.35,1.66,1.3,1.66,2.36v27.42c0,1.38-1.12,2.5-2.5,2.5Z" style="fill: #fff;"/>
    <path d="M60.6,188.76c-9.5,0-17.23-7.73-17.23-17.24s7.73-17.24,17.23-17.24,17.24,7.73,17.24,17.24-7.73,17.24-17.24,17.24ZM60.6,159.29c-6.75,0-12.23,5.49-12.23,12.24s5.49,12.24,12.23,12.24,12.24-5.49,12.24-12.24-5.49-12.24-12.24-12.24Z" style="fill: #fff;"/>
    <path d="M107.57,186.8c-1.38,0-2.5-1.12-2.5-2.5v-20.38l-7.47,9.19c-.87,1.07-2.45,1.23-3.52.36-1.07-.87-1.23-2.45-.36-3.52l11.91-14.65c.67-.82,1.78-1.13,2.78-.78,1,.35,1.66,1.3,1.66,2.36v27.42c0,1.38-1.12,2.5-2.5,2.5Z" style="fill: #fff;"/>
    <path d="M144.4,188.76c-9.5,0-17.24-7.73-17.24-17.24s7.73-17.24,17.24-17.24,17.24,7.73,17.24,17.24-7.73,17.24-17.24,17.24ZM144.4,159.29c-6.75,0-12.24,5.49-12.24,12.24s5.49,12.24,12.24,12.24,12.24-5.49,12.24-12.24-5.49-12.24-12.24-12.24Z" style="fill: #fff;"/>
    <path d="M191.36,186.8c-1.38,0-2.5-1.12-2.5-2.5v-20.38l-7.48,9.19c-.87,1.07-2.45,1.23-3.52.36-1.07-.87-1.23-2.45-.36-3.52l11.92-14.65c.67-.82,1.78-1.13,2.78-.78,1,.35,1.66,1.3,1.66,2.36v27.42c0,1.38-1.12,2.5-2.5,2.5Z" style="fill: #fff;"/>
    <path d="M228.19,188.76c-9.5,0-17.24-7.73-17.24-17.24s7.73-17.24,17.24-17.24,17.24,7.73,17.24,17.24-7.73,17.24-17.24,17.24ZM228.19,159.29c-6.75,0-12.24,5.49-12.24,12.24s5.49,12.24,12.24,12.24,12.24-5.49,12.24-12.24-5.49-12.24-12.24-12.24Z" style="fill: #fff;"/>
    <path d="M275.16,186.8c-1.38,0-2.5-1.12-2.5-2.5v-20.38l-7.47,9.19c-.87,1.07-2.45,1.23-3.52.36-1.07-.87-1.23-2.45-.36-3.52l11.91-14.65c.67-.82,1.78-1.13,2.78-.78,1,.35,1.66,1.3,1.66,2.36v27.42c0,1.38-1.12,2.5-2.5,2.5Z" style="fill: #fff;"/>
    <path d="M311.99,188.76c-9.5,0-17.24-7.73-17.24-17.24s7.73-17.24,17.24-17.24,17.24,7.73,17.24,17.24-7.73,17.24-17.24,17.24ZM311.99,159.29c-6.75,0-12.24,5.49-12.24,12.24s5.49,12.24,12.24,12.24,12.24-5.49,12.24-12.24-5.49-12.24-12.24-12.24Z" style="fill: #fff;"/>
    <path d="M358.95,186.8c-1.38,0-2.5-1.12-2.5-2.5v-20.38l-7.47,9.19c-.87,1.07-2.45,1.23-3.52.36-1.07-.87-1.23-2.45-.36-3.52l11.91-14.65c.67-.82,1.78-1.13,2.78-.78,1,.35,1.66,1.3,1.66,2.36v27.42c0,1.38-1.12,2.5-2.5,2.5Z" style="fill: #fff;"/>
    <path d="M395.79,188.76c-9.5,0-17.23-7.73-17.23-17.24s7.73-17.24,17.23-17.24,17.24,7.73,17.24,17.24-7.73,17.24-17.24,17.24ZM395.79,159.29c-6.75,0-12.23,5.49-12.23,12.24s5.49,12.24,12.23,12.24,12.24-5.49,12.24-12.24-5.49-12.24-12.24-12.24Z" style="fill: #fff;"/>
    <path d="M442.75,186.8c-1.38,0-2.5-1.12-2.5-2.5v-20.38l-7.47,9.19c-.87,1.07-2.45,1.23-3.52.36-1.07-.87-1.23-2.45-.36-3.52l11.91-14.65c.67-.82,1.78-1.13,2.78-.78,1,.35,1.66,1.3,1.66,2.36v27.42c0,1.38-1.12,2.5-2.5,2.5Z" style="fill: #fff;"/>
    <path d="M431.01,239.85c-9.5,0-17.24-7.73-17.24-17.24s7.73-17.24,17.24-17.24,17.24,7.73,17.24,17.24-7.73,17.24-17.24,17.24ZM431.01,210.38c-6.75,0-12.24,5.49-12.24,12.24s5.49,12.24,12.24,12.24,12.24-5.49,12.24-12.24-5.49-12.24-12.24-12.24Z" style="fill: #fff;"/>
    <path d="M58.47,237.89c-1.38,0-2.5-1.12-2.5-2.5v-20.38l-7.47,9.19c-.87,1.07-2.45,1.23-3.52.36-1.07-.87-1.23-2.45-.36-3.52l11.91-14.65c.67-.82,1.78-1.13,2.78-.78,1,.35,1.66,1.3,1.66,2.36v27.42c0,1.38-1.12,2.5-2.5,2.5Z" style="fill: #fff;"/>
    <path d="M95.31,239.85c-9.5,0-17.24-7.73-17.24-17.24s7.73-17.24,17.24-17.24,17.24,7.73,17.24,17.24-7.73,17.24-17.24,17.24ZM95.31,210.38c-6.75,0-12.24,5.49-12.24,12.24s5.49,12.24,12.24,12.24,12.24-5.49,12.24-12.24-5.49-12.24-12.24-12.24Z" style="fill: #fff;"/>
    <path d="M142.27,237.89c-1.38,0-2.5-1.12-2.5-2.5v-20.38l-7.47,9.19c-.87,1.07-2.45,1.23-3.52.36-1.07-.87-1.23-2.45-.36-3.52l11.91-14.65c.67-.82,1.78-1.13,2.78-.78,1,.35,1.66,1.3,1.66,2.36v27.42c0,1.38-1.12,2.5-2.5,2.5Z" style="fill: #fff;"/>
    <path d="M179.1,239.85c-9.5,0-17.24-7.73-17.24-17.24s7.73-17.24,17.24-17.24,17.24,7.73,17.24,17.24-7.73,17.24-17.24,17.24ZM179.1,210.38c-6.75,0-12.24,5.49-12.24,12.24s5.49,12.24,12.24,12.24,12.24-5.49,12.24-12.24-5.49-12.24-12.24-12.24Z" style="fill: #fff;"/>
    <path d="M226.07,237.89c-1.38,0-2.5-1.12-2.5-2.5v-20.38l-7.48,9.19c-.87,1.07-2.45,1.23-3.52.36-1.07-.87-1.23-2.45-.36-3.52l11.92-14.65c.67-.82,1.78-1.13,2.78-.78,1,.35,1.66,1.3,1.66,2.36v27.42c0,1.38-1.12,2.5-2.5,2.5Z" style="fill: #fff;"/>
    <path d="M262.9,239.85c-9.5,0-17.24-7.73-17.24-17.24s7.73-17.24,17.24-17.24,17.24,7.73,17.24,17.24-7.73,17.24-17.24,17.24ZM262.9,210.38c-6.75,0-12.24,5.49-12.24,12.24s5.49,12.24,12.24,12.24,12.24-5.49,12.24-12.24-5.49-12.24-12.24-12.24Z" style="fill: #fff;"/>
    <path d="M309.86,237.89c-1.38,0-2.5-1.12-2.5-2.5v-20.38l-7.47,9.19c-.87,1.07-2.45,1.23-3.52.36-1.07-.87-1.23-2.45-.36-3.52l11.91-14.65c.67-.82,1.78-1.13,2.78-.78,1,.35,1.66,1.3,1.66,2.36v27.42c0,1.38-1.12,2.5-2.5,2.5Z" style="fill: #fff;"/>
    <path d="M346.69,239.85c-9.5,0-17.24-7.73-17.24-17.24s7.73-17.24,17.24-17.24,17.24,7.73,17.24,17.24-7.73,17.24-17.24,17.24ZM346.69,210.38c-6.75,0-12.24,5.49-12.24,12.24s5.49,12.24,12.24,12.24,12.24-5.49,12.24-12.24-5.49-12.24-12.24-12.24Z" style="fill: #fff;"/>
    <path d="M393.66,237.89c-1.38,0-2.5-1.12-2.5-2.5v-20.38l-7.47,9.19c-.87,1.07-2.45,1.23-3.52.36-1.07-.87-1.23-2.45-.36-3.52l11.91-14.65c.67-.82,1.78-1.13,2.78-.78,1,.35,1.66,1.3,1.66,2.36v27.42c0,1.38-1.12,2.5-2.5,2.5Z" style="fill: #fff;"/>
    <path d="M60.6,292.91c-9.5,0-17.23-7.73-17.23-17.24s7.73-17.24,17.23-17.24,17.24,7.73,17.24,17.24-7.73,17.24-17.24,17.24ZM60.6,263.44c-6.75,0-12.23,5.49-12.23,12.24s5.49,12.24,12.23,12.24,12.24-5.49,12.24-12.24-5.49-12.24-12.24-12.24Z" style="fill: #fff;"/>
    <path d="M107.57,290.95c-1.38,0-2.5-1.12-2.5-2.5v-20.38l-7.47,9.19c-.87,1.07-2.45,1.23-3.52.36-1.07-.87-1.23-2.45-.36-3.52l11.91-14.65c.67-.82,1.78-1.13,2.78-.78,1,.35,1.66,1.3,1.66,2.36v27.42c0,1.38-1.12,2.5-2.5,2.5Z" style="fill: #fff;"/>
    <path d="M144.4,292.91c-9.5,0-17.24-7.73-17.24-17.24s7.73-17.24,17.24-17.24,17.24,7.73,17.24,17.24-7.73,17.24-17.24,17.24ZM144.4,263.44c-6.75,0-12.24,5.49-12.24,12.24s5.49,12.24,12.24,12.24,12.24-5.49,12.24-12.24-5.49-12.24-12.24-12.24Z" style="fill: #fff;"/>
    <path d="M191.36,290.95c-1.38,0-2.5-1.12-2.5-2.5v-20.38l-7.48,9.19c-.87,1.07-2.45,1.23-3.52.36-1.07-.87-1.23-2.45-.36-3.52l11.92-14.65c.67-.82,1.78-1.13,2.78-.78,1,.35,1.66,1.3,1.66,2.36v27.42c0,1.38-1.12,2.5-2.5,2.5Z" style="fill: #fff;"/>
    <path d="M228.19,292.91c-9.5,0-17.24-7.73-17.24-17.24s7.73-17.24,17.24-17.24,17.24,7.73,17.24,17.24-7.73,17.24-17.24,17.24ZM228.19,263.44c-6.75,0-12.24,5.49-12.24,12.24s5.49,12.24,12.24,12.24,12.24-5.49,12.24-12.24-5.49-12.24-12.24-12.24Z" style="fill: #fff;"/>
    <path d="M275.16,290.95c-1.38,0-2.5-1.12-2.5-2.5v-20.38l-7.47,9.19c-.87,1.07-2.45,1.23-3.52.36-1.07-.87-1.23-2.45-.36-3.52l11.91-14.65c.67-.82,1.78-1.13,2.78-.78,1,.35,1.66,1.3,1.66,2.36v27.42c0,1.38-1.12,2.5-2.5,2.5Z" style="fill: #fff;"/>
    <path d="M311.99,292.91c-9.5,0-17.24-7.73-17.24-17.24s7.73-17.24,17.24-17.24,17.24,7.73,17.24,17.24-7.73,17.24-17.24,17.24ZM311.99,263.44c-6.75,0-12.24,5.49-12.24,12.24s5.49,12.24,12.24,12.24,12.24-5.49,12.24-12.24-5.49-12.24-12.24-12.24Z" style="fill: #fff;"/>
    <path d="M358.95,290.95c-1.38,0-2.5-1.12-2.5-2.5v-20.38l-7.47,9.19c-.87,1.07-2.45,1.23-3.52.36-1.07-.87-1.23-2.45-.36-3.52l11.91-14.65c.67-.82,1.78-1.13,2.78-.78,1,.35,1.66,1.3,1.66,2.36v27.42c0,1.38-1.12,2.5-2.5,2.5Z" style="fill: #fff;"/>
    <path d="M395.79,292.91c-9.5,0-17.23-7.73-17.23-17.24s7.73-17.24,17.23-17.24,17.24,7.73,17.24,17.24-7.73,17.24-17.24,17.24ZM395.79,263.44c-6.75,0-12.23,5.49-12.23,12.24s5.49,12.24,12.23,12.24,12.24-5.49,12.24-12.24-5.49-12.24-12.24-12.24Z" style="fill: #fff;"/>
    <path d="M442.75,290.95c-1.38,0-2.5-1.12-2.5-2.5v-20.38l-7.47,9.19c-.87,1.07-2.45,1.23-3.52.36-1.07-.87-1.23-2.45-.36-3.52l11.91-14.65c.67-.82,1.78-1.13,2.78-.78,1,.35,1.66,1.3,1.66,2.36v27.42c0,1.38-1.12,2.5-2.5,2.5Z" style="fill: #fff;"/>
    <path d="M431.01,344.01c-9.5,0-17.24-7.73-17.24-17.24s7.73-17.24,17.24-17.24,17.24,7.73,17.24,17.24-7.73,17.24-17.24,17.24ZM431.01,314.53c-6.75,0-12.24,5.49-12.24,12.24s5.49,12.24,12.24,12.24,12.24-5.49,12.24-12.24-5.49-12.24-12.24-12.24Z" style="fill: #fff;"/>
    <path d="M58.47,342.04c-1.38,0-2.5-1.12-2.5-2.5v-20.38l-7.47,9.19c-.87,1.07-2.45,1.23-3.52.36-1.07-.87-1.23-2.45-.36-3.52l11.91-14.65c.67-.82,1.78-1.13,2.78-.78,1,.35,1.66,1.3,1.66,2.36v27.42c0,1.38-1.12,2.5-2.5,2.5Z" style="fill: #fff;"/>
    <path d="M95.31,344.01c-9.5,0-17.24-7.73-17.24-17.24s7.73-17.24,17.24-17.24,17.24,7.73,17.24,17.24-7.73,17.24-17.24,17.24ZM95.31,314.53c-6.75,0-12.24,5.49-12.24,12.24s5.49,12.24,12.24,12.24,12.24-5.49,12.24-12.24-5.49-12.24-12.24-12.24Z" style="fill: #fff;"/>
    <path d="M142.27,342.04c-1.38,0-2.5-1.12-2.5-2.5v-20.38l-7.47,9.19c-.87,1.07-2.45,1.23-3.52.36-1.07-.87-1.23-2.45-.36-3.52l11.91-14.65c.67-.82,1.78-1.13,2.78-.78,1,.35,1.66,1.3,1.66,2.36v27.42c0,1.38-1.12,2.5-2.5,2.5Z" style="fill: #fff;"/>
    <path d="M179.1,344.01c-9.5,0-17.24-7.73-17.24-17.24s7.73-17.24,17.24-17.24,17.24,7.73,17.24,17.24-7.73,17.24-17.24,17.24ZM179.1,314.53c-6.75,0-12.24,5.49-12.24,12.24s5.49,12.24,12.24,12.24,12.24-5.49,12.24-12.24-5.49-12.24-12.24-12.24Z" style="fill: #fff;"/>
    <path d="M226.07,342.04c-1.38,0-2.5-1.12-2.5-2.5v-20.38l-7.48,9.19c-.87,1.07-2.45,1.23-3.52.36-1.07-.87-1.23-2.45-.36-3.52l11.92-14.65c.67-.82,1.78-1.13,2.78-.78,1,.35,1.66,1.3,1.66,2.36v27.42c0,1.38-1.12,2.5-2.5,2.5Z" style="fill: #fff;"/>
    <path d="M262.9,344.01c-9.5,0-17.24-7.73-17.24-17.24s7.73-17.24,17.24-17.24,17.24,7.73,17.24,17.24-7.73,17.24-17.24,17.24ZM262.9,314.53c-6.75,0-12.24,5.49-12.24,12.24s5.49,12.24,12.24,12.24,12.24-5.49,12.24-12.24-5.49-12.24-12.24-12.24Z" style="fill: #fff;"/>
    <path d="M309.86,342.04c-1.38,0-2.5-1.12-2.5-2.5v-20.38l-7.47,9.19c-.87,1.07-2.45,1.23-3.52.36-1.07-.87-1.23-2.45-.36-3.52l11.91-14.65c.67-.82,1.78-1.13,2.78-.78,1,.35,1.66,1.3,1.66,2.36v27.42c0,1.38-1.12,2.5-2.5,2.5Z" style="fill: #fff;"/>
    <path d="M346.69,344.01c-9.5,0-17.24-7.73-17.24-17.24s7.73-17.24,17.24-17.24,17.24,7.73,17.24,17.24-7.73,17.24-17.24,17.24ZM346.69,314.53c-6.75,0-12.24,5.49-12.24,12.24s5.49,12.24,12.24,12.24,12.24-5.49,12.24-12.24-5.49-12.24-12.24-12.24Z" style="fill: #fff;"/>
    <path d="M393.66,342.04c-1.38,0-2.5-1.12-2.5-2.5v-20.38l-7.47,9.19c-.87,1.07-2.45,1.23-3.52.36-1.07-.87-1.23-2.45-.36-3.52l11.91-14.65c.67-.82,1.78-1.13,2.78-.78,1,.35,1.66,1.3,1.66,2.36v27.42c0,1.38-1.12,2.5-2.5,2.5Z" style="fill: #fff;"/>
    <path d="M60.6,397.06c-9.5,0-17.23-7.73-17.23-17.24s7.73-17.24,17.23-17.24,17.24,7.73,17.24,17.24-7.73,17.24-17.24,17.24ZM60.6,367.59c-6.75,0-12.23,5.49-12.23,12.24s5.49,12.24,12.23,12.24,12.24-5.49,12.24-12.24-5.49-12.24-12.24-12.24Z" style="fill: #fff;"/>
    <path d="M107.57,395.1c-1.38,0-2.5-1.12-2.5-2.5v-20.38l-7.47,9.19c-.87,1.07-2.45,1.23-3.52.36-1.07-.87-1.23-2.45-.36-3.52l11.91-14.65c.67-.82,1.78-1.13,2.78-.78,1,.35,1.66,1.3,1.66,2.36v27.42c0,1.38-1.12,2.5-2.5,2.5Z" style="fill: #fff;"/>
    <path d="M144.4,397.06c-9.5,0-17.24-7.73-17.24-17.24s7.73-17.24,17.24-17.24,17.24,7.73,17.24,17.24-7.73,17.24-17.24,17.24ZM144.4,367.59c-6.75,0-12.24,5.49-12.24,12.24s5.49,12.24,12.24,12.24,12.24-5.49,12.24-12.24-5.49-12.24-12.24-12.24Z" style="fill: #fff;"/>
    <path d="M191.36,395.1c-1.38,0-2.5-1.12-2.5-2.5v-20.38l-7.48,9.19c-.87,1.07-2.45,1.23-3.52.36-1.07-.87-1.23-2.45-.36-3.52l11.92-14.65c.67-.82,1.78-1.13,2.78-.78,1,.35,1.66,1.3,1.66,2.36v27.42c0,1.38-1.12,2.5-2.5,2.5Z" style="fill: #fff;"/>
    <path d="M228.19,397.06c-9.5,0-17.24-7.73-17.24-17.24s7.73-17.24,17.24-17.24,17.24,7.73,17.24,17.24-7.73,17.24-17.24,17.24ZM228.19,367.59c-6.75,0-12.24,5.49-12.24,12.24s5.49,12.24,12.24,12.24,12.24-5.49,12.24-12.24-5.49-12.24-12.24-12.24Z" style="fill: #fff;"/>
    <path d="M275.16,395.1c-1.38,0-2.5-1.12-2.5-2.5v-20.38l-7.47,9.19c-.87,1.07-2.45,1.23-3.52.36-1.07-.87-1.23-2.45-.36-3.52l11.91-14.65c.67-.82,1.78-1.13,2.78-.78,1,.35,1.66,1.3,1.66,2.36v27.42c0,1.38-1.12,2.5-2.5,2.5Z" style="fill: #fff;"/>
    <path d="M311.99,397.06c-9.5,0-17.24-7.73-17.24-17.24s7.73-17.24,17.24-17.24,17.24,7.73,17.24,17.24-7.73,17.24-17.24,17.24ZM311.99,367.59c-6.75,0-12.24,5.49-12.24,12.24s5.49,12.24,12.24,12.24,12.24-5.49,12.24-12.24-5.49-12.24-12.24-12.24Z" style="fill: #fff;"/>
    <path d="M358.95,395.1c-1.38,0-2.5-1.12-2.5-2.5v-20.38l-7.47,9.19c-.87,1.07-2.45,1.23-3.52.36-1.07-.87-1.23-2.45-.36-3.52l11.91-14.65c.67-.82,1.78-1.13,2.78-.78,1,.35,1.66,1.3,1.66,2.36v27.42c0,1.38-1.12,2.5-2.5,2.5Z" style="fill: #fff;"/>
    <path d="M395.79,397.06c-9.5,0-17.23-7.73-17.23-17.24s7.73-17.24,17.23-17.24,17.24,7.73,17.24,17.24-7.73,17.24-17.24,17.24ZM395.79,367.59c-6.75,0-12.23,5.49-12.23,12.24s5.49,12.24,12.23,12.24,12.24-5.49,12.24-12.24-5.49-12.24-12.24-12.24Z" style="fill: #fff;"/>
    <path d="M442.75,395.1c-1.38,0-2.5-1.12-2.5-2.5v-20.38l-7.47,9.19c-.87,1.07-2.45,1.23-3.52.36-1.07-.87-1.23-2.45-.36-3.52l11.91-14.65c.67-.82,1.78-1.13,2.78-.78,1,.35,1.66,1.3,1.66,2.36v27.42c0,1.38-1.12,2.5-2.5,2.5Z" style="fill: #fff;"/>
    <path d="M431.01,448.16c-9.5,0-17.24-7.73-17.24-17.24s7.73-17.24,17.24-17.24,17.24,7.73,17.24,17.24-7.73,17.24-17.24,17.24ZM431.01,418.68c-6.75,0-12.24,5.49-12.24,12.24s5.49,12.24,12.24,12.24,12.24-5.49,12.24-12.24-5.49-12.24-12.24-12.24Z" style="fill: #fff;"/>
    <path d="M58.47,446.19c-1.38,0-2.5-1.12-2.5-2.5v-20.38l-7.47,9.19c-.87,1.07-2.45,1.23-3.52.36-1.07-.87-1.23-2.45-.36-3.52l11.91-14.65c.67-.82,1.78-1.13,2.78-.78,1,.35,1.66,1.3,1.66,2.36v27.42c0,1.38-1.12,2.5-2.5,2.5Z" style="fill: #fff;"/>
    <path d="M95.31,448.16c-9.5,0-17.24-7.73-17.24-17.24s7.73-17.24,17.24-17.24,17.24,7.73,17.24,17.24-7.73,17.24-17.24,17.24ZM95.31,418.68c-6.75,0-12.24,5.49-12.24,12.24s5.49,12.24,12.24,12.24,12.24-5.49,12.24-12.24-5.49-12.24-12.24-12.24Z" style="fill: #fff;"/>
    <path d="M142.27,446.19c-1.38,0-2.5-1.12-2.5-2.5v-20.38l-7.47,9.19c-.87,1.07-2.45,1.23-3.52.36-1.07-.87-1.23-2.45-.36-3.52l11.91-14.65c.67-.82,1.78-1.13,2.78-.78,1,.35,1.66,1.3,1.66,2.36v27.42c0,1.38-1.12,2.5-2.5,2.5Z" style="fill: #fff;"/>
    <path d="M179.1,448.16c-9.5,0-17.24-7.73-17.24-17.24s7.73-17.24,17.24-17.24,17.24,7.73,17.24,17.24-7.73,17.24-17.24,17.24ZM179.1,418.68c-6.75,0-12.24,5.49-12.24,12.24s5.49,12.24,12.24,12.24,12.24-5.49,12.24-12.24-5.49-12.24-12.24-12.24Z" style="fill: #fff;"/>
    <path d="M226.07,446.19c-1.38,0-2.5-1.12-2.5-2.5v-20.38l-7.48,9.19c-.87,1.07-2.45,1.23-3.52.36-1.07-.87-1.23-2.45-.36-3.52l11.92-14.65c.67-.82,1.78-1.13,2.78-.78,1,.35,1.66,1.3,1.66,2.36v27.42c0,1.38-1.12,2.5-2.5,2.5Z" style="fill: #fff;"/>
    <path d="M262.9,448.16c-9.5,0-17.24-7.73-17.24-17.24s7.73-17.24,17.24-17.24,17.24,7.73,17.24,17.24-7.73,17.24-17.24,17.24ZM262.9,418.68c-6.75,0-12.24,5.49-12.24,12.24s5.49,12.24,12.24,12.24,12.24-5.49,12.24-12.24-5.49-12.24-12.24-12.24Z" style="fill: #fff;"/>
    <path d="M309.86,446.19c-1.38,0-2.5-1.12-2.5-2.5v-20.38l-7.47,9.19c-.87,1.07-2.45,1.23-3.52.36-1.07-.87-1.23-2.45-.36-3.52l11.91-14.65c.67-.82,1.78-1.13,2.78-.78,1,.35,1.66,1.3,1.66,2.36v27.42c0,1.38-1.12,2.5-2.5,2.5Z" style="fill: #fff;"/>
    <path d="M346.69,448.16c-9.5,0-17.24-7.73-17.24-17.24s7.73-17.24,17.24-17.24,17.24,7.73,17.24,17.24-7.73,17.24-17.24,17.24ZM346.69,418.68c-6.75,0-12.24,5.49-12.24,12.24s5.49,12.24,12.24,12.24,12.24-5.49,12.24-12.24-5.49-12.24-12.24-12.24Z" style="fill: #fff;"/>
    <path d="M393.66,446.19c-1.38,0-2.5-1.12-2.5-2.5v-20.38l-7.47,9.19c-.87,1.07-2.45,1.23-3.52.36-1.07-.87-1.23-2.45-.36-3.52l11.91-14.65c.67-.82,1.78-1.13,2.78-.78,1,.35,1.66,1.3,1.66,2.36v27.42c0,1.38-1.12,2.5-2.5,2.5Z" style="fill: #fff;"/>
  </g>
</svg>