<?xml version="1.0" encoding="UTF-8"?>
<svg id="Calque_1" data-name="Calque 1" xmlns="http://www.w3.org/2000/svg" xmlns:xlink="http://www.w3.org/1999/xlink" viewBox="0 0 500 500">
  <defs>
    <linearGradient id="Nouvelle_nuance_de_dégradé_2" data-name="Nouvelle nuance de dégradé 2" x1="71.28" y1="250" x2="436.22" y2="250" gradientUnits="userSpaceOnUse">
      <stop offset="0" stop-color="#00d85d"/>
      <stop offset="1" stop-color="#0ebdb3"/>
    </linearGradient>
  </defs>
  <path d="M435.58,212.79L369.66,31.69c-2.09-5.74-8.73-9.82-14.82-9.11h0c-50.49,5.93-95.11,29.72-138.27,52.73-35.83,19.1-72.86,38.84-112.87,48.05l-3.23-8.87c-.9-2.46-2.7-4.43-5.09-5.54s-5.06-1.23-7.52-.34c-2.46.9-4.43,2.7-5.54,5.09-1.11,2.39-1.23,5.06-.34,7.52l2.1,5.76c-1.41.2-2.73.37-4.01.52-3.26.39-6,2.02-7.51,4.48-1.45,2.36-1.68,5.23-.65,8.08l65.92,181.1c1.93,5.3,7.75,9.19,13.41,9.19.47,0,.94-.03,1.41-.08,1.62-.19,3.3-.41,5.17-.68l51.48,141.44c1.45,3.99,5.23,6.47,9.25,6.47,1.12,0,2.25-.19,3.36-.59,5.1-1.86,7.73-7.51,5.88-12.61l-50.37-138.4c22.94-5.34,44.82-14.03,66.03-24.05.2-.02.39-.06.59-.13.35-.13.65-.33.9-.57,15.64-7.44,30.91-15.59,45.98-23.62,42.75-22.79,86.95-46.36,136.5-52.18,3.26-.39,5.99-2.02,7.51-4.48,1.45-2.36,1.68-5.23.65-8.08ZM86.85,115.82c.55-1.18,1.52-2.07,2.72-2.51.53-.19,1.09-.29,1.64-.29.7,0,1.4.15,2.05.46,1.18.55,2.07,1.52,2.5,2.72l3,8.24c-.11.02-.23.05-.34.07-1.44.3-2.88.58-4.32.84-.26.05-.52.09-.78.14-1.2.22-2.4.43-3.6.62-.2.03-.4.06-.6.1l-2.44-6.71c-.44-1.21-.38-2.52.17-3.7ZM152.07,325.3c-3.79.45-8.24-2.29-9.54-5.85l-65.92-181.1c-.51-1.4-.44-2.7.2-3.75.72-1.17,2.08-1.93,3.84-2.14,2.16-.25,4.52-.58,7.19-.98,4.91-.74,9.88-1.67,14.79-2.75,23.33-5.14,45.56-13.79,67.08-23.87l70.28,193.08c-21.38,10.03-43.41,18.64-66.44,23.71-4.8,1.06-9.66,1.96-14.46,2.69-2.66.4-4.9.71-7.03.96ZM220.2,472.21c-2.51.91-5.29-.38-6.2-2.89h0s-51.14-140.51-51.14-140.51c.09-.02.19-.03.28-.05,1.45-.24,2.91-.5,4.36-.77.29-.05.57-.11.86-.17,1.18-.23,2.36-.46,3.53-.7.2-.04.4-.08.6-.12l50.59,139.01c.91,2.51-.38,5.29-2.89,6.2ZM288.57,273.12c-14.44,7.7-29.08,15.5-44.02,22.67l-70.28-193.08c15.18-7.27,30.02-15.18,44.65-22.99,14.46-7.71,29.08-15.5,44.03-22.67l70.28,193.08c-15.17,7.27-30,15.17-44.66,22.99ZM430.68,218.25c-.72,1.17-2.08,1.93-3.84,2.14-31.63,3.72-60.96,14.44-89.07,27.6l-70.28-193.08c27.85-13.05,56.84-23.7,87.94-27.35h0c.27-.03.55-.05.83-.05,3.58,0,7.5,2.59,8.71,5.9l65.92,181.1c.51,1.4.44,2.7-.21,3.75Z" style="fill: url(#Nouvelle_nuance_de_dégradé_2);"/>
  <g>
    <rect x="194.9" y="96.44" width="5" height="209.25" transform="translate(-56.86 79.64) rotate(-20)" style="fill: #fff;"/>
    <rect x="288.01" y="48.33" width="5" height="209.25" transform="translate(-34.79 108.58) rotate(-20)" style="fill: #fff;"/>
    <g>
      <path d="M208.56,477.5c-1.42,0-2.84-.31-4.16-.93-2.39-1.11-4.19-3.08-5.09-5.54l-53.22-146.22,3.02-.46c4.79-.73,9.65-1.63,14.47-2.69l2.14-.47,52.09,143.11c.9,2.46.78,5.13-.34,7.52-1.11,2.39-3.08,4.2-5.54,5.09-1.09.4-2.22.59-3.35.59ZM152.86,328.81l51.14,140.51c.44,1.21,1.33,2.17,2.5,2.72,1.18.55,2.49.61,3.69.17,1.21-.44,2.17-1.33,2.72-2.51.55-1.18.61-2.49.17-3.7l-50.59-139.01c-3.21.67-6.43,1.28-9.64,1.81Z" style="fill: #fff;"/>
      <path d="M75.83,131.79l-3.85-10.57c-1.85-5.1.78-10.75,5.88-12.61,2.46-.9,5.13-.78,7.52.34s4.19,3.08,5.09,5.54l4.96,13.63-2.79.61c-4.9,1.08-9.88,2.01-14.79,2.75l-2.02.31ZM81.21,113.02c-.55,0-1.11.1-1.64.29-2.51.91-3.8,3.69-2.89,6.2l2.44,6.71c3.21-.52,6.44-1.11,9.65-1.78l-3-8.24c-.44-1.21-1.33-2.17-2.5-2.72-.66-.31-1.36-.46-2.05-.46Z" style="fill: #fff;"/>
      <path d="M141.25,330.35c-5.67,0-11.48-3.89-13.41-9.19L61.92,140.06c-1.04-2.85-.81-5.72.65-8.08,1.51-2.46,4.25-4.09,7.51-4.48,2.11-.25,4.41-.56,7.03-.96,4.8-.73,9.67-1.63,14.47-2.69,40.83-8.99,78.54-29.1,115-48.54,43.16-23.01,87.78-46.8,138.27-52.73,6.09-.72,12.73,3.37,14.82,9.11l65.92,181.1c1.04,2.85.81,5.72-.65,8.08-1.52,2.46-4.25,4.09-7.51,4.48-49.55,5.82-93.76,29.39-136.5,52.18-36.76,19.6-74.78,39.87-116.28,49.01-4.92,1.08-9.9,2.01-14.79,2.75-2.68.41-5.03.73-7.19.98-.47.05-.94.08-1.41.08ZM346.25,27.5c-.28,0-.56.02-.83.05h0c-49.55,5.82-93.75,29.39-136.5,52.18-36.76,19.6-74.78,39.87-116.28,49.01-4.91,1.08-9.88,2.01-14.79,2.75-2.68.41-5.03.73-7.19.98-1.75.21-3.12.97-3.84,2.14-.65,1.05-.72,2.34-.2,3.75l65.92,181.1c1.3,3.57,5.75,6.3,9.54,5.85,2.11-.25,4.41-.56,7.03-.96,4.79-.73,9.65-1.63,14.47-2.69,40.83-8.99,78.54-29.1,115-48.54,43.16-23.01,87.78-46.8,138.27-52.73,1.75-.21,3.12-.97,3.84-2.14.64-1.05.72-2.34.2-3.75l-65.92-181.1c-1.2-3.31-5.13-5.9-8.71-5.9Z" style="fill: #fff;"/>
    </g>
  </g>
</svg>