<?xml version="1.0" encoding="UTF-8"?>
<svg id="Calque_1" data-name="Calque 1" xmlns="http://www.w3.org/2000/svg" xmlns:xlink="http://www.w3.org/1999/xlink" viewBox="0 0 500 500">
  <defs>
    <linearGradient id="Nouvelle_nuance_de_dégradé_2" data-name="Nouvelle nuance de dégradé 2" x1="38" y1="250" x2="472" y2="250" gradientUnits="userSpaceOnUse">
      <stop offset="0" stop-color="#00d85d"/>
      <stop offset="1" stop-color="#0ebdb3"/>
    </linearGradient>
  </defs>
  <path d="M181.26,428.98c-1.49,0-2.7-1.21-2.7-2.7s1.21-2.71,2.7-2.71h69.75V76.43H114.74l69.09,206.62c.09.27.14.57.14.86,0,.15-.02.31-.03.46-.03.41-.05.81-.06,1.22v.45s.03.45.03.45c.01.15.03.3.05.45-.01.11-.03.22-.06.35l-.13.6-.04.61c-2.41,38.35-34.36,68.38-72.74,68.38s-72.98-32.74-72.98-72.98c0-.29.05-.58.14-.87L108.31,73.17c.07-.15.13-.3.18-.45,0-.02.04-.08.06-.14.03-.06.08-.15.14-.25l.14-.22c.06-.08.12-.15.2-.23.06-.06.11-.11.15-.17.03-.03.07-.06.12-.09.1-.06.19-.12.29-.17.16-.1.23-.13.26-.15l.14-.06c.08-.03.17-.06.34-.1l.26-.07c.23-.04.34-.04.38-.04h288.04s.16,0,.38.04l.24.06c.19.05.29.08.33.1l.15.06c.05.02.13.06.28.16.09.06.19.12.28.17.04.03.08.06.12.09.03.04.07.07.1.11.12.13.2.21.26.29l.15.25c.05.08.1.18.14.26.02.05.04.09.06.14.06.15.12.29.17.42l70.17,209.87c.09.27.14.57.14.86,0,.15-.02.31-.03.46-.03.41-.05.81-.06,1.22v.45s.03.45.03.45c.01.15.03.3.05.45-.01.11-.03.23-.06.36l-.13.59-.04.61c-2.41,38.35-34.36,68.38-72.74,68.38s-72.98-32.74-72.98-72.98c0-.29.05-.58.14-.87l69.08-206.61h-138.84v347.13h73.1c1.49,0,2.71,1.21,2.71,2.71s-1.21,2.7-2.71,2.7h-148.26ZM333.21,299.24c3.4,14.61,11.75,27.87,23.51,37.33,11.95,9.62,26.97,14.91,42.3,14.91s30.35-5.3,42.3-14.91c11.76-9.47,20.11-22.72,23.51-37.33l2.29-9.81h-136.19l2.29,9.81ZM45.17,299.24c3.4,14.61,11.75,27.87,23.51,37.33,11.95,9.62,26.97,14.91,42.3,14.91s30.35-5.3,42.3-14.91c11.76-9.47,20.11-22.72,23.51-37.33l2.29-9.81H42.89l2.29,9.81ZM331.56,284.01h134.92l-67.46-201.76-67.46,201.76ZM43.52,284.01h134.92L110.98,82.26l-67.46,201.76Z" style="fill: url(#Nouvelle_nuance_de_dégradé_2);"/>
  <path d="M171.26,428.98c-1.49,0-2.7-1.21-2.7-2.7s1.21-2.71,2.7-2.71h69.75V76.43H104.74l69.09,206.62c.09.27.14.57.14.86,0,.15-.02.31-.03.46-.03.41-.05.81-.06,1.22v.45s.03.45.03.45c.01.15.03.3.05.45-.01.11-.03.22-.06.35l-.13.6-.04.61c-2.41,38.35-34.36,68.38-72.74,68.38s-72.98-32.74-72.98-72.98c0-.29.05-.58.14-.87L98.31,73.17c.07-.15.13-.3.18-.45,0-.02.04-.08.06-.14.03-.06.08-.15.14-.25l.14-.22c.06-.08.12-.15.2-.23.06-.06.11-.11.15-.17.03-.03.07-.06.12-.09.1-.06.19-.12.29-.17.16-.1.23-.13.26-.15l.14-.06c.08-.03.17-.06.34-.1l.26-.07c.23-.04.34-.04.38-.04h288.04s.16,0,.38.04l.24.06c.19.05.29.08.33.1l.15.06c.05.02.13.06.28.16.09.06.19.12.28.17.04.03.08.06.12.09.03.04.07.07.1.11.12.13.2.21.26.29l.15.25c.05.08.1.18.14.26.02.05.04.09.06.14.06.15.12.29.17.42l70.17,209.87c.09.27.14.57.14.86,0,.15-.02.31-.03.46-.03.41-.05.81-.06,1.22v.45s.03.45.03.45c.01.15.03.3.05.45-.01.11-.03.23-.06.36l-.13.59-.04.61c-2.41,38.35-34.36,68.38-72.74,68.38s-72.98-32.74-72.98-72.98c0-.29.05-.58.14-.87l69.08-206.61h-138.84v347.13h73.1c1.49,0,2.71,1.21,2.71,2.71s-1.21,2.7-2.71,2.7h-148.26ZM323.21,299.24c3.4,14.61,11.75,27.87,23.51,37.33,11.95,9.62,26.97,14.91,42.3,14.91s30.35-5.3,42.3-14.91c11.76-9.47,20.11-22.72,23.51-37.33l2.29-9.81h-136.19l2.29,9.81ZM35.17,299.24c3.4,14.61,11.75,27.87,23.51,37.33,11.95,9.62,26.97,14.91,42.3,14.91s30.35-5.3,42.3-14.91c11.76-9.47,20.11-22.72,23.51-37.33l2.29-9.81H32.88l2.29,9.81ZM321.56,284.01h134.92l-67.46-201.76-67.46,201.76ZM33.52,284.01h134.92L100.98,82.26l-67.46,201.76Z" style="fill: #fff;"/>
</svg>