<?xml version="1.0" encoding="UTF-8"?>
<svg id="Calque_1" data-name="Calque 1" xmlns="http://www.w3.org/2000/svg" xmlns:xlink="http://www.w3.org/1999/xlink" viewBox="0 0 500 500">
  <defs>
    <linearGradient id="Nouvelle_nuance_de_dégradé_2" data-name="Nouvelle nuance de dégradé 2" x1="139.87" y1="250" x2="370.6" y2="250" gradientUnits="userSpaceOnUse">
      <stop offset="0" stop-color="#00d85d"/>
      <stop offset="1" stop-color="#0ebdb3"/>
    </linearGradient>
    <linearGradient id="Nouvelle_nuance_de_dégradé_2-2" data-name="Nouvelle nuance de dégradé 2" x1="199.71" y1="223.32" x2="311.21" y2="223.32" xlink:href="#Nouvelle_nuance_de_dégradé_2"/>
    <linearGradient id="Nouvelle_nuance_de_dégradé_2-3" data-name="Nouvelle nuance de dégradé 2" x1="216.19" y1="223.34" x2="294.68" y2="223.34" xlink:href="#Nouvelle_nuance_de_dégradé_2"/>
  </defs>
  <g>
    <path d="M370.55,381.58c-.85-23.26-12.58-34.42-22.27-39.69-6.73-3.66-13.33-5.03-17.28-5.54,16.29-44.96,21.37-94.46,14.3-143.44-3.29-22.76-9.12-44.69-17.25-65.34,0,0,0-.01,0-.02-15.66-39.75-39.88-74.79-71.01-101.98-.86-.75-2.29-.75-3.15,0-31.13,27.2-55.35,62.23-71.01,101.98,0,0,0,.02,0,.03-8.13,20.65-13.96,42.57-17.25,65.33-7.07,48.96-1.99,98.44,14.28,143.39-3.89.47-10.72,1.79-17.7,5.59-9.69,5.27-21.42,16.44-22.27,39.69-1.1,29.98,15.51,53.3,25.51,64.54,1.42,1.6,3.39,2.46,5.42,2.46.9,0,1.82-.17,2.7-.52,2.88-1.13,4.69-3.87,4.62-6.96l-.73-31.7c-.13-5.57,2.72-10.88,7.43-13.86,4.82-3.05,11.44-6.25,19.66-9.53,2.18,2.17,4.76,3.9,7.58,5.1l2.68,19.75c1,7.35,7.34,12.89,14.75,12.89h2.05c0,3.46.23,6.93.73,10.39,2.3,15.96,9.83,30.21,21.2,40.14.55.48,1.24.72,1.93.72s1.38-.24,1.93-.72c11.36-9.93,18.89-24.18,21.2-40.14.5-3.46.73-6.94.73-10.39h2.08c7.41,0,13.76-5.54,14.75-12.89l2.68-19.76c2.75-1.18,5.28-2.86,7.42-4.97,8.07,3.23,14.59,6.39,19.35,9.41,4.71,2.98,7.56,8.29,7.43,13.86l-.73,31.7c-.07,3.1,1.74,5.83,4.62,6.96.89.35,1.8.52,2.7.52,2.03,0,4-.86,5.42-2.46,10-11.24,26.61-34.57,25.51-64.54ZM255.46,30.46c28.9,25.68,50.99,57.99,65.82,93.68-43.72-16.46-87.95-16.46-131.64,0,14.83-35.69,36.92-67.99,65.82-93.67ZM182.36,391.55c-6.1,3.86-9.79,10.74-9.63,17.96l.73,31.7c.04,1.67-1.24,2.31-1.63,2.46-.39.15-1.76.56-2.87-.69-9.53-10.71-25.36-32.9-24.32-61.23.62-16.81,7.23-28.8,19.65-35.64,7.11-3.91,14.21-4.96,17.3-5.25,5.3,13.89,11.67,27.33,19.1,40.16.23.39.47.77.72,1.15-7.86,3.2-14.26,6.34-19.05,9.37ZM229.55,419.03c-5.06,0-9.39-3.78-10.07-8.8l-2.38-17.6c1.48.28,3,.44,4.53.44h17.02c-3.95,8.03-6.29,16.87-6.89,25.96h-2.2ZM266.91,393.07c4.28,7.92,6.82,16.8,7.47,25.96h-37.86c.65-9.16,3.19-18.04,7.47-25.96h22.92ZM273.87,433.46c-2.06,14.26-8.58,27.03-18.41,36.15-9.84-9.12-16.36-21.89-18.41-36.15-.47-3.24-.68-6.48-.68-9.71h38.19c0,3.23-.21,6.47-.68,9.71ZM291.46,410.23c-.68,5.02-5.01,8.8-10.07,8.8h-2.23c-.61-9.09-2.94-17.93-6.89-25.96h17.02c1.54,0,3.07-.15,4.56-.44l-2.38,17.6ZM289.29,388.35h-67.67c-6.92,0-13.37-3.71-16.84-9.69-43.96-75.84-48.15-169.83-17.56-248.51,45.26-18.16,91.17-18.16,136.47,0,30.58,78.69,26.4,172.67-17.56,248.51-3.46,5.98-9.92,9.69-16.84,9.69ZM341.52,442.98c-1.11,1.25-2.48.84-2.87.69-.39-.15-1.67-.79-1.63-2.46l.73-31.7c.17-7.22-3.52-14.1-9.63-17.96-4.72-2.98-11-6.09-18.7-9.23.28-.42.55-.85.81-1.29,7.43-12.81,13.79-26.24,19.09-40.12,3.28.34,10.08,1.46,16.88,5.21,12.42,6.83,19.04,18.82,19.65,35.64,1.04,28.33-14.79,50.52-24.32,61.23Z" style="fill: url(#Nouvelle_nuance_de_dégradé_2);"/>
    <path d="M299.56,189.2c-9.12-11.78-22.28-19.3-37.05-21.17-14.78-1.88-29.4,2.11-41.17,11.23-11.78,9.12-19.3,22.28-21.17,37.05-1.88,14.77,2.11,29.4,11.23,41.17,10.97,14.17,27.47,21.6,44.15,21.6,11.92,0,23.94-3.8,34.08-11.65,24.31-18.82,28.77-53.91,9.95-78.22ZM286.73,263.69c-22.25,17.23-54.37,13.15-71.6-9.1-8.35-10.78-12-24.16-10.28-37.69,1.72-13.52,8.6-25.57,19.38-33.91,9.04-7,19.9-10.69,31.14-10.69,2.17,0,4.35.14,6.54.42,13.52,1.72,25.57,8.6,33.91,19.38,17.23,22.25,13.15,54.37-9.1,71.6Z" style="fill: url(#Nouvelle_nuance_de_dégradé_2-2);"/>
    <path d="M231.4,192.3c-17.11,13.25-20.26,37.96-7,55.07,7.73,9.98,19.34,15.21,31.08,15.21,8.4,0,16.86-2.68,23.99-8.2,17.11-13.25,20.26-37.96,7-55.07-13.25-17.12-37.96-20.26-55.07-7ZM276.58,250.64c-15.06,11.66-36.79,8.9-48.45-6.16-11.66-15.06-8.9-36.79,6.16-48.45,15.06-11.66,36.79-8.9,48.45,6.16,11.66,15.06,8.9,36.79-6.16,48.45Z" style="fill: url(#Nouvelle_nuance_de_dégradé_2-3);"/>
  </g>
  <g>
    <path d="M360.55,381.58c-.85-23.26-12.58-34.42-22.27-39.69-6.73-3.66-13.33-5.03-17.28-5.54,16.29-44.96,21.37-94.46,14.3-143.44-3.29-22.76-9.12-44.69-17.25-65.34,0,0,0-.01,0-.02-15.66-39.75-39.88-74.79-71.01-101.98-.86-.75-2.29-.75-3.15,0-31.13,27.2-55.35,62.23-71.01,101.98,0,0,0,.02,0,.03-8.13,20.65-13.96,42.57-17.25,65.33-7.07,48.96-1.99,98.44,14.28,143.39-3.89.47-10.72,1.79-17.7,5.59-9.69,5.27-21.42,16.44-22.27,39.69-1.1,29.98,15.51,53.3,25.51,64.54,1.42,1.6,3.39,2.46,5.42,2.46.9,0,1.82-.17,2.7-.52,2.88-1.13,4.69-3.87,4.62-6.96l-.73-31.7c-.13-5.57,2.72-10.88,7.43-13.86,4.82-3.05,11.44-6.25,19.66-9.53,2.18,2.17,4.76,3.9,7.58,5.1l2.68,19.75c1,7.35,7.34,12.89,14.75,12.89h2.05c0,3.46.23,6.93.73,10.39,2.3,15.96,9.83,30.21,21.2,40.14.55.48,1.24.72,1.93.72s1.38-.24,1.93-.72c11.36-9.93,18.89-24.18,21.2-40.14.5-3.46.73-6.94.73-10.39h2.08c7.41,0,13.76-5.54,14.75-12.89l2.68-19.76c2.75-1.18,5.28-2.86,7.42-4.97,8.07,3.23,14.59,6.39,19.35,9.41,4.71,2.98,7.56,8.29,7.43,13.86l-.73,31.7c-.07,3.1,1.74,5.83,4.62,6.96.89.35,1.8.52,2.7.52,2.03,0,4-.86,5.42-2.46,10-11.24,26.61-34.57,25.51-64.54ZM245.46,30.46c28.9,25.68,50.99,57.99,65.82,93.68-43.72-16.46-87.95-16.46-131.64,0,14.83-35.69,36.92-67.99,65.82-93.67ZM172.36,391.55c-6.1,3.86-9.79,10.74-9.63,17.96l.73,31.7c.04,1.67-1.24,2.31-1.63,2.46-.39.15-1.76.56-2.87-.69-9.53-10.71-25.36-32.9-24.32-61.23.62-16.81,7.23-28.8,19.65-35.64,7.11-3.91,14.21-4.96,17.3-5.25,5.3,13.89,11.67,27.33,19.1,40.16.23.39.47.77.72,1.15-7.86,3.2-14.26,6.34-19.05,9.37ZM219.55,419.03c-5.06,0-9.39-3.78-10.07-8.8l-2.38-17.6c1.48.28,3,.44,4.53.44h17.02c-3.95,8.03-6.29,16.87-6.89,25.96h-2.2ZM256.91,393.07c4.28,7.92,6.82,16.8,7.47,25.96h-37.86c.65-9.16,3.19-18.04,7.47-25.96h22.92ZM263.87,433.46c-2.06,14.26-8.58,27.03-18.41,36.15-9.84-9.12-16.36-21.89-18.41-36.15-.47-3.24-.68-6.48-.68-9.71h38.19c0,3.23-.21,6.47-.68,9.71ZM281.46,410.23c-.68,5.02-5.01,8.8-10.07,8.8h-2.23c-.61-9.09-2.94-17.93-6.89-25.96h17.02c1.54,0,3.07-.15,4.56-.44l-2.38,17.6ZM279.29,388.35h-67.67c-6.92,0-13.37-3.71-16.84-9.69-43.96-75.84-48.15-169.83-17.56-248.51,45.26-18.16,91.17-18.16,136.47,0,30.58,78.69,26.4,172.67-17.56,248.51-3.46,5.98-9.92,9.69-16.84,9.69ZM331.52,442.98c-1.11,1.25-2.48.84-2.87.69-.39-.15-1.67-.79-1.63-2.46l.73-31.7c.17-7.22-3.52-14.1-9.63-17.96-4.72-2.98-11-6.09-18.7-9.23.28-.42.55-.85.81-1.29,7.43-12.81,13.79-26.24,19.09-40.12,3.28.34,10.08,1.46,16.88,5.21,12.42,6.83,19.04,18.82,19.65,35.64,1.04,28.33-14.79,50.52-24.32,61.23Z" style="fill: #fff;"/>
    <path d="M289.56,189.2c-9.12-11.78-22.28-19.3-37.05-21.17-14.78-1.88-29.4,2.11-41.17,11.23-11.78,9.12-19.3,22.28-21.17,37.05-1.88,14.77,2.11,29.4,11.23,41.17,10.97,14.17,27.47,21.6,44.15,21.6,11.92,0,23.94-3.8,34.08-11.65,24.31-18.82,28.77-53.91,9.95-78.22ZM276.72,263.69c-22.25,17.23-54.37,13.15-71.6-9.1-8.35-10.78-12-24.16-10.28-37.69,1.72-13.52,8.6-25.57,19.38-33.91,9.04-7,19.9-10.69,31.14-10.69,2.17,0,4.35.14,6.54.42,13.52,1.72,25.57,8.6,33.91,19.38,17.23,22.25,13.15,54.37-9.1,71.6Z" style="fill: #fff;"/>
    <path d="M221.4,192.3c-17.11,13.25-20.26,37.96-7,55.07,7.73,9.98,19.34,15.21,31.08,15.21,8.4,0,16.86-2.68,23.99-8.2,17.11-13.25,20.26-37.96,7-55.07-13.25-17.12-37.96-20.26-55.07-7ZM266.58,250.64c-15.06,11.66-36.79,8.9-48.45-6.16-11.66-15.06-8.9-36.79,6.16-48.45,15.06-11.66,36.79-8.9,48.45,6.16,11.66,15.06,8.9,36.79-6.16,48.45Z" style="fill: #fff;"/>
  </g>
</svg>