<?xml version="1.0" encoding="UTF-8"?>
<svg id="Calque_1" data-name="Calque 1" xmlns="http://www.w3.org/2000/svg" xmlns:xlink="http://www.w3.org/1999/xlink" viewBox="0 0 500 500">
  <defs>
    <linearGradient id="Nouvelle_nuance_de_dégradé_2" data-name="Nouvelle nuance de dégradé 2" x1="63.86" y1="250" x2="446.14" y2="250" gradientUnits="userSpaceOnUse">
      <stop offset="0" stop-color="#00d85d"/>
      <stop offset="1" stop-color="#0ebdb3"/>
    </linearGradient>
    <linearGradient id="Nouvelle_nuance_de_dégradé_2-2" data-name="Nouvelle nuance de dégradé 2" x1="254.34" y1="311.99" x2="332.28" y2="311.99" xlink:href="#Nouvelle_nuance_de_dégradé_2"/>
    <linearGradient id="Nouvelle_nuance_de_dégradé_2-3" data-name="Nouvelle nuance de dégradé 2" x1="398.49" y1="275.86" x2="404.15" y2="275.86" xlink:href="#Nouvelle_nuance_de_dégradé_2"/>
    <linearGradient id="Nouvelle_nuance_de_dégradé_2-4" data-name="Nouvelle nuance de dégradé 2" x1="107.14" y1="275.86" x2="112.8" y2="275.86" xlink:href="#Nouvelle_nuance_de_dégradé_2"/>
    <linearGradient id="Nouvelle_nuance_de_dégradé_2-5" data-name="Nouvelle nuance de dégradé 2" x1="252.82" y1="421.53" x2="258.48" y2="421.53" xlink:href="#Nouvelle_nuance_de_dégradé_2"/>
    <linearGradient id="Nouvelle_nuance_de_dégradé_2-6" data-name="Nouvelle nuance de dégradé 2" x1="252.82" y1="130.18" x2="258.48" y2="130.18" xlink:href="#Nouvelle_nuance_de_dégradé_2"/>
  </defs>
  <path d="M255,467c-105.4,0-191.14-85.75-191.14-191.15,0-49.52,18.94-96.5,53.33-132.3,34.29-35.69,80.28-56.51,129.49-58.63l7.66-.33v-45.93h-51.32c-1.56,0-2.83-1.27-2.83-2.83s1.27-2.83,2.83-2.83h108.31c1.56,0,2.83,1.27,2.83,2.83s-1.27,2.83-2.83,2.83h-51.32v46.02l7.48.48c100.19,6.49,178.67,90.25,178.67,190.69,0,105.4-85.75,191.15-191.15,191.15ZM255,90.37c-102.27,0-185.48,83.21-185.48,185.48s83.21,185.49,185.48,185.49,185.49-83.21,185.49-185.49-83.21-185.48-185.49-185.48Z" style="fill: url(#Nouvelle_nuance_de_dégradé_2);"/>
  <path d="M329.45,350.96c-.76,0-1.47-.29-2-.83l-72.28-72.28c-.53-.53-.83-1.24-.83-2s.29-1.47.83-2,1.25-.83,2-.83,1.47.29,2,.83l72.28,72.28c.54.54.83,1.25.83,2s-.29,1.46-.83,2-1.25.83-2,.83Z" style="fill: url(#Nouvelle_nuance_de_dégradé_2-2);"/>
  <path d="M401.32,278.69c-1.56,0-2.83-1.27-2.83-2.83s1.27-2.83,2.83-2.83,2.83,1.27,2.83,2.83-1.27,2.83-2.83,2.83Z" style="fill: url(#Nouvelle_nuance_de_dégradé_2-3);"/>
  <path d="M109.97,278.69c-1.56,0-2.83-1.27-2.83-2.83s1.27-2.83,2.83-2.83,2.83,1.27,2.83,2.83-1.27,2.83-2.83,2.83Z" style="fill: url(#Nouvelle_nuance_de_dégradé_2-4);"/>
  <path d="M255.65,424.36c-1.56,0-2.83-1.27-2.83-2.83s1.27-2.83,2.83-2.83,2.83,1.27,2.83,2.83-1.27,2.83-2.83,2.83Z" style="fill: url(#Nouvelle_nuance_de_dégradé_2-5);"/>
  <path d="M255.65,133.01c-1.56,0-2.83-1.27-2.83-2.83s1.27-2.83,2.83-2.83,2.83,1.27,2.83,2.83-1.27,2.83-2.83,2.83Z" style="fill: url(#Nouvelle_nuance_de_dégradé_2-6);"/>
  <path d="M245,467c-105.4,0-191.14-85.75-191.14-191.15,0-49.52,18.94-96.5,53.33-132.3,34.29-35.69,80.28-56.51,129.49-58.63l7.66-.33v-45.93h-51.32c-1.56,0-2.83-1.27-2.83-2.83s1.27-2.83,2.83-2.83h108.31c1.56,0,2.83,1.27,2.83,2.83s-1.27,2.83-2.83,2.83h-51.32v46.02l7.48.48c100.19,6.49,178.67,90.25,178.67,190.69,0,105.4-85.75,191.15-191.15,191.15ZM245,90.37c-102.27,0-185.48,83.21-185.48,185.48s83.21,185.49,185.48,185.49,185.49-83.21,185.49-185.49-83.21-185.48-185.49-185.48Z" style="fill: #fff;"/>
  <path d="M319.44,350.96c-.76,0-1.47-.29-2-.83l-72.28-72.28c-.53-.53-.83-1.24-.83-2s.29-1.47.83-2,1.25-.83,2-.83,1.47.29,2,.83l72.28,72.28c.54.54.83,1.25.83,2s-.29,1.46-.83,2-1.25.83-2,.83Z" style="fill: #fff;"/>
  <path d="M391.32,278.69c-1.56,0-2.83-1.27-2.83-2.83s1.27-2.83,2.83-2.83,2.83,1.27,2.83,2.83-1.27,2.83-2.83,2.83Z" style="fill: #fff;"/>
  <path d="M99.97,278.69c-1.56,0-2.83-1.27-2.83-2.83s1.27-2.83,2.83-2.83,2.83,1.27,2.83,2.83-1.27,2.83-2.83,2.83Z" style="fill: #fff;"/>
  <path d="M245.65,424.36c-1.56,0-2.83-1.27-2.83-2.83s1.27-2.83,2.83-2.83,2.83,1.27,2.83,2.83-1.27,2.83-2.83,2.83Z" style="fill: #fff;"/>
  <path d="M245.65,133.01c-1.56,0-2.83-1.27-2.83-2.83s1.27-2.83,2.83-2.83,2.83,1.27,2.83,2.83-1.27,2.83-2.83,2.83Z" style="fill: #fff;"/>
</svg>