<?xml version="1.0" encoding="UTF-8"?>
<svg id="Calque_1" data-name="Calque 1" xmlns="http://www.w3.org/2000/svg" xmlns:xlink="http://www.w3.org/1999/xlink" viewBox="0 0 500 500">
  <defs>
    <linearGradient id="Nouvelle_nuance_de_dégradé_2" data-name="Nouvelle nuance de dégradé 2" x1="54.95" y1="250" x2="451.25" y2="250" gradientUnits="userSpaceOnUse">
      <stop offset="0" stop-color="#00d85d"/>
      <stop offset="1" stop-color="#0ebdb3"/>
    </linearGradient>
  </defs>
  <path d="M438.75,47.5h-110.43c-6.89,0-12.5,5.61-12.5,12.5v87.5h-117.93c-6.89,0-12.5,5.61-12.5,12.5v87.5h-117.93c-6.89,0-12.5,5.61-12.5,12.5v180c0,6.89,5.61,12.5,12.5,12.5h371.3c6.89,0,12.5-5.61,12.5-12.5V60c0-6.89-5.61-12.5-12.5-12.5ZM185.38,447.5h-117.93c-4.14,0-7.5-3.36-7.5-7.5v-180c0-4.14,3.36-7.5,7.5-7.5h117.93v195ZM315.82,447.5h-125.43V160c0-4.14,3.36-7.5,7.5-7.5h117.93v295ZM446.25,440c0,4.14-3.36,7.5-7.5,7.5h-117.93V60c0-4.14,3.36-7.5,7.5-7.5h110.43c4.14,0,7.5,3.36,7.5,7.5v380Z" style="fill: url(#Nouvelle_nuance_de_dégradé_2);"/>
  <g>
    <path d="M430.05,452.5h-122.93V60c0-6.89,5.61-12.5,12.5-12.5h110.43c6.89,0,12.5,5.61,12.5,12.5v380c0,6.89-5.61,12.5-12.5,12.5ZM312.12,447.5h117.93c4.14,0,7.5-3.36,7.5-7.5V60c0-4.14-3.36-7.5-7.5-7.5h-110.43c-4.14,0-7.5,3.36-7.5,7.5v387.5Z" style="fill: #fff;"/>
    <path d="M312.12,452.5h-135.43V160c0-6.89,5.61-12.5,12.5-12.5h122.93v305ZM181.68,447.5h125.43V152.5h-117.93c-4.14,0-7.5,3.36-7.5,7.5v287.5Z" style="fill: #fff;"/>
    <path d="M181.68,452.5H58.75c-6.89,0-12.5-5.61-12.5-12.5v-180c0-6.89,5.61-12.5,12.5-12.5h122.93v205ZM58.75,252.5c-4.14,0-7.5,3.36-7.5,7.5v180c0,4.14,3.36,7.5,7.5,7.5h117.93v-195H58.75Z" style="fill: #fff;"/>
  </g>
</svg>