<?xml version="1.0" encoding="UTF-8"?>
<svg id="Calque_1" data-name="Calque 1" xmlns="http://www.w3.org/2000/svg" xmlns:xlink="http://www.w3.org/1999/xlink" viewBox="0 0 500 500">
  <defs>
    <linearGradient id="Nouvelle_nuance_de_dégradé_2" data-name="Nouvelle nuance de dégradé 2" x1="153.92" y1="248.75" x2="356.51" y2="248.75" gradientUnits="userSpaceOnUse">
      <stop offset="0" stop-color="#00d85d"/>
      <stop offset="1" stop-color="#0ebdb3"/>
    </linearGradient>
  </defs>
  <g>
    <path d="M255.21,476.25c-27.16,0-52.62-10.51-71.7-29.59-19.08-19.08-29.59-44.55-29.59-71.7s10.51-52.62,29.59-71.7l126.2-126.2c14.49-14.49,22.47-33.84,22.47-54.5s-7.98-40.01-22.47-54.5c-14.49-14.49-33.84-22.47-54.5-22.47s-40.01,7.98-54.5,22.47c-14.49,14.49-22.47,33.84-22.47,54.5s7.98,40.01,22.47,54.5l47.29,47.29c.98.98.98,2.56,0,3.54-.98.98-2.56.98-3.54,0l-47.29-47.29c-15.43-15.43-23.93-36.04-23.93-58.03s8.5-42.6,23.93-58.03c15.43-15.43,36.04-23.93,58.03-23.93s42.6,8.5,58.03,23.93c15.43,15.43,23.93,36.04,23.93,58.03s-8.5,42.6-23.93,58.03l-126.2,126.2c-18.14,18.14-28.13,42.35-28.13,68.17s9.99,50.03,28.13,68.17c18.14,18.14,42.35,28.13,68.17,28.13s50.03-9.99,68.17-28.13c18.14-18.14,28.13-42.35,28.13-68.17s-9.99-50.03-28.13-68.17l-44.99-44.99-10.13,10.13,44.99,44.99c15.43,15.43,23.93,36.04,23.93,58.03s-8.5,42.6-23.93,58.03c-15.43,15.43-36.04,23.93-58.03,23.93s-42.6-8.5-58.03-23.93c-15.43-15.43-23.93-36.04-23.93-58.03s8.5-42.6,23.93-58.03l126.2-126.2c18.14-18.14,28.13-42.35,28.13-68.17s-9.99-50.03-28.13-68.17c-18.14-18.14-42.35-28.13-68.17-28.13s-50.03,9.99-68.17,28.13c-18.14,18.14-28.13,42.35-28.13,68.17s9.99,50.03,28.13,68.17l47.29,47.29c.98.98.98,2.56,0,3.54-.98.98-2.56.98-3.54,0l-47.29-47.29c-19.08-19.08-29.59-44.55-29.59-71.7s10.51-52.62,29.59-71.7c19.08-19.08,44.55-29.59,71.7-29.59s52.62,10.51,71.7,29.59,29.59,44.55,29.59,71.7-10.51,52.62-29.59,71.7l-126.2,126.2c-14.49,14.49-22.47,33.84-22.47,54.5s7.98,40.01,22.47,54.5,33.84,22.47,54.5,22.47,40.01-7.98,54.5-22.47c14.49-14.49,22.47-33.84,22.47-54.5s-7.98-40.01-22.47-54.5l-46.75-46.76c-.98-.98-.98-2.56,0-3.54l13.67-13.67c.47-.47,1.1-.73,1.77-.73h0c.66,0,1.3.26,1.77.73l46.75,46.75c19.08,19.08,29.59,44.55,29.59,71.7s-10.51,52.62-29.59,71.7c-19.08,19.08-44.55,29.59-71.7,29.59Z" style="fill: url(#Nouvelle_nuance_de_dégradé_2);"/>
    <path d="M245.21,476.25c-27.16,0-52.62-10.51-71.7-29.59-19.08-19.08-29.59-44.55-29.59-71.7s10.51-52.62,29.59-71.7l126.2-126.2c14.49-14.49,22.47-33.84,22.47-54.5s-7.98-40.01-22.47-54.5c-14.49-14.49-33.84-22.47-54.5-22.47s-40.01,7.98-54.5,22.47c-14.49,14.49-22.47,33.84-22.47,54.5s7.98,40.01,22.47,54.5l47.29,47.29c.98.98.98,2.56,0,3.54-.98.98-2.56.98-3.54,0l-47.29-47.29c-15.43-15.43-23.93-36.04-23.93-58.03s8.5-42.6,23.93-58.03c15.43-15.43,36.04-23.93,58.04-23.93s42.6,8.5,58.03,23.93c15.43,15.43,23.93,36.04,23.93,58.03s-8.5,42.6-23.93,58.03l-126.2,126.2c-18.14,18.14-28.13,42.35-28.13,68.17s9.99,50.03,28.13,68.17c18.14,18.14,42.35,28.13,68.17,28.13s50.03-9.99,68.17-28.13c18.14-18.14,28.13-42.35,28.13-68.17s-9.99-50.03-28.13-68.17l-44.99-44.99-10.13,10.13,44.99,44.99c15.43,15.43,23.93,36.04,23.93,58.03s-8.5,42.6-23.93,58.03c-15.43,15.43-36.04,23.93-58.03,23.93s-42.6-8.5-58.04-23.93c-15.43-15.43-23.93-36.04-23.93-58.03s8.5-42.6,23.93-58.03l126.2-126.2c18.14-18.14,28.13-42.35,28.13-68.17s-9.99-50.03-28.13-68.17c-18.14-18.14-42.35-28.13-68.17-28.13s-50.03,9.99-68.17,28.13c-18.14,18.14-28.13,42.35-28.13,68.17s9.99,50.03,28.13,68.17l47.29,47.29c.98.98.98,2.56,0,3.54-.98.98-2.56.98-3.54,0l-47.29-47.29c-19.08-19.08-29.59-44.55-29.59-71.7s10.51-52.62,29.59-71.7c19.08-19.08,44.55-29.59,71.7-29.59s52.62,10.51,71.7,29.59,29.59,44.55,29.59,71.7-10.51,52.62-29.59,71.7l-126.2,126.2c-14.49,14.49-22.47,33.84-22.47,54.5s7.98,40.01,22.47,54.5c14.49,14.49,33.84,22.47,54.5,22.47s40.01-7.98,54.5-22.47c14.49-14.49,22.47-33.84,22.47-54.5s-7.98-40.01-22.47-54.5l-46.75-46.76c-.98-.98-.98-2.56,0-3.54l13.67-13.67c.47-.47,1.1-.73,1.77-.73h0c.66,0,1.3.26,1.77.73l46.75,46.75c19.08,19.08,29.59,44.55,29.59,71.7s-10.51,52.62-29.59,71.7c-19.08,19.08-44.55,29.59-71.7,29.59Z" style="fill: #fff;"/>
  </g>
  <path d="M250,6c32.94,0,64.9,6.45,94.97,19.17,29.05,12.29,55.15,29.88,77.56,52.29s40,48.51,52.29,77.56c12.72,30.08,19.17,62.03,19.17,94.97s-6.45,64.9-19.17,94.97c-12.29,29.05-29.88,55.15-52.29,77.56s-48.51,40-77.56,52.29c-30.08,12.72-62.03,19.17-94.97,19.17s-64.9-6.45-94.97-19.17c-29.05-12.29-55.15-29.88-77.56-52.29s-40-48.51-52.29-77.56c-12.72-30.08-19.17-62.03-19.17-94.97s6.45-64.9,19.17-94.97c12.29-29.05,29.88-55.15,52.29-77.56s48.51-40,77.56-52.29c30.08-12.72,62.03-19.17,94.97-19.17M250,1C112.48,1,1,112.48,1,250s111.48,249,249,249,249-111.48,249-249S387.52,1,250,1h0Z" style="fill: #fff;"/>
</svg>