<?xml version="1.0" encoding="UTF-8"?>
<svg id="Calque_1" data-name="Calque 1" xmlns="http://www.w3.org/2000/svg" xmlns:xlink="http://www.w3.org/1999/xlink" viewBox="0 0 500 500">
  <defs>
    <linearGradient id="Nouvelle_nuance_de_dégradé_2" data-name="Nouvelle nuance de dégradé 2" x1="47.5" y1="350" x2="462.5" y2="350" gradientUnits="userSpaceOnUse">
      <stop offset="0" stop-color="#00d85d"/>
      <stop offset="1" stop-color="#0ebdb3"/>
    </linearGradient>
    <linearGradient id="Nouvelle_nuance_de_dégradé_2-2" data-name="Nouvelle nuance de dégradé 2" x1="52.5" y1="231.96" x2="457.5" y2="231.96" xlink:href="#Nouvelle_nuance_de_dégradé_2"/>
    <linearGradient id="Nouvelle_nuance_de_dégradé_2-3" data-name="Nouvelle nuance de dégradé 2" x1="52.5" y1="231.96" x2="457.5" y2="231.96" xlink:href="#Nouvelle_nuance_de_dégradé_2"/>
    <linearGradient id="Nouvelle_nuance_de_dégradé_2-4" data-name="Nouvelle nuance de dégradé 2" x1="373.13" y1="258.77" x2="396.15" y2="258.77" xlink:href="#Nouvelle_nuance_de_dégradé_2"/>
    <linearGradient id="Nouvelle_nuance_de_dégradé_2-5" data-name="Nouvelle nuance de dégradé 2" x1="321.73" y1="204.09" x2="337.14" y2="204.09" xlink:href="#Nouvelle_nuance_de_dégradé_2"/>
    <linearGradient id="Nouvelle_nuance_de_dégradé_2-6" data-name="Nouvelle nuance de dégradé 2" x1="251.78" y1="184.34" x2="256.78" y2="184.34" xlink:href="#Nouvelle_nuance_de_dégradé_2"/>
    <linearGradient id="Nouvelle_nuance_de_dégradé_2-7" data-name="Nouvelle nuance de dégradé 2" x1="171.62" y1="204.81" x2="187.03" y2="204.81" xlink:href="#Nouvelle_nuance_de_dégradé_2"/>
    <linearGradient id="Nouvelle_nuance_de_dégradé_2-8" data-name="Nouvelle nuance de dégradé 2" x1="113.13" y1="260.02" x2="136.15" y2="260.02" xlink:href="#Nouvelle_nuance_de_dégradé_2"/>
    <linearGradient id="Nouvelle_nuance_de_dégradé_2-9" data-name="Nouvelle nuance de dégradé 2" x1="73.6" y1="231.96" x2="436.4" y2="231.96" xlink:href="#Nouvelle_nuance_de_dégradé_2"/>
  </defs>
  <g>
    <path d="M450,370.54H60c-6.89,0-12.5-5.61-12.5-12.5v-16.09c0-6.89,5.61-12.5,12.5-12.5h390c6.89,0,12.5,5.61,12.5,12.5v16.09c0,6.89-5.61,12.5-12.5,12.5ZM60,334.46c-4.14,0-7.5,3.36-7.5,7.5v16.09c0,4.14,3.36,7.5,7.5,7.5h390c4.14,0,7.5-3.36,7.5-7.5v-16.09c0-4.14-3.36-7.5-7.5-7.5H60Z" style="fill: url(#Nouvelle_nuance_de_dégradé_2);"/>
    <path d="M455,334.46H55c-1.38,0-2.5-1.12-2.5-2.5,0-111.66,90.84-202.5,202.5-202.5s202.5,90.84,202.5,202.5c0,1.38-1.12,2.5-2.5,2.5ZM57.52,329.46h394.97c-1.35-107.75-89.42-195-197.48-195S58.86,221.71,57.52,329.46Z" style="fill: url(#Nouvelle_nuance_de_dégradé_2-2);"/>
    <path d="M455,334.46H55c-1.38,0-2.5-1.12-2.5-2.5,0-111.66,90.84-202.5,202.5-202.5s202.5,90.84,202.5,202.5c0,1.38-1.12,2.5-2.5,2.5ZM57.52,329.46h394.97c-1.35-107.75-89.42-195-197.48-195S58.86,221.71,57.52,329.46Z" style="fill: url(#Nouvelle_nuance_de_dégradé_2-3);"/>
    <g>
      <path d="M375.63,266.47c-.86,0-1.7-.45-2.17-1.25-.69-1.2-.28-2.72.92-3.42l18.02-10.4c1.2-.69,2.72-.28,3.42.92s.28,2.72-.92,3.42l-18.02,10.4c-.39.23-.82.33-1.25.33Z" style="fill: url(#Nouvelle_nuance_de_dégradé_2-4);"/>
      <path d="M324.23,215.6c-.42,0-.85-.11-1.25-.34-1.2-.69-1.61-2.22-.92-3.42l10.4-18.02c.69-1.2,2.22-1.61,3.42-.92,1.2.69,1.61,2.22.92,3.42l-10.4,18.02c-.46.8-1.3,1.25-2.17,1.25Z" style="fill: url(#Nouvelle_nuance_de_dégradé_2-5);"/>
      <path d="M254.28,197.24c-1.38,0-2.5-1.12-2.5-2.5v-20.81c0-1.38,1.12-2.5,2.5-2.5s2.5,1.12,2.5,2.5v20.81c0,1.38-1.12,2.5-2.5,2.5Z" style="fill: url(#Nouvelle_nuance_de_dégradé_2-6);"/>
      <path d="M184.53,216.32c-.86,0-1.7-.45-2.17-1.25l-10.4-18.02c-.69-1.2-.28-2.72.92-3.42,1.19-.69,2.73-.28,3.42.92l10.4,18.02c.69,1.2.28,2.72-.92,3.42-.39.23-.82.34-1.25.34Z" style="fill: url(#Nouvelle_nuance_de_dégradé_2-7);"/>
      <path d="M133.65,267.72c-.42,0-.85-.11-1.25-.33l-18.02-10.4c-1.2-.69-1.61-2.22-.92-3.42.69-1.2,2.22-1.61,3.42-.92l18.02,10.4c1.2.69,1.61,2.22.92,3.42-.46.8-1.3,1.25-2.17,1.25Z" style="fill: url(#Nouvelle_nuance_de_dégradé_2-8);"/>
    </g>
    <path d="M433.9,314.46h-152.98c-1.04,0-1.96-.64-2.33-1.61-2.31-6.05-7.02-11.1-12.92-13.86-1.14-.53-1.71-1.84-1.32-3.04l31.17-95.93c.32-.99.24-2.06-.24-3-.48-.94-1.29-1.64-2.28-1.96-.99-.32-2.06-.24-3,.24-.94.48-1.64,1.29-1.96,2.28l-31.62,97.33c-.32,1-1.24,1.69-2.29,1.73-10.15.36-19.06,6.71-22.68,16.19-.37.97-1.3,1.61-2.33,1.61H76.1c-.71,0-1.39-.3-1.86-.83-.47-.53-.7-1.24-.62-1.94,4.92-44.3,25.99-85.24,59.32-115.28,33.58-30.27,76.93-46.94,122.06-46.94s88.48,16.67,122.06,46.94c33.33,30.04,54.4,70.98,59.32,115.28.08.71-.15,1.41-.62,1.94-.47.53-1.15.83-1.86.83ZM282.58,309.46h148.5c-5.34-42.01-25.64-80.75-57.37-109.35-32.66-29.44-74.82-45.65-118.72-45.65s-86.05,16.21-118.72,45.65c-31.72,28.59-52.02,67.33-57.37,109.35h148.5c4.46-9.93,13.9-16.67,24.74-17.68l31.1-95.72c.74-2.26,2.31-4.11,4.45-5.19,2.13-1.09,4.55-1.28,6.82-.54,2.26.73,4.11,2.31,5.19,4.45,1.09,2.13,1.28,4.55.54,6.82l-30.51,93.9c5.69,3.18,10.16,8.04,12.83,13.98Z" style="fill: url(#Nouvelle_nuance_de_dégradé_2-9);"/>
  </g>
  <g>
    <path d="M440,370.54H50c-6.89,0-12.5-5.61-12.5-12.5v-16.09c0-6.89,5.61-12.5,12.5-12.5h390c6.89,0,12.5,5.61,12.5,12.5v16.09c0,6.89-5.61,12.5-12.5,12.5ZM50,334.46c-4.14,0-7.5,3.36-7.5,7.5v16.09c0,4.14,3.36,7.5,7.5,7.5h390c4.14,0,7.5-3.36,7.5-7.5v-16.09c0-4.14-3.36-7.5-7.5-7.5H50Z" style="fill: #fff;"/>
    <path d="M447.5,334.46H42.5v-2.5c0-111.66,90.84-202.5,202.5-202.5s202.5,90.84,202.5,202.5v2.5ZM47.52,329.46h394.97c-1.35-107.75-89.42-195-197.48-195S48.86,221.71,47.52,329.46Z" style="fill: #fff;"/>
    <path d="M447.5,334.46H42.5v-2.5c0-111.66,90.84-202.5,202.5-202.5s202.5,90.84,202.5,202.5v2.5ZM47.52,329.46h394.97c-1.35-107.75-89.42-195-197.48-195S48.86,221.71,47.52,329.46Z" style="fill: #fff;"/>
    <g>
      <path d="M365.63,266.47c-.86,0-1.7-.45-2.17-1.25-.69-1.2-.28-2.72.92-3.42l18.02-10.4c1.19-.69,2.73-.28,3.42.92.69,1.2.28,2.72-.92,3.42l-18.02,10.4c-.39.23-.82.33-1.25.33Z" style="fill: #fff;"/>
      <path d="M314.23,215.6c-.42,0-.85-.11-1.25-.34-1.2-.69-1.61-2.22-.92-3.42l10.4-18.02c.69-1.2,2.22-1.61,3.42-.92,1.2.69,1.61,2.22.92,3.42l-10.4,18.02c-.46.8-1.3,1.25-2.17,1.25Z" style="fill: #fff;"/>
      <path d="M244.28,197.24c-1.38,0-2.5-1.12-2.5-2.5v-20.81c0-1.38,1.12-2.5,2.5-2.5s2.5,1.12,2.5,2.5v20.81c0,1.38-1.12,2.5-2.5,2.5Z" style="fill: #fff;"/>
      <path d="M174.53,216.32c-.86,0-1.7-.45-2.17-1.25l-10.4-18.02c-.69-1.2-.28-2.72.92-3.42,1.19-.69,2.73-.28,3.42.92l10.4,18.02c.69,1.2.28,2.72-.92,3.42-.39.23-.82.34-1.25.34Z" style="fill: #fff;"/>
      <path d="M123.65,267.72c-.42,0-.85-.11-1.25-.33l-18.02-10.4c-1.2-.69-1.61-2.22-.92-3.42.69-1.2,2.22-1.61,3.42-.92l18.02,10.4c1.2.69,1.61,2.22.92,3.42-.46.8-1.3,1.25-2.17,1.25Z" style="fill: #fff;"/>
    </g>
    <path d="M426.69,314.46h-157.49l-.61-1.61c-2.31-6.05-7.02-11.1-12.92-13.86l-2-.94,31.85-98.03c.32-.99.24-2.06-.24-3-.48-.94-1.29-1.64-2.28-1.96-.99-.32-2.06-.24-3,.24-.94.48-1.64,1.29-1.96,2.28l-32.17,99-1.75.06c-10.15.36-19.06,6.71-22.68,16.19l-.61,1.61H63.31l.31-2.78c4.92-44.3,25.99-85.24,59.32-115.28,33.58-30.27,76.93-46.94,122.06-46.94s88.48,16.67,122.06,46.94c33.33,30.04,54.4,70.98,59.32,115.28l.31,2.78ZM272.58,309.46h148.5c-5.34-42.01-25.64-80.75-57.37-109.35-32.66-29.44-74.82-45.65-118.72-45.65s-86.05,16.21-118.72,45.65c-31.72,28.59-52.02,67.33-57.37,109.35h148.5c4.46-9.93,13.9-16.67,24.74-17.68l31.1-95.72c.74-2.26,2.31-4.11,4.45-5.19,2.13-1.09,4.55-1.28,6.82-.54,2.26.73,4.11,2.31,5.19,4.45,1.09,2.13,1.28,4.55.54,6.82l-30.51,93.9c5.69,3.18,10.16,8.04,12.83,13.98Z" style="fill: #fff;"/>
  </g>
</svg>