<?xml version="1.0" encoding="UTF-8"?>
<svg id="Calque_1" data-name="Calque 1" xmlns="http://www.w3.org/2000/svg" xmlns:xlink="http://www.w3.org/1999/xlink" viewBox="0 0 500 500">
  <defs>
    <linearGradient id="Nouvelle_nuance_de_dégradé_2" data-name="Nouvelle nuance de dégradé 2" x1="27.13" y1="250" x2="480.37" y2="250" gradientUnits="userSpaceOnUse">
      <stop offset="0" stop-color="#00d85d"/>
      <stop offset="1" stop-color="#0ebdb3"/>
    </linearGradient>
    <linearGradient id="Nouvelle_nuance_de_dégradé_2-2" data-name="Nouvelle nuance de dégradé 2" x1="76.77" x2="455.37" xlink:href="#Nouvelle_nuance_de_dégradé_2"/>
  </defs>
  <g>
    <path d="M398.44,168.07H109.06c-21.79,0-42.34,8.54-57.87,24.06-15.52,15.53-24.06,36.08-24.06,57.87,0,45.18,36.75,81.93,81.93,81.93h289.38c21.79,0,42.34-8.54,57.87-24.06,15.52-15.53,24.06-36.08,24.06-57.87,0-45.18-36.75-81.93-81.93-81.93ZM452.77,304.33c-14.58,14.57-33.88,22.6-54.33,22.6H109.06c-42.42,0-76.93-34.51-76.93-76.93,0-20.45,8.03-39.75,22.6-54.33,14.58-14.57,33.88-22.6,54.33-22.6h289.38c42.42,0,76.93,34.51,76.93,76.93,0,20.45-8.03,39.75-22.6,54.33Z" style="fill: url(#Nouvelle_nuance_de_dégradé_2);"/>
    <path d="M398.87,193.5c-24.12,0-45.86,15.71-53.53,38.41H94.85c-4.82,0-9.36,1.89-12.77,5.31-3.43,3.43-5.31,7.96-5.31,12.78,0,9.97,8.11,18.09,18.08,18.09h250.49c7.67,22.71,29.41,38.41,53.53,38.41,31.15,0,56.5-25.35,56.5-56.5s-25.35-56.5-56.5-56.5ZM94.85,263.09c-7.21,0-13.08-5.87-13.08-13.09,0-3.48,1.37-6.76,3.85-9.25,2.47-2.48,5.75-3.84,9.23-3.84h249.05c-.02.09-.03.18-.05.26-.22.93-.41,1.86-.58,2.81-.03.16-.05.33-.08.49-.15.86-.27,1.73-.38,2.6-.02.16-.04.31-.06.47-.11.95-.19,1.91-.25,2.87-.01.21-.02.42-.03.63-.05.98-.09,1.97-.09,2.96s.03,1.98.09,2.96c.01.21.02.42.03.63.06.96.14,1.92.25,2.87.02.16.04.31.06.47.11.87.23,1.74.38,2.6.03.16.05.33.08.49.17.94.36,1.88.58,2.81.02.09.03.18.05.26H94.85ZM398.87,301.5c-22.55,0-42.83-15.06-49.32-36.63-1.45-4.8-2.18-9.8-2.18-14.87,0-1.27.05-2.53.14-3.78.21-2.92.68-5.8,1.38-8.63.2-.82.42-1.64.67-2.45h0c6.49-21.57,26.76-36.63,49.31-36.63,28.4,0,51.5,23.1,51.5,51.5s-23.1,51.5-51.5,51.5Z" style="fill: url(#Nouvelle_nuance_de_dégradé_2-2);"/>
  </g>
  <g>
    <g>
      <path d="M388.44,331.93H99.06c-45.18,0-81.93-36.75-81.93-81.93,0-21.79,8.54-42.34,24.06-57.87,15.53-15.52,36.08-24.06,57.87-24.06h289.38c45.18,0,81.93,36.75,81.93,81.93,0,21.79-8.55,42.34-24.06,57.87-15.53,15.52-36.08,24.06-57.87,24.06ZM99.06,173.07c-20.45,0-39.75,8.03-54.33,22.6-14.57,14.58-22.6,33.88-22.6,54.33,0,42.42,34.51,76.93,76.93,76.93h289.38c20.46,0,39.75-8.03,54.33-22.6,14.57-14.58,22.6-33.88,22.6-54.33,0-42.42-34.51-76.93-76.93-76.93H99.06ZM388.87,306.5c-24.74,0-46.99-16.53-54.1-40.19-1.59-5.27-2.4-10.76-2.4-16.31s.81-11.04,2.4-16.31c7.11-23.66,29.36-40.19,54.1-40.19,31.15,0,56.5,25.35,56.5,56.5s-25.35,56.5-56.5,56.5ZM388.87,198.5c-22.55,0-42.83,15.06-49.32,36.63-1.45,4.8-2.18,9.81-2.18,14.87s.73,10.07,2.18,14.87c6.48,21.57,26.76,36.63,49.32,36.63,28.4,0,51.5-23.1,51.5-51.5s-23.1-51.5-51.5-51.5Z" style="fill: #fff;"/>
      <path d="M388.44,331.93H99.06c-45.18,0-81.93-36.75-81.93-81.93,0-21.79,8.54-42.34,24.06-57.87,15.53-15.52,36.08-24.06,57.87-24.06h289.38c45.18,0,81.93,36.75,81.93,81.93,0,21.79-8.55,42.34-24.06,57.87-15.53,15.52-36.08,24.06-57.87,24.06ZM99.06,173.07c-20.45,0-39.75,8.03-54.33,22.6-14.57,14.58-22.6,33.88-22.6,54.33,0,42.42,34.51,76.93,76.93,76.93h289.38c20.46,0,39.75-8.03,54.33-22.6,14.57-14.58,22.6-33.88,22.6-54.33,0-42.42-34.51-76.93-76.93-76.93H99.06ZM388.87,306.5c-24.74,0-46.99-16.53-54.1-40.19-1.59-5.27-2.4-10.76-2.4-16.31s.81-11.04,2.4-16.31c7.11-23.66,29.36-40.19,54.1-40.19,31.15,0,56.5,25.35,56.5,56.5s-25.35,56.5-56.5,56.5ZM388.87,198.5c-22.55,0-42.83,15.06-49.32,36.63-1.45,4.8-2.18,9.81-2.18,14.87s.73,10.07,2.18,14.87c6.48,21.57,26.76,36.63,49.32,36.63,28.4,0,51.5-23.1,51.5-51.5s-23.1-51.5-51.5-51.5Z" style="fill: #fff;"/>
      <path d="M388.87,306.5c-24.74,0-46.99-16.53-54.1-40.19-1.59-5.27-2.4-10.76-2.4-16.31s.81-11.04,2.4-16.31c7.11-23.66,29.36-40.19,54.1-40.19,31.15,0,56.5,25.35,56.5,56.5s-25.35,56.5-56.5,56.5ZM388.87,198.5c-22.55,0-42.83,15.06-49.32,36.63-1.45,4.8-2.18,9.81-2.18,14.87s.73,10.07,2.18,14.87c6.48,21.57,26.76,36.63,49.32,36.63,28.4,0,51.5-23.1,51.5-51.5s-23.1-51.5-51.5-51.5Z" style="fill: #fff;"/>
    </g>
    <path d="M337.16,268.09H84.85c-9.97,0-18.08-8.12-18.08-18.09,0-4.81,1.89-9.35,5.31-12.78,3.41-3.42,7.95-5.31,12.77-5.31h252.31c.79,0,1.54.37,2.01,1.01.47.64.62,1.46.39,2.21-1.45,4.8-2.18,9.8-2.18,14.87s.73,10.07,2.18,14.87c.23.76.08,1.58-.39,2.21-.47.63-1.22,1.01-2.01,1.01ZM84.85,236.91c-3.48,0-6.76,1.37-9.23,3.84-2.48,2.48-3.85,5.77-3.85,9.25,0,7.22,5.87,13.09,13.08,13.09h249.05c-1.02-4.27-1.53-8.66-1.53-13.09s.51-8.82,1.53-13.09H84.85Z" style="fill: #fff;"/>
  </g>
</svg>