<?xml version="1.0" encoding="UTF-8"?>
<svg id="Calque_1" data-name="Calque 1" xmlns="http://www.w3.org/2000/svg" xmlns:xlink="http://www.w3.org/1999/xlink" viewBox="0 0 500 500">
  <defs>
    <linearGradient id="Nouvelle_nuance_de_dégradé_2" data-name="Nouvelle nuance de dégradé 2" x1="388.84" y1="184.12" x2="139.1" y2="300.57" gradientTransform="translate(382.26 -79.1) rotate(155) scale(1 -1)" gradientUnits="userSpaceOnUse">
      <stop offset="0" stop-color="#00d85d"/>
      <stop offset="1" stop-color="#0ebdb3"/>
    </linearGradient>
  </defs>
  <path d="M131.89,475.13c-1.4,0-2.81-.25-4.17-.74-3.05-1.11-5.49-3.34-6.86-6.29-1.37-2.94-1.52-6.25-.4-9.3l61.75-169.66c-27.33-14.08-48.6-36.19-61.59-64.06-15.53-33.3-17.14-70.7-4.54-105.32,12.6-34.62,37.88-62.23,71.17-77.76,33.3-15.53,70.7-17.14,105.32-4.54,34.62,12.6,62.23,37.88,77.76,71.17,32.1,68.85,2.21,150.98-66.64,183.08-31.09,14.5-66.14,16.84-98.96,6.64l-61.42,168.76c-1.11,3.05-3.34,5.49-6.29,6.86-1.63.76-3.38,1.15-5.13,1.15ZM245.27,34.06c-19.1,0-38.11,4.17-55.91,12.47-32.09,14.96-56.45,41.58-68.59,74.94-12.14,33.36-10.59,69.41,4.37,101.5,12.83,27.51,34.02,49.19,61.28,62.7,1.14.57,1.67,1.9,1.24,3.09l-62.51,171.75c-.66,1.8-.57,3.74.24,5.48.81,1.73,2.24,3.05,4.04,3.7h0c1.8.66,3.74.57,5.48-.24,1.73-.81,3.05-2.24,3.7-4.04l62.25-171.02c.46-1.27,1.85-1.94,3.13-1.52,32.26,10.63,66.92,8.61,97.59-5.69,66.35-30.94,95.16-110.09,64.22-176.44-14.96-32.09-41.58-56.45-74.94-68.59-14.86-5.41-30.25-8.1-45.59-8.1ZM245.65,285.3c-44.63,0-87.45-25.33-107.53-68.38-27.6-59.19-1.9-129.8,57.29-157.4,28.63-13.35,60.78-14.74,90.55-3.9,29.76,10.83,53.5,32.56,66.85,61.19,13.35,28.63,14.74,60.79,3.9,90.55-10.83,29.76-32.56,53.5-61.19,66.85-16.14,7.53-33.14,11.09-49.88,11.09ZM142.65,214.8c26.44,56.69,94.06,81.31,150.76,54.87,27.42-12.79,48.23-35.53,58.61-64.03,10.38-28.51,9.05-59.31-3.74-86.72s-35.53-48.23-64.03-58.61c-28.51-10.38-59.31-9.05-86.72,3.74-56.69,26.44-81.31,94.06-54.87,150.76Z" style="fill: url(#Nouvelle_nuance_de_dégradé_2);"/>
  <path d="M140.95,470.9c-1.4,0-2.81-.25-4.17-.74-3.05-1.11-5.49-3.34-6.86-6.29-1.37-2.94-1.52-6.25-.41-9.3l61.75-169.66c-27.33-14.08-48.6-36.19-61.59-64.06-32.1-68.85-2.21-150.98,66.64-183.08,33.3-15.53,70.7-17.14,105.32-4.54,34.62,12.6,62.23,37.88,77.76,71.18,15.53,33.3,17.14,70.7,4.54,105.32-12.6,34.62-37.88,62.23-71.17,77.76-31.1,14.5-66.14,16.83-98.96,6.64l-61.42,168.76c-1.11,3.05-3.34,5.49-6.29,6.86-1.63.76-3.38,1.15-5.13,1.15ZM254.33,29.83c-19.1,0-38.11,4.17-55.91,12.47-66.35,30.94-95.16,110.09-64.22,176.44,12.83,27.51,34.02,49.19,61.28,62.7l2,.99-63.27,173.85c-.66,1.8-.57,3.74.24,5.48.81,1.73,2.24,3.05,4.04,3.7h0c1.8.66,3.74.57,5.47-.24,1.73-.81,3.05-2.24,3.7-4.04l63.07-173.3,2.3.76c32.27,10.63,66.93,8.61,97.59-5.69,32.09-14.96,56.45-41.58,68.59-74.94,12.14-33.36,10.59-69.41-4.37-101.5-14.96-32.09-41.58-56.45-74.94-68.59-14.86-5.41-30.25-8.1-45.59-8.1ZM254.71,281.11c-13.68,0-27.41-2.4-40.67-7.23-29.76-10.83-53.5-32.56-66.85-61.19-13.35-28.63-14.74-60.78-3.9-90.55,10.83-29.76,32.56-53.5,61.19-66.85,59.19-27.6,129.8-1.9,157.4,57.29,27.6,59.19,1.9,129.8-57.29,157.4-15.88,7.4-32.84,11.13-49.88,11.13ZM254.36,49.2c-16.03,0-32.31,3.41-47.77,10.62-27.42,12.79-48.23,35.53-58.61,64.03-10.38,28.51-9.05,59.31,3.74,86.72h0c12.79,27.42,35.53,48.23,64.03,58.61,28.51,10.38,59.31,9.05,86.72-3.74,56.69-26.44,81.31-94.06,54.87-150.76-19.23-41.23-60.24-65.49-102.99-65.49Z" style="fill: #fff;"/>
</svg>