<?xml version="1.0" encoding="UTF-8"?>
<svg id="Calque_1" data-name="Calque 1" xmlns="http://www.w3.org/2000/svg" xmlns:xlink="http://www.w3.org/1999/xlink" viewBox="0 0 500 500">
  <defs>
    <linearGradient id="Nouvelle_nuance_de_dégradé_2" data-name="Nouvelle nuance de dégradé 2" x1="456.74" y1="240.25" x2="488.72" y2="240.25" gradientUnits="userSpaceOnUse">
      <stop offset="0" stop-color="#00d85d"/>
      <stop offset="1" stop-color="#0ebdb3"/>
    </linearGradient>
    <linearGradient id="Nouvelle_nuance_de_dégradé_2-2" data-name="Nouvelle nuance de dégradé 2" x1="447.95" y1="138.35" x2="478.7" y2="138.35" xlink:href="#Nouvelle_nuance_de_dégradé_2"/>
    <linearGradient id="Nouvelle_nuance_de_dégradé_2-3" data-name="Nouvelle nuance de dégradé 2" x1="392.92" y1="54.81" x2="415.54" y2="54.81" xlink:href="#Nouvelle_nuance_de_dégradé_2"/>
    <linearGradient id="Nouvelle_nuance_de_dégradé_2-4" data-name="Nouvelle nuance de dégradé 2" x1="17.99" y1="249.57" x2="419.14" y2="249.57" xlink:href="#Nouvelle_nuance_de_dégradé_2"/>
  </defs>
  <g>
    <path d="M486.66,240.16l-26.98-4.76c-1.36-.24-2.66.67-2.9,2.03-.24,1.36.67,2.66,2.03,2.9l26.98,4.76c.15.03.29.04.44.04,1.19,0,2.25-.85,2.46-2.07.24-1.36-.67-2.66-2.03-2.9Z" style="fill: url(#Nouvelle_nuance_de_dégradé_2);"/>
    <path d="M478.55,132.81c-.47-1.3-1.91-1.97-3.2-1.49l-25.75,9.37c-1.3.47-1.97,1.91-1.49,3.2.37,1.02,1.33,1.65,2.35,1.65.28,0,.57-.05.85-.15l25.75-9.37c1.3-.47,1.97-1.91,1.49-3.2Z" style="fill: url(#Nouvelle_nuance_de_dégradé_2-2);"/>
    <path d="M395.42,67.81c.71,0,1.42-.3,1.92-.89l17.61-20.99c.89-1.06.75-2.63-.31-3.52-1.06-.89-2.63-.75-3.52.31l-17.61,20.99c-.89,1.06-.75,2.63.31,3.52.47.39,1.04.58,1.61.58Z" style="fill: url(#Nouvelle_nuance_de_dégradé_2-3);"/>
    <path d="M386.41,123.86c-12.95-6.04-27.4-6.97-40.94-2.69l-26.87-73.82c-.15-.4-.31-.8-.49-1.18-1.95-4.25-5.75-7.23-10.43-8.17-4.85-.98-9.91.42-13.55,3.74l-148.79,136.09-119.12,43.36c-3.13,1.14-5.63,3.44-7.04,6.47-1.41,3.03-1.57,6.43-.43,9.55l40.56,111.43c1.85,5.07,6.65,8.22,11.76,8.22,1.42,0,2.86-.24,4.26-.75l25.19-9.17,37.93,104.22c2.31,6.36,8.34,10.31,14.74,10.31,1.78,0,3.58-.3,5.34-.95l31.61-11.5c3.92-1.43,7.05-4.31,8.83-8.11,1.77-3.8,1.96-8.06.54-11.97l-24.35-66.9s.07,0,.1,0c.28,0,.57-.05.85-.15l22.91-8.34c7.24-2.64,10.99-10.68,8.36-17.92l-8.25-22.68,196.79,8.41c.22,0,.44.01.65.01,4.69,0,9.18-2.16,12.13-5.85,2.97-3.73,3.97-8.46,2.74-12.97-.11-.41-.24-.82-.39-1.22l-26.87-73.82c13.13-5.43,23.59-15.42,29.63-28.38,6.39-13.71,7.07-29.09,1.89-43.31-5.17-14.22-15.58-25.57-29.29-31.96ZM73.62,351.41c-3.88,1.42-8.2-.6-9.61-4.48l-40.56-111.43c-.68-1.87-.59-3.91.26-5.73s2.35-3.2,4.22-3.88l118.48-43.12,45.69,125.53-118.48,43.12ZM194.43,438.8c-1.21,2.59-3.34,4.55-6.01,5.52l-31.61,11.5c-5.53,2.01-11.66-.85-13.67-6.38l-37.93-104.22,51.66-18.8,37.93,104.22c.97,2.66.84,5.56-.37,8.15ZM197.3,348.85l-22.91,8.34c-.32.11-.59.29-.83.5l-12-32.97,32.24-11.73,8.86,24.35c1.69,4.66-.71,9.82-5.37,11.51ZM406.61,303.87c.81,2.95.14,6.06-1.82,8.53-2.09,2.62-5.33,4.12-8.66,3.96l-198.86-8.5-46.63-128.11L297.51,45.42c2.46-2.25,5.89-3.2,9.18-2.53,3.09.63,5.6,2.58,6.88,5.36.12.26.23.53.33.81l27.7,76.12h0s0,0,0,0l64.74,177.87c.1.28.19.55.26.83ZM382.46,222.81l-35.28-96.94c26.12-8.11,54.37,5.69,63.82,31.66,9.45,25.97-3.31,54.7-28.54,65.28Z" style="fill: url(#Nouvelle_nuance_de_dégradé_2-4);"/>
  </g>
  <g>
    <g>
      <path d="M477.01,248.48c-.14,0-.29-.01-.44-.04l-26.99-4.76c-1.36-.24-2.27-1.54-2.03-2.9.24-1.36,1.54-2.27,2.9-2.03l26.99,4.76c1.36.24,2.27,1.54,2.03,2.9-.21,1.21-1.27,2.07-2.46,2.07Z" style="fill: #fff;"/>
      <path d="M441.23,148.89c-1.02,0-1.98-.63-2.35-1.65-.47-1.3.2-2.73,1.49-3.2l25.75-9.37c1.3-.47,2.73.2,3.2,1.49s-.2,2.73-1.49,3.2l-25.75,9.37c-.28.1-.57.15-.85.15Z" style="fill: #fff;"/>
      <path d="M386.2,71.16c-.57,0-1.14-.19-1.61-.58-1.06-.89-1.2-2.46-.31-3.52l17.61-20.99c.89-1.06,2.46-1.2,3.52-.31,1.06.89,1.2,2.46.31,3.52l-17.61,20.99c-.49.59-1.2.89-1.92.89Z" style="fill: #fff;"/>
    </g>
    <path d="M61.84,360.22c-5.11,0-9.91-3.15-11.76-8.22L9.53,240.56c-2.36-6.48.99-13.66,7.47-16.02l120.83-43.98c.62-.23,1.31-.2,1.91.08.6.28,1.07.79,1.29,1.41l47.4,130.23c.47,1.3-.2,2.73-1.49,3.21l-120.83,43.98c-1.41.51-2.85.75-4.26.75ZM137.19,186.11l-118.48,43.12c-3.89,1.41-5.9,5.73-4.48,9.61l40.56,111.43c1.42,3.89,5.73,5.9,9.61,4.48l118.48-43.12-45.69-125.53Z" style="fill: #fff;"/>
    <path d="M143.97,464.82c-2.26,0-4.52-.5-6.64-1.48-3.8-1.77-6.68-4.91-8.11-8.83l-38.39-105.48c-.47-1.3.2-2.73,1.49-3.21,1.3-.47,2.73.2,3.2,1.49l38.39,105.48c.97,2.66,2.93,4.8,5.52,6.01,2.59,1.21,5.49,1.34,8.15.37l31.61-11.5c5.53-2.01,8.39-8.15,6.38-13.67l-38.39-105.48c-.47-1.3.2-2.73,1.49-3.21,1.3-.47,2.73.2,3.2,1.49l38.39,105.48c2.96,8.12-1.25,17.13-9.37,20.08l-31.61,11.5c-1.74.63-3.54.95-5.34.95Z" style="fill: #fff;"/>
    <path d="M166.03,365.39c-1.02,0-1.98-.63-2.35-1.65-.47-1.3.2-2.73,1.49-3.2l22.91-8.34c4.65-1.69,7.06-6.86,5.37-11.51l-10.03-27.56c-.47-1.3.2-2.73,1.49-3.21,1.3-.47,2.73.2,3.2,1.49l10.03,27.56c2.64,7.25-1.11,15.29-8.36,17.92l-22.91,8.34c-.28.1-.57.15-.85.15Z" style="fill: #fff;"/>
    <path d="M387.34,324.73c-.22,0-.43,0-.65-.01l-201.95-8.63c-1.38-.06-2.45-1.23-2.39-2.6.06-1.38,1.23-2.42,2.6-2.39l201.95,8.63c3.34.16,6.57-1.34,8.66-3.96,1.97-2.47,2.63-5.58,1.82-8.53-.08-.28-.16-.55-.27-.83l-92.44-253.98c-.1-.28-.21-.54-.33-.81-1.28-2.78-3.78-4.74-6.88-5.36-3.29-.67-6.72.28-9.18,2.53l-149.16,136.42c-1.02.93-2.6.86-3.53-.16-.93-1.02-.86-2.6.16-3.53L284.91,45.09c3.64-3.32,8.7-4.72,13.55-3.74,4.68.95,8.48,3.92,10.43,8.17.18.39.34.78.49,1.19l92.44,253.98c.15.4.28.81.39,1.22,1.24,4.51.24,9.24-2.74,12.97-2.95,3.7-7.44,5.85-12.13,5.85Z" style="fill: #fff;"/>
    <path d="M371.77,231.93c-1.02,0-1.98-.63-2.35-1.65-.47-1.3.2-2.73,1.49-3.2,26.76-9.74,40.6-39.43,30.87-66.19s-39.43-40.6-66.19-30.86c-1.3.47-2.73-.2-3.2-1.49-.47-1.3.2-2.73,1.49-3.2,29.35-10.68,61.92,4.5,72.6,33.85,10.68,29.35-4.5,61.92-33.85,72.6-.28.1-.57.15-.85.15Z" style="fill: #fff;"/>
  </g>
</svg>