<?xml version="1.0" encoding="UTF-8"?>
<svg id="Calque_1" data-name="Calque 1" xmlns="http://www.w3.org/2000/svg" xmlns:xlink="http://www.w3.org/1999/xlink" viewBox="0 0 500 500">
  <defs>
    <linearGradient id="Nouvelle_nuance_de_dégradé_2" data-name="Nouvelle nuance de dégradé 2" x1="216.94" y1="136.98" x2="291.68" y2="136.98" gradientUnits="userSpaceOnUse">
      <stop offset="0" stop-color="#00d85d"/>
      <stop offset="1" stop-color="#0ebdb3"/>
    </linearGradient>
    <linearGradient id="Nouvelle_nuance_de_dégradé_2-2" data-name="Nouvelle nuance de dégradé 2" x1="206.86" y1="295.2" x2="301.75" y2="295.2" xlink:href="#Nouvelle_nuance_de_dégradé_2"/>
    <linearGradient id="Nouvelle_nuance_de_dégradé_2-3" data-name="Nouvelle nuance de dégradé 2" x1="307.91" y1="171.07" x2="382.65" y2="171.07" xlink:href="#Nouvelle_nuance_de_dégradé_2"/>
    <linearGradient id="Nouvelle_nuance_de_dégradé_2-4" data-name="Nouvelle nuance de dégradé 2" x1="320.79" y1="312.24" x2="392.72" y2="312.24" xlink:href="#Nouvelle_nuance_de_dégradé_2"/>
    <linearGradient id="Nouvelle_nuance_de_dégradé_2-5" data-name="Nouvelle nuance de dégradé 2" x1="124.85" y1="171.07" x2="199.59" y2="171.07" xlink:href="#Nouvelle_nuance_de_dégradé_2"/>
    <linearGradient id="Nouvelle_nuance_de_dégradé_2-6" data-name="Nouvelle nuance de dégradé 2" x1="114.78" y1="312.24" x2="186.71" y2="312.24" xlink:href="#Nouvelle_nuance_de_dégradé_2"/>
    <linearGradient id="Nouvelle_nuance_de_dégradé_2-7" data-name="Nouvelle nuance de dégradé 2" x1="251.25" y1="37.72" x2="256.25" y2="37.72" xlink:href="#Nouvelle_nuance_de_dégradé_2"/>
    <linearGradient id="Nouvelle_nuance_de_dégradé_2-8" data-name="Nouvelle nuance de dégradé 2" x1="139.91" y1="66.16" x2="155.31" y2="66.16" xlink:href="#Nouvelle_nuance_de_dégradé_2"/>
    <linearGradient id="Nouvelle_nuance_de_dégradé_2-9" data-name="Nouvelle nuance de dégradé 2" x1="58.4" y1="143.86" x2="81.42" y2="143.86" xlink:href="#Nouvelle_nuance_de_dégradé_2"/>
    <linearGradient id="Nouvelle_nuance_de_dégradé_2-10" data-name="Nouvelle nuance de dégradé 2" x1="28.56" y1="250" x2="54.37" y2="250" xlink:href="#Nouvelle_nuance_de_dégradé_2"/>
    <linearGradient id="Nouvelle_nuance_de_dégradé_2-11" data-name="Nouvelle nuance de dégradé 2" x1="58.4" y1="356.14" x2="81.42" y2="356.14" xlink:href="#Nouvelle_nuance_de_dégradé_2"/>
    <linearGradient id="Nouvelle_nuance_de_dégradé_2-12" data-name="Nouvelle nuance de dégradé 2" x1="139.91" y1="433.84" x2="155.31" y2="433.84" xlink:href="#Nouvelle_nuance_de_dégradé_2"/>
    <linearGradient id="Nouvelle_nuance_de_dégradé_2-13" data-name="Nouvelle nuance de dégradé 2" x1="251.25" y1="462.28" x2="256.25" y2="462.28" xlink:href="#Nouvelle_nuance_de_dégradé_2"/>
    <linearGradient id="Nouvelle_nuance_de_dégradé_2-14" data-name="Nouvelle nuance de dégradé 2" x1="352.19" y1="433.84" x2="367.59" y2="433.84" xlink:href="#Nouvelle_nuance_de_dégradé_2"/>
    <linearGradient id="Nouvelle_nuance_de_dégradé_2-15" data-name="Nouvelle nuance de dégradé 2" x1="426.08" y1="356.14" x2="449.1" y2="356.14" xlink:href="#Nouvelle_nuance_de_dégradé_2"/>
    <linearGradient id="Nouvelle_nuance_de_dégradé_2-16" data-name="Nouvelle nuance de dégradé 2" x1="453.13" y1="250" x2="478.94" y2="250" xlink:href="#Nouvelle_nuance_de_dégradé_2"/>
    <linearGradient id="Nouvelle_nuance_de_dégradé_2-17" data-name="Nouvelle nuance de dégradé 2" x1="426.08" y1="143.86" x2="449.1" y2="143.86" xlink:href="#Nouvelle_nuance_de_dégradé_2"/>
    <linearGradient id="Nouvelle_nuance_de_dégradé_2-18" data-name="Nouvelle nuance de dégradé 2" x1="352.19" y1="66.16" x2="367.59" y2="66.16" xlink:href="#Nouvelle_nuance_de_dégradé_2"/>
  </defs>
  <g>
    <path d="M254.31,174.35c20.6,0,37.37-16.76,37.37-37.37s-16.76-37.37-37.37-37.37-37.37,16.76-37.37,37.37,16.76,37.37,37.37,37.37ZM254.31,104.62c17.85,0,32.37,14.52,32.37,32.37s-14.52,32.37-32.37,32.37-32.37-14.52-32.37-32.37,14.52-32.37,32.37-32.37Z" style="fill: url(#Nouvelle_nuance_de_dégradé_2);"/>
    <path d="M275.39,192.51h-42.16c-14.54,0-26.36,11.83-26.36,26.36v68.72c0,11.19,7.12,21.2,17.72,24.9,3.67,1.28,6.14,4.92,6.14,9.04v76.35h5v-76.35c0-6.25-3.81-11.78-9.49-13.76-8.59-3-14.37-11.11-14.37-20.18v-68.72c0-11.78,9.58-21.36,21.36-21.36h42.16c11.78,0,21.36,9.58,21.36,21.36v68.72c0,9.07-5.78,17.18-14.37,20.18-5.68,1.98-9.49,7.51-9.49,13.76v76.35h5v-76.35c0-4.13,2.47-7.76,6.14-9.04,10.6-3.7,17.72-13.71,17.72-24.9v-68.72c0-14.54-11.83-26.36-26.36-26.36Z" style="fill: url(#Nouvelle_nuance_de_dégradé_2-2);"/>
    <path d="M382.65,171.07c0-20.6-16.76-37.37-37.37-37.37s-37.37,16.76-37.37,37.37,16.76,37.37,37.37,37.37,37.37-16.76,37.37-37.37ZM312.91,171.07c0-17.85,14.52-32.37,32.37-32.37s32.37,14.52,32.37,32.37-14.52,32.37-32.37,32.37-32.37-14.52-32.37-32.37Z" style="fill: url(#Nouvelle_nuance_de_dégradé_2-3);"/>
    <path d="M366.36,226.6h-45.57v5h45.57c11.78,0,21.36,9.58,21.36,21.36v51.68c0,9.07-5.78,17.18-14.37,20.18-5.68,1.98-9.49,7.51-9.49,13.76v59.3h5v-59.3c0-4.12,2.47-7.76,6.14-9.04,10.6-3.71,17.72-13.71,17.72-24.9v-51.68c0-14.54-11.83-26.36-26.36-26.36Z" style="fill: url(#Nouvelle_nuance_de_dégradé_2-4);"/>
    <path d="M162.22,133.71c-20.6,0-37.37,16.76-37.37,37.37s16.76,37.37,37.37,37.37,37.37-16.76,37.37-37.37-16.76-37.37-37.37-37.37ZM162.22,203.44c-17.85,0-32.37-14.52-32.37-32.37s14.52-32.37,32.37-32.37,32.37,14.52,32.37,32.37-14.52,32.37-32.37,32.37Z" style="fill: url(#Nouvelle_nuance_de_dégradé_2-5);"/>
    <path d="M114.78,252.96v51.68c0,11.19,7.12,21.2,17.72,24.9,3.67,1.28,6.14,4.92,6.14,9.04v59.3h5v-59.3c0-6.25-3.81-11.78-9.49-13.76-8.6-3-14.37-11.11-14.37-20.18v-51.68c0-11.78,9.58-21.36,21.36-21.36h45.57v-5h-45.57c-14.54,0-26.36,11.83-26.36,26.36Z" style="fill: url(#Nouvelle_nuance_de_dégradé_2-6);"/>
    <path d="M253.75,50.62c1.38,0,2.5-1.12,2.5-2.5v-20.81c0-1.38-1.12-2.5-2.5-2.5s-2.5,1.12-2.5,2.5v20.81c0,1.38,1.12,2.5,2.5,2.5Z" style="fill: url(#Nouvelle_nuance_de_dégradé_2-7);"/>
    <path d="M150.64,76.42c.46.8,1.3,1.25,2.17,1.25.42,0,.85-.11,1.25-.33,1.2-.69,1.61-2.22.92-3.42l-10.4-18.02c-.69-1.2-2.22-1.6-3.42-.92-1.2.69-1.61,2.22-.92,3.42l10.4,18.02Z" style="fill: url(#Nouvelle_nuance_de_dégradé_2-8);"/>
    <path d="M80.17,146.89l-18.02-10.4c-1.19-.69-2.72-.28-3.42.92s-.28,2.72.92,3.42l18.02,10.4c.39.23.82.33,1.25.33.86,0,1.7-.45,2.17-1.25.69-1.2.28-2.72-.92-3.42Z" style="fill: url(#Nouvelle_nuance_de_dégradé_2-9);"/>
    <path d="M51.87,247.5h-20.81c-1.38,0-2.5,1.12-2.5,2.5s1.12,2.5,2.5,2.5h20.81c1.38,0,2.5-1.12,2.5-2.5s-1.12-2.5-2.5-2.5Z" style="fill: url(#Nouvelle_nuance_de_dégradé_2-10);"/>
    <path d="M77.67,348.78l-18.02,10.4c-1.2.69-1.61,2.22-.92,3.42.46.8,1.3,1.25,2.17,1.25.42,0,.85-.11,1.25-.33l18.02-10.4c1.2-.69,1.61-2.22.92-3.42s-2.22-1.61-3.42-.92Z" style="fill: url(#Nouvelle_nuance_de_dégradé_2-11);"/>
    <path d="M154.06,422.67c-1.19-.69-2.72-.28-3.42.92l-10.4,18.02c-.69,1.2-.28,2.72.92,3.42.39.23.82.33,1.25.33.86,0,1.7-.45,2.17-1.25l10.4-18.02c.69-1.2.28-2.72-.92-3.42Z" style="fill: url(#Nouvelle_nuance_de_dégradé_2-12);"/>
    <path d="M253.75,449.38c-1.38,0-2.5,1.12-2.5,2.5v20.81c0,1.38,1.12,2.5,2.5,2.5s2.5-1.12,2.5-2.5v-20.81c0-1.38-1.12-2.5-2.5-2.5Z" style="fill: url(#Nouvelle_nuance_de_dégradé_2-13);"/>
    <path d="M356.86,423.58c-.69-1.2-2.22-1.61-3.42-.92-1.2.69-1.61,2.22-.92,3.42l10.4,18.02c.46.8,1.3,1.25,2.17,1.25.42,0,.85-.11,1.25-.33,1.2-.69,1.61-2.22.92-3.42l-10.4-18.02Z" style="fill: url(#Nouvelle_nuance_de_dégradé_2-14);"/>
    <path d="M447.85,359.18l-18.02-10.4c-1.19-.69-2.72-.28-3.42.92-.69,1.2-.28,2.72.92,3.42l18.02,10.4c.39.23.82.33,1.25.33.86,0,1.7-.45,2.17-1.25.69-1.2.28-2.72-.92-3.42Z" style="fill: url(#Nouvelle_nuance_de_dégradé_2-15);"/>
    <path d="M476.44,247.5h-20.81c-1.38,0-2.5,1.12-2.5,2.5s1.12,2.5,2.5,2.5h20.81c1.38,0,2.5-1.12,2.5-2.5s-1.12-2.5-2.5-2.5Z" style="fill: url(#Nouvelle_nuance_de_dégradé_2-16);"/>
    <path d="M445.35,136.49l-18.02,10.4c-1.2.69-1.61,2.22-.92,3.42.46.8,1.3,1.25,2.17,1.25.42,0,.85-.11,1.25-.33l18.02-10.4c1.2-.69,1.61-2.22.92-3.42-.69-1.2-2.22-1.61-3.42-.92Z" style="fill: url(#Nouvelle_nuance_de_dégradé_2-17);"/>
    <path d="M353.44,77.33c.39.23.82.33,1.25.33.86,0,1.7-.45,2.17-1.25l10.4-18.02c.69-1.2.28-2.72-.92-3.42-1.19-.69-2.72-.28-3.42.92l-10.4,18.02c-.69,1.2-.28,2.72.92,3.42Z" style="fill: url(#Nouvelle_nuance_de_dégradé_2-18);"/>
  </g>
  <g>
    <g>
      <path d="M244.31,174.35c-20.6,0-37.37-16.76-37.37-37.37s16.76-37.37,37.37-37.37,37.37,16.76,37.37,37.37-16.76,37.37-37.37,37.37ZM244.31,104.62c-17.85,0-32.37,14.52-32.37,32.37s14.52,32.37,32.37,32.37,32.37-14.52,32.37-32.37-14.52-32.37-32.37-32.37Z" style="fill: #fff;"/>
      <path d="M267.89,397.88h-5v-76.35c0-6.25,3.81-11.78,9.49-13.76,8.59-3,14.37-11.11,14.37-20.18v-68.72c0-11.78-9.58-21.36-21.36-21.36h-42.16c-11.78,0-21.36,9.58-21.36,21.36v68.72c0,9.07,5.78,17.18,14.37,20.18,5.68,1.98,9.49,7.51,9.49,13.76v76.35h-5v-76.35c0-4.13-2.47-7.76-6.14-9.04-10.6-3.7-17.72-13.71-17.72-24.9v-68.72c0-14.54,11.83-26.36,26.36-26.36h42.16c14.54,0,26.36,11.83,26.36,26.36v68.72c0,11.19-7.12,21.2-17.72,24.9-3.67,1.28-6.14,4.92-6.14,9.04v76.35Z" style="fill: #fff;"/>
      <g>
        <path d="M335.28,208.44c-20.6,0-37.37-16.76-37.37-37.37s16.76-37.37,37.37-37.37,37.37,16.76,37.37,37.37-16.76,37.37-37.37,37.37ZM335.28,138.71c-17.85,0-32.37,14.52-32.37,32.37s14.52,32.37,32.37,32.37,32.37-14.52,32.37-32.37-14.52-32.37-32.37-32.37Z" style="fill: #fff;"/>
        <path d="M358.86,397.88h-5v-59.3c0-6.25,3.81-11.78,9.49-13.76,8.6-3,14.37-11.11,14.37-20.18v-51.68c0-11.78-9.58-21.36-21.36-21.36h-45.57v-5h45.57c14.54,0,26.36,11.83,26.36,26.36v51.68c0,11.19-7.12,21.2-17.72,24.9-3.67,1.28-6.14,4.92-6.14,9.04v59.3Z" style="fill: #fff;"/>
      </g>
      <g>
        <path d="M152.22,208.44c-20.6,0-37.37-16.76-37.37-37.37s16.76-37.37,37.37-37.37,37.37,16.76,37.37,37.37-16.76,37.37-37.37,37.37ZM152.22,138.71c-17.85,0-32.37,14.52-32.37,32.37s14.52,32.37,32.37,32.37,32.37-14.52,32.37-32.37-14.52-32.37-32.37-32.37Z" style="fill: #fff;"/>
        <path d="M133.64,397.88h-5v-59.3c0-4.12-2.47-7.76-6.14-9.04-10.6-3.71-17.72-13.71-17.72-24.9v-51.68c0-14.54,11.83-26.36,26.36-26.36h45.57v5h-45.57c-11.78,0-21.36,9.58-21.36,21.36v51.68c0,9.07,5.78,17.18,14.37,20.18,5.68,1.98,9.49,7.51,9.49,13.76v59.3Z" style="fill: #fff;"/>
      </g>
    </g>
    <path d="M243.75,50.62c-1.38,0-2.5-1.12-2.5-2.5v-20.81c0-1.38,1.12-2.5,2.5-2.5s2.5,1.12,2.5,2.5v20.81c0,1.38-1.12,2.5-2.5,2.5Z" style="fill: #fff;"/>
    <path d="M142.81,77.67c-.86,0-1.7-.45-2.17-1.25l-10.4-18.02c-.69-1.2-.28-2.72.92-3.42,1.19-.69,2.72-.28,3.42.92l10.4,18.02c.69,1.2.28,2.72-.92,3.42-.39.23-.82.33-1.25.33Z" style="fill: #fff;"/>
    <path d="M68.91,151.56c-.42,0-.85-.11-1.25-.33l-18.02-10.4c-1.2-.69-1.61-2.22-.92-3.42.69-1.2,2.22-1.61,3.42-.92l18.02,10.4c1.2.69,1.61,2.22.92,3.42-.46.8-1.3,1.25-2.17,1.25Z" style="fill: #fff;"/>
    <path d="M41.87,252.5h-20.81c-1.38,0-2.5-1.12-2.5-2.5s1.12-2.5,2.5-2.5h20.81c1.38,0,2.5,1.12,2.5,2.5s-1.12,2.5-2.5,2.5Z" style="fill: #fff;"/>
    <path d="M50.9,363.84c-.86,0-1.7-.45-2.17-1.25-.69-1.2-.28-2.72.92-3.42l18.02-10.4c1.19-.69,2.72-.28,3.42.92.69,1.2.28,2.72-.92,3.42l-18.02,10.4c-.39.23-.82.33-1.25.33Z" style="fill: #fff;"/>
    <path d="M132.4,445.35c-.42,0-.85-.11-1.25-.33-1.2-.69-1.61-2.22-.92-3.42l10.4-18.02c.69-1.2,2.22-1.61,3.42-.92,1.2.69,1.61,2.22.92,3.42l-10.4,18.02c-.46.8-1.3,1.25-2.17,1.25Z" style="fill: #fff;"/>
    <path d="M243.75,475.19c-1.38,0-2.5-1.12-2.5-2.5v-20.81c0-1.38,1.12-2.5,2.5-2.5s2.5,1.12,2.5,2.5v20.81c0,1.38-1.12,2.5-2.5,2.5Z" style="fill: #fff;"/>
    <path d="M355.1,445.35c-.86,0-1.7-.45-2.17-1.25l-10.4-18.02c-.69-1.2-.28-2.72.92-3.42,1.19-.69,2.72-.28,3.42.92l10.4,18.02c.69,1.2.28,2.72-.92,3.42-.39.23-.82.33-1.25.33Z" style="fill: #fff;"/>
    <path d="M436.6,363.84c-.42,0-.85-.11-1.25-.33l-18.02-10.4c-1.2-.69-1.61-2.22-.92-3.42.69-1.2,2.22-1.61,3.42-.92l18.02,10.4c1.2.69,1.61,2.22.92,3.42-.46.8-1.3,1.25-2.17,1.25Z" style="fill: #fff;"/>
    <path d="M466.44,252.5h-20.81c-1.38,0-2.5-1.12-2.5-2.5s1.12-2.5,2.5-2.5h20.81c1.38,0,2.5,1.12,2.5,2.5s-1.12,2.5-2.5,2.5Z" style="fill: #fff;"/>
    <path d="M418.59,151.56c-.86,0-1.7-.45-2.17-1.25-.69-1.2-.28-2.72.92-3.42l18.02-10.4c1.19-.69,2.72-.28,3.42.92.69,1.2.28,2.72-.92,3.42l-18.02,10.4c-.39.23-.82.33-1.25.33Z" style="fill: #fff;"/>
    <path d="M344.69,77.67c-.42,0-.85-.11-1.25-.33-1.2-.69-1.61-2.22-.92-3.42l10.4-18.02c.69-1.2,2.22-1.6,3.42-.92,1.2.69,1.61,2.22.92,3.42l-10.4,18.02c-.46.8-1.3,1.25-2.17,1.25Z" style="fill: #fff;"/>
  </g>
  <g>
    <g>
      <path d="M244.31,174.35c-20.6,0-37.37-16.76-37.37-37.37s16.76-37.37,37.37-37.37,37.37,16.76,37.37,37.37-16.76,37.37-37.37,37.37ZM244.31,104.62c-17.85,0-32.37,14.52-32.37,32.37s14.52,32.37,32.37,32.37,32.37-14.52,32.37-32.37-14.52-32.37-32.37-32.37Z" style="fill: #fff;"/>
      <path d="M267.89,397.88h-5v-76.35c0-6.25,3.81-11.78,9.49-13.76,8.59-3,14.37-11.11,14.37-20.18v-68.72c0-11.78-9.58-21.36-21.36-21.36h-42.16c-11.78,0-21.36,9.58-21.36,21.36v68.72c0,9.07,5.78,17.18,14.37,20.18,5.68,1.98,9.49,7.51,9.49,13.76v76.35h-5v-76.35c0-4.13-2.47-7.76-6.14-9.04-10.6-3.7-17.72-13.71-17.72-24.9v-68.72c0-14.54,11.83-26.36,26.36-26.36h42.16c14.54,0,26.36,11.83,26.36,26.36v68.72c0,11.19-7.12,21.2-17.72,24.9-3.67,1.28-6.14,4.92-6.14,9.04v76.35Z" style="fill: #fff;"/>
      <g>
        <path d="M335.28,208.44c-20.6,0-37.37-16.76-37.37-37.37s16.76-37.37,37.37-37.37,37.37,16.76,37.37,37.37-16.76,37.37-37.37,37.37ZM335.28,138.71c-17.85,0-32.37,14.52-32.37,32.37s14.52,32.37,32.37,32.37,32.37-14.52,32.37-32.37-14.52-32.37-32.37-32.37Z" style="fill: #fff;"/>
        <path d="M358.86,397.88h-5v-59.3c0-6.25,3.81-11.78,9.49-13.76,8.6-3,14.37-11.11,14.37-20.18v-51.68c0-11.78-9.58-21.36-21.36-21.36h-45.57v-5h45.57c14.54,0,26.36,11.83,26.36,26.36v51.68c0,11.19-7.12,21.2-17.72,24.9-3.67,1.28-6.14,4.92-6.14,9.04v59.3Z" style="fill: #fff;"/>
      </g>
      <g>
        <path d="M152.22,208.44c-20.6,0-37.37-16.76-37.37-37.37s16.76-37.37,37.37-37.37,37.37,16.76,37.37,37.37-16.76,37.37-37.37,37.37ZM152.22,138.71c-17.85,0-32.37,14.52-32.37,32.37s14.52,32.37,32.37,32.37,32.37-14.52,32.37-32.37-14.52-32.37-32.37-32.37Z" style="fill: #fff;"/>
        <path d="M133.64,397.88h-5v-59.3c0-4.12-2.47-7.76-6.14-9.04-10.6-3.71-17.72-13.71-17.72-24.9v-51.68c0-14.54,11.83-26.36,26.36-26.36h45.57v5h-45.57c-11.78,0-21.36,9.58-21.36,21.36v51.68c0,9.07,5.78,17.18,14.37,20.18,5.68,1.98,9.49,7.51,9.49,13.76v59.3Z" style="fill: #fff;"/>
      </g>
    </g>
    <path d="M243.75,50.62c-1.38,0-2.5-1.12-2.5-2.5v-20.81c0-1.38,1.12-2.5,2.5-2.5s2.5,1.12,2.5,2.5v20.81c0,1.38-1.12,2.5-2.5,2.5Z" style="fill: #fff;"/>
    <path d="M142.81,77.67c-.86,0-1.7-.45-2.17-1.25l-10.4-18.02c-.69-1.2-.28-2.72.92-3.42,1.19-.69,2.72-.28,3.42.92l10.4,18.02c.69,1.2.28,2.72-.92,3.42-.39.23-.82.33-1.25.33Z" style="fill: #fff;"/>
    <path d="M68.91,151.56c-.42,0-.85-.11-1.25-.33l-18.02-10.4c-1.2-.69-1.61-2.22-.92-3.42.69-1.2,2.22-1.61,3.42-.92l18.02,10.4c1.2.69,1.61,2.22.92,3.42-.46.8-1.3,1.25-2.17,1.25Z" style="fill: #fff;"/>
    <path d="M41.87,252.5h-20.81c-1.38,0-2.5-1.12-2.5-2.5s1.12-2.5,2.5-2.5h20.81c1.38,0,2.5,1.12,2.5,2.5s-1.12,2.5-2.5,2.5Z" style="fill: #fff;"/>
    <path d="M50.9,363.84c-.86,0-1.7-.45-2.17-1.25-.69-1.2-.28-2.72.92-3.42l18.02-10.4c1.19-.69,2.72-.28,3.42.92.69,1.2.28,2.72-.92,3.42l-18.02,10.4c-.39.23-.82.33-1.25.33Z" style="fill: #fff;"/>
    <path d="M132.4,445.35c-.42,0-.85-.11-1.25-.33-1.2-.69-1.61-2.22-.92-3.42l10.4-18.02c.69-1.2,2.22-1.61,3.42-.92,1.2.69,1.61,2.22.92,3.42l-10.4,18.02c-.46.8-1.3,1.25-2.17,1.25Z" style="fill: #fff;"/>
    <path d="M243.75,475.19c-1.38,0-2.5-1.12-2.5-2.5v-20.81c0-1.38,1.12-2.5,2.5-2.5s2.5,1.12,2.5,2.5v20.81c0,1.38-1.12,2.5-2.5,2.5Z" style="fill: #fff;"/>
    <path d="M355.1,445.35c-.86,0-1.7-.45-2.17-1.25l-10.4-18.02c-.69-1.2-.28-2.72.92-3.42,1.19-.69,2.72-.28,3.42.92l10.4,18.02c.69,1.2.28,2.72-.92,3.42-.39.23-.82.33-1.25.33Z" style="fill: #fff;"/>
    <path d="M436.6,363.84c-.42,0-.85-.11-1.25-.33l-18.02-10.4c-1.2-.69-1.61-2.22-.92-3.42.69-1.2,2.22-1.61,3.42-.92l18.02,10.4c1.2.69,1.61,2.22.92,3.42-.46.8-1.3,1.25-2.17,1.25Z" style="fill: #fff;"/>
    <path d="M466.44,252.5h-20.81c-1.38,0-2.5-1.12-2.5-2.5s1.12-2.5,2.5-2.5h20.81c1.38,0,2.5,1.12,2.5,2.5s-1.12,2.5-2.5,2.5Z" style="fill: #fff;"/>
    <path d="M418.59,151.56c-.86,0-1.7-.45-2.17-1.25-.69-1.2-.28-2.72.92-3.42l18.02-10.4c1.19-.69,2.72-.28,3.42.92.69,1.2.28,2.72-.92,3.42l-18.02,10.4c-.39.23-.82.33-1.25.33Z" style="fill: #fff;"/>
    <path d="M344.69,77.67c-.42,0-.85-.11-1.25-.33-1.2-.69-1.61-2.22-.92-3.42l10.4-18.02c.69-1.2,2.22-1.6,3.42-.92,1.2.69,1.61,2.22.92,3.42l-10.4,18.02c-.46.8-1.3,1.25-2.17,1.25Z" style="fill: #fff;"/>
  </g>
</svg>