<?xml version="1.0" encoding="UTF-8"?>
<svg id="Calque_1" data-name="Calque 1" xmlns="http://www.w3.org/2000/svg" xmlns:xlink="http://www.w3.org/1999/xlink" viewBox="0 0 500 500">
  <defs>
    <linearGradient id="Nouvelle_nuance_de_dégradé_2" data-name="Nouvelle nuance de dégradé 2" x1="216.79" y1="321.6" x2="413.99" y2="321.6" gradientUnits="userSpaceOnUse">
      <stop offset="0" stop-color="#00d85d"/>
      <stop offset="1" stop-color="#0ebdb3"/>
    </linearGradient>
    <linearGradient id="Nouvelle_nuance_de_dégradé_2-2" data-name="Nouvelle nuance de dégradé 2" x1="96.02" y1="280.69" x2="390.7" y2="280.69" xlink:href="#Nouvelle_nuance_de_dégradé_2"/>
    <linearGradient id="Nouvelle_nuance_de_dégradé_2-3" data-name="Nouvelle nuance de dégradé 2" x1="132.4" y1="291.19" x2="354.31" y2="291.19" xlink:href="#Nouvelle_nuance_de_dégradé_2"/>
    <linearGradient id="Nouvelle_nuance_de_dégradé_2-4" data-name="Nouvelle nuance de dégradé 2" x1="240.86" y1="87.24" x2="245.86" y2="87.24" xlink:href="#Nouvelle_nuance_de_dégradé_2"/>
    <linearGradient id="Nouvelle_nuance_de_dégradé_2-5" data-name="Nouvelle nuance de dégradé 2" x1="240.86" y1="76.98" x2="339.87" y2="76.98" xlink:href="#Nouvelle_nuance_de_dégradé_2"/>
  </defs>
  <path d="M411.49,425.95h-192.2c-.85,0-1.65-.44-2.11-1.16-.46-.72-.52-1.62-.16-2.4l94.6-203.69c.41-.88,1.29-1.44,2.25-1.45h.01c.96,0,1.84.55,2.25,1.42l97.6,203.69c.37.77.32,1.69-.14,2.41-.46.73-1.26,1.17-2.12,1.17ZM223.2,420.95h184.31l-93.59-195.33-90.72,195.33Z" style="fill: url(#Nouvelle_nuance_de_dégradé_2);"/>
  <path d="M388.2,425.95H98.52c-.87,0-1.68-.45-2.13-1.19-.45-.74-.49-1.66-.1-2.44L241.13,136.8c.43-.84,1.29-1.37,2.23-1.37s1.8.53,2.23,1.37l144.84,285.52c.39.77.36,1.7-.1,2.44-.46.74-1.26,1.19-2.13,1.19ZM102.59,420.95h281.54L243.36,143.46,102.59,420.95Z" style="fill: url(#Nouvelle_nuance_de_dégradé_2-2);"/>
  <path d="M351.81,404.94h-216.91c-.86,0-1.66-.44-2.12-1.17s-.5-1.65-.13-2.42l108.46-222.5c.42-.86,1.29-1.4,2.25-1.4s1.83.55,2.25,1.4l108.46,222.5c.38.77.33,1.69-.13,2.42s-1.26,1.17-2.12,1.17ZM138.9,399.94h208.91l-104.46-214.29-104.46,214.29Z" style="fill: url(#Nouvelle_nuance_de_dégradé_2-3);"/>
  <path d="M243.36,140.43c-1.38,0-2.5-1.12-2.5-2.5V36.55c0-1.38,1.12-2.5,2.5-2.5s2.5,1.12,2.5,2.5v101.38c0,1.38-1.12,2.5-2.5,2.5Z" style="fill: url(#Nouvelle_nuance_de_dégradé_2-4);"/>
  <path d="M262.74,116.87c-6.91,0-13.73-.99-20.34-3.7-.94-.39-1.55-1.3-1.55-2.31V43.11c0-.83.42-1.61,1.11-2.08.69-.46,1.57-.55,2.34-.24,14.15,5.81,29.42,2.92,45.59-.14,16.18-3.07,32.9-6.23,48.42.14.94.39,1.55,1.3,1.55,2.31v67.75c0,.83-.42,1.61-1.11,2.08-.69.46-1.57.55-2.34.24-14.15-5.82-29.42-2.92-45.59.14-9.29,1.76-18.77,3.56-28.09,3.56ZM245.86,109.14c13.71,5,28.46,2.21,44.04-.74,14.98-2.84,30.44-5.77,44.97-1.11v-62.46c-13.71-5-28.46-2.21-44.04.74-14.98,2.84-30.44,5.77-44.97,1.11v62.46Z" style="fill: url(#Nouvelle_nuance_de_dégradé_2-5);"/>
  <path d="M401.48,425.95h-192.2c-.85,0-1.65-.44-2.11-1.16-.46-.72-.52-1.62-.16-2.4l94.6-203.69c.41-.88,1.29-1.44,2.25-1.45h.01c.96,0,1.84.55,2.25,1.42l97.6,203.69c.37.77.32,1.69-.14,2.41-.46.73-1.26,1.17-2.12,1.17ZM213.2,420.95h184.31l-93.59-195.33-90.72,195.33Z" style="fill: #fff;"/>
  <path d="M378.2,425.95H88.51c-.87,0-1.68-.45-2.13-1.19-.45-.74-.49-1.66-.1-2.44L231.13,136.8c.43-.84,1.29-1.37,2.23-1.37s1.8.53,2.23,1.37l144.84,285.52c.39.77.36,1.7-.1,2.44-.46.74-1.26,1.19-2.13,1.19ZM92.59,420.95h281.54L233.36,143.46,92.59,420.95Z" style="fill: #fff;"/>
  <path d="M341.81,404.94H124.9c-.86,0-1.66-.44-2.12-1.17s-.5-1.65-.13-2.42l108.46-222.5c.42-.86,1.29-1.4,2.25-1.4s1.83.55,2.25,1.4l108.46,222.5c.38.77.33,1.69-.13,2.42s-1.26,1.17-2.12,1.17ZM128.9,399.94h208.91l-104.46-214.29-104.46,214.29Z" style="fill: #fff;"/>
  <path d="M233.36,140.43c-1.38,0-2.5-1.12-2.5-2.5V36.55c0-1.38,1.12-2.5,2.5-2.5s2.5,1.12,2.5,2.5v101.38c0,1.38-1.12,2.5-2.5,2.5Z" style="fill: #fff;"/>
  <path d="M252.74,116.87c-6.91,0-13.73-.99-20.34-3.7-.94-.39-1.55-1.3-1.55-2.31V43.11c0-.83.42-1.61,1.11-2.08.69-.46,1.57-.55,2.34-.24,14.15,5.82,29.42,2.92,45.59-.14,16.17-3.07,32.9-6.23,48.42.14.94.39,1.55,1.3,1.55,2.31v67.75c0,.83-.42,1.61-1.11,2.08-.69.46-1.57.55-2.34.24-14.15-5.82-29.42-2.92-45.59.14-9.29,1.76-18.77,3.56-28.09,3.56ZM235.86,109.14c13.71,5,28.46,2.21,44.04-.74,14.98-2.84,30.44-5.77,44.97-1.11v-62.46c-13.71-5-28.46-2.21-44.04.74-14.98,2.84-30.44,5.77-44.97,1.11v62.46Z" style="fill: #fff;"/>
</svg>