<?xml version="1.0" encoding="UTF-8"?>
<svg id="Calque_1" data-name="Calque 1" xmlns="http://www.w3.org/2000/svg" xmlns:xlink="http://www.w3.org/1999/xlink" viewBox="0 0 500 500">
  <defs>
    <linearGradient id="Nouvelle_nuance_de_dégradé_2" data-name="Nouvelle nuance de dégradé 2" x1="47.5" y1="250" x2="462.5" y2="250" gradientUnits="userSpaceOnUse">
      <stop offset="0" stop-color="#00d85d"/>
      <stop offset="1" stop-color="#0ebdb3"/>
    </linearGradient>
  </defs>
  <path d="M459.76,119.12h-150.96v-48.12c0-1.51-1.23-2.74-2.74-2.74h-102.42c-1.51,0-2.74,1.23-2.74,2.74v48.12H50.24c-1.51,0-2.74,1.23-2.74,2.74v307.14c0,1.51,1.23,2.74,2.74,2.74h409.52c1.51,0,2.74-1.23,2.74-2.74V121.86c0-1.51-1.23-2.74-2.74-2.74ZM206.38,73.74h96.94v45.38h-96.94v-45.38ZM144.95,124.59h220.18v184.05h-28.41c-1.51,0-2.74,1.23-2.74,2.74v12.85h-158.15v-12.85c0-1.51-1.23-2.74-2.74-2.74h-28.15V124.59ZM396.03,314.12v25.66h-56.56v-25.66h56.56ZM170.37,314.12v25.66h-56.56v-25.66h56.56ZM52.98,124.59h86.5v184.05h-28.41c-1.51,0-2.74,1.23-2.74,2.74v11.78l-55.35-18.67V124.59ZM139.48,426.26H52.98v-115.98l55.35,18.66v13.57c0,1.51,1.23,2.74,2.74,2.74h28.41v81.01ZM365.14,426.26h-220.18v-81.01h28.15c1.51,0,2.74-1.23,2.74-2.74v-12.8h158.15v12.8c0,1.51,1.23,2.74,2.74,2.74h28.41v81.01ZM457.02,426.26h-86.41v-81.01h28.15c1.51,0,2.74-1.23,2.74-2.74v-13.57l55.52-18.72v116.04ZM457.02,304.44l-55.52,18.72v-11.78c0-1.51-1.23-2.74-2.74-2.74h-28.15V124.59h86.41v179.84Z" style="fill: url(#Nouvelle_nuance_de_dégradé_2);"/>
  <path d="M449.76,119.12h-150.96v-48.12c0-1.51-1.23-2.74-2.74-2.74h-102.42c-1.51,0-2.74,1.23-2.74,2.74v48.12H40.24c-1.51,0-2.74,1.23-2.74,2.74v307.14c0,1.51,1.23,2.74,2.74,2.74h409.52c1.51,0,2.74-1.23,2.74-2.74V121.86c0-1.51-1.23-2.74-2.74-2.74ZM196.38,73.74h96.94v45.38h-96.94v-45.38ZM134.95,124.59h220.18v184.05h-28.41c-1.51,0-2.74,1.23-2.74,2.74v12.85h-158.15v-12.85c0-1.51-1.23-2.74-2.74-2.74h-28.15V124.59ZM386.03,314.12v25.66h-56.56v-25.66h56.56ZM160.37,314.12v25.66h-56.56v-25.66h56.56ZM42.98,124.59h86.5v184.05h-28.41c-1.51,0-2.74,1.23-2.74,2.74v11.78l-55.35-18.67V124.59ZM129.47,426.26H42.98v-115.98l55.35,18.66v13.57c0,1.51,1.23,2.74,2.74,2.74h28.41v81.01ZM355.13,426.26h-220.18v-81.01h28.15c1.51,0,2.74-1.23,2.74-2.74v-12.8h158.15v12.8c0,1.51,1.23,2.74,2.74,2.74h28.41v81.01ZM447.02,426.26h-86.41v-81.01h28.15c1.51,0,2.74-1.23,2.74-2.74v-13.57l55.52-18.72v116.04ZM447.02,304.44l-55.52,18.72v-11.78c0-1.51-1.23-2.74-2.74-2.74h-28.15V124.59h86.41v179.84Z" style="fill: #fff;"/>
</svg>