<?xml version="1.0" encoding="UTF-8"?>
<svg id="Calque_1" data-name="Calque 1" xmlns="http://www.w3.org/2000/svg" xmlns:xlink="http://www.w3.org/1999/xlink" viewBox="0 0 500 500">
  <defs>
    <linearGradient id="Nouvelle_nuance_de_dégradé_2" data-name="Nouvelle nuance de dégradé 2" x1="36.54" y1="96" x2="470.96" y2="96" gradientUnits="userSpaceOnUse">
      <stop offset="0" stop-color="#00d85d"/>
      <stop offset="1" stop-color="#0ebdb3"/>
    </linearGradient>
    <linearGradient id="Nouvelle_nuance_de_dégradé_2-2" data-name="Nouvelle nuance de dégradé 2" y1="250" y2="250" xlink:href="#Nouvelle_nuance_de_dégradé_2"/>
    <linearGradient id="Nouvelle_nuance_de_dégradé_2-3" data-name="Nouvelle nuance de dégradé 2" y1="404" y2="404" xlink:href="#Nouvelle_nuance_de_dégradé_2"/>
  </defs>
  <g>
    <path d="M65.63,125.09h151.1c9.49,13.48,24.84,21.51,41.37,21.51s31.87-8.03,41.37-21.51h142.4c7.74,0,15.04-3.03,20.55-8.54,5.51-5.51,8.54-12.8,8.54-20.54,0-16.04-13.05-29.09-29.09-29.09h-142.4c-9.5-13.48-24.85-21.51-41.37-21.51s-31.88,8.03-41.37,21.51H65.63c-7.74,0-15.04,3.03-20.55,8.54-5.51,5.51-8.54,12.8-8.54,20.55,0,16.04,13.05,29.08,29.09,29.08ZM441.87,71.92c13.28,0,24.09,10.81,24.09,24.09,0,6.4-2.51,12.44-7.08,17-4.56,4.56-10.61,7.08-17.01,7.08h-139.27c.05-.08.08-.17.13-.26.43-.81.85-1.63,1.24-2.46.04-.09.08-.19.13-.28.37-.81.72-1.62,1.04-2.44.04-.11.09-.22.13-.33.33-.85.63-1.71.92-2.58.06-.17.11-.34.16-.51.27-.87.52-1.74.75-2.62.03-.13.06-.27.1-.4.22-.87.41-1.75.58-2.63.01-.07.03-.14.04-.21.17-.91.31-1.83.43-2.75.02-.17.05-.35.07-.52.11-.9.19-1.81.25-2.72.01-.16.02-.33.03-.49.05-.95.09-1.91.09-2.87s-.04-1.91-.09-2.87c0-.16-.02-.33-.03-.49-.06-.91-.14-1.82-.25-2.72-.02-.18-.04-.35-.07-.53-.12-.92-.26-1.84-.43-2.75-.01-.08-.03-.15-.05-.23-.17-.88-.36-1.75-.58-2.61-.03-.14-.06-.27-.1-.41-.22-.88-.48-1.75-.75-2.61-.05-.17-.11-.35-.17-.52-.28-.87-.59-1.73-.91-2.58-.04-.11-.09-.22-.13-.33-.33-.82-.67-1.64-1.05-2.45-.04-.09-.08-.18-.12-.28-.39-.83-.81-1.66-1.24-2.47-.04-.08-.08-.17-.13-.25h139.27ZM258.1,50.41c15.3,0,29.5,7.62,38,20.39,4.97,7.47,7.59,16.19,7.59,25.21s-2.62,17.73-7.59,25.2c-8.49,12.77-22.7,20.39-38,20.39s-29.51-7.62-38-20.4c-4.97-7.46-7.6-16.18-7.6-25.19,0-1.13.04-2.25.12-3.37.09-1.21.23-2.41.41-3.6,1-6.51,3.39-12.71,7.07-18.24,8.48-12.77,22.69-20.39,38-20.39ZM48.62,79c4.56-4.56,10.61-7.08,17.01-7.08h147.97c-.05.08-.08.17-.13.26-.44.81-.85,1.63-1.24,2.47-.04.09-.08.19-.12.28-.37.81-.72,1.62-1.05,2.45-.04.11-.09.22-.13.33-.33.85-.63,1.71-.92,2.58-.06.17-.11.34-.17.51-.27.87-.53,1.74-.75,2.62-.03.13-.06.27-.1.4-.22.87-.41,1.74-.58,2.62-.01.07-.03.14-.04.22-.17.91-.31,1.83-.43,2.75-.02.18-.05.35-.07.53-.11.9-.19,1.81-.25,2.72-.01.16-.02.33-.03.49-.05.95-.09,1.91-.09,2.87s.04,1.91.09,2.86c0,.16.02.33.03.49.06.91.15,1.82.25,2.72.02.18.04.35.07.52.12.92.26,1.84.43,2.75.01.07.03.14.04.21.17.88.36,1.76.58,2.63.03.13.06.27.1.4.23.88.48,1.75.75,2.62.05.17.11.34.16.51.28.87.59,1.73.92,2.59.04.11.09.21.13.32.33.83.68,1.65,1.06,2.47.04.09.08.18.12.26.39.84.81,1.66,1.25,2.48.04.08.08.16.12.25H65.63c-13.28,0-24.09-10.8-24.09-24.08,0-6.41,2.51-12.45,7.08-17.01Z" style="fill: url(#Nouvelle_nuance_de_dégradé_2);"/>
    <path d="M441.87,220.91H177.45c-9.48-13.48-24.83-21.5-41.36-21.5s-31.88,8.02-41.36,21.5h-29.1c-7.74,0-15.04,3.03-20.55,8.54-5.51,5.51-8.54,12.81-8.54,20.55,0,16.04,13.05,29.09,29.09,29.09h29.1c9.48,13.48,24.83,21.5,41.36,21.5s31.88-8.02,41.36-21.5h264.42c7.74,0,15.04-3.03,20.55-8.54,5.51-5.51,8.54-12.81,8.54-20.55,0-16.04-13.05-29.09-29.09-29.09ZM65.63,274.09c-13.28,0-24.09-10.81-24.09-24.09,0-6.41,2.51-12.45,7.08-17.01,4.56-4.56,10.61-7.08,17.01-7.08h25.96c-.05.09-.09.18-.13.26-.43.81-.85,1.63-1.24,2.46-.05.1-.09.2-.13.29-.37.8-.71,1.61-1.04,2.43-.05.11-.09.23-.14.34-.33.85-.63,1.71-.91,2.57-.06.17-.11.35-.17.52-.27.86-.52,1.73-.75,2.61-.03.14-.07.27-.1.41-.21.87-.41,1.74-.58,2.62-.01.07-.03.15-.04.22-.17.91-.31,1.83-.43,2.75-.02.18-.05.35-.07.53-.11.9-.19,1.81-.25,2.72-.01.16-.02.33-.03.49-.05.95-.09,1.91-.09,2.87s.04,1.91.09,2.87c0,.16.02.33.03.49.06.91.15,1.82.25,2.72.02.18.04.35.07.52.12.92.26,1.84.43,2.75.01.07.03.14.04.22.17.88.36,1.76.58,2.63.03.13.06.27.1.4.23.88.48,1.75.75,2.62.05.17.11.34.16.51.28.87.59,1.73.92,2.59.04.11.09.21.13.32.33.83.68,1.65,1.05,2.47.04.09.08.18.12.26.39.84.81,1.66,1.25,2.48.04.08.08.17.13.25h-25.96ZM136.09,295.59c-15.31,0-29.51-7.62-37.99-20.39-4.97-7.46-7.6-16.18-7.6-25.2,0-1.69.09-3.37.28-5.04.07-.65.16-1.29.26-1.93,1-6.51,3.39-12.71,7.07-18.24,8.48-12.76,22.68-20.38,37.99-20.38s29.51,7.62,37.99,20.39c4.97,7.46,7.6,16.18,7.6,25.2,0,1.69-.09,3.37-.28,5.04-.07.65-.16,1.29-.26,1.93-1,6.51-3.39,12.71-7.07,18.24-8.48,12.76-22.68,20.38-37.99,20.38ZM458.88,267.01c-4.56,4.56-10.61,7.08-17.01,7.08H180.59c.05-.09.09-.18.13-.26.43-.81.85-1.63,1.24-2.46.05-.1.09-.2.13-.29.37-.8.71-1.61,1.04-2.43.05-.11.09-.23.14-.34.33-.85.63-1.71.91-2.57.06-.17.11-.35.17-.52.27-.86.52-1.73.75-2.61.03-.14.07-.27.1-.41.21-.87.41-1.74.58-2.62.01-.07.03-.15.04-.22.17-.91.31-1.83.43-2.75.02-.18.05-.35.07-.53.11-.9.19-1.81.25-2.72.01-.16.02-.33.03-.49.05-.95.09-1.91.09-2.87s-.04-1.91-.09-2.87c0-.16-.02-.33-.03-.49-.06-.91-.15-1.82-.25-2.72-.02-.18-.04-.35-.07-.52-.12-.92-.26-1.84-.43-2.75-.01-.07-.03-.14-.04-.22-.17-.88-.36-1.76-.58-2.63-.03-.13-.06-.27-.1-.4-.23-.88-.48-1.75-.75-2.62-.05-.17-.11-.34-.16-.51-.28-.87-.59-1.73-.92-2.59-.04-.11-.09-.21-.13-.32-.33-.83-.68-1.65-1.05-2.47-.04-.09-.08-.18-.12-.26-.39-.84-.81-1.66-1.25-2.48-.04-.08-.08-.17-.13-.25h261.29c13.28,0,24.09,10.81,24.09,24.09,0,6.41-2.51,12.45-7.08,17.01Z" style="fill: url(#Nouvelle_nuance_de_dégradé_2-2);"/>
    <path d="M441.87,374.91h-29.09c-9.5-13.48-24.85-21.51-41.37-21.51s-31.87,8.03-41.37,21.51H65.63c-7.74,0-15.04,3.03-20.55,8.54-5.51,5.51-8.54,12.8-8.54,20.54,0,16.04,13.05,29.09,29.09,29.09h264.41c9.5,13.48,24.85,21.51,41.37,21.51s31.87-8.02,41.37-21.51h29.09c7.74,0,15.04-3.03,20.55-8.54,5.51-5.51,8.54-12.8,8.54-20.55,0-16.04-13.05-29.08-29.09-29.08ZM65.63,428.08c-13.28,0-24.09-10.81-24.09-24.09,0-6.4,2.51-12.44,7.08-17,4.56-4.56,10.61-7.08,17.01-7.08h261.28c-.05.08-.08.17-.13.26-.43.81-.85,1.63-1.24,2.46-.04.09-.08.19-.13.28-.37.81-.72,1.62-1.04,2.44-.04.11-.09.22-.13.33-.33.85-.63,1.71-.92,2.58-.06.17-.11.34-.16.51-.27.87-.52,1.74-.75,2.62-.03.13-.06.27-.1.4-.22.87-.41,1.75-.58,2.63-.01.07-.03.14-.04.21-.17.91-.31,1.83-.43,2.75-.02.17-.05.35-.07.52-.11.9-.19,1.81-.25,2.72-.01.16-.02.33-.03.49-.05.95-.09,1.91-.09,2.87s.04,1.91.09,2.87c0,.16.02.33.03.49.06.91.14,1.82.25,2.72.02.18.04.35.07.53.12.92.26,1.84.43,2.75.01.08.03.15.05.23.17.88.36,1.75.58,2.61.03.14.06.27.1.41.22.88.48,1.75.75,2.61.05.17.11.35.17.52.28.87.59,1.73.91,2.58.04.11.09.22.13.33.33.82.67,1.64,1.05,2.45.04.09.08.18.12.28.39.83.81,1.66,1.24,2.47.04.08.08.17.13.25H65.63ZM371.41,449.59c-15.3,0-29.5-7.62-38-20.39-4.97-7.47-7.59-16.19-7.59-25.21s2.62-17.73,7.59-25.2c8.49-12.77,22.7-20.39,38-20.39s29.5,7.62,38,20.39c4.97,7.47,7.59,16.18,7.59,25.2,0,2.26-.16,4.49-.49,6.69-.27,1.87-.67,3.71-1.17,5.52-.53,1.9-1.17,3.76-1.94,5.57-.42.99-.88,1.97-1.37,2.93-.03.05-.05.11-.08.17-.21.41-.43.82-.66,1.22-.05.08-.09.17-.13.25-.55.97-1.13,1.92-1.75,2.86-8.49,12.77-22.7,20.39-38,20.39ZM458.88,421c-4.56,4.56-10.61,7.08-17.01,7.08h-25.96c.05-.08.08-.17.13-.26.44-.81.85-1.63,1.24-2.47.04-.09.08-.18.12-.28.37-.81.72-1.62,1.05-2.45.04-.11.09-.22.13-.33.33-.85.63-1.71.92-2.58.06-.17.11-.35.17-.52.27-.86.52-1.73.75-2.61.03-.14.07-.27.1-.41.21-.87.41-1.74.58-2.61.01-.08.03-.15.05-.23.17-.91.31-1.83.43-2.75.02-.18.05-.35.07-.53.11-.9.19-1.81.25-2.72.01-.16.02-.33.03-.49.05-.95.09-1.91.09-2.87s-.04-1.91-.09-2.87c0-.16-.02-.33-.03-.49-.06-.91-.14-1.82-.25-2.72-.02-.17-.04-.35-.07-.52-.12-.92-.26-1.84-.43-2.75-.01-.07-.03-.14-.04-.21-.17-.88-.36-1.76-.58-2.63-.03-.13-.06-.27-.1-.4-.23-.88-.48-1.75-.75-2.62-.05-.17-.11-.34-.16-.51-.28-.87-.59-1.73-.92-2.58-.04-.11-.09-.22-.13-.33-.33-.82-.67-1.64-1.04-2.44-.04-.09-.08-.19-.13-.28-.39-.83-.8-1.65-1.24-2.46-.05-.08-.08-.17-.13-.26h25.96c13.28,0,24.09,10.8,24.09,24.08,0,6.41-2.51,12.45-7.08,17.01Z" style="fill: url(#Nouvelle_nuance_de_dégradé_2-3);"/>
  </g>
  <g>
    <path d="M248.1,146.6c-16.99,0-32.75-8.46-42.16-22.63-5.52-8.28-8.44-17.95-8.44-27.96s2.92-19.69,8.44-27.98c9.41-14.17,25.17-22.62,42.16-22.62s32.74,8.46,42.16,22.62c5.51,8.29,8.43,17.97,8.43,27.97s-2.91,19.67-8.43,27.96c-9.42,14.17-25.18,22.62-42.16,22.62ZM248.1,50.41c-15.31,0-29.51,7.62-38,20.39-4.97,7.47-7.6,16.18-7.6,25.21s2.63,17.73,7.6,25.19c8.49,12.77,22.69,20.4,38,20.4s29.5-7.62,38-20.39c4.97-7.47,7.59-16.18,7.59-25.2s-2.63-17.74-7.59-25.21c-8.49-12.77-22.7-20.39-38-20.39Z" style="fill: #fff;"/>
    <path d="M208.02,125.09H55.63c-16.04,0-29.09-13.04-29.09-29.08,0-7.74,3.03-15.04,8.54-20.55,5.51-5.51,12.81-8.54,20.55-8.54h152.39c.92,0,1.77.51,2.2,1.32.44.81.39,1.8-.12,2.57-4.97,7.46-7.6,16.18-7.6,25.2s2.63,17.73,7.6,25.19c.51.77.56,1.75.12,2.57s-1.28,1.32-2.2,1.32ZM55.63,71.92c-6.41,0-12.45,2.51-17.01,7.08-4.56,4.56-7.08,10.61-7.08,17.01,0,13.28,10.81,24.08,24.09,24.08h147.97c-4-7.36-6.1-15.6-6.1-24.08s2.1-16.73,6.1-24.09H55.63Z" style="fill: #fff;"/>
    <path d="M431.87,125.09h-143.69c-.92,0-1.77-.51-2.2-1.32-.44-.81-.39-1.8.12-2.57,4.97-7.47,7.59-16.18,7.59-25.2s-2.63-17.74-7.59-25.21c-.51-.77-.56-1.75-.12-2.56.44-.81,1.28-1.32,2.2-1.32h143.69c16.04,0,29.09,13.05,29.09,29.09,0,7.74-3.03,15.03-8.54,20.54-5.51,5.51-12.81,8.54-20.55,8.54ZM292.6,120.09h139.27c6.41,0,12.45-2.51,17.01-7.08,4.56-4.56,7.08-10.6,7.08-17,0-13.28-10.81-24.09-24.09-24.09h-139.27c4,7.37,6.09,15.61,6.09,24.09s-2.09,16.72-6.09,24.08Z" style="fill: #fff;"/>
    <path d="M126.09,300.59c-16.99,0-32.74-8.46-42.15-22.62-5.52-8.28-8.44-17.96-8.44-27.97s2.92-19.69,8.44-27.98c9.41-14.16,25.16-22.61,42.15-22.61s32.74,8.46,42.15,22.62c5.52,8.28,8.44,17.96,8.44,27.97s-2.92,19.69-8.44,27.98c-9.41,14.16-25.16,22.61-42.15,22.61ZM126.09,204.41c-15.31,0-29.51,7.62-37.99,20.38-4.97,7.46-7.6,16.18-7.6,25.21s2.63,17.74,7.6,25.2c8.48,12.77,22.68,20.39,37.99,20.39s29.51-7.62,37.99-20.38c4.97-7.46,7.6-16.18,7.6-25.21s-2.63-17.74-7.6-25.2c-8.48-12.77-22.68-20.39-37.99-20.39Z" style="fill: #fff;"/>
    <path d="M86.02,279.09h-30.39c-16.04,0-29.09-13.05-29.09-29.09,0-7.74,3.03-15.04,8.54-20.55,5.51-5.51,12.81-8.54,20.55-8.54h30.39c.92,0,1.77.51,2.2,1.32s.39,1.8-.12,2.57c-4.97,7.46-7.6,16.18-7.6,25.2s2.63,17.74,7.6,25.2c.51.77.56,1.75.12,2.57s-1.28,1.32-2.2,1.32ZM55.63,225.91c-6.41,0-12.45,2.51-17.01,7.08-4.56,4.56-7.08,10.61-7.08,17.01,0,13.28,10.81,24.09,24.09,24.09h25.97c-4-7.36-6.1-15.6-6.1-24.09s2.1-16.73,6.1-24.09h-25.97Z" style="fill: #fff;"/>
    <path d="M431.87,279.09H166.16c-.92,0-1.77-.51-2.2-1.32s-.39-1.8.12-2.57c4.97-7.46,7.6-16.18,7.6-25.2s-2.63-17.74-7.6-25.2c-.51-.77-.56-1.75-.12-2.57s1.28-1.32,2.2-1.32h265.71c16.04,0,29.09,13.05,29.09,29.09,0,7.74-3.03,15.04-8.54,20.55-5.51,5.51-12.81,8.54-20.55,8.54ZM170.58,274.09h261.29c6.41,0,12.45-2.51,17.01-7.08,4.56-4.56,7.08-10.61,7.08-17.01,0-13.28-10.81-24.09-24.09-24.09H170.58c4,7.36,6.1,15.6,6.1,24.09s-2.1,16.73-6.1,24.09Z" style="fill: #fff;"/>
    <path d="M361.41,454.59c-16.98,0-32.74-8.46-42.16-22.62-5.51-8.29-8.43-17.97-8.43-27.97s2.91-19.67,8.43-27.96c9.42-14.17,25.19-22.63,42.16-22.63s32.74,8.46,42.16,22.62c5.51,8.29,8.43,17.96,8.43,27.96s-2.91,19.68-8.43,27.97c-9.42,14.17-25.19,22.63-42.16,22.63ZM361.41,358.4c-15.3,0-29.5,7.62-38,20.39-4.97,7.47-7.59,16.18-7.59,25.2s2.62,17.74,7.59,25.21c8.49,12.77,22.7,20.39,38,20.39s29.5-7.62,38-20.39c4.97-7.47,7.59-16.19,7.59-25.21s-2.63-17.73-7.59-25.2c-8.49-12.77-22.7-20.39-38-20.39Z" style="fill: #fff;"/>
    <path d="M321.33,433.08H55.63c-16.04,0-29.09-13.05-29.09-29.09,0-7.74,3.03-15.03,8.54-20.54,5.51-5.51,12.81-8.54,20.55-8.54h265.7c.92,0,1.77.51,2.2,1.32.44.81.39,1.8-.12,2.56-4.97,7.47-7.59,16.18-7.59,25.2s2.62,17.74,7.59,25.21c.51.77.56,1.75.12,2.56-.44.81-1.28,1.32-2.2,1.32ZM55.63,379.91c-6.41,0-12.45,2.51-17.01,7.08-4.56,4.56-7.08,10.6-7.08,17,0,13.28,10.81,24.09,24.09,24.09h261.28c-4-7.37-6.09-15.61-6.09-24.09s2.09-16.72,6.09-24.08H55.63Z" style="fill: #fff;"/>
    <path d="M431.87,433.08h-30.38c-.92,0-1.77-.51-2.2-1.32-.44-.81-.39-1.8.12-2.56,4.97-7.47,7.59-16.19,7.59-25.21s-2.63-17.73-7.59-25.2c-.51-.77-.56-1.75-.12-2.57.44-.81,1.28-1.32,2.2-1.32h30.38c16.04,0,29.09,13.04,29.09,29.08,0,7.74-3.03,15.04-8.54,20.55-5.51,5.51-12.81,8.54-20.55,8.54ZM405.91,428.08h25.96c6.41,0,12.45-2.51,17.01-7.08,4.56-4.56,7.08-10.61,7.08-17.01,0-13.28-10.81-24.08-24.09-24.08h-25.96c4,7.36,6.09,15.6,6.09,24.08s-2.09,16.72-6.09,24.09Z" style="fill: #fff;"/>
  </g>
</svg>