<?xml version="1.0" encoding="UTF-8"?>
<svg id="Calque_1" data-name="Calque 1" xmlns="http://www.w3.org/2000/svg" xmlns:xlink="http://www.w3.org/1999/xlink" viewBox="0 0 500 500">
  <defs>
    <linearGradient id="Nouvelle_nuance_de_dégradé_2" data-name="Nouvelle nuance de dégradé 2" x1="52.5" y1="250" x2="457.5" y2="250" gradientUnits="userSpaceOnUse">
      <stop offset="0" stop-color="#00d85d"/>
      <stop offset="1" stop-color="#0ebdb3"/>
    </linearGradient>
    <linearGradient id="Nouvelle_nuance_de_dégradé_2-2" data-name="Nouvelle nuance de dégradé 2" x1="184.54" y1="325.37" x2="325.46" y2="325.37" xlink:href="#Nouvelle_nuance_de_dégradé_2"/>
    <linearGradient id="Nouvelle_nuance_de_dégradé_2-3" data-name="Nouvelle nuance de dégradé 2" x1="154.54" y1="211.07" x2="215.45" y2="211.07" xlink:href="#Nouvelle_nuance_de_dégradé_2"/>
    <linearGradient id="Nouvelle_nuance_de_dégradé_2-4" data-name="Nouvelle nuance de dégradé 2" x1="294.55" y1="211.07" x2="355.46" y2="211.07" xlink:href="#Nouvelle_nuance_de_dégradé_2"/>
  </defs>
  <g>
    <path d="M255,452.5c-111.66,0-202.5-90.84-202.5-202.5S143.34,47.5,255,47.5h156.8c25.2,0,45.7,20.5,45.7,45.7v156.8c0,111.66-90.84,202.5-202.5,202.5ZM255,52.5c-108.9,0-197.5,88.6-197.5,197.5s88.6,197.5,197.5,197.5,197.5-88.6,197.5-197.5V93.2c0-22.44-18.26-40.7-40.7-40.7h-156.8Z" style="fill: url(#Nouvelle_nuance_de_dégradé_2);"/>
    <rect x="184.54" y="322.87" width="140.92" height="5" style="fill: url(#Nouvelle_nuance_de_dégradé_2-2);"/>
    <rect x="154.54" y="208.57" width="60.91" height="5" style="fill: url(#Nouvelle_nuance_de_dégradé_2-3);"/>
    <rect x="294.55" y="208.57" width="60.91" height="5" style="fill: url(#Nouvelle_nuance_de_dégradé_2-4);"/>
  </g>
  <g>
    <path d="M245,452.5c-111.66,0-202.5-90.84-202.5-202.5S133.34,47.5,245,47.5h156.8c25.2,0,45.7,20.5,45.7,45.7v156.8c0,111.66-90.84,202.5-202.5,202.5ZM245,52.5c-108.9,0-197.5,88.6-197.5,197.5s88.6,197.5,197.5,197.5,197.5-88.6,197.5-197.5V93.2c0-22.44-18.26-40.7-40.7-40.7h-156.8Z" style="fill: #fff;"/>
    <rect x="174.54" y="322.87" width="140.92" height="5" style="fill: #fff;"/>
    <rect x="144.54" y="208.57" width="60.91" height="5" style="fill: #fff;"/>
    <rect x="284.55" y="208.57" width="60.91" height="5" style="fill: #fff;"/>
  </g>
</svg>