<?xml version="1.0" encoding="UTF-8"?>
<svg id="Calque_1" data-name="Calque 1" xmlns="http://www.w3.org/2000/svg" xmlns:xlink="http://www.w3.org/1999/xlink" viewBox="0 0 500 500">
  <defs>
    <linearGradient id="Nouvelle_nuance_de_dégradé_2" data-name="Nouvelle nuance de dégradé 2" x1="37.05" y1="250" x2="472.95" y2="250" gradientUnits="userSpaceOnUse">
      <stop offset="0" stop-color="#00d85d"/>
      <stop offset="1" stop-color="#0ebdb3"/>
    </linearGradient>
  </defs>
  <path d="M266.09,403.13c-8.15,0-18.24-3.99-27-10.67l-11.19-8.54-5.81,5.05c-4.19,3.63-9.57,5.63-15.12,5.63-6.71,0-13.07-2.89-17.44-7.92-3.88-4.46-5.85-10.23-5.55-16.24l.21-4.37-4.23,1.12c-2.37.63-4.44.93-6.33.93-7.16,0-13.95-3.07-18.63-8.44-5.08-5.87-7.03-13.7-5.34-21.47l.92-4.2-4.29.33c-.31.02-.62.06-.93.1-.37.04-.7.08-.96.08-.58,0-1.17-.02-1.75-.06-6.56-.45-12.53-3.42-16.81-8.35-4.28-4.93-6.38-11.25-5.92-17.8.08-1.16.33-2.36.63-3.69l.94-4.22-4.32.34c-.31.02-.63.06-.94.1-.38.05-.72.09-.99.09-.59,0-1.18-.02-1.78-.06-6.59-.46-12.58-3.45-16.88-8.41-4.31-4.95-6.43-11.29-5.96-17.88.12-1.69.45-3.44,1.03-5.36l.61-2.06-1.67-1.35c-2.18-1.75-4.43-3.53-7.08-5.6-2.91-2.26-6.54-5.08-10.67-8.39-7.22-5.82-15.19-11.32-23.68-16.36-8.25-4.91-12.96-13.87-11.99-22.8,1.41-13.85,7.85-36.23,30.52-64.31,23.7-29.36,45.43-39.29,59.48-42.44,1.95-.45,3.93-.67,5.9-.67,5.49,0,10.71,1.69,15.09,4.88l.13.09.14.08c4.97,2.92,9.21,6.83,13.7,10.97,8.47,7.83,17.19,15.88,32.74,19.74.07.02,15.59,4.39,37.94,18.87l1.88,1.22,19.3-14.57,7.36-5.58s.09-.07.14-.1l.23-.14,36.68-20.68c8.23-4.67,17.94-7.14,28.1-7.14,1,0,2.01.02,3.01.07,1.1.05,2.22.08,3.33.08,18.72,0,35.08-7.04,45.9-11.7l.5-.22c1.14-.49,2.22-.95,3.23-1.37l.18-.07.17-.09c3.07-1.74,6.58-2.66,10.14-2.66,3.18,0,6.34.7,9.39,2.08,12.21,5.42,30.62,18.7,49.13,51.18,17.64,30.92,21.41,53.66,21.47,67.3.05,8.88-4.91,16.77-12.64,20.12l-.3.12c-7.87,3.37-15.36,7.3-22.36,11.72-17.35,10.96-29.42,21.41-43.27,34.72l-1.44,1.39.67,2.06c.39,1.2.75,2.33.95,3.44,1.18,6.77-.39,13.4-4.41,18.67-4.02,5.27-10,8.54-16.84,9.2-.84.08-1.69.12-2.53.12-.33,0-.65,0-.97-.02l-4.53-.17,1.35,4.33c.35,1.12.63,2.27.83,3.41,1.18,6.78-.39,13.41-4.41,18.68-4.33,5.67-11.16,8.93-18.76,8.93-3.73,0-7.46-.76-11.08-2.26l-4.82-1.99.41,5.2c.47,5.97-1.17,11.59-4.72,16.25-4.51,5.91-11.57,9.3-19.36,9.3-3.75,0-7.42-.78-10.91-2.31l-4.3-1.89-.19,4.69c-.26,6.36-3.63,12.4-9.49,17l-.08.06-.07.07c-3.66,3.25-8.22,4.9-13.55,4.9ZM314.29,338.71l-45.57-34.51c-.5-.38-.83-.93-.91-1.55-.08-.62.08-1.24.46-1.73.45-.6,1.14-.94,1.88-.94.36,0,.89.08,1.41.48l48.43,36.68.39.31,10,7.62.1.06c4.3,2.8,9.28,4.34,14.01,4.34,6.04,0,11.29-2.53,14.8-7.13,3.21-4.22,4.46-9.55,3.52-15.03-.95-5.48-4-10.44-8.57-13.98l-54.57-41.33c-.5-.38-.83-.93-.91-1.55-.09-.62.08-1.24.45-1.74.45-.6,1.14-.94,1.88-.94.36,0,.89.08,1.41.48l54.54,41.31.11.07c4.05,3.03,8.75,4.63,13.6,4.63.7,0,1.4-.03,2.1-.1,5.51-.53,10.33-3.15,13.55-7.37,3.22-4.22,4.47-9.56,3.52-15.02-.96-5.54-4.05-10.54-8.7-14.08l-76.78-58.55c-7.45-5.54-11.14-7.97-14.39-10.12-2.83-1.87-10.97-7.74-15.01-10.74l-.39,4.76c-.04.5.04,1.01.25,1.46.47,1.01,1.32,2.53,1.54,2.91l13.67,24.2c5.27,9.35,4.74,17.18,3.35,22.11-1.72,6.13-5.78,11.39-11.13,14.44-4.68,2.64-9.44,3.99-14.14,3.99-9.17,0-17.09-5.07-22.3-14.28l-28.36-50.25c-6.4-11.35-8.22-20.8-5.55-28.91.15-.46.43-.85.82-1.14l17.87-13.49-3.98-2.46c-19.51-12.07-32.88-16.06-33.02-16.09l-.13-.03c-16.54-4.11-26.13-12.96-34.58-20.76-4.38-4.05-8.52-7.87-13.17-10.55l-.24-.16c-3.65-2.69-7.97-4.12-12.51-4.12-1.62,0-3.25.19-4.85.56-13.31,2.99-34.01,12.5-56.86,40.81-21.94,27.18-28.15,48.63-29.5,61.84-.78,7.23,2.85,14.19,9.48,18.15,8.8,5.2,17.02,10.87,24.45,16.86,4.17,3.34,7.74,6.12,10.62,8.35,2,1.55,3.83,3,5.6,4.4l2.43,1.93,2.01-2.37c.84-1,1.68-1.96,2.61-2.76l22.3-19.37c.09-.08.19-.15.31-.23l5.88-3.66c.12-.08.22-.13.33-.17,3.1-1.33,6.38-2,9.73-2,7.1,0,13.85,3.1,18.51,8.51,3.92,4.49,6.04,10.25,6.01,16.26-.02.15-.03.3-.04.46l-.1,4.7,4.41-1.62c2.79-1.03,5.64-1.55,8.47-1.55.57,0,1.14.02,1.71.06,6.58.46,12.54,3.43,16.82,8.35,3.95,4.54,6.09,10.35,6.02,16.37-.05,3.82-1.07,7.61-3.03,11.28l-2.22,4.14,4.66.55c6.17.73,11.76,3.64,15.72,8.2,3.95,4.53,6.09,10.37,6.02,16.44-.04,3.57-.87,7.07-2.46,10.38l-1.92,4,4.4.56c5.63.72,10.79,3.48,14.53,7.77,3.69,4.27,5.69,9.75,5.62,15.4-.07,5.83-2.42,11.42-6.61,15.74l-2.51,2.59,10.35,7.9c6.13,4.68,15.64,9.67,23.93,9.67,4.3,0,7.95-1.29,10.85-3.83,5.2-4.12,7.93-9.08,7.89-14.37-.03-4.71-2.33-9.23-6.46-12.72l-.13-.11-40.85-30.94c-.5-.38-.83-.93-.91-1.55-.09-.62.08-1.24.45-1.73.45-.6,1.14-.94,1.88-.94.36,0,.89.08,1.4.47l39.94,30.24.11.07c.17.11.33.19.46.25l10.39,7.93c4.02,3.07,8.93,4.76,13.83,4.76,6.3,0,11.98-2.72,15.6-7.46,3.22-4.22,4.47-9.55,3.52-15.01-.87-5.01-3.49-9.59-7.44-13.04M207.07,347.26c-.64.43-1.07.79-1.41,1.08l-10.76,9.35c-3.69,3.19-5.91,7.65-6.26,12.56-.35,4.91,1.22,9.64,4.43,13.33,3.49,4.02,8.55,6.32,13.9,6.32,4.43,0,8.7-1.59,12.04-4.49l10.69-9.3c3.94-3.41,6.24-8.4,6.31-13.68.06-4.51-1.53-8.86-4.47-12.27-3.5-4.02-8.54-6.31-13.83-6.31-3.82,0-7.49,1.17-10.63,3.39ZM195.91,304.18c-4.76,0-9.36,1.71-12.97,4.81l-22.5,19.52c-8.21,7.22-9.05,19.81-1.9,28.08,3.79,4.34,9.28,6.83,15.07,6.83,4.81,0,9.46-1.73,13.09-4.87l22.31-19.42c4.27-3.69,6.76-9.09,6.82-14.81.06-4.91-1.67-9.63-4.86-13.3-3.78-4.35-9.27-6.85-15.06-6.85ZM174.81,263.7c-4.77,0-9.38,1.71-12.96,4.83l-30.49,26.53c-3.98,3.45-6.37,8.28-6.75,13.58-.37,5.3,1.32,10.42,4.78,14.39,3.45,3.98,8.27,6.37,13.58,6.74.46.03.88.04,1.3.04,4.85,0,9.5-1.72,13.09-4.84l22.3-19.36.05-.03,8.19-7.11c4.25-3.7,6.73-9.07,6.8-14.74.06-4.86-1.67-9.56-4.86-13.22-3.45-3.98-8.27-6.38-13.58-6.75-.48-.03-.96-.05-1.44-.05ZM137.47,236.99c-2.53,0-5,.47-7.33,1.4l-.26.1-5.59,3.48-22.16,19.25c-4.01,3.47-6.43,8.31-6.8,13.65-.38,5.33,1.34,10.46,4.82,14.46,3.47,4.01,8.32,6.43,13.65,6.81.48.03.95.05,1.43.05,4.81,0,9.44-1.73,13.04-4.88l22.32-19.39c4.27-3.69,6.75-9.09,6.82-14.81.06-4.92-1.67-9.64-4.86-13.3-3.75-4.34-9.25-6.84-15.08-6.84ZM369.95,186.06c.77,0,1.5.38,1.94,1.02.36.52.49,1.14.38,1.76-.11.62-.46,1.16-.98,1.51-1.1.76-27.23,18.67-58.84,22.04l-7.99.85,79.61,60.72c1.53,1.16,2.96,2.58,4.53,4.45l2.19,2.62,2.47-2.35c12.81-12.19,24.84-22.51,41.88-33.27,7.19-4.54,14.95-8.61,23.09-12.1l.35-.14c5.91-2.55,9.7-8.71,9.67-15.71-.06-13.07-3.72-34.96-20.85-65-18.81-33.02-37.5-45.01-46.96-49.21-2.41-1.09-4.93-1.66-7.46-1.66s-5.23.64-7.49,1.85l-.15.08-.14.09c-.19.13-.33.19-.39.22-1.27.52-2.68,1.12-4.19,1.78l-.14.06c-10.45,4.5-27.93,12.02-47.53,12.02-1.21,0-2.43-.03-3.63-.09-.94-.04-1.9-.07-2.83-.07-9.32,0-18.23,2.26-25.75,6.54l-36.61,20.64-4.39,3.33v.02s-2.08,1.56-2.08,1.56l-19.06,14.46-1.8,1.28-20.57,15.53-.25,1.16c-1.38,6.41.48,14.01,5.69,23.24l28.35,50.25c4.34,7.68,10.81,11.9,18.21,11.9,3.86,0,7.84-1.14,11.82-3.38,12.79-7.26,10.59-22,6-30.14l-16.29-28.85c-.26-.46-.36-.99-.28-1.51l4.44-29.4c.17-1.15,1.16-2.01,2.3-2.01.12,0,.23,0,.35.03,1.3.2,2.19,1.4,1.99,2.68l-2.71,17.96,1.48,1.15c8.28,6.45,11.71,8.72,15.34,11.12,1.12.74,2.31,1.52,3.66,2.44l.73.5.88.05c1.5.09,3.05.13,4.59.13,33.9,0,64.8-20.84,66.1-21.73.41-.29.87-.43,1.35-.43Z" style="fill: url(#Nouvelle_nuance_de_dégradé_2);"/>
  <path d="M256.09,403.13c-8.15,0-18.24-3.99-27-10.67l-11.19-8.54-5.81,5.05c-4.19,3.63-9.57,5.63-15.12,5.63-6.71,0-13.07-2.89-17.44-7.92-3.88-4.46-5.85-10.23-5.55-16.24l.21-4.37-4.23,1.12c-2.37.63-4.44.93-6.33.93-7.16,0-13.95-3.07-18.63-8.44-5.08-5.87-7.03-13.7-5.34-21.47l.92-4.2-4.29.33c-.31.02-.62.06-.93.1-.37.04-.7.08-.96.08-.58,0-1.17-.02-1.75-.06-6.56-.45-12.53-3.42-16.81-8.35-4.28-4.93-6.38-11.25-5.92-17.8.08-1.16.33-2.36.63-3.69l.94-4.22-4.32.34c-.31.02-.63.06-.94.1-.38.05-.72.09-.99.09-.59,0-1.18-.02-1.78-.06-6.59-.46-12.58-3.45-16.88-8.41-4.31-4.95-6.43-11.29-5.96-17.88.12-1.69.45-3.44,1.03-5.36l.61-2.06-1.67-1.35c-2.18-1.75-4.43-3.53-7.08-5.6-2.91-2.26-6.54-5.08-10.67-8.39-7.22-5.82-15.19-11.32-23.68-16.36-8.25-4.91-12.96-13.87-11.99-22.8,1.41-13.85,7.85-36.23,30.52-64.31,23.7-29.36,45.43-39.29,59.48-42.44,1.95-.45,3.93-.67,5.9-.67,5.49,0,10.71,1.69,15.09,4.88l.13.09.14.08c4.97,2.92,9.21,6.83,13.7,10.97,8.47,7.83,17.19,15.88,32.74,19.74.07.02,15.59,4.39,37.94,18.87l1.88,1.22,19.3-14.57,7.36-5.58s.09-.07.14-.1l.23-.14,36.68-20.68c8.23-4.67,17.94-7.14,28.1-7.14,1,0,2.01.02,3.01.07,1.1.05,2.22.08,3.33.08,18.72,0,35.08-7.04,45.9-11.7l.5-.22c1.14-.49,2.22-.95,3.23-1.37l.18-.07.17-.09c3.07-1.74,6.58-2.66,10.14-2.66,3.18,0,6.34.7,9.39,2.08,12.21,5.42,30.62,18.7,49.13,51.18,17.64,30.92,21.41,53.66,21.47,67.3.05,8.88-4.91,16.77-12.64,20.12l-.3.12c-7.87,3.37-15.36,7.3-22.36,11.72-17.35,10.96-29.42,21.41-43.27,34.72l-1.44,1.39.67,2.06c.39,1.2.75,2.33.95,3.44,1.18,6.77-.39,13.4-4.41,18.67-4.02,5.27-10,8.54-16.84,9.2-.84.08-1.69.12-2.53.12-.33,0-.65,0-.97-.02l-4.53-.17,1.35,4.33c.35,1.12.63,2.27.83,3.41,1.18,6.78-.39,13.41-4.41,18.68-4.33,5.67-11.16,8.93-18.76,8.93-3.73,0-7.46-.76-11.08-2.26l-4.82-1.99.41,5.2c.47,5.97-1.17,11.59-4.72,16.25-4.51,5.91-11.57,9.3-19.36,9.3-3.75,0-7.42-.78-10.91-2.31l-4.3-1.89-.19,4.69c-.26,6.36-3.63,12.4-9.49,17l-.08.06-.07.07c-3.66,3.25-8.22,4.9-13.55,4.9ZM304.29,338.71l-45.57-34.51c-.5-.38-.83-.93-.91-1.55-.08-.62.08-1.24.46-1.73.45-.6,1.14-.94,1.88-.94.36,0,.89.08,1.41.48l48.43,36.68.39.31,10,7.62.1.06c4.3,2.8,9.28,4.34,14.01,4.34,6.04,0,11.29-2.53,14.8-7.13,3.21-4.22,4.46-9.55,3.52-15.03-.95-5.48-4-10.44-8.57-13.98l-54.57-41.33c-.5-.38-.83-.93-.91-1.55-.09-.62.08-1.24.45-1.74.45-.6,1.14-.94,1.88-.94.36,0,.89.08,1.41.48l54.54,41.31.11.07c4.05,3.03,8.75,4.63,13.6,4.63.7,0,1.4-.03,2.1-.1,5.51-.53,10.33-3.15,13.55-7.37,3.22-4.22,4.47-9.56,3.52-15.02-.96-5.54-4.05-10.54-8.7-14.08l-76.78-58.55c-7.45-5.54-11.14-7.97-14.39-10.12-2.83-1.87-10.97-7.74-15.01-10.74l-.39,4.76c-.04.5.04,1.01.25,1.46.47,1.01,1.32,2.53,1.54,2.91l13.67,24.2c5.27,9.35,4.74,17.18,3.35,22.11-1.72,6.13-5.78,11.39-11.13,14.44-4.68,2.64-9.44,3.99-14.14,3.99-9.17,0-17.09-5.07-22.3-14.28l-28.36-50.25c-6.4-11.35-8.22-20.8-5.55-28.91.15-.46.43-.85.82-1.14l17.87-13.49-3.98-2.46c-19.51-12.07-32.88-16.06-33.02-16.09l-.13-.03c-16.54-4.11-26.13-12.96-34.58-20.76-4.38-4.05-8.52-7.87-13.17-10.55l-.24-.16c-3.65-2.69-7.97-4.12-12.51-4.12-1.62,0-3.25.19-4.85.56-13.31,2.99-34.01,12.5-56.86,40.81-21.94,27.18-28.15,48.63-29.5,61.84-.78,7.23,2.85,14.19,9.48,18.15,8.8,5.2,17.02,10.87,24.45,16.86,4.17,3.34,7.74,6.12,10.62,8.35,2,1.55,3.83,3,5.6,4.4l2.43,1.93,2.01-2.37c.84-1,1.68-1.96,2.61-2.76l22.3-19.37c.09-.08.19-.15.31-.23l5.88-3.66c.12-.08.22-.13.33-.17,3.1-1.33,6.38-2,9.73-2,7.1,0,13.85,3.1,18.51,8.51,3.92,4.49,6.04,10.25,6.01,16.26-.02.15-.03.3-.04.46l-.1,4.7,4.41-1.62c2.79-1.03,5.64-1.55,8.47-1.55.57,0,1.14.02,1.71.06,6.58.46,12.54,3.43,16.82,8.35,3.95,4.54,6.09,10.35,6.02,16.37-.05,3.82-1.07,7.61-3.03,11.28l-2.22,4.14,4.66.55c6.17.73,11.76,3.64,15.72,8.2,3.95,4.53,6.09,10.37,6.02,16.44-.04,3.57-.87,7.07-2.46,10.38l-1.92,4,4.4.56c5.63.72,10.79,3.48,14.53,7.77,3.69,4.27,5.69,9.75,5.62,15.4-.07,5.83-2.42,11.42-6.61,15.74l-2.51,2.59,10.35,7.9c6.13,4.68,15.64,9.67,23.93,9.67,4.3,0,7.95-1.29,10.85-3.83,5.2-4.12,7.93-9.08,7.89-14.37-.03-4.71-2.33-9.23-6.46-12.72l-.13-.11-40.85-30.94c-.5-.38-.83-.93-.91-1.55-.09-.62.08-1.24.45-1.73.45-.6,1.14-.94,1.88-.94.36,0,.89.08,1.4.47l39.94,30.24.11.07c.17.11.33.19.46.25l10.39,7.93c4.02,3.07,8.93,4.76,13.83,4.76,6.3,0,11.98-2.72,15.6-7.46,3.22-4.22,4.47-9.55,3.52-15.01-.87-5.01-3.49-9.59-7.44-13.04M197.07,347.26c-.64.43-1.07.79-1.41,1.08l-10.76,9.35c-3.69,3.19-5.91,7.65-6.26,12.56-.35,4.91,1.22,9.64,4.43,13.33,3.49,4.02,8.55,6.32,13.9,6.32,4.43,0,8.7-1.59,12.04-4.49l10.69-9.3c3.94-3.41,6.24-8.4,6.31-13.68.06-4.51-1.53-8.86-4.47-12.27-3.5-4.02-8.54-6.31-13.83-6.31-3.82,0-7.49,1.17-10.63,3.39ZM185.91,304.18c-4.76,0-9.36,1.71-12.97,4.81l-22.5,19.52c-8.21,7.22-9.05,19.81-1.9,28.08,3.79,4.34,9.28,6.83,15.07,6.83,4.81,0,9.46-1.73,13.09-4.87l22.31-19.42c4.27-3.69,6.76-9.09,6.82-14.81.06-4.91-1.67-9.63-4.86-13.3-3.78-4.35-9.27-6.85-15.06-6.85ZM164.81,263.7c-4.77,0-9.38,1.71-12.96,4.83l-30.49,26.53c-3.98,3.45-6.37,8.28-6.75,13.58-.37,5.3,1.32,10.42,4.78,14.39,3.45,3.98,8.27,6.37,13.58,6.74.46.03.88.04,1.3.04,4.85,0,9.5-1.72,13.09-4.84l22.3-19.36.05-.03,8.19-7.11c4.25-3.7,6.73-9.07,6.8-14.74.06-4.86-1.67-9.56-4.86-13.22-3.45-3.98-8.27-6.38-13.58-6.75-.48-.03-.96-.05-1.44-.05ZM127.47,236.99c-2.53,0-5,.47-7.33,1.4l-.26.1-5.59,3.48-22.16,19.25c-4.01,3.47-6.43,8.31-6.8,13.65-.38,5.33,1.34,10.46,4.82,14.46,3.47,4.01,8.32,6.43,13.65,6.81.48.03.95.05,1.43.05,4.81,0,9.44-1.73,13.04-4.88l22.32-19.39c4.27-3.69,6.75-9.09,6.82-14.81.06-4.92-1.67-9.64-4.86-13.3-3.75-4.34-9.25-6.84-15.08-6.84ZM359.95,186.06c.77,0,1.5.38,1.94,1.02.36.52.49,1.14.38,1.76-.11.62-.46,1.16-.98,1.51-1.1.76-27.23,18.67-58.84,22.04l-7.99.85,79.61,60.72c1.53,1.16,2.96,2.58,4.53,4.45l2.19,2.62,2.47-2.35c12.81-12.19,24.84-22.51,41.88-33.27,7.19-4.54,14.95-8.61,23.09-12.1l.35-.14c5.91-2.55,9.7-8.71,9.67-15.71-.06-13.07-3.72-34.96-20.85-65-18.81-33.02-37.5-45.01-46.96-49.21-2.41-1.09-4.93-1.66-7.46-1.66s-5.23.64-7.49,1.85l-.15.08-.14.09c-.19.13-.33.19-.39.22-1.27.52-2.68,1.12-4.19,1.78l-.14.06c-10.45,4.5-27.93,12.02-47.53,12.02-1.21,0-2.43-.03-3.63-.09-.94-.04-1.9-.07-2.83-.07-9.32,0-18.23,2.26-25.75,6.54l-36.61,20.64-4.39,3.33v.02s-2.08,1.56-2.08,1.56l-19.06,14.46-1.8,1.28-20.57,15.53-.25,1.16c-1.38,6.41.48,14.01,5.69,23.24l28.35,50.25c4.34,7.68,10.81,11.9,18.21,11.9,3.86,0,7.84-1.14,11.82-3.38,12.79-7.26,10.59-22,6-30.14l-16.29-28.85c-.26-.46-.36-.99-.28-1.51l4.44-29.4c.17-1.15,1.16-2.01,2.3-2.01.12,0,.23,0,.35.03,1.3.2,2.19,1.4,1.99,2.68l-2.71,17.96,1.48,1.15c8.28,6.45,11.71,8.72,15.34,11.12,1.12.74,2.31,1.52,3.66,2.44l.73.5.88.05c1.5.09,3.05.13,4.59.13,33.9,0,64.8-20.84,66.1-21.73.41-.29.87-.43,1.35-.43Z" style="fill: #fff;"/>
</svg>