<?xml version="1.0" encoding="UTF-8"?>
<svg id="Calque_1" data-name="Calque 1" xmlns="http://www.w3.org/2000/svg" xmlns:xlink="http://www.w3.org/1999/xlink" viewBox="0 0 500 500">
  <defs>
    <linearGradient id="Nouvelle_nuance_de_dégradé_2" data-name="Nouvelle nuance de dégradé 2" x1="142.29" y1="250" x2="367.71" y2="250" gradientUnits="userSpaceOnUse">
      <stop offset="0" stop-color="#00d85d"/>
      <stop offset="1" stop-color="#0ebdb3"/>
    </linearGradient>
  </defs>
  <path d="M278.66,474.36c-5.24,0-10.5-.17-15.2-.49-28.31-1.9-43.7-8.77-43.33-19.35.84-24.47-27.82-66.32-29.29-68.46l-37.52-61.06-.07-.09s-.06-.09-.12-.34l-8.94-32.72-.08-.19c-2.39-5.77-2.43-12.21-.1-18.14,2.44-6.04,7-10.77,12.83-13.27,3.03-1.27,6.32-1.95,9.5-1.95.82,0,1.64.04,2.44.13l3.55.39v-34.28c0-8.17,4.12-15.6,11.03-19.87l56.67-34.95c2.94-1.83,6.32-2.79,9.77-2.79,3.19,0,6.35.83,9.13,2.41l35.11,19.76-29.84-133.34c-.41-1.92-.61-3.7-.61-5.42,0-11.46,8.13-21.59,19.34-24.09,1.8-.4,3.63-.6,5.45-.6,4.67,0,9.25,1.34,13.24,3.87,5.59,3.54,9.45,9.03,10.88,15.47l3.3,15.02,4.17-6.26c4.6-6.9,12.2-11.08,20.35-11.18h.21c6.46,0,12.64,2.52,17.38,7.09,4.7,4.64,7.33,10.85,7.38,17.45l2.43,196.62v47.4c0,12.41-1.22,24.88-3.62,37.08-.83,4.16-1.76,9.08-2.35,14.04-2.13,18.76-5.33,53.06-2.87,72.25.9,6.87,1.09,12.85.55,17.78-.7,6.75-10.46,12.68-27.48,16.71-14.47,3.43-33.89,5.4-53.29,5.4ZM148.66,290.34l8.88,32.6,37.25,60.59.07.09c.08.1,7.99,11.36,15.8,26.34,9.62,18.45,14.52,33.91,14.18,44.72-.27,7.29,14.65,12.86,38.93,14.53,5.49.38,11.12.57,16.75.57,17.84,0,35.81-1.92,50.58-5.42,22.92-5.42,23.46-10.8,23.64-12.56.52-4.55.36-10.05-.51-16.77-2.59-20.18.65-54.59,2.81-73.31.6-5,1.5-9.74,2.37-14.33l.03-.17c1.77-8.61,2.9-17.76,3.36-27.15.13-2.98.19-5.99.19-8.96v-46.61l-9.24-11.73-34.47-44.06-12.1-6.8-13.04-7.36-37.52-21.1c-2.11-1.19-4.49-1.82-6.9-1.82-2.58,0-5.1.72-7.28,2.08l-56.6,35.01c-5.51,3.35-8.82,9.28-8.82,15.83v32.69l.83.92c5.7,6.28,12.2,9.6,18.79,9.6,2.19,0,4.35-.38,6.44-1.12,7.65-2.7,12.8-10.01,12.8-18.18v-9.61c0-.87.39-1.62,1.04-2.02l21.74-13.55c3.35-2.11,7.23-3.22,11.23-3.22s8.04,1.15,11.45,3.33l29.66,19.15c.2.12.41.32.64.61l11.93,16.91,10.24,14.54c.39.58.53,1.36.34,2.07l-3.11,11.01-7.8,27.84c-1.53,5.39-5.56,9.86-10.77,11.93l-42.97,16.82c-4.25,1.41-8.27,2.73-12.2,2.73s-7.59-1.45-11.18-4.56l-30.75-30.75c-.26-.26-.47-.6-.56-.92l-10.62-36.12-.08-.19c-2.04-4.6-5.76-8.17-10.48-10.04-2.38-.92-4.81-1.37-7.26-1.37-2.67,0-5.24.54-7.64,1.61-4.7,1.98-8.4,5.78-10.35,10.66-1.89,4.83-1.81,10.08.22,14.81l.05.1c.01.05.03.1.04.15ZM199.11,308.79l30.18,30.18.09.08c2.63,2.28,4.99,3.25,7.87,3.25s6.01-.98,10.88-2.57l1.64-.52,40.98-16.21c3.87-1.48,6.84-4.79,7.91-8.83l10.64-37.81-21.33-30.21-29.17-18.81c-2.68-1.71-5.78-2.61-8.98-2.61s-6.1.85-8.68,2.46l-20.61,12.93v8.32c0,10.14-6.37,19.24-15.85,22.64-2.62.91-5.31,1.38-7.98,1.38-1.19,0-2.38-.09-3.56-.28l-4.98-.78,10.95,37.4ZM340.28,47.26c-10.9.15-19.76,9.14-19.76,20.05l.12,14.33,36.56,166.69,5.34,8.13-1.99-189.37c-.08-10.93-9.07-19.83-20.05-19.83h-.23ZM288.39,30.34c-1.45,0-2.92.15-4.37.44-9.16,2.1-15.74,10.32-15.74,19.55,0,1.59.24,3.01.5,4.31l30.79,137.52,22.53,12.72.07.04c.12.06.33.22.53.48l28.8,36.72-2.74-13.36-32.71-146.3-8.18-36.45c-1.18-5.26-4.3-9.72-8.78-12.55-3.2-2.04-6.91-3.12-10.7-3.12Z" style="fill: url(#Nouvelle_nuance_de_dégradé_2);"/>
  <path d="M268.66,474.36c-5.24,0-10.5-.17-15.2-.49-28.31-1.9-43.7-8.77-43.33-19.35.84-24.47-27.82-66.32-29.29-68.46l-37.52-61.06-.07-.09s-.06-.09-.12-.34l-8.94-32.72-.08-.19c-2.39-5.77-2.43-12.21-.1-18.14,2.44-6.04,7-10.77,12.83-13.27,3.03-1.27,6.32-1.95,9.5-1.95.82,0,1.64.04,2.44.13l3.55.39v-34.28c0-8.17,4.12-15.6,11.03-19.87l56.67-34.95c2.94-1.83,6.32-2.79,9.77-2.79,3.19,0,6.35.83,9.13,2.41l35.11,19.76-29.84-133.34c-.41-1.92-.61-3.7-.61-5.42,0-11.46,8.13-21.59,19.34-24.09,1.8-.4,3.63-.6,5.45-.6,4.67,0,9.25,1.34,13.24,3.87,5.59,3.54,9.45,9.03,10.88,15.47l3.3,15.02,4.17-6.26c4.6-6.9,12.2-11.08,20.35-11.18h.21c6.46,0,12.64,2.52,17.38,7.09,4.7,4.64,7.33,10.85,7.38,17.45l2.43,196.62v47.4c0,12.41-1.22,24.88-3.62,37.08-.83,4.16-1.76,9.08-2.35,14.04-2.13,18.76-5.33,53.06-2.87,72.25.9,6.87,1.09,12.85.55,17.78-.7,6.75-10.46,12.68-27.48,16.71-14.47,3.43-33.89,5.4-53.29,5.4ZM138.66,290.34l8.88,32.6,37.25,60.59.07.09c.08.1,7.99,11.36,15.8,26.34,9.62,18.45,14.52,33.91,14.18,44.72-.27,7.29,14.65,12.86,38.93,14.53,5.49.38,11.12.57,16.75.57,17.84,0,35.81-1.92,50.58-5.42,22.92-5.42,23.46-10.8,23.64-12.56.52-4.55.36-10.05-.51-16.77-2.59-20.18.65-54.59,2.81-73.31.6-5,1.5-9.74,2.37-14.33l.03-.17c1.77-8.61,2.9-17.76,3.36-27.15.13-2.98.19-5.99.19-8.96v-46.61l-9.24-11.73-34.47-44.06-12.1-6.8-13.04-7.36-37.52-21.1c-2.11-1.19-4.49-1.82-6.9-1.82-2.58,0-5.1.72-7.28,2.08l-56.6,35.01c-5.51,3.35-8.82,9.28-8.82,15.83v32.69l.83.92c5.7,6.28,12.2,9.6,18.79,9.6,2.19,0,4.35-.38,6.44-1.12,7.65-2.7,12.8-10.01,12.8-18.18v-9.61c0-.87.39-1.62,1.04-2.02l21.74-13.55c3.35-2.11,7.23-3.22,11.23-3.22s8.04,1.15,11.45,3.33l29.66,19.15c.2.12.41.32.64.61l11.93,16.91,10.24,14.54c.39.58.53,1.36.34,2.07l-3.11,11.01-7.8,27.84c-1.53,5.39-5.56,9.86-10.77,11.93l-42.97,16.82c-4.25,1.41-8.27,2.73-12.2,2.73s-7.59-1.45-11.18-4.56l-30.75-30.75c-.26-.26-.47-.6-.56-.92l-10.62-36.12-.08-.19c-2.04-4.6-5.76-8.17-10.48-10.04-2.38-.92-4.81-1.37-7.26-1.37-2.67,0-5.24.54-7.64,1.61-4.7,1.98-8.4,5.78-10.35,10.66-1.89,4.83-1.81,10.08.22,14.81l.05.1c.01.05.03.1.04.15ZM189.11,308.79l30.18,30.18.09.08c2.63,2.28,4.99,3.25,7.87,3.25s6.01-.98,10.88-2.57l1.64-.52,40.98-16.21c3.87-1.48,6.84-4.79,7.91-8.83l10.64-37.81-21.33-30.21-29.17-18.81c-2.68-1.71-5.78-2.61-8.98-2.61s-6.1.85-8.68,2.46l-20.61,12.93v8.32c0,10.14-6.37,19.24-15.85,22.64-2.62.91-5.31,1.38-7.98,1.38-1.19,0-2.38-.09-3.56-.28l-4.98-.78,10.95,37.4ZM330.28,47.26c-10.9.15-19.76,9.14-19.76,20.05l.12,14.33,36.56,166.69,5.34,8.13-1.99-189.37c-.08-10.93-9.07-19.83-20.05-19.83h-.23ZM278.39,30.34c-1.45,0-2.92.15-4.37.44-9.16,2.1-15.74,10.32-15.74,19.55,0,1.59.24,3.01.5,4.31l30.79,137.52,22.53,12.72.07.04c.12.06.33.22.53.48l28.8,36.72-2.74-13.36-32.71-146.3-8.18-36.45c-1.18-5.26-4.3-9.72-8.78-12.55-3.2-2.04-6.91-3.12-10.7-3.12Z" style="fill: #fff;"/>
</svg>