<?xml version="1.0" encoding="UTF-8"?>
<svg id="Calque_1" data-name="Calque 1" xmlns="http://www.w3.org/2000/svg" xmlns:xlink="http://www.w3.org/1999/xlink" viewBox="0 0 500 500">
  <defs>
    <linearGradient id="Nouvelle_nuance_de_dégradé_2" data-name="Nouvelle nuance de dégradé 2" x1="38" y1="250" x2="472" y2="250" gradientUnits="userSpaceOnUse">
      <stop offset="0" stop-color="#00d85d"/>
      <stop offset="1" stop-color="#0ebdb3"/>
    </linearGradient>
  </defs>
  <path d="M80.86,327.4V35.71c0-1.5,1.22-2.71,2.71-2.71s2.71,1.22,2.71,2.71v374.4l137.27-137.28c.42-.42,1.14-.67,1.92-.67s1.5.25,1.92.67l74.8,74.8,141.63-141.71h-22.17c-1.5,0-2.71-1.22-2.71-2.71s1.22-2.71,2.71-2.71h28.3c1.5,0,2.71,1.22,2.71,2.71v28.31c0,1.5-1.22,2.71-2.71,2.71s-2.71-1.22-2.71-2.71v-21.35l-143.14,143.22c-.69.69-1.5.79-1.92.79s-1.23-.1-1.92-.8l-74.8-74.79-139.19,139.19v.93h383c1.5,0,2.71,1.22,2.71,2.71s-1.22,2.71-2.71,2.71H86.29v40.14c0,1.5-1.22,2.71-2.71,2.71s-2.71-1.22-2.71-2.71v-40.14h-40.14c-1.5,0-2.71-1.22-2.71-2.71s1.22-2.71,2.71-2.71h40.14v-91.31Z" style="fill: url(#Nouvelle_nuance_de_dégradé_2);"/>
  <path d="M70.86,327.4V35.71c0-1.5,1.22-2.71,2.71-2.71s2.71,1.22,2.71,2.71v374.4l137.27-137.28c.42-.42,1.14-.67,1.92-.67s1.5.25,1.92.67l74.8,74.8,141.63-141.71h-22.17c-1.5,0-2.71-1.22-2.71-2.71s1.22-2.71,2.71-2.71h28.3c1.5,0,2.71,1.22,2.71,2.71v28.31c0,1.5-1.22,2.71-2.71,2.71s-2.71-1.22-2.71-2.71v-21.35l-143.14,143.22c-.69.69-1.5.79-1.92.79s-1.23-.1-1.92-.8l-74.8-74.79-139.19,139.19v.93h383c1.5,0,2.71,1.22,2.71,2.71s-1.22,2.71-2.71,2.71H76.29v40.14c0,1.5-1.22,2.71-2.71,2.71s-2.71-1.22-2.71-2.71v-40.14H30.71c-1.5,0-2.71-1.22-2.71-2.71s1.22-2.71,2.71-2.71h40.14v-91.31Z" style="fill: #fff;"/>
</svg>