<?xml version="1.0" encoding="UTF-8"?>
<svg id="Calque_1" data-name="Calque 1" xmlns="http://www.w3.org/2000/svg" xmlns:xlink="http://www.w3.org/1999/xlink" viewBox="0 0 500 500">
  <defs>
    <linearGradient id="Nouvelle_nuance_de_dégradé_2" data-name="Nouvelle nuance de dégradé 2" x1="283.45" y1="138.29" x2="431.45" y2="138.29" gradientUnits="userSpaceOnUse">
      <stop offset="0" stop-color="#00d85d"/>
      <stop offset="1" stop-color="#0ebdb3"/>
    </linearGradient>
    <linearGradient id="Nouvelle_nuance_de_dégradé_2-2" data-name="Nouvelle nuance de dégradé 2" y1="176.69" y2="176.69" xlink:href="#Nouvelle_nuance_de_dégradé_2"/>
    <linearGradient id="Nouvelle_nuance_de_dégradé_2-3" data-name="Nouvelle nuance de dégradé 2" y1="215.08" x2="367.45" y2="215.08" xlink:href="#Nouvelle_nuance_de_dégradé_2"/>
    <linearGradient id="Nouvelle_nuance_de_dégradé_2-4" data-name="Nouvelle nuance de dégradé 2" x1="26.25" y1="250" x2="481.25" y2="250" xlink:href="#Nouvelle_nuance_de_dégradé_2"/>
    <linearGradient id="Nouvelle_nuance_de_dégradé_2-5" data-name="Nouvelle nuance de dégradé 2" x1="113.11" y1="236.78" x2="186.99" y2="236.78" xlink:href="#Nouvelle_nuance_de_dégradé_2"/>
    <linearGradient id="Nouvelle_nuance_de_dégradé_2-6" data-name="Nouvelle nuance de dégradé 2" x1="142.52" y1="304.49" x2="164.74" y2="304.49" xlink:href="#Nouvelle_nuance_de_dégradé_2"/>
    <linearGradient id="Nouvelle_nuance_de_dégradé_2-7" data-name="Nouvelle nuance de dégradé 2" x1="94.04" y1="265.03" x2="137.15" y2="265.03" xlink:href="#Nouvelle_nuance_de_dégradé_2"/>
  </defs>
  <g>
    <path d="M428.95,135.79h-143c-1.38,0-2.5,1.12-2.5,2.5s1.12,2.5,2.5,2.5h143c1.38,0,2.5-1.12,2.5-2.5s-1.12-2.5-2.5-2.5Z" style="fill: url(#Nouvelle_nuance_de_dégradé_2);"/>
    <path d="M428.95,174.19h-143c-1.38,0-2.5,1.12-2.5,2.5s1.12,2.5,2.5,2.5h143c1.38,0,2.5-1.12,2.5-2.5s-1.12-2.5-2.5-2.5Z" style="fill: url(#Nouvelle_nuance_de_dégradé_2-2);"/>
    <path d="M364.95,212.58h-79c-1.38,0-2.5,1.12-2.5,2.5s1.12,2.5,2.5,2.5h79c1.38,0,2.5-1.12,2.5-2.5s-1.12-2.5-2.5-2.5Z" style="fill: url(#Nouvelle_nuance_de_dégradé_2-3);"/>
    <path d="M456.08,84.44h-197.26c-13.88,0-25.17,11.29-25.17,25.17v50.71H51.42c-13.88,0-25.17,11.29-25.17,25.17v138.01c0,13.88,11.29,25.17,25.17,25.17h104.56l59.33,66.06c.48.54,1.16.83,1.86.83.3,0,.6-.05.89-.17.97-.37,1.61-1.3,1.61-2.33v-64.39h29.01c13.88,0,25.17-11.29,25.17-25.17v-50.71h13.98v64.39c0,1.04.64,1.96,1.61,2.33.29.11.59.17.89.17.7,0,1.38-.29,1.86-.83l59.33-66.06h104.56c13.88,0,25.17-11.29,25.17-25.17V109.61c0-13.88-11.29-25.17-25.17-25.17ZM268.85,323.5c0,11.12-9.05,20.17-20.17,20.17h-31.51c-1.38,0-2.5,1.12-2.5,2.5v60.36l-55.72-62.04c-.47-.53-1.15-.83-1.86-.83H51.42c-11.12,0-20.17-9.05-20.17-20.17v-138.01c0-11.12,9.05-20.17,20.17-20.17h182.23v82.3c0,13.88,11.29,25.17,25.17,25.17h10.02v50.71ZM476.25,247.62c0,11.12-9.05,20.17-20.17,20.17h-105.67c-.71,0-1.39.3-1.86.83l-55.72,62.04v-60.37c0-1.38-1.12-2.5-2.5-2.5h-31.51c-11.12,0-20.17-9.05-20.17-20.17V109.61c0-11.12,9.05-20.17,20.17-20.17h197.26c11.12,0,20.17,9.05,20.17,20.17v138.01Z" style="fill: url(#Nouvelle_nuance_de_dégradé_2-4);"/>
    <path d="M149.17,189.56c-17.12,0-30.56,10.47-35.95,28-.41,1.32.33,2.72,1.65,3.12,1.32.4,2.72-.33,3.12-1.65,4.71-15.32,16.37-24.47,31.17-24.47,19.94,0,32.82,12.6,32.82,32.09,0,14.14-6.85,24.89-18.79,29.49-7.46,2.88-12.37,9.75-12.51,17.54l-.06,7.79c-.01,1.38,1.1,2.51,2.48,2.52h.02c1.37,0,2.49-1.11,2.5-2.48l.06-7.77c.1-5.72,3.75-10.8,9.31-12.94,13.77-5.31,21.99-18.08,21.99-34.16,0-22.18-15.2-37.09-37.82-37.09Z" style="fill: url(#Nouvelle_nuance_de_dégradé_2-5);"/>
    <path d="M153.63,293.38c-6.13,0-11.11,4.98-11.11,11.11s4.98,11.11,11.11,11.11,11.11-4.98,11.11-11.11-4.98-11.11-11.11-11.11ZM153.63,310.6c-3.37,0-6.11-2.74-6.11-6.11s2.74-6.11,6.11-6.11,6.11,2.74,6.11,6.11-2.74,6.11-6.11,6.11Z" style="fill: url(#Nouvelle_nuance_de_dégradé_2-6);"/>
    <path d="M132.97,250.74c-7.27-10.43-19.29-12.45-29.92-5.05-8.05,5.61-10.94,14.92-7.74,24.89.42,1.31,1.83,2.04,3.14,1.62,1.31-.42,2.04-1.83,1.62-3.14-2.53-7.89-.4-14.91,5.84-19.26,8.3-5.79,17.31-4.29,22.96,3.81,4.1,5.88,4.38,12.31.78,17.65-2.69,3.98-2.74,9.06-.12,12.97l2.39,3.49c.48.71,1.27,1.09,2.06,1.09.49,0,.98-.14,1.41-.44,1.14-.78,1.43-2.34.65-3.48l-2.38-3.47c-1.47-2.19-1.42-5.08.12-7.36,4.75-7.04,4.45-15.75-.82-23.31Z" style="fill: url(#Nouvelle_nuance_de_dégradé_2-7);"/>
  </g>
  <g>
    <g>
      <g>
        <path d="M418.95,140.79h-143c-1.38,0-2.5-1.12-2.5-2.5s1.12-2.5,2.5-2.5h143c1.38,0,2.5,1.12,2.5,2.5s-1.12,2.5-2.5,2.5Z" style="fill: #fff;"/>
        <path d="M418.95,179.19h-143c-1.38,0-2.5-1.12-2.5-2.5s1.12-2.5,2.5-2.5h143c1.38,0,2.5,1.12,2.5,2.5s-1.12,2.5-2.5,2.5Z" style="fill: #fff;"/>
        <path d="M354.95,217.58h-79c-1.38,0-2.5-1.12-2.5-2.5s1.12-2.5,2.5-2.5h79c1.38,0,2.5,1.12,2.5,2.5s-1.12,2.5-2.5,2.5Z" style="fill: #fff;"/>
      </g>
      <path d="M280.33,339.68c-.3,0-.6-.05-.89-.17-.97-.37-1.61-1.3-1.61-2.33v-64.39h-29.01c-13.88,0-25.17-11.29-25.17-25.17V109.61c0-13.88,11.29-25.17,25.17-25.17h197.26c13.88,0,25.17,11.29,25.17,25.17v138.01c0,13.88-11.29,25.17-25.17,25.17h-104.56l-59.33,66.06c-.48.54-1.16.83-1.86.83ZM248.82,89.44c-11.12,0-20.17,9.05-20.17,20.17v138.01c0,11.12,9.05,20.17,20.17,20.17h31.51c1.38,0,2.5,1.12,2.5,2.5v60.37l55.72-62.04c.47-.53,1.15-.83,1.86-.83h105.67c11.12,0,20.17-9.05,20.17-20.17V109.61c0-11.12-9.05-20.17-20.17-20.17h-197.26Z" style="fill: #fff;"/>
    </g>
    <path d="M207.17,415.56c-.7,0-1.38-.29-1.86-.83l-59.33-66.06H41.42c-6.7,0-13.01-2.62-17.78-7.39-4.77-4.77-7.39-11.08-7.39-17.78v-138.01c0-13.88,11.29-25.17,25.17-25.17h184.62c1.38,0,2.5,1.12,2.5,2.5s-1.12,2.5-2.5,2.5H41.42c-11.12,0-20.17,9.05-20.17,20.17v138.01c0,5.36,2.1,10.42,5.93,14.24,3.82,3.82,8.88,5.93,14.24,5.93h105.67c.71,0,1.39.3,1.86.83l55.72,62.04v-60.36c0-1.38,1.12-2.5,2.5-2.5h31.51c11.12,0,20.17-9.05,20.17-20.17v-52.1c0-1.38,1.12-2.5,2.5-2.5s2.5,1.12,2.5,2.5v52.1c0,13.88-11.29,25.17-25.17,25.17h-29.01v64.39c0,1.04-.64,1.96-1.61,2.33-.29.11-.59.17-.89.17Z" style="fill: #fff;"/>
    <g>
      <path d="M143.13,284h-.02c-1.38-.01-2.49-1.14-2.48-2.52l.06-7.79c.14-7.79,5.05-14.67,12.51-17.54,11.94-4.6,18.79-15.35,18.79-29.49,0-19.49-12.88-32.09-32.82-32.09-14.8,0-26.46,9.15-31.17,24.47-.41,1.32-1.81,2.06-3.12,1.65-1.32-.41-2.06-1.81-1.65-3.12,5.4-17.53,18.83-28,35.95-28,22.62,0,37.82,14.91,37.82,37.09,0,16.08-8.22,28.85-21.99,34.16-5.55,2.14-9.2,7.22-9.31,12.94l-.06,7.77c-.01,1.37-1.13,2.48-2.5,2.48Z" style="fill: #fff;"/>
      <path d="M143.63,315.6c-6.13,0-11.11-4.98-11.11-11.11s4.98-11.11,11.11-11.11,11.11,4.98,11.11,11.11-4.98,11.11-11.11,11.11ZM143.63,298.38c-3.37,0-6.11,2.74-6.11,6.11s2.74,6.11,6.11,6.11,6.11-2.74,6.11-6.11-2.74-6.11-6.11-6.11Z" style="fill: #fff;"/>
    </g>
    <path d="M123.98,288.79c-.8,0-1.58-.38-2.06-1.09l-2.39-3.49c-2.62-3.9-2.57-8.99.12-12.97,3.6-5.34,3.32-11.77-.78-17.65-5.65-8.1-14.66-9.59-22.96-3.81-6.24,4.35-8.37,11.38-5.84,19.26.42,1.31-.3,2.72-1.62,3.14-1.32.42-2.72-.3-3.14-1.62-3.2-9.97-.31-19.28,7.74-24.89,10.62-7.41,22.65-5.38,29.92,5.05,5.27,7.55,5.58,16.27.82,23.31-1.54,2.29-1.59,5.18-.12,7.36l2.38,3.47c.78,1.14.49,2.7-.65,3.48-.43.3-.92.44-1.41.44Z" style="fill: #fff;"/>
  </g>
</svg>