<?xml version="1.0" encoding="UTF-8"?>
<svg id="Calque_1" data-name="Calque 1" xmlns="http://www.w3.org/2000/svg" xmlns:xlink="http://www.w3.org/1999/xlink" viewBox="0 0 500 500">
  <defs>
    <linearGradient id="Nouvelle_nuance_de_dégradé_2" data-name="Nouvelle nuance de dégradé 2" x1="252.13" y1="371.88" x2="445.37" y2="371.88" gradientUnits="userSpaceOnUse">
      <stop offset="0" stop-color="#00d85d"/>
      <stop offset="1" stop-color="#0ebdb3"/>
    </linearGradient>
    <linearGradient id="Nouvelle_nuance_de_dégradé_2-2" data-name="Nouvelle nuance de dégradé 2" x1="64.63" y1="250" x2="389.13" y2="250" xlink:href="#Nouvelle_nuance_de_dégradé_2"/>
  </defs>
  <g>
    <path d="M444.53,313.59l-37.5-37.5c-.73-.73-1.59-.84-2.03-.84s-1.3.11-2.03.84l-150,150c-.54.54-.84,1.26-.84,2.03v37.5c0,1.58,1.29,2.88,2.88,2.88h37.5c.77,0,1.49-.3,2.03-.84l150-150c.73-.73.84-1.59.84-2.03s-.11-1.3-.84-2.03ZM291.31,462.75h-33.44v-33.44l109.63-109.63,33.44,33.44-109.62,109.62ZM405,349.06l-33.44-33.44,33.44-33.44,33.44,33.44-33.44,33.44Z" style="fill: url(#Nouvelle_nuance_de_dégradé_2);"/>
    <path d="M217.5,462.75H86.25c-8.75,0-15.88-7.12-15.88-15.88V90.63c0-8.75,7.12-15.88,15.88-15.88h53.38v15.88c0,1.59,1.29,2.88,2.88,2.88h168.75c1.58,0,2.88-1.29,2.88-2.88v-15.88h53.38c8.75,0,15.88,7.12,15.88,15.88v159.38c0,1.59,1.29,2.88,2.88,2.88s2.88-1.29,2.88-2.88V90.63c0-11.92-9.7-21.62-21.62-21.62h-53.57c-1.41-10.57-10.48-18.75-21.43-18.75h-37.01l-1.88-3.24c-5.54-9.57-15.79-15.51-26.73-15.51s-21.19,5.94-26.73,15.51l-1.88,3.24h-37.02c-10.95,0-20.02,8.18-21.43,18.75h-53.57c-11.92,0-21.62,9.7-21.62,21.62v356.25c0,11.92,9.7,21.62,21.62,21.62h131.25c1.58,0,2.88-1.29,2.88-2.88s-1.29-2.88-2.88-2.88ZM161.25,56h39.22c1.21,0,2.3-.76,2.7-1.91,3.6-10.07,13.12-16.84,23.7-16.84s20.1,6.77,23.71,16.86c.4,1.13,1.48,1.89,2.7,1.89h39.22c8.75,0,15.88,7.12,15.88,15.88v15.88h-163v-15.88c0-8.75,7.12-15.88,15.88-15.88Z" style="fill: url(#Nouvelle_nuance_de_dégradé_2-2);"/>
  </g>
  <g>
    <path d="M245,468.5c-1.58,0-2.88-1.29-2.88-2.88v-37.5c0-.77.3-1.49.84-2.03l150-150c.73-.73,1.59-.84,2.03-.84s1.3.11,2.03.84l37.5,37.5c.73.73.84,1.59.84,2.03s-.11,1.3-.84,2.03l-150,150c-.54.54-1.27.84-2.03.84h-37.5ZM247.88,429.31v33.44h33.44l147.12-147.12-33.44-33.44-147.12,147.12Z" style="fill: #fff;"/>
    <path d="M395,356c-.44,0-1.3-.11-2.03-.84l-37.5-37.5c-.73-.73-.84-1.59-.84-2.03s.11-1.3.84-2.03c.73-.73,1.59-.84,2.03-.84s1.3.11,2.03.84l37.5,37.5c.73.73.84,1.59.84,2.03s-.11,1.3-.84,2.03c-.73.73-1.59.84-2.03.84Z" style="fill: #fff;"/>
    <path d="M376.25,252.88c-1.58,0-2.88-1.29-2.88-2.88V90.63c0-8.75-7.12-15.88-15.88-15.88h-56.25c-1.58,0-2.88-1.29-2.88-2.88s1.29-2.88,2.88-2.88h56.25c11.92,0,21.62,9.7,21.62,21.62v159.38c0,1.59-1.29,2.88-2.88,2.88Z" style="fill: #fff;"/>
    <path d="M76.25,468.5c-11.92,0-21.62-9.7-21.62-21.62V90.63c0-11.92,9.7-21.62,21.62-21.62h56.25c1.58,0,2.88,1.29,2.88,2.88s-1.29,2.88-2.88,2.88h-56.25c-8.75,0-15.88,7.12-15.88,15.88v356.25c0,8.75,7.12,15.88,15.88,15.88h131.25c1.58,0,2.88,1.29,2.88,2.88s-1.29,2.88-2.88,2.88H76.25Z" style="fill: #fff;"/>
    <path d="M132.5,93.5c-1.58,0-2.88-1.29-2.88-2.88v-18.75c0-11.92,9.7-21.62,21.62-21.62h37.02l1.88-3.24c5.54-9.57,15.79-15.51,26.73-15.51s21.19,5.94,26.73,15.51l1.88,3.24h37.01c11.92,0,21.62,9.7,21.62,21.62v18.75c0,1.59-1.29,2.88-2.88,2.88h-168.75ZM151.25,56c-8.75,0-15.88,7.12-15.88,15.88v15.88h163v-15.88c0-8.75-7.12-15.88-15.88-15.88h-39.22c-1.21,0-2.3-.76-2.7-1.89-3.6-10.09-13.13-16.86-23.71-16.86s-20.1,6.77-23.7,16.84c-.41,1.15-1.49,1.91-2.7,1.91h-39.22Z" style="fill: #fff;"/>
  </g>
</svg>