<?xml version="1.0" encoding="UTF-8"?>
<svg id="Calque_1" data-name="Calque 1" xmlns="http://www.w3.org/2000/svg" xmlns:xlink="http://www.w3.org/1999/xlink" viewBox="0 0 500 500">
  <defs>
    <linearGradient id="Nouvelle_nuance_de_dégradé_2" data-name="Nouvelle nuance de dégradé 2" x1="171.43" y1="248.75" x2="350.35" y2="248.75" gradientUnits="userSpaceOnUse">
      <stop offset="0" stop-color="#00d85d"/>
      <stop offset="1" stop-color="#0ebdb3"/>
    </linearGradient>
    <linearGradient id="Nouvelle_nuance_de_dégradé_2-2" data-name="Nouvelle nuance de dégradé 2" x1="217.37" y1="243.64" x2="304.36" y2="243.64" xlink:href="#Nouvelle_nuance_de_dégradé_2"/>
    <linearGradient id="Nouvelle_nuance_de_dégradé_2-3" data-name="Nouvelle nuance de dégradé 2" x1="271.68" y1="87.8" x2="283.56" y2="87.8" xlink:href="#Nouvelle_nuance_de_dégradé_2"/>
    <linearGradient id="Nouvelle_nuance_de_dégradé_2-4" data-name="Nouvelle nuance de dégradé 2" x1="271.68" y1="124.36" x2="283.56" y2="124.36" xlink:href="#Nouvelle_nuance_de_dégradé_2"/>
    <linearGradient id="Nouvelle_nuance_de_dégradé_2-5" data-name="Nouvelle nuance de dégradé 2" x1="271.68" y1="160.93" x2="283.56" y2="160.93" xlink:href="#Nouvelle_nuance_de_dégradé_2"/>
    <linearGradient id="Nouvelle_nuance_de_dégradé_2-6" data-name="Nouvelle nuance de dégradé 2" x1="271.68" y1="197.49" x2="283.56" y2="197.49" xlink:href="#Nouvelle_nuance_de_dégradé_2"/>
    <linearGradient id="Nouvelle_nuance_de_dégradé_2-7" data-name="Nouvelle nuance de dégradé 2" x1="271.68" y1="234.06" x2="283.56" y2="234.06" xlink:href="#Nouvelle_nuance_de_dégradé_2"/>
    <linearGradient id="Nouvelle_nuance_de_dégradé_2-8" data-name="Nouvelle nuance de dégradé 2" x1="271.68" y1="270.62" x2="283.56" y2="270.62" xlink:href="#Nouvelle_nuance_de_dégradé_2"/>
    <linearGradient id="Nouvelle_nuance_de_dégradé_2-9" data-name="Nouvelle nuance de dégradé 2" x1="243.37" y1="387.76" x2="278.36" y2="387.76" xlink:href="#Nouvelle_nuance_de_dégradé_2"/>
  </defs>
  <g>
    <g>
      <path d="M260.89,476.25c-49.33,0-89.46-40.13-89.46-89.46,0-32.99,18.03-63.03,47.17-78.76V63.55c0-23.32,18.97-42.3,42.3-42.3s42.3,18.97,42.3,42.3v244.48c29.13,15.73,47.17,45.77,47.17,78.76,0,49.33-40.13,89.46-89.46,89.46ZM260.89,26.25c-20.57,0-37.3,16.73-37.3,37.3v247.5l-1.35.7c-28.26,14.66-45.82,43.42-45.82,75.04,0,46.57,37.89,84.46,84.46,84.46s84.46-37.89,84.46-84.46c0-31.62-17.56-60.37-45.82-75.04l-1.35-.7V63.55c0-20.57-16.73-37.3-37.3-37.3Z" style="fill: url(#Nouvelle_nuance_de_dégradé_2);"/>
      <path d="M260.91,430.3c-13.6,0-26.15-6.14-34.45-16.85-14.69-18.97-11.21-46.35,7.76-61.04,4.31-3.34,9.12-5.79,14.31-7.32V69.31c0-6.8,5.53-12.33,12.33-12.33s12.33,5.53,12.33,12.33v275.79c8.82,2.58,16.42,7.76,22.08,15.06h0c14.69,18.97,11.21,46.35-7.76,61.04-7.68,5.95-16.88,9.09-26.6,9.09ZM260.86,61.98c-4.04,0-7.33,3.29-7.33,7.33v279.65l-1.9.47c-5.25,1.29-10.08,3.62-14.35,6.93-16.79,13-19.87,37.24-6.87,54.03,7.34,9.48,18.46,14.92,30.5,14.92,8.6,0,16.74-2.78,23.53-8.05,16.79-13,19.87-37.24,6.87-54.03-5.36-6.92-12.7-11.69-21.22-13.78l-1.9-.47V69.31c0-4.04-3.29-7.33-7.33-7.33Z" style="fill: url(#Nouvelle_nuance_de_dégradé_2-2);"/>
      <rect x="271.68" y="85.3" width="11.87" height="5" style="fill: url(#Nouvelle_nuance_de_dégradé_2-3);"/>
      <rect x="271.68" y="121.86" width="11.87" height="5" style="fill: url(#Nouvelle_nuance_de_dégradé_2-4);"/>
      <rect x="271.68" y="158.43" width="11.87" height="5" style="fill: url(#Nouvelle_nuance_de_dégradé_2-5);"/>
      <rect x="271.68" y="194.99" width="11.87" height="5" style="fill: url(#Nouvelle_nuance_de_dégradé_2-6);"/>
      <rect x="271.68" y="231.56" width="11.87" height="5" style="fill: url(#Nouvelle_nuance_de_dégradé_2-7);"/>
      <rect x="271.68" y="268.12" width="11.87" height="5" style="fill: url(#Nouvelle_nuance_de_dégradé_2-8);"/>
      <path d="M260.86,405.26c-9.65,0-17.5-7.85-17.5-17.5s7.85-17.5,17.5-17.5,17.5,7.85,17.5,17.5-7.85,17.5-17.5,17.5ZM260.86,375.26c-6.89,0-12.5,5.61-12.5,12.5s5.61,12.5,12.5,12.5,12.5-5.61,12.5-12.5-5.61-12.5-12.5-12.5Z" style="fill: url(#Nouvelle_nuance_de_dégradé_2-9);"/>
    </g>
    <g>
      <path d="M250.89,476.25c-49.33,0-89.46-40.13-89.46-89.46,0-32.99,18.03-63.03,47.17-78.76V63.55c0-23.32,18.97-42.3,42.3-42.3s42.3,18.97,42.3,42.3v244.48c29.13,15.73,47.17,45.77,47.17,78.76,0,49.33-40.13,89.46-89.46,89.46ZM250.89,26.25c-20.57,0-37.3,16.73-37.3,37.3v247.5l-1.35.7c-28.26,14.66-45.82,43.42-45.82,75.04,0,46.57,37.89,84.46,84.46,84.46s84.46-37.89,84.46-84.46c0-31.62-17.56-60.37-45.82-75.04l-1.35-.7V63.55c0-20.57-16.73-37.3-37.3-37.3Z" style="fill: #fff;"/>
      <path d="M250.91,430.3c-13.6,0-26.15-6.14-34.45-16.85-7.11-9.18-10.21-20.58-8.74-32.13,1.47-11.54,7.33-21.81,16.5-28.92,4.31-3.34,9.12-5.79,14.31-7.32V69.31c0-6.8,5.53-12.33,12.33-12.33s12.33,5.53,12.33,12.33v275.79c8.82,2.58,16.42,7.76,22.08,15.06,14.69,18.97,11.21,46.35-7.76,61.04-7.68,5.95-16.88,9.09-26.6,9.09ZM250.86,61.98c-4.04,0-7.33,3.29-7.33,7.33v279.65l-1.9.47c-5.25,1.29-10.08,3.62-14.35,6.93-8.12,6.29-13.31,15.38-14.61,25.59-1.3,10.22,1.45,20.32,7.74,28.43,7.34,9.48,18.46,14.92,30.5,14.92,8.6,0,16.74-2.78,23.53-8.05,16.79-13,19.87-37.24,6.87-54.03h0c-5.36-6.92-12.7-11.69-21.22-13.78l-1.9-.47V69.31c0-4.04-3.29-7.33-7.33-7.33Z" style="fill: #fff;"/>
      <path d="M273.56,90.3h-11.87c-1.38,0-2.5-1.12-2.5-2.5s1.12-2.5,2.5-2.5h11.87c1.38,0,2.5,1.12,2.5,2.5s-1.12,2.5-2.5,2.5Z" style="fill: #fff;"/>
      <path d="M273.56,126.86h-11.87c-1.38,0-2.5-1.12-2.5-2.5s1.12-2.5,2.5-2.5h11.87c1.38,0,2.5,1.12,2.5,2.5s-1.12,2.5-2.5,2.5Z" style="fill: #fff;"/>
      <path d="M273.56,163.43h-11.87c-1.38,0-2.5-1.12-2.5-2.5s1.12-2.5,2.5-2.5h11.87c1.38,0,2.5,1.12,2.5,2.5s-1.12,2.5-2.5,2.5Z" style="fill: #fff;"/>
      <path d="M273.56,199.99h-11.87c-1.38,0-2.5-1.12-2.5-2.5s1.12-2.5,2.5-2.5h11.87c1.38,0,2.5,1.12,2.5,2.5s-1.12,2.5-2.5,2.5Z" style="fill: #fff;"/>
      <path d="M273.56,236.56h-11.87c-1.38,0-2.5-1.12-2.5-2.5s1.12-2.5,2.5-2.5h11.87c1.38,0,2.5,1.12,2.5,2.5s-1.12,2.5-2.5,2.5Z" style="fill: #fff;"/>
      <path d="M273.56,273.12h-11.87c-1.38,0-2.5-1.12-2.5-2.5s1.12-2.5,2.5-2.5h11.87c1.38,0,2.5,1.12,2.5,2.5s-1.12,2.5-2.5,2.5Z" style="fill: #fff;"/>
      <path d="M250.86,405.26c-9.65,0-17.5-7.85-17.5-17.5s7.85-17.5,17.5-17.5,17.5,7.85,17.5,17.5-7.85,17.5-17.5,17.5ZM250.86,375.26c-6.89,0-12.5,5.61-12.5,12.5s5.61,12.5,12.5,12.5,12.5-5.61,12.5-12.5-5.61-12.5-12.5-12.5Z" style="fill: #fff;"/>
    </g>
  </g>
  <path d="M250,6c32.94,0,64.9,6.45,94.97,19.17,29.05,12.29,55.15,29.88,77.56,52.29s40,48.51,52.29,77.56c12.72,30.08,19.17,62.03,19.17,94.97s-6.45,64.9-19.17,94.97c-12.29,29.05-29.88,55.15-52.29,77.56s-48.51,40-77.56,52.29c-30.08,12.72-62.03,19.17-94.97,19.17s-64.9-6.45-94.97-19.17c-29.05-12.29-55.15-29.88-77.56-52.29-22.41-22.41-40-48.51-52.29-77.56-12.72-30.08-19.17-62.03-19.17-94.97s6.45-64.9,19.17-94.97c12.29-29.05,29.88-55.15,52.29-77.56,22.41-22.41,48.51-40,77.56-52.29,30.08-12.72,62.03-19.17,94.97-19.17M250,1C112.48,1,1,112.48,1,250s111.48,249,249,249,249-111.48,249-249S387.52,1,250,1h0Z" style="fill: #fff;"/>
</svg>